<svg width="175" height="171" viewBox="0 0 175 171" fill="none" xmlns="http://www.w3.org/2000/svg">
<g clip-path="url(#clip0)">
<path d="M140.185 118.575C138.202 123.563 135.931 128.456 133.925 133.449C129.984 143.28 122.187 158.741 132.888 167.101C136.512 169.934 141.328 171.05 145.86 171.004C149.137 170.422 152.387 169.133 154.584 166.724C155.503 165.713 156.172 164.499 156.537 163.18C157.035 159.009 155.54 154.118 154.691 150.551C151.933 138.905 147.921 127.671 140.185 118.575ZM147.345 162.621C145.75 163.359 143.819 163.706 142.076 163.756C125.786 164.22 134.914 140.749 140.403 128.837C143.37 134.424 145.667 140.343 147.247 146.471C148.22 150.279 149.008 154.193 149.322 158.111C149.481 160.177 149.423 161.663 147.353 162.617L147.345 162.621Z" fill="#ABBDD7"/>
<path d="M174.073 65.5133C166.471 56.2512 157.459 48.2482 147.37 41.7991C147.609 41.4574 147.794 41.081 147.92 40.683C150.425 32.8946 153.271 25.229 156.523 17.7254C158.458 13.2628 151.896 9.37174 149.944 13.8718C146.537 21.7329 143.501 29.7325 140.836 37.8707C140.836 37.8852 140.826 37.8998 140.822 37.9143C131.148 32.5737 120.731 28.7127 109.917 26.4595C109.623 26.3992 109.328 26.3472 109.034 26.289C109.101 26.0111 109.14 25.7269 109.15 25.441C109.15 25.204 109.17 24.9671 109.179 24.728C109.455 17.7136 109.736 10.6992 110.021 3.68483C110.228 -1.22885 102.597 -1.22054 102.4 3.68483C102.142 10.1976 101.882 16.7104 101.62 23.2232L101.546 25.0772C91.0098 23.7374 80.3391 23.8731 69.8404 25.4805C69.8018 25.2381 69.7421 24.9995 69.662 24.7675C69.5085 24.3269 69.3675 23.8841 69.2161 23.4435C66.8654 16.6065 64.7601 9.69599 62.9003 2.71207C61.6372 -2.02909 54.2843 -0.0170542 55.5537 4.74282C57.3775 11.5826 59.4351 18.349 61.7263 25.0419C61.9338 25.6239 62.1142 26.208 62.3154 26.7879C62.3154 26.817 62.3382 26.844 62.3507 26.8731C51.7893 29.201 41.6271 33.0732 32.1905 38.3654L32.0847 38.2199C28.1991 32.7949 24.3129 27.3713 20.4259 21.949C17.5905 17.9998 10.9782 21.8014 13.8467 25.8026C17.7738 31.2817 21.7008 36.7614 25.6279 42.2419C25.6528 42.2772 25.6818 42.3105 25.7108 42.3458C15.4977 49.1905 6.62868 58.016 0.528608 68.7725C-0.952334 71.3831 0.920618 73.8296 3.15655 74.3845C3.51187 74.4721 3.87783 74.5085 4.2434 74.4926C5.3344 74.4406 6.39844 73.8877 7.1078 72.6365L7.20944 72.4681C7.55375 71.8653 7.90428 71.2688 8.26725 70.6785C8.41659 70.4394 8.57215 70.2066 8.72357 69.9676C8.97661 69.5665 9.22966 69.1632 9.491 68.7683C9.67146 68.5002 9.8602 68.2383 10.0427 67.9701C10.2854 67.6168 10.526 67.2593 10.777 66.9101C10.9844 66.6211 11.1918 66.3405 11.4117 66.0558C11.646 65.7378 11.8783 65.4156 12.1189 65.1038C12.3595 64.792 12.5898 64.5114 12.8262 64.2142C13.0627 63.917 13.2846 63.6301 13.519 63.3454C13.7534 63.0606 14.0355 62.7384 14.2927 62.435C14.5208 62.1689 14.7427 61.8987 14.9751 61.6368C15.2468 61.3271 15.5289 61.0257 15.8047 60.7202C16.0308 60.4728 16.2527 60.2213 16.4809 59.9781C16.7733 59.6684 17.072 59.3649 17.3686 59.0594C17.5926 58.8287 17.8125 58.5959 18.0406 58.3693C18.3518 58.0555 18.6629 57.7458 18.9885 57.4444C19.2084 57.2365 19.4241 57.0287 19.646 56.8208C19.9779 56.5069 20.316 56.1972 20.652 55.8979C20.8594 55.7025 21.0813 55.503 21.2991 55.3097C21.6517 54.9979 22.0085 54.6861 22.3652 54.3889C22.5726 54.2081 22.7801 54.0252 22.9875 53.8464C23.3587 53.5346 23.7404 53.2228 24.1179 52.9256C24.3253 52.7614 24.5203 52.5972 24.7235 52.4351C25.1197 52.1233 25.5221 51.8115 25.9245 51.5122C26.1174 51.3667 26.3082 51.217 26.5032 51.0715C26.918 50.7618 27.3328 50.4584 27.7663 50.1549C27.9509 50.0219 28.1334 49.8868 28.318 49.7558C28.7578 49.4461 29.2037 49.1447 29.6476 48.8433C29.8218 48.7269 29.9939 48.6064 30.1702 48.49C30.6307 48.1824 31.0974 47.8831 31.5641 47.5858C31.7279 47.4798 31.8897 47.378 32.0557 47.2699C32.5389 46.9643 33.0284 46.6692 33.5076 46.374C33.659 46.2826 33.8083 46.189 33.9597 46.0997C34.4679 45.7962 34.9823 45.501 35.4967 45.21L35.9115 44.9752C36.4404 44.6779 36.9735 44.389 37.5107 44.1001L37.8861 43.8922C38.4357 43.5992 38.9916 43.3144 39.5454 43.0317L39.8773 42.8634C40.4497 42.5765 41.0257 42.2959 41.605 42.0215L41.9016 41.8781C42.4948 41.601 43.0915 41.3238 43.6916 41.0467L43.9426 40.9324C44.5648 40.658 45.1746 40.394 45.7927 40.1321L46.0001 40.0407C46.6335 39.7774 47.2688 39.519 47.9063 39.2654L48.0784 39.1968C48.7297 38.9404 49.3838 38.691 50.0406 38.4485L50.1754 38.3986C50.8433 38.152 51.5132 37.9123 52.1853 37.6795L52.2848 37.6441C52.9665 37.4086 53.651 37.1806 54.3382 36.9603L54.4088 36.9353C55.1001 36.7122 55.7957 36.4961 56.4953 36.2868L56.5451 36.2723C57.2503 36.0644 57.9555 35.8566 58.6628 35.6612H58.6877C59.3985 35.463 60.112 35.2725 60.8282 35.0896H60.8386C62.5519 34.6517 64.2672 34.254 65.9846 33.8965C69.2119 33.2314 72.4614 32.7242 75.7331 32.375C76.8794 32.2531 78.0264 32.1492 79.1741 32.0632H79.2674C80.4234 31.9773 81.5787 31.908 82.7333 31.8554H82.7561C83.9066 31.8097 85.0584 31.7833 86.2117 31.7764H86.2677C87.4278 31.7764 88.5872 31.7889 89.746 31.8138H89.773C90.9324 31.8471 92.0939 31.899 93.2513 31.9697C94.4128 32.0404 95.5737 32.1304 96.7338 32.2399H96.7566C99.0741 32.4602 101.383 32.7568 103.682 33.1295H103.695C114.435 34.8702 124.84 38.2761 134.535 43.225L134.84 43.383C135.929 43.9442 137.01 44.5179 138.078 45.1186C149.791 51.7243 160.164 60.4714 168.661 70.9071C169.346 71.7385 170.138 72.1314 170.926 72.1917C173.747 72.4058 176.481 68.4544 174.073 65.5133Z" fill="#141316"/>
<path d="M146.004 87.2636C146.056 87.8627 146.25 88.4407 146.57 88.9493C148.921 92.8113 151.402 96.5866 154.012 100.275C155.203 101.955 157.331 102.751 159.225 101.645C160.884 100.674 161.788 98.1116 160.591 96.4217C157.979 92.733 155.499 88.9577 153.149 85.0957C152.947 84.7613 152.699 84.4575 152.411 84.1936C150.304 85.2731 148.168 86.2964 146.004 87.2636Z" fill="#141316"/>
<path d="M110.287 98.3902C110.309 98.6088 110.347 98.8256 110.401 99.0387C111.646 103.75 112.965 108.445 114.359 113.125C115.767 117.82 123.122 115.827 121.707 111.096C120.305 106.424 118.986 101.728 117.75 97.0079C117.729 96.931 117.702 96.8603 117.679 96.7876C116.207 97.1368 114.73 97.4631 113.251 97.779C112.266 97.9869 111.276 98.1948 110.287 98.3902Z" fill="#141316"/>
<path d="M72.6874 102.522C71.418 102.522 70.1507 102.496 68.8854 102.443C69.0213 106.306 68.9403 110.173 68.6428 114.027C68.2611 118.926 75.8815 118.901 76.2632 114.027C76.5587 110.183 76.6397 106.326 76.5059 102.472C75.231 102.51 73.9581 102.527 72.6874 102.522Z" fill="#141316"/>
<path d="M19.7671 103.424C18.4832 108.174 25.8299 110.198 27.1158 105.455L30.7767 91.9342C28.3873 90.9677 26.0311 89.9429 23.7246 88.8413L19.7671 103.424Z" fill="#141316"/>
<path d="M87.1568 67.374C93.1822 65.9959 94.5885 58.3718 91.0791 53.9217C90.8797 53.6734 90.6664 53.4368 90.4402 53.2129C90.3863 53.1609 90.3344 53.1069 90.2805 53.057C90.0623 52.8486 89.8324 52.6529 89.5919 52.4708L89.4778 52.3919C89.2704 52.2422 89.063 52.105 88.8369 51.9761C88.7643 51.9346 88.6917 51.8909 88.6191 51.8514C88.3785 51.7205 88.1317 51.602 87.8828 51.496C87.7936 51.4607 87.7023 51.4295 87.6132 51.3962C87.4348 51.3276 87.2543 51.2674 87.0718 51.2133C86.9619 51.1801 86.8519 51.1447 86.7399 51.1177C86.5097 51.0574 86.2774 51.0117 86.043 50.9722C85.8958 50.9473 85.7464 50.9306 85.5992 50.914C85.4519 50.8974 85.3668 50.8911 85.2507 50.8828C84.9263 50.8593 84.6008 50.8544 84.2759 50.8683H84.1514C83.9564 50.8787 83.7635 50.8974 83.5706 50.9202L83.4338 50.9389C83.0434 50.9915 82.6568 51.0692 82.2764 51.1717H82.2577C82.0503 51.2279 81.8429 51.2923 81.6355 51.363C80.9042 51.6224 80.2103 51.9774 79.5717 52.4189C79.3643 52.5706 79.1444 52.7327 78.9495 52.9032L78.8292 53.005C78.6563 53.1547 78.4883 53.3126 78.3251 53.4789C78.2359 53.5704 78.1509 53.6681 78.0638 53.7658C77.9767 53.8635 77.8336 54.0194 77.7257 54.1565C77.5266 54.4086 77.3417 54.6716 77.1719 54.9443C74.0358 60.07 77.7651 67.056 83.6308 67.6234C84.3312 67.6902 85.0375 67.6602 85.7298 67.5341C86.2096 67.5284 86.6877 67.4748 87.1568 67.374Z" fill="#141316"/>
<path d="M168.686 70.9096C160.191 60.4745 149.819 51.7274 138.109 45.1211C137.04 44.5204 135.96 43.9446 134.871 43.3855L134.566 43.2275C133.451 42.6594 132.329 42.1113 131.198 41.5834C131.21 41.9783 131.005 42.2256 130.725 42.2256C130.445 42.2256 130.31 42.0178 130.268 41.7642C130.251 41.6683 130.261 41.5694 130.298 41.4791C130.334 41.3888 130.396 41.311 130.476 41.255C121.959 37.3629 112.96 34.631 103.719 33.132H103.707C101.409 32.7606 99.1001 32.4641 96.7812 32.2424H96.7584C95.5983 32.1343 94.4374 32.0442 93.2759 31.9722C92.1185 31.9015 90.957 31.8495 89.7976 31.8163H89.7706C88.6118 31.7858 87.4524 31.7733 86.2923 31.7789H86.2362C85.0858 31.7872 83.9339 31.8135 82.7807 31.8579H82.7579C81.6019 31.9064 80.4466 31.9756 79.292 32.0657H79.1987C78.051 32.1516 76.904 32.2555 75.7577 32.3775C75.7537 32.5911 75.7116 32.8023 75.6332 33.0011C75.6021 33.0738 75.4652 33.1694 75.4092 33.1528C75.2785 33.1154 75.0877 33.0322 75.0649 32.9345C75.0278 32.7781 75.0132 32.6171 75.0213 32.4565C72.0595 32.7974 69.11 33.2671 66.173 33.8657C66.1215 33.9595 66.0458 34.0376 65.9539 34.0921C65.8619 34.1466 65.7571 34.1754 65.6503 34.1754C65.4915 34.1822 65.3337 34.1478 65.192 34.0757C63.7511 34.3833 62.311 34.7214 60.8715 35.09H60.8611C60.1462 35.2729 59.4327 35.4634 58.7206 35.6616H58.6957C57.9884 35.857 57.2832 36.0628 56.578 36.2727L56.5282 36.2872C55.8368 36.4965 55.1413 36.7126 54.4416 36.9357L54.3711 36.9607C53.6797 37.181 52.9953 37.409 52.3177 37.6445L52.2182 37.6799C51.5461 37.9127 50.8762 38.1524 50.2083 38.399L50.0735 38.4489C49.4181 38.6914 48.764 38.9408 48.1113 39.1972L47.9392 39.2658C47.3017 39.5194 46.6664 39.7778 46.0331 40.0411L45.8256 40.1325C45.2075 40.3931 44.5908 40.6598 43.9755 40.9328L43.7245 41.0471C43.1258 41.3146 42.5291 41.5917 41.9345 41.8785L41.6379 42.022C41.0586 42.2991 40.4826 42.5797 39.9102 42.8638L39.5783 43.0321C39.0204 43.3148 38.4645 43.5996 37.919 43.8926L37.5436 44.1005C37.0064 44.3894 36.4733 44.6783 35.9444 44.9756L35.5296 45.2104C35.0152 45.5014 34.4925 45.7966 33.9926 46.1001C33.8412 46.1894 33.6919 46.283 33.5404 46.3744C33.0509 46.6696 32.5615 46.9647 32.0885 47.2703C31.9226 47.3742 31.7608 47.4781 31.597 47.5862C31.1303 47.8834 30.6636 48.1828 30.2032 48.4904C30.0268 48.6068 29.8547 48.7273 29.6805 48.8437C29.2366 49.1451 28.7907 49.4465 28.3509 49.7562C28.1663 49.8872 27.9838 50.0223 27.7992 50.1553C27.3844 50.4588 26.953 50.7622 26.5361 51.0719C26.3411 51.2174 26.1503 51.3671 25.9574 51.5126C25.555 51.8181 25.1526 52.1237 24.7564 52.4355C24.549 52.5976 24.3541 52.7618 24.1508 52.926C23.7733 53.2316 23.3937 53.535 23.0204 53.8468C22.813 54.0256 22.6055 54.2085 22.3981 54.3893C22.0414 54.6949 21.6846 54.9983 21.332 55.3101C21.1142 55.5034 20.9027 55.703 20.6849 55.8983C20.3489 56.2039 20.0108 56.5094 19.6789 56.8212C19.457 57.0291 19.2413 57.2369 19.0214 57.4448C18.7041 57.7524 18.3847 58.0559 18.0735 58.3697C17.8454 58.5963 17.6255 58.8291 17.4015 59.0598C17.1049 59.3653 16.8062 59.6688 16.5138 59.9785C16.2856 60.2217 16.0637 60.4732 15.8376 60.7206C15.5597 61.0261 15.2776 61.3275 15.0079 61.6372C14.7756 61.8991 14.5537 62.1693 14.3256 62.4354C14.0684 62.7388 13.807 63.0381 13.5519 63.3458C13.2968 63.6534 13.0894 63.9257 12.8591 64.2146C12.6289 64.5035 12.3841 64.8028 12.1518 65.1042C11.9195 65.4056 11.6789 65.7278 11.4446 66.0562C11.2371 66.341 11.0152 66.6216 10.8099 66.9105C10.5589 67.2597 10.3183 67.6172 10.0756 67.9705C9.89309 68.2387 9.70435 68.5006 9.5239 68.7687C9.26255 69.1636 9.0095 69.5669 8.75646 69.968C8.60505 70.2071 8.44948 70.4398 8.30014 70.6789C7.93717 71.2692 7.58664 71.8657 7.24233 72.4685L7.1407 72.6369C6.43134 73.884 5.36731 74.441 4.2763 74.493C3.91074 74.5089 3.54477 74.4725 3.18945 74.3849C3.37991 75.0426 3.75329 75.6323 4.26594 76.0852C5.37146 77.1057 6.51638 78.066 7.67998 78.9951C7.69864 78.9951 7.71524 78.9951 7.73391 78.9951C7.90067 79.001 8.06029 79.0644 8.18578 79.1746C8.31126 79.2848 8.39489 79.4351 8.42252 79.6C13.1661 83.2832 18.3349 86.2846 23.7484 88.8579C26.0632 89.9595 28.4194 90.9842 30.8005 91.9507C31.4131 92.1988 32.0263 92.4427 32.6403 92.6824C43.8179 97.0473 55.6343 101.799 67.7266 102.412C68.1206 102.433 68.5168 102.445 68.9109 102.46C70.1734 102.507 71.4407 102.533 72.7128 102.539C73.985 102.544 75.2578 102.528 76.5313 102.489C85.195 102.235 93.9376 101.094 102.398 99.7868C105.043 99.3795 107.681 98.9187 110.311 98.4046C111.3 98.2113 112.29 98.0055 113.275 97.7935C114.125 97.6106 114.974 97.4229 115.822 97.2303C115.805 96.8869 115.855 96.5436 115.971 96.2201C116.03 96.0296 116.136 95.8567 116.277 95.7168C116.419 95.5768 116.593 95.4741 116.784 95.4177C117.18 95.2737 117.606 95.2363 118.021 95.3092C118.436 95.3822 118.824 95.563 119.147 95.8335C119.232 95.8959 119.3 95.9791 119.344 96.0751C119.388 96.171 119.408 96.2767 119.4 96.3822C124.873 95.044 130.273 93.422 135.578 91.5225C139.118 90.2435 142.601 88.8308 146.028 87.2844C148.189 86.3144 150.325 85.291 152.435 84.2144C158.508 81.1228 164.323 77.5458 169.822 73.5182C170.297 73.1729 170.69 72.7282 170.976 72.2149C170.162 72.1339 169.37 71.7452 168.686 70.9096ZM13.0251 69.5731C13.0458 69.5731 13.0873 69.5939 13.1184 69.6084C13.1039 69.6417 13.0956 69.6916 13.0728 69.702C13.0499 69.7124 13.0085 69.6791 12.9753 69.6645C12.9919 69.6313 13.0002 69.5835 13.0251 69.5731ZM13.4523 78.3633C13.2719 78.3113 13.1142 78.0432 13.0375 77.8395C13.013 77.7829 13.0001 77.7219 12.9998 77.6602C12.9994 77.5985 13.0115 77.5373 13.0353 77.4804C13.0592 77.4235 13.0943 77.372 13.1385 77.329C13.1827 77.2861 13.2351 77.2526 13.2926 77.2304C13.5666 77.1544 13.8531 77.1353 14.1347 77.1743C14.2343 77.1743 14.3152 77.3822 14.3774 77.4445C14.421 77.96 13.8941 78.4942 13.4523 78.3633ZM18.7684 83.6054C18.5718 83.6378 18.37 83.6067 18.1921 83.5167C18.0143 83.4266 17.8696 83.2823 17.779 83.1044C17.6892 82.9554 17.6329 82.7887 17.6139 82.6156C17.5949 82.4426 17.6138 82.2676 17.6691 82.1026C17.891 81.5081 18.7331 81.3127 19.121 81.8074C19.2794 82.0526 19.4069 82.3165 19.5005 82.5931C19.4508 83.1398 19.1189 83.5347 18.7684 83.6054ZM30.1077 75.3722C30.0476 75.3951 29.948 75.3099 29.8671 75.2725C29.9024 75.1956 29.9252 75.0646 29.9771 75.0646C30.0289 75.0646 30.1409 75.1166 30.2239 75.1498C30.1866 75.2226 30.1679 75.3411 30.1077 75.3722ZM111.557 36.7113C111.63 36.9046 111.738 37.0521 111.701 37.127C111.663 37.2018 111.493 37.2475 111.369 37.26C111.333 37.26 111.23 37.0875 111.253 37.0397C111.339 36.9175 111.442 36.8083 111.56 36.7154L111.557 36.7113ZM101.809 34.0092C101.844 34.0861 101.925 34.1837 101.902 34.2378C101.879 34.2918 101.759 34.3209 101.68 34.3604C101.624 34.296 101.566 34.2336 101.51 34.1713L101.809 34.0092ZM52.2907 59.2406C52.8757 59.5254 53.1474 60.0139 53.2303 60.6499C53.2088 60.7899 53.1797 60.9287 53.1432 61.0656C53.0686 61.3005 52.9752 61.5395 52.6911 61.5873C52.4069 61.6351 52.2389 61.4501 52.1248 61.2236C51.9437 60.8773 51.7817 60.5213 51.6395 60.1573C51.5863 59.9729 51.5764 59.7787 51.6104 59.5898C51.6289 59.52 51.6619 59.4549 51.7071 59.3987C51.7524 59.3425 51.8089 59.2964 51.873 59.2635C51.9372 59.2306 52.0075 59.2115 52.0795 59.2076C52.1514 59.2037 52.2234 59.2149 52.2907 59.2406ZM51.1043 56.3556C51.1645 56.2932 51.3118 56.233 51.3595 56.26C51.488 56.3119 51.5929 56.4096 51.654 56.5344C51.7025 56.7754 51.7296 57.0202 51.7349 57.266C51.7278 57.5056 51.6894 57.7432 51.6208 57.9727C51.5813 58.0538 51.5231 58.1241 51.4509 58.178C51.3787 58.2319 51.2948 58.2677 51.206 58.2824C51.1147 58.2688 51.028 58.2334 50.9533 58.1791C50.8785 58.1249 50.8179 58.0533 50.7766 57.9706C50.6656 57.6992 50.6375 57.4008 50.6958 57.1133C50.7541 56.8258 50.8963 56.5621 51.1043 56.3556ZM32.2835 92.1918C32.1404 92.1523 32.018 91.957 31.9454 91.8011C31.9247 91.7574 32.0969 91.56 32.2026 91.535C32.41 91.4893 32.576 91.5911 32.632 91.9383C32.5345 92.0089 32.3789 92.2189 32.2835 92.1918ZM32.1425 70.4191C31.9979 70.4053 31.8644 70.3354 31.7706 70.2243C31.6768 70.1132 31.6301 69.9698 31.6405 69.8246C31.6497 69.6546 31.7254 69.495 31.8512 69.3806C31.977 69.2662 32.1428 69.2061 32.3126 69.2135C32.3847 69.2192 32.455 69.2393 32.5192 69.2727C32.5835 69.3061 32.6404 69.3521 32.6866 69.4079C32.7328 69.4637 32.7674 69.5282 32.7883 69.5977C32.8092 69.6671 32.816 69.74 32.8083 69.8121C32.8062 69.8964 32.7872 69.9794 32.7522 70.0561C32.7173 70.1328 32.6672 70.2016 32.6049 70.2583C32.5427 70.315 32.4696 70.3585 32.3901 70.3862C32.3106 70.4138 32.2264 70.425 32.1425 70.4191ZM38.4707 58.3967C38.3813 58.311 38.3026 58.2147 38.2363 58.1099C38.3151 58.0642 38.3919 58.0164 38.5205 57.9353C38.5862 58.0397 38.6398 58.1513 38.6802 58.2679C38.6885 58.297 38.4956 58.4154 38.4707 58.3967ZM42.648 57.0498C42.5858 56.5302 42.9426 56.1519 43.5316 56.1166C44.0771 56.0833 44.4235 56.3743 44.4048 56.8545C44.3862 57.3346 44.0439 57.6318 43.5254 57.6485C43.0566 57.6734 42.6978 57.4157 42.648 57.0498ZM43.0152 70.2923C43.0289 70.2325 43.0551 70.1763 43.092 70.1274C43.1289 70.0785 43.1758 70.038 43.2295 70.0085C43.2832 69.9791 43.3425 69.9613 43.4035 69.9565C43.4645 69.9517 43.5258 69.9599 43.5835 69.9805C43.766 70.0595 43.8842 70.2923 44.0667 70.496C43.9015 70.7511 43.7186 70.9942 43.5192 71.2235C43.4736 71.2692 43.2329 71.1923 43.1458 71.1071C43.0442 71.001 42.9772 70.8664 42.9539 70.7211C42.9305 70.5759 42.9519 70.4271 43.0152 70.2943V70.2923ZM43.8448 82.7241C43.6451 82.707 43.4577 82.6202 43.3152 82.479C43.1727 82.3377 43.0841 82.1508 43.0649 81.9508C43.0551 81.7044 43.0774 81.4577 43.1313 81.2171C43.2475 80.5936 43.3802 79.97 43.5067 79.3298C43.8676 79.1656 44.1684 79.3298 44.129 79.6707C44.0042 80.4593 44.1304 81.2673 44.4899 81.9799C44.6766 82.3665 44.2991 82.7719 43.851 82.7261L43.8448 82.7241ZM49.6732 84.6114C49.779 84.4285 50.0237 84.3245 50.2332 84.1624C50.4205 84.258 50.5942 84.3782 50.7497 84.5199C50.856 84.6587 50.9216 84.8245 50.9388 84.9986C50.956 85.1727 50.9243 85.3482 50.8471 85.5052C50.7974 85.6257 50.6543 85.7837 50.5443 85.7899C50.3103 85.8251 50.0711 85.7866 49.8599 85.6798C49.7021 85.5569 49.5961 85.3792 49.5627 85.1818C49.5293 84.9844 49.5709 84.7816 49.6794 84.6135L49.6732 84.6114ZM51.6581 94.2018C51.4715 94.5822 51.3989 94.6175 50.5464 94.7318C50.2788 93.9461 50.339 93.6572 50.9052 93.4016C51.0126 93.3371 51.1393 93.3127 51.2629 93.3324C51.3866 93.3522 51.4993 93.4149 51.5814 93.5096C51.6672 93.6014 51.7215 93.7182 51.7365 93.8431C51.7514 93.968 51.7261 94.0944 51.6644 94.2039L51.6581 94.2018ZM53.2407 75.5281C53.3518 75.3139 53.5008 75.1216 53.6804 74.9607C53.9604 74.7237 54.3856 74.9607 54.4271 75.3411C54.4368 75.4508 54.4204 75.5614 54.3793 75.6636C54.3382 75.7658 54.2735 75.8568 54.1906 75.9292C54.1076 76.0015 54.0088 76.0532 53.9021 76.08C53.7954 76.1067 53.6839 76.1078 53.5767 76.0831C53.3465 76.0415 53.137 75.7298 53.2469 75.5302L53.2407 75.5281ZM54.0538 79.1905C53.7696 79.1219 53.6058 78.8268 53.6244 78.3425C53.6262 78.146 53.6731 77.9526 53.7613 77.7771C53.8028 77.7193 53.8568 77.6716 53.9193 77.6378C53.9818 77.6039 54.0512 77.5848 54.1222 77.5817C54.1892 77.595 54.2521 77.624 54.3058 77.6662C54.3595 77.7085 54.4025 77.7628 54.4313 77.8249C54.4749 77.9726 54.4958 78.1261 54.4935 78.2801C54.4956 78.9099 54.313 79.2529 54.06 79.1926L54.0538 79.1905ZM54.7216 95.848C54.1492 94.9418 54.2778 94.0438 54.6242 93.1459C54.7353 92.9282 54.8883 92.7347 55.0743 92.5764C55.1199 92.5307 55.2671 92.5431 55.346 92.5764C55.4259 92.6286 55.4915 92.7001 55.5368 92.7842C55.5517 92.8046 55.5619 92.828 55.5666 92.8528C55.5713 92.8777 55.5703 92.9032 55.5638 92.9276C55.1966 93.626 55.5783 94.1623 55.9309 94.711C55.9621 94.7891 55.9864 94.8698 56.0035 94.9521C55.7214 95.503 55.2796 95.6817 54.7279 95.8501L54.7216 95.848ZM56.6112 82.5016L56.4536 82.1628C56.5365 82.1358 56.6465 82.061 56.6962 82.0901C56.746 82.1192 56.7751 82.2481 56.8103 82.3312L56.6112 82.5016ZM59.5606 81.8261C59.5006 81.8209 59.4422 81.8038 59.3888 81.7759C59.3354 81.7479 59.2881 81.7097 59.2495 81.6633C59.211 81.6169 59.1819 81.5634 59.1641 81.5057C59.1463 81.448 59.1401 81.3874 59.1458 81.3273C59.2039 80.9282 59.4611 80.7037 59.8158 80.7287C59.9606 80.7311 60.0995 80.7869 60.2058 80.8854C60.3122 80.984 60.3786 81.1183 60.3924 81.2628C60.4131 81.6391 60.0418 81.8864 59.5669 81.8282L59.5606 81.8261ZM61.3963 90.9717C61.3154 90.9052 61.3154 90.741 61.2801 90.6205C61.4004 90.5893 61.556 90.4999 61.6286 90.5436C61.7012 90.5872 61.7302 90.766 61.8028 90.9593C61.6286 90.9613 61.4689 91.0216 61.4025 90.9655L61.3963 90.9717ZM66.2705 91.6826C66.1855 92.169 65.8225 92.4267 65.3247 92.4288C65.1021 92.4406 64.8831 92.3691 64.7102 92.2281C64.5373 92.0872 64.4229 91.8868 64.3893 91.666C64.3572 91.508 64.3337 91.3484 64.3187 91.1879C64.3395 90.3856 64.6547 90.1008 65.1297 90.0364C65.3755 90.0262 65.6178 90.0977 65.8189 90.2398C66.0199 90.3819 66.1685 90.5866 66.2415 90.8221C66.3114 91.1014 66.3234 91.3922 66.2767 91.6764L66.2705 91.6826ZM70.5868 97.9764C70.4893 98.1594 70.228 98.2529 70.1326 98.3215C69.5103 98.3444 69.1619 97.9744 69.2116 97.4901C69.2146 97.3177 69.2622 97.1491 69.3498 97.0008C69.4375 96.8525 69.5621 96.7295 69.7115 96.6441C69.9211 96.5321 70.1663 96.5075 70.3939 96.5755C70.4916 96.6376 70.5746 96.7204 70.6369 96.8181C70.6993 96.9158 70.7395 97.0259 70.7548 97.1409C70.7778 97.4269 70.7218 97.7139 70.593 97.9702L70.5868 97.9764ZM71.7753 88.9618C71.4662 89.1073 71.095 88.8391 71.0162 88.4671C70.9872 88.323 70.9872 88.1746 71.0162 88.0306C71.0286 87.9062 71.087 87.791 71.1798 87.7075C71.2727 87.624 71.3934 87.5784 71.5181 87.5795C71.6415 87.5665 71.7655 87.5975 71.8684 87.667C71.9712 87.7366 72.0462 87.8403 72.0802 87.9599C72.119 88.1339 72.146 88.3103 72.1611 88.4879C72.0594 88.6147 71.9599 88.8703 71.7815 88.9555L71.7753 88.9618ZM77.7509 90.8803C77.6762 90.766 77.4751 90.5955 77.4688 90.4209C77.4688 90.1611 77.6928 90.0052 77.9625 90.0052C78.0804 90.0143 78.1901 90.0695 78.2677 90.159C78.3454 90.2485 78.3847 90.3649 78.3773 90.4833C78.3732 90.7098 78.1367 90.8907 77.7509 90.874V90.8803ZM86.9332 94.9272C86.8875 95.0187 86.7258 95.0478 86.6096 95.1039C86.5702 95.0207 86.481 94.9168 86.5038 94.8607C86.5867 94.7272 86.6871 94.6056 86.8025 94.499C86.8772 94.6965 86.9788 94.8441 86.9394 94.921L86.9332 94.9272ZM101.263 88.6916L101.056 88.307C101.16 88.2404 101.274 88.1906 101.394 88.1595C101.442 88.1595 101.568 88.3153 101.554 88.3507C101.472 88.4755 101.377 88.5905 101.27 88.6936L101.263 88.6916ZM112.049 95.8875C112.048 95.8399 112.058 95.7927 112.078 95.7497C112.099 95.7066 112.129 95.669 112.166 95.6397C112.204 95.6104 112.248 95.5903 112.294 95.581C112.341 95.5717 112.389 95.5735 112.435 95.5861C112.576 95.6173 112.688 95.7815 112.781 95.8605C112.675 96.2014 112.476 96.2242 112.296 96.164C112.237 96.1401 112.184 96.103 112.142 96.0554C112.099 96.0078 112.068 95.9511 112.051 95.8896L112.049 95.8875ZM116.197 67.7149C116.197 67.7398 116.187 67.7668 116.181 67.7897C115.98 68.6211 115.745 69.4435 115.476 70.2569C115.461 70.3027 115.442 70.3463 115.426 70.392C115.218 70.9803 115.011 71.5643 114.777 72.138C114.762 72.1754 114.745 72.2128 114.729 72.2523C114.222 73.4771 113.635 74.6672 112.972 75.815L112.957 75.842C112.621 76.424 112.267 76.9921 111.893 77.5464C110.407 79.7637 108.636 81.775 106.625 83.5285L106.519 83.6137C106.104 83.9795 105.663 84.3349 105.219 84.6758L105.115 84.7569C104.667 85.0998 104.205 85.4262 103.736 85.7442L103.437 85.9521C102.975 86.2555 102.508 86.5486 102.029 86.8271L101.77 86.9705C101.355 87.2075 100.93 87.434 100.494 87.6502C100.376 87.7105 100.257 87.7728 100.137 87.831C99.6684 88.0597 99.1893 88.2738 98.706 88.4754C98.5463 88.544 98.3866 88.6084 98.2248 88.6832C97.7685 88.8641 97.3081 89.0387 96.8393 89.1967L96.3788 89.3463C96.1154 89.4315 95.852 89.5167 95.5844 89.5936C95.8665 89.7059 96.0698 89.92 96.0221 90.2276C95.988 90.4588 95.8643 90.6672 95.6778 90.8075C95.3513 90.9568 95.0099 91.0711 94.6594 91.1484C94.5287 90.9884 94.3441 90.8657 94.3109 90.7098C94.2792 90.5646 94.2814 90.414 94.3174 90.2698C94.3534 90.1256 94.4221 89.9916 94.5183 89.8784C93.9728 90.0135 93.4211 90.1382 92.859 90.2422C92.4317 90.3211 92.0045 90.3897 91.5751 90.45C91.4901 90.4625 91.403 90.4687 91.3158 90.4812C90.9715 90.5269 90.6272 90.5706 90.2788 90.6038L90.0506 90.6225C89.6897 90.6558 89.3309 90.6849 88.97 90.7057H88.8331C88.439 90.7265 88.047 90.7431 87.6529 90.7493H87.5927C87.1779 90.7493 86.7527 90.7493 86.3337 90.7493C84.661 90.7108 82.9933 90.5518 81.3433 90.2733C80.7688 90.1756 80.1984 90.0655 79.628 89.9387L79.3024 89.8659C78.8018 89.7509 78.3026 89.6262 77.8048 89.4918L77.5974 89.4398C77.0443 89.2846 76.4912 89.1156 75.9381 88.9327L75.6768 88.8516C75.2039 88.6923 74.7337 88.5225 74.2663 88.3424C74.1689 88.305 74.0693 88.2696 73.9718 88.2301C73.4346 88.0223 72.9016 87.7978 72.3747 87.5629L72.1963 87.4777C71.7297 87.2698 71.2692 87.0453 70.8129 86.8146L70.4748 86.6442C69.4626 86.1204 68.4733 85.5488 67.515 84.9356L67.1748 84.7132C66.7455 84.4305 66.3203 84.1395 65.9034 83.8382L65.7665 83.7426C65.3122 83.4121 64.8684 83.0691 64.4307 82.7178L64.1175 82.4601C63.7587 82.1628 63.404 81.8594 63.0576 81.5497L62.8067 81.3273C62.3918 80.9531 61.9929 80.5693 61.6099 80.1758C61.5249 80.0905 61.444 80.0032 61.361 79.9159C61.0436 79.5896 60.7388 79.255 60.4318 78.9161C60.3405 78.8122 60.2472 78.7083 60.158 78.6064C59.7971 78.1907 59.4445 77.775 59.1064 77.3323C59.0545 77.2658 59.0048 77.1951 58.955 77.1244C58.6646 76.7461 58.3846 76.3596 58.1129 75.9688C58.0299 75.8461 57.9449 75.7256 57.864 75.603C57.5549 75.1415 57.2417 74.6759 56.97 74.1979C56.6983 73.7198 56.4038 73.1918 56.1404 72.6784C56.0802 72.5579 56.0221 72.4352 55.962 72.3147C55.7401 71.8574 55.5306 71.396 55.3397 70.9283C55.3169 70.8743 55.292 70.8202 55.2692 70.7641C54.8087 69.6346 54.4282 68.474 54.1305 67.2908C54.0734 67.3191 54.0106 67.3338 53.947 67.3338C53.8833 67.3338 53.8205 67.3191 53.7634 67.2908C53.2303 66.9624 52.7056 66.6174 52.185 66.2682C52.0736 66.1718 52.0028 66.0367 51.9871 65.8901C51.9713 65.7435 52.0116 65.5963 52.0999 65.4784C52.2456 65.3124 52.4236 65.1782 52.623 65.0838C52.8224 64.9894 53.039 64.9369 53.2594 64.9296C53.4065 64.932 53.5501 64.9752 53.6742 65.0543C53.5995 64.5887 53.5394 64.1231 53.4896 63.6555C53.4896 63.5973 53.4792 63.537 53.473 63.4788C53.4315 63.0631 53.4004 62.6529 53.3797 62.2483C53.3797 62.1548 53.3797 62.0612 53.3672 61.9677C53.3527 61.5935 53.3444 61.2194 53.3444 60.8474C53.3444 60.7289 53.3444 60.6104 53.3444 60.4919C53.3444 60.1448 53.3631 59.7977 53.3818 59.4526C53.3818 59.3155 53.3963 59.1783 53.4066 59.0369C53.4295 58.7106 53.4606 58.3843 53.4979 58.06C53.5145 57.9104 53.529 57.7628 53.5477 57.6152C53.5871 57.2972 53.6369 56.9812 53.6887 56.6674C53.7136 56.5177 53.7364 56.366 53.7634 56.2163C53.8235 55.8921 53.8941 55.5699 53.9708 55.2477C53.9998 55.1126 54.0247 54.9775 54.0579 54.8424C54.1679 54.3914 54.2861 53.9424 54.4209 53.4976C54.5557 52.9385 54.7113 52.396 54.8793 51.8618C54.9145 51.7475 54.956 51.6373 54.9934 51.5251C55.1365 51.0906 55.2879 50.6646 55.4538 50.2468C55.487 50.1615 55.5223 50.0805 55.5575 49.9953C55.7421 49.5421 55.9371 49.0994 56.1466 48.665L56.2026 48.5486C56.437 48.0684 56.6859 47.5987 56.9493 47.1435C56.862 47.1611 56.7727 47.1674 56.6838 47.1622C56.568 46.9994 56.4862 46.8149 56.4432 46.6197C56.4523 46.4736 56.5173 46.3367 56.6248 46.2375C56.7322 46.1383 56.8738 46.0846 57.0198 46.0876C57.1775 46.1329 57.3182 46.224 57.4243 46.3495C58.0438 45.3563 58.7371 44.4114 59.4984 43.5227L59.5357 43.479C59.7639 43.215 59.9983 42.9615 60.2347 42.7079L60.3778 42.5582C60.6122 42.315 60.8487 42.0781 61.0914 41.8453L61.2386 41.7081C61.4917 41.4691 61.7489 41.2321 62.0144 41.0035C62.8904 40.2444 63.8146 39.5432 64.7813 38.9041L64.829 38.8729C65.109 38.688 65.3952 38.5092 65.6856 38.3325L65.9055 38.1974C66.182 38.0339 66.4586 37.8732 66.7351 37.7152L66.9902 37.578C67.2737 37.4228 67.5606 37.2718 67.851 37.1249L68.0377 37.0334C68.9918 36.5616 69.977 36.1334 70.985 35.751C71.068 35.7177 71.1489 35.6845 71.2339 35.6554C71.5098 35.5514 71.7898 35.4475 72.0636 35.3581L72.4784 35.2168C72.7439 35.1295 73.0094 35.0463 73.2749 34.9653C73.4325 34.9154 73.5923 34.8697 73.7499 34.8239C74.0092 34.747 74.2705 34.6722 74.5318 34.6036C74.6978 34.5579 74.8658 34.5184 75.0317 34.4747C75.2931 34.4082 75.5523 34.3417 75.8157 34.2794L76.2617 34.1837C76.736 34.0784 77.213 33.9821 77.6928 33.8948C77.9002 33.8553 78.1201 33.8138 78.3358 33.7784C78.5515 33.7431 78.7838 33.7078 79.0099 33.6745L79.6861 33.5768L80.3436 33.4937L81.0571 33.4147L81.6794 33.3544C81.9448 33.3315 82.2083 33.3128 82.4738 33.2941L83.0234 33.2567C83.459 33.2318 83.8932 33.2131 84.326 33.2006H84.6205C84.9793 33.2006 85.3381 33.1881 85.6949 33.1881C85.8629 33.1881 86.0288 33.1881 86.1948 33.1881C86.4831 33.1881 86.7714 33.1881 87.0576 33.2089C87.2339 33.2089 87.4081 33.2214 87.5844 33.2297C87.8665 33.2422 88.1486 33.2567 88.4307 33.2754C88.6008 33.2754 88.7709 33.2962 88.9389 33.3108C89.2417 33.3315 89.5424 33.3606 89.8432 33.3877L90.2725 33.4292C90.7143 33.477 91.1541 33.5269 91.5896 33.5872C92.1787 33.6683 92.7657 33.7639 93.3506 33.8637L93.7654 33.9406C94.342 34.0466 94.9166 34.1484 95.4849 34.2877H95.5139C96.1154 34.4228 96.7107 34.5745 97.3018 34.7387L97.5756 34.8156C98.7733 35.1519 99.9506 35.5572 101.102 36.0295L101.216 36.0773C102.392 36.5663 103.533 37.1372 104.63 37.7859L104.648 37.7983C105.202 38.1288 105.746 38.4801 106.273 38.8563C106.243 38.7652 106.225 38.6711 106.217 38.5757C106.192 38.0706 106.424 37.7776 106.857 37.7443C107.48 37.7048 107.849 38.0166 107.861 38.5757C107.87 38.6873 107.855 38.7996 107.818 38.9051C107.781 39.0106 107.721 39.107 107.644 39.188C107.567 39.269 107.474 39.3328 107.37 39.3752C107.267 39.4176 107.156 39.4377 107.044 39.4342C107.347 39.6683 107.645 39.9115 107.938 40.1637L108.019 40.2344C108.284 40.4651 108.548 40.7 108.805 40.9453C108.9 41.0367 108.992 41.1323 109.087 41.2259C109.278 41.4171 109.473 41.6062 109.66 41.8058C109.95 42.1134 110.236 42.4293 110.512 42.7619C114.868 47.9687 117.097 54.7614 116.969 61.5312C116.969 62.0155 116.934 62.4977 116.9 62.9862C116.9 63.1192 116.88 63.2502 116.869 63.3811C116.838 63.7532 116.801 64.1211 116.755 64.489C116.741 64.6095 116.728 64.728 116.712 64.8465C116.606 65.813 116.428 66.7733 116.206 67.7169L116.197 67.7149ZM117.348 90.1632C117.162 90.2276 116.946 90.2318 116.898 89.9907C116.886 89.92 117.06 89.7537 117.164 89.7371C117.268 89.7205 117.39 89.8389 117.504 89.9013C117.446 90.0198 117.419 90.1424 117.367 90.1652L117.348 90.1632ZM120.377 73.1025C120.312 73.0578 120.25 73.0099 120.19 72.959L120.352 72.8073C120.391 72.8734 120.425 72.9429 120.451 73.0152C120.466 73.038 120.391 73.1087 120.385 73.1045L120.377 73.1025ZM125.562 74.89C125.483 74.8504 125.412 74.7955 125.354 74.7285C125.296 74.6614 125.252 74.5835 125.224 74.4992C125.17 74.2914 125.467 74.0711 125.826 74.1085C125.914 74.227 125.98 74.3609 126.02 74.5034C126.027 74.562 126.02 74.6214 125.998 74.6763C125.977 74.7313 125.942 74.7801 125.898 74.8185C125.853 74.8569 125.8 74.8837 125.742 74.8965C125.685 74.9094 125.625 74.9078 125.568 74.8921L125.562 74.89ZM132.967 64.7488C132.791 64.7237 132.63 64.6353 132.514 64.5001C132.399 64.3649 132.336 64.1921 132.338 64.014C132.34 63.8359 132.406 63.6646 132.525 63.5321C132.644 63.3996 132.807 63.3149 132.983 63.2938C133.342 63.2938 133.666 63.695 133.639 64.1086C133.622 64.2776 133.546 64.4351 133.424 64.5528C133.302 64.6705 133.142 64.7408 132.973 64.7509L132.967 64.7488ZM134.732 62.7846C134.705 62.8033 134.489 62.6578 134.462 62.5601C134.392 62.319 134.446 62.0591 134.73 62.0093C134.863 61.9864 135.024 62.1298 135.296 62.2525C135.122 62.4426 134.936 62.621 134.738 62.7866L134.732 62.7846ZM149.029 66.2952C149.228 66.3167 149.425 66.3557 149.618 66.4116C149.429 66.6008 149.357 66.7338 149.257 66.7567C149.068 66.8045 148.886 66.738 148.882 66.4968C148.894 66.4282 148.985 66.2952 149.035 66.2973L149.029 66.2952ZM148.936 62.0467C148.956 62.0051 149.008 61.9448 149.041 61.949C149.227 61.9424 149.413 61.9728 149.587 62.0384C149.695 62.1013 149.775 62.2019 149.814 62.3208C149.852 62.4397 149.845 62.5686 149.794 62.6827C149.751 62.8033 149.606 62.8906 149.498 62.9799C149.467 63.0049 149.404 62.9945 149.359 62.9986C149.182 62.923 149.04 62.7827 148.963 62.6063C148.885 62.4299 148.878 62.2305 148.942 62.0487L148.936 62.0467ZM150.73 70.0761C150.561 70.0562 150.406 69.9723 150.298 69.8416C150.189 69.7109 150.134 69.5434 150.145 69.3735C150.148 69.2897 150.168 69.2074 150.204 69.1313C150.239 69.0552 150.289 68.9868 150.35 68.9301C150.412 68.8733 150.484 68.8293 150.563 68.8005C150.641 68.7718 150.725 68.7588 150.809 68.7625C150.977 68.7818 151.131 68.8659 151.239 68.997C151.346 69.1281 151.399 69.2958 151.385 69.465C151.386 69.5489 151.369 69.6319 151.336 69.709C151.303 69.7861 151.255 69.8556 151.194 69.9131C151.133 69.9706 151.061 70.0149 150.982 70.0433C150.903 70.0717 150.82 70.0836 150.736 70.0782L150.73 70.0761ZM136.899 83.4474C136.767 83.5388 136.547 83.3123 136.549 83.1148C136.549 82.8425 136.731 82.6181 136.964 82.6492C137.074 82.6638 137.171 82.7947 137.347 82.9298C137.219 83.1192 137.068 83.2928 136.899 83.4474ZM138.299 76.796C138.276 76.8522 138.241 76.9026 138.197 76.9438C138.152 76.9849 138.099 77.0158 138.042 77.0342C137.984 77.0526 137.923 77.0582 137.863 77.0504C137.803 77.0427 137.745 77.0218 137.694 76.9894C137.648 76.9737 137.607 76.9478 137.573 76.9134C137.539 76.8791 137.513 76.8374 137.498 76.7915C137.482 76.7457 137.478 76.6969 137.485 76.649C137.491 76.6011 137.509 76.5554 137.536 76.5154C137.588 76.4444 137.654 76.3848 137.729 76.3401C137.805 76.2954 137.889 76.2667 137.976 76.2556C138.219 76.2452 138.378 76.5653 138.299 76.796ZM142.033 70.338C141.887 70.3285 141.749 70.2702 141.641 70.1725C141.533 70.0749 141.46 69.9436 141.436 69.7997C141.394 69.5669 141.604 69.3611 141.888 69.3569C141.96 69.3459 142.033 69.3509 142.103 69.3715C142.173 69.3922 142.237 69.428 142.292 69.4764C142.346 69.5248 142.389 69.5846 142.418 69.6516C142.447 69.7187 142.46 69.7912 142.458 69.8641C142.462 69.9234 142.454 69.9829 142.435 70.0389C142.415 70.095 142.384 70.1465 142.344 70.1901C142.304 70.2337 142.255 70.2686 142.201 70.2927C142.147 70.3167 142.088 70.3293 142.029 70.3297L142.033 70.338ZM158.468 63.9735C158.474 63.7778 158.553 63.5915 158.69 63.4519C158.827 63.3124 159.012 63.2299 159.207 63.2211C159.53 63.2044 159.73 63.4767 159.734 63.9361C159.734 64.3518 159.526 64.595 159.143 64.5825C158.759 64.57 158.448 64.2894 158.464 63.9652L158.468 63.9735ZM160.804 74.7133C160.524 74.6357 160.27 74.4817 160.072 74.2685C159.673 73.7098 159.476 73.0317 159.514 72.3459C159.595 72.2253 159.686 71.9447 159.868 71.8637C159.98 71.8288 160.097 71.8188 160.213 71.8347C160.328 71.8505 160.439 71.8916 160.536 71.9551C160.777 72.1203 160.962 72.3553 161.065 72.6286C161.216 73.1517 161.328 73.6853 161.401 74.2249C161.4 74.2984 161.382 74.3707 161.35 74.4367C161.317 74.5026 161.27 74.5606 161.213 74.6064C161.156 74.6522 161.089 74.6848 161.017 74.7019C160.946 74.7189 160.872 74.72 160.8 74.705L160.804 74.7133ZM166.433 72.1131C166.327 72.3662 166.153 72.5856 165.932 72.7478C165.71 72.91 165.449 73.0088 165.176 73.0339C164.691 73.0817 164.322 72.7886 164.104 72.375C164.004 72.146 163.934 71.905 163.896 71.6579C163.923 70.9283 164.187 70.5853 164.726 70.4274C164.96 70.3412 165.214 70.3275 165.456 70.3879C165.698 70.4483 165.916 70.5801 166.083 70.7662C166.497 71.184 166.626 71.6828 166.429 72.1048L166.433 72.1131Z" fill="white"/>
<path d="M116.893 63.3769C116.893 63.246 116.916 63.115 116.924 62.982C116.957 62.5019 116.982 62.0196 116.992 61.527C117.121 54.7572 114.885 47.9645 110.536 42.7577C110.26 42.4273 109.974 42.1113 109.683 41.8016C109.497 41.5938 109.302 41.4129 109.111 41.2217C109.015 41.1282 108.924 41.0326 108.829 40.9411C108.571 40.6958 108.308 40.461 108.043 40.2302L107.962 40.1596C107.669 39.9087 107.371 39.6656 107.068 39.43C106.815 39.2325 106.557 39.0392 106.296 38.8542C105.769 38.478 105.226 38.1267 104.672 37.7963L104.653 37.7838C103.557 37.1351 102.416 36.5642 101.239 36.0752L101.125 36.0274C99.9742 35.5551 98.7969 35.1499 97.5992 34.8135L97.3254 34.7366C96.7343 34.5724 96.139 34.4207 95.5375 34.2856H95.5085C94.9402 34.1567 94.3656 34.0445 93.789 33.9385L93.3742 33.8616C92.7893 33.7618 92.2023 33.6662 91.6132 33.5851C91.1777 33.5248 90.7379 33.4749 90.2961 33.4271L89.8668 33.3856C89.566 33.3586 89.2653 33.3295 88.9625 33.3087C88.7945 33.2941 88.6244 33.2837 88.4543 33.2733C88.1722 33.2546 87.8901 33.2401 87.6081 33.2276C87.4317 33.2276 87.2575 33.211 87.0812 33.2068C86.795 33.2068 86.5067 33.1902 86.2184 33.186C86.0524 33.186 85.8865 33.186 85.7185 33.186C85.3617 33.186 85.0029 33.186 84.6441 33.1985H84.3496C83.9168 33.211 83.4826 33.2297 83.047 33.2546L82.4974 33.292C82.2319 33.3108 81.9684 33.3295 81.7029 33.3523L81.0807 33.4126L80.3672 33.4916L79.7097 33.5747C79.4836 33.6038 79.2575 33.6392 79.0335 33.6724C78.8095 33.7057 78.5834 33.7389 78.3594 33.7763C78.1354 33.8138 77.9301 33.8533 77.7164 33.8927C77.238 33.98 76.761 34.0763 76.2853 34.1817L75.8393 34.2773C75.5759 34.3396 75.3167 34.4061 75.0553 34.4727C74.8894 34.5142 74.7214 34.5558 74.5554 34.6015C74.2941 34.6701 74.0328 34.7449 73.7735 34.8219C73.6159 34.8676 73.4562 34.9133 73.2985 34.9632C73.033 35.0443 72.7675 35.1274 72.502 35.2147L72.0872 35.356C71.8072 35.4517 71.5272 35.5493 71.2576 35.6533C71.1725 35.6824 71.0916 35.7156 71.0086 35.7489C70.0006 36.1313 69.0154 36.5595 68.0613 37.0313L67.8746 37.1228C67.5842 37.2683 67.2973 37.4193 67.0138 37.5759L66.7587 37.7131C66.4822 37.8711 66.2056 38.0318 65.9291 38.1953L65.7092 38.3304C65.4188 38.5071 65.1326 38.6859 64.8526 38.8709L64.8049 38.902C63.8382 39.5411 62.914 40.2423 62.038 41.0014C61.7725 41.23 61.5153 41.467 61.2622 41.706L61.115 41.8432C60.8723 42.076 60.6358 42.3129 60.4015 42.5561L60.2583 42.7058C60.0219 42.9594 59.7875 43.2129 59.5594 43.4769L59.522 43.5206C58.7578 44.4043 58.061 45.3443 57.4375 46.3328C57.2716 46.5947 57.1139 46.865 56.9584 47.1352C56.695 47.5904 56.4461 48.0601 56.2117 48.5403L56.1557 48.6567C55.9483 49.0911 55.7409 49.5338 55.5666 49.9869C55.5314 50.0722 55.4961 50.1532 55.4629 50.2384C55.297 50.6541 55.1456 51.0823 55.0025 51.5167C54.9651 51.629 54.9236 51.7391 54.8884 51.8535C54.7204 52.3877 54.5648 52.9302 54.43 53.4893C54.2952 53.9341 54.177 54.3831 54.067 54.8341C54.0338 54.9692 54.0089 55.1043 53.9799 55.2394C53.9073 55.5616 53.8368 55.8838 53.7725 56.208C53.7455 56.3577 53.7227 56.5094 53.6978 56.6591C53.646 56.9729 53.5962 57.2826 53.5568 57.6069C53.5381 57.7545 53.5236 57.902 53.507 58.0517C53.4697 58.376 53.4386 58.7023 53.4157 59.0286C53.4157 59.1658 53.3991 59.303 53.3908 59.4443C53.3722 59.7894 53.3597 60.1365 53.3535 60.4836C53.3535 60.6021 53.3535 60.7205 53.3535 60.839C53.3535 61.2111 53.3535 61.5852 53.3763 61.9594C53.3763 62.0529 53.3763 62.1464 53.3888 62.24C53.4095 62.6557 53.4406 63.0658 53.4821 63.4705C53.4821 63.5287 53.4821 63.5889 53.4987 63.6471C53.5485 64.1148 53.6086 64.5804 53.6833 65.046C53.805 65.7998 53.9612 66.5502 54.1521 67.2971C54.4498 68.4802 54.8303 69.6408 55.2908 70.7703C55.3136 70.8265 55.3385 70.8805 55.3613 70.9345C55.5542 71.4022 55.7637 71.8636 55.9835 72.3209C56.0437 72.4415 56.1018 72.5641 56.1619 72.6847C56.4212 73.1981 56.6929 73.7052 56.9916 74.2041C57.2902 74.7029 57.5765 75.1478 57.8855 75.6092C57.9664 75.7318 58.0515 75.8524 58.1344 75.975C58.4061 76.3658 58.6861 76.7524 58.9765 77.1307C59.0263 77.1972 59.0761 77.2679 59.1279 77.3385C59.466 77.7729 59.8186 78.197 60.1795 78.6127C60.2687 78.7166 60.3621 78.8205 60.4533 78.9224C60.7561 79.2612 61.0652 79.5958 61.3825 79.9222C61.4655 80.0095 61.5464 80.0968 61.6314 80.182C62.0214 80.5755 62.4203 80.9594 62.8282 81.3335L63.0792 81.5559C63.4256 81.8656 63.7803 82.1795 64.1391 82.4663L64.4523 82.7241C64.8899 83.0753 65.3338 83.4183 65.788 83.7488L65.9249 83.8444C66.3397 84.1458 66.767 84.4368 67.1964 84.7195L67.5365 84.9419C68.4948 85.555 69.4842 86.1266 70.4963 86.6504L70.8344 86.8209C71.2907 87.0516 71.7512 87.274 72.2179 87.4839L72.3963 87.5691C72.9231 87.8047 73.4555 88.0271 73.9934 88.2364C74.0908 88.2759 74.2008 88.3112 74.2879 88.3486C74.7552 88.5273 75.2254 88.6971 75.6983 88.8579L75.97 88.9493C76.5231 89.1322 77.0762 89.3013 77.6293 89.4565L77.8367 89.5084C78.3345 89.647 78.8337 89.7717 79.3343 89.8826L79.6599 89.9553C80.2303 90.08 80.8007 90.1923 81.3752 90.29H81.4105C81.7546 90.2717 82.0985 90.3284 82.4185 90.4562C83.7252 90.6364 85.0409 90.7425 86.3594 90.7743C86.7742 90.7743 87.1994 90.7743 87.6184 90.7743H87.6786C88.0727 90.7743 88.4647 90.7514 88.8588 90.7306H88.9957C89.3566 90.7098 89.7154 90.6807 90.0763 90.6475L90.3044 90.6288C90.6508 90.5955 90.9951 90.5519 91.3415 90.5061C91.4286 90.4937 91.5157 90.4874 91.6008 90.475C92.0301 90.4126 92.4574 90.344 92.8847 90.2671C94.0779 90.0432 95.2556 89.7433 96.4107 89.3692L96.8712 89.2195C97.34 89.0615 97.8004 88.887 98.2567 88.7061C98.4185 88.6417 98.5782 88.5773 98.7379 88.4983C99.2212 88.2904 99.7003 88.0825 100.169 87.8539C100.289 87.7957 100.408 87.7333 100.526 87.6731C100.957 87.4569 101.382 87.2304 101.801 86.9934L102.061 86.85C102.54 86.5714 103.007 86.2784 103.469 85.9749L103.768 85.7671C104.236 85.449 104.699 85.1227 105.147 84.7797L105.251 84.6987C105.695 84.3578 106.128 84.0024 106.551 83.6365L106.657 83.5513C106.483 83.4528 106.316 83.3431 106.157 83.2229C105.768 82.9313 105.446 82.5597 105.212 82.1332C104.978 81.7066 104.838 81.2349 104.8 80.7496C104.763 80.2643 104.83 79.7766 104.996 79.3192C105.162 78.8617 105.423 78.4451 105.763 78.0972C106.904 76.9062 108.366 76.4697 109.911 76.8501C110.606 77.0255 111.283 77.2677 111.932 77.5734C112.305 77.0191 112.66 76.451 112.996 75.869L113.01 75.842C113.673 74.6942 114.26 73.5041 114.767 72.2794C114.784 72.2399 114.8 72.2024 114.815 72.165C115.051 71.5913 115.265 71.0073 115.464 70.4191C115.48 70.3733 115.499 70.3297 115.514 70.2839C115.296 69.8992 115.204 69.4559 115.25 69.016C115.263 68.7386 115.363 68.4725 115.538 68.2567C115.712 68.0408 115.951 67.8866 116.219 67.8167C116.219 67.7938 116.219 67.7668 116.235 67.7419C116.457 66.7982 116.634 65.8379 116.764 64.8673C116.781 64.7488 116.793 64.6303 116.808 64.5097C116.824 64.1169 116.862 63.749 116.893 63.3769ZM86.403 39.3385C86.7971 39.6295 87.0377 40.1824 87.2451 40.6584C87.4815 41.1988 87.0771 42.0095 86.4942 42.2589C85.9612 42.4855 85.3182 42.4813 85.0423 41.9658C84.1587 40.2406 82.7234 39.218 81.0351 38.4323C80.6866 38.2681 80.4128 37.8524 80.2054 37.4928C80.0659 37.2022 80.0146 36.8769 80.0582 36.5574C80.0913 36.2685 80.2842 35.9983 80.5912 35.2978C82.7504 36.7674 84.6109 38.0124 86.4113 39.3385H86.403ZM61.1938 45.2395C61.0561 45.1546 60.9244 45.0601 60.7997 44.9569L61.1565 44.618C61.2399 44.7548 61.3094 44.8997 61.3639 45.0504C61.3659 45.1003 61.2104 45.2499 61.1938 45.2395ZM87.158 67.374C86.6892 67.479 86.2112 67.5368 85.7309 67.5465C85.0387 67.6726 84.3324 67.7027 83.6319 67.6359C77.7662 67.0684 74.0369 60.0824 77.173 54.9567C77.3428 54.684 77.5277 54.421 77.7268 54.169C77.8347 54.0318 77.9508 53.9071 78.0649 53.7782C78.152 53.6826 78.2371 53.5828 78.3262 53.4914C78.4908 53.3251 78.6588 53.1671 78.8303 53.0175L78.9506 52.9156C79.158 52.7452 79.3654 52.583 79.5728 52.4313C79.0439 52.6891 78.5046 52.9489 77.9384 53.2315C77.6086 52.8158 77.1958 52.4625 76.9822 52.0094C76.53 51.0532 76.8868 50.2488 77.8118 49.9308C78.9111 49.5546 80.0125 49.1867 81.3109 48.7502C81.5661 49.0641 81.9643 49.4195 82.1883 49.8643C82.2565 49.9835 82.3003 50.1151 82.3174 50.2515C82.3345 50.3878 82.3244 50.5262 82.2877 50.6586C82.2511 50.791 82.1886 50.9148 82.1039 51.0229C82.0192 51.1309 81.9139 51.2211 81.7942 51.2881L81.6345 51.3733C81.8419 51.3027 82.0493 51.2382 82.2567 51.1821H82.2754C82.6558 51.0796 83.0424 51.0018 83.4328 50.9493L83.5697 50.9306C83.7626 50.9077 83.9555 50.889 84.1504 50.8786H84.2749C84.5999 50.8648 84.9253 50.8697 85.2497 50.8932C85.3659 50.9015 85.4821 50.9119 85.5982 50.9244C85.7455 50.941 85.8948 50.9576 86.0421 50.9826C86.2764 51.022 86.5088 51.0699 86.739 51.1281C86.851 51.1551 86.9609 51.1904 87.0708 51.2237C87.2534 51.2777 87.4338 51.338 87.6122 51.4066C87.7014 51.4398 87.7927 51.471 87.8818 51.5064C88.1307 51.6124 88.3776 51.7308 88.6182 51.8618C88.6908 51.9013 88.7633 51.9449 88.8359 51.9865C89.0434 52.1133 89.2674 52.2526 89.4769 52.4022L89.5909 52.4812C89.8314 52.6633 90.0614 52.859 90.2796 53.0673C90.3335 53.1172 90.3853 53.1713 90.4393 53.2232C90.6655 53.4471 90.8788 53.6838 91.0781 53.932C94.5896 58.3718 93.1833 65.9876 87.158 67.374ZM106.528 72.0756C106.504 72.005 106.441 71.9135 106.464 71.8678C106.488 71.8374 106.521 71.8145 106.557 71.8016C106.594 71.7888 106.634 71.7865 106.672 71.7951C106.719 71.8179 106.728 71.9281 106.752 72.0029L106.528 72.0756Z" fill="#76E6C3"/>
</g>
<defs>
<clipPath id="clip0">
<rect width="175" height="171" fill="white"/>
</clipPath>
</defs>
</svg>
