<svg width="200" height="200" viewBox="0 0 200 200" fill="none" xmlns="http://www.w3.org/2000/svg">
<rect opacity="0.5" width="200" height="200" fill="#EBFBF6"/>
<mask id="mask0_1874:20570" style="mask-type:alpha" maskUnits="userSpaceOnUse" x="0" y="0" width="200" height="200">
<rect opacity="0.5" x="0.5" y="0.5" width="199" height="199" fill="#EBFBF6" stroke="#136C50" stroke-linecap="square" stroke-dasharray="4 12"/>
</mask>
<g mask="url(#mask0_1874:20570)">
<g opacity="0.5">
<rect x="-108" y="99.061" width="290" height="12" transform="rotate(-45 -108 99.061)" fill="#C4F4E5"/>
<rect x="-91.7363" y="115.324" width="290" height="12" transform="rotate(-45 -91.7363 115.324)" fill="#C4F4E5"/>
<rect x="-75.4731" y="131.588" width="290" height="12" transform="rotate(-45 -75.4731 131.588)" fill="#C4F4E5"/>
<rect x="-59.2095" y="147.851" width="290" height="12" transform="rotate(-45 -59.2095 147.851)" fill="#C4F4E5"/>
<rect x="-42.9463" y="164.115" width="290" height="12" transform="rotate(-45 -42.9463 164.115)" fill="#C4F4E5"/>
<rect x="-26.6826" y="180.378" width="290" height="12" transform="rotate(-45 -26.6826 180.378)" fill="#C4F4E5"/>
<rect x="-10.4194" y="196.642" width="290" height="12" transform="rotate(-45 -10.4194 196.642)" fill="#C4F4E5"/>
<rect x="5.84424" y="212.905" width="290" height="12" transform="rotate(-45 5.84424 212.905)" fill="#C4F4E5"/>
<rect x="22.1074" y="229.169" width="290" height="12" transform="rotate(-45 22.1074 229.169)" fill="#C4F4E5"/>
<rect x="38.3711" y="245.432" width="290" height="12" transform="rotate(-45 38.3711 245.432)" fill="#C4F4E5"/>
<rect x="54.6348" y="261.696" width="290" height="12" transform="rotate(-45 54.6348 261.696)" fill="#C4F4E5"/>
<rect x="70.8979" y="277.959" width="290" height="12" transform="rotate(-45 70.8979 277.959)" fill="#C4F4E5"/>
<rect x="87.1616" y="294.222" width="290" height="12" transform="rotate(-45 87.1616 294.222)" fill="#C4F4E5"/>
</g>
</g>
<path d="M123.333 73.3333H76.6665C74.0143 73.3333 71.4708 74.3868 69.5954 76.2622C67.7201 78.1375 66.6665 80.6811 66.6665 83.3333V116.667C66.6665 119.319 67.7201 121.862 69.5954 123.738C71.4708 125.613 74.0143 126.667 76.6665 126.667H123.333C125.985 126.667 128.529 125.613 130.404 123.738C132.28 121.862 133.333 119.319 133.333 116.667V83.3333C133.333 80.6811 132.28 78.1375 130.404 76.2622C128.529 74.3868 125.985 73.3333 123.333 73.3333ZM76.6665 120C75.7824 120 74.9346 119.649 74.3095 119.024C73.6844 118.398 73.3332 117.551 73.3332 116.667V108.6L84.3332 97.6332C84.9563 97.0225 85.794 96.6804 86.6665 96.6804C87.539 96.6804 88.3767 97.0225 88.9998 97.6332L111.367 120H76.6665ZM126.667 116.667C126.667 117.551 126.315 118.398 125.69 119.024C125.065 119.649 124.217 120 123.333 120H120.767L108.067 107.233L111 104.3C111.623 103.689 112.461 103.347 113.333 103.347C114.206 103.347 115.043 103.689 115.667 104.3L126.667 115.267V116.667ZM126.667 105.867L120.4 99.6333C118.5 97.808 115.968 96.7887 113.333 96.7887C110.699 96.7887 108.166 97.808 106.267 99.6333L103.333 102.567L93.7332 92.9666C91.8334 91.1414 89.301 90.122 86.6665 90.122C84.032 90.122 81.4996 91.1414 79.5998 92.9666L73.3332 99.1999V83.3333C73.3332 82.4492 73.6844 81.6014 74.3095 80.9762C74.9346 80.3511 75.7824 79.9999 76.6665 79.9999H123.333C124.217 79.9999 125.065 80.3511 125.69 80.9762C126.315 81.6014 126.667 82.4492 126.667 83.3333V105.867Z" fill="#3CDCAA"/>
</svg>
