<svg width="236" height="369" viewBox="0 0 236 369" fill="none" xmlns="http://www.w3.org/2000/svg">
<path d="M44.7795 83.4358C45.075 86.0314 45.4322 88.6157 45.8509 91.1886C46.3114 91.6319 46.7775 92.0695 47.2436 92.5072C47.4255 92.6777 47.6102 92.8454 47.795 93.0131C48.0593 93.2575 48.3264 93.499 48.5936 93.7378C50.7181 95.6509 52.9499 97.4414 55.2782 99.1004L55.3152 99.1317C57.647 101.301 60.0938 103.344 62.645 105.25C62.9065 106.524 63.1831 107.795 63.4749 109.064C63.5118 109.232 63.5516 109.4 63.5886 109.567C63.8728 110.835 64.1826 112.099 64.5009 113.361C60.4376 110.218 56.155 107.369 51.6858 104.835C50.8332 104.347 49.5798 103.596 48.1531 102.826C49.4722 108.435 51.0734 113.973 52.9505 119.42C57.6058 121.462 62.4809 122.961 67.4794 123.888C68.0043 125.564 68.5528 127.233 69.125 128.895C69.9454 127.088 70.8464 125.318 71.8279 123.586C71.4925 122.526 71.16 121.466 70.8416 120.401C75.613 114.453 79.9716 108.186 83.8869 101.644C86.2487 97.6653 93.7775 87.4912 86.7291 84.1577C83.7249 82.7367 80.9908 84.871 79.2685 87.2127C77.1113 90.1427 75.2896 93.3967 73.6582 96.6337C71.4172 101.061 69.5666 105.676 68.1274 110.425C66.8182 104.982 65.7495 99.4879 64.9215 93.9424C69.0465 89.0735 72.8905 83.9735 76.4349 78.6671C80.0217 73.2845 83.6965 67.6007 86.2857 61.6582C87.2264 59.5012 87.6726 56.7247 85.8025 54.9172C83.7477 52.9279 80.8857 53.7805 78.9417 55.4373C76.7191 57.3385 75.0309 60.1407 73.4223 62.5421C71.659 65.1801 70.0459 67.9156 68.5907 70.7353C66.6348 74.532 64.9583 78.4661 63.5744 82.5065C63.1291 77.3911 62.8913 72.2624 62.861 67.1204C63.2865 63.3521 64.0087 59.6233 65.021 55.9687L77.1369 39.3435C79.5811 35.9844 82.0254 32.6243 84.4696 29.2633C86.2232 26.8448 87.9995 24.1933 87.6272 21.0587C87.306 18.3503 85.3535 15.8097 82.4772 15.6335C79.2998 15.4402 76.9238 17.907 75.1815 20.2459C70.9184 25.9809 67.542 32.3638 64.8789 38.9769C62.7477 44.2986 61.1557 49.8206 60.1269 55.46C59.8938 53.0245 59.5584 50.5975 59.1321 48.1847C58.5092 44.6998 57.6691 41.2573 56.6169 37.8771C55.733 35.0352 54.9116 31.2555 52.7175 29.0842C50.9213 27.2967 47.8859 26.8278 45.9447 28.6466C44.1713 30.3091 44.1713 32.9095 44.5237 35.1432C45.6605 42.0775 47.5988 48.9862 49.5627 55.7215C51.6034 62.7315 53.9567 69.6345 56.6226 76.4305C57.5188 79.2838 58.4917 82.1124 59.5414 84.9165C59.7309 86.8111 59.944 88.7057 60.1809 90.6003C54.0078 80.0056 47.1583 69.5531 37.4241 61.9794C36.4443 61.2021 35.3604 60.5659 34.204 60.0895C32.5584 59.4444 30.7934 59.2966 29.1677 60.2913C26.5445 61.9026 26.4535 65.276 27.3147 67.919C28.6505 72.0056 31.2766 75.6092 34.204 78.9484C35.4573 80.3694 36.7619 81.7562 38.0437 83.1062L41.7867 81.401C43.0032 81.1197 44.5919 81.8074 44.7795 83.4358Z" fill="#1B9770"/>
<path d="M200.429 202.978C200.466 202.847 200.5 202.714 200.537 202.583C200.596 202.546 200.652 202.505 200.705 202.461C212.687 192.878 223.99 181.848 233.131 169.495C234.955 167.025 236.175 163.763 234.29 160.952C232.343 158.053 228.777 158.545 226.273 160.383C223.351 162.518 220.813 165.431 218.357 168.074C215.773 170.857 213.31 173.747 210.968 176.744C208.675 179.689 206.51 182.72 204.474 185.839C205.252 181.877 205.923 177.898 206.486 173.902C213.838 160.558 217.377 145.449 216.717 130.228C216.57 127.13 216.698 123.14 215.137 120.349C213.676 117.738 210.524 116.939 207.927 118.397C204.818 120.151 204.266 123.703 204.056 126.954C203.986 128.045 203.918 129.137 203.851 130.228C203.661 133.502 203.496 136.764 203.328 140.055C202.822 150.063 202.423 160.073 202.129 170.086C202.111 170.457 202.195 170.827 202.37 171.154C201.721 175.281 200.991 179.392 200.182 183.488C200.58 184.804 200.972 186.131 201.268 187.467C201.192 187.615 201.102 187.755 200.998 187.885C200.028 189.073 199.054 190.256 198.076 191.434C197.366 192.292 196.652 193.145 195.936 193.992C195.083 195.015 194.208 196.032 193.344 197.05C194.197 198.826 195.049 200.599 195.902 202.37L195.936 202.432C195.246 205.149 194.524 207.857 193.77 210.555C193.128 212.584 192.459 214.604 191.764 216.616C191.502 214.856 191.171 213.109 190.769 211.376C190.249 209.128 189.53 205.809 188.191 203.078C185.232 206.488 182.24 209.861 179.216 213.198C181.582 219.173 183.958 225.147 186.344 231.119C184.133 236.59 181.775 242.004 179.27 247.36L177.28 236.561C176.996 234.944 176.769 233.151 176.246 231.497C175.982 234.046 175.058 236.483 173.566 238.568C172.074 240.652 170.065 242.312 167.736 243.384C169.347 248.714 171.313 253.93 173.62 258.998C171.878 262.446 170.094 265.871 168.265 269.271C167.759 266.515 167.128 263.781 166.35 261.087C165.719 258.907 164.892 255.534 163.482 252.717C161.566 259.205 159.696 265.708 157.925 272.235C159.238 274.936 160.697 277.563 162.297 280.105C160.707 282.916 159.096 285.711 157.465 288.488L156.954 289.341C156.54 287.209 155.914 285.125 155.086 283.117C154.431 285.798 153.798 288.482 153.188 291.168C152.969 292.132 152.744 293.095 152.528 294.061C152.749 294.263 152.954 294.483 153.139 294.718C154.095 295.929 154.591 297.439 154.541 298.981C154.541 301.885 152.932 304.358 151.247 306.6C150.647 307.398 150.024 308.18 149.396 308.956C149.133 310.282 148.871 311.604 148.612 312.92C148.328 314.429 148.007 315.961 147.68 317.501C148.889 315.779 150.084 314.046 151.266 312.301C167.097 313.622 183.911 312.213 198.988 307.018C201.612 306.114 204.44 304.665 205.264 301.786C206.156 298.66 204.181 295.533 201.418 294.147C198.153 292.507 194.125 293.149 190.658 293.595C186.695 294.111 182.769 294.879 178.903 295.894C171.448 297.835 164.232 300.552 157.076 303.389C160.827 297.439 164.4 291.384 167.793 285.223C182.606 284.896 197.863 281.278 210.809 273.972C213.338 272.551 216.138 270.081 215.595 266.867C215.1 263.923 212.247 262.67 209.524 262.709C206.227 262.761 202.788 263.923 199.642 264.812C196.073 265.824 192.558 267.02 189.112 268.393C183.266 270.724 177.628 273.544 172.258 276.825C175.021 271.454 177.643 266.013 180.125 260.501C193.64 257.31 207.265 252.433 219.213 245.371C221.626 243.95 223.854 241.747 223.433 238.707C223.053 235.981 220.623 233.892 218.016 233.327C214.651 232.594 211.377 234.361 208.572 235.99C205.258 237.915 201.988 239.91 198.761 241.975C193.611 245.263 188.586 248.739 183.667 252.359C186.145 246.459 188.459 240.491 190.61 234.455L190.704 234.418C197.331 231.59 203.81 228.427 210.115 224.94C213.211 223.235 216.26 221.444 219.261 219.566C221.907 217.921 225.298 216.275 226.935 213.493C228.271 211.22 228.276 208.113 226.281 206.215C224.286 204.317 221.271 204.578 218.855 205.408C213.06 207.397 207.861 210.961 203.277 214.957C199.992 217.873 196.905 221.007 194.037 224.335C195.438 219.989 196.753 215.62 197.982 211.228C198.846 208.49 199.662 205.74 200.429 202.978Z" fill="#23C290"/>
<path d="M187.406 158.749L182.461 160.392L182.148 160.497C181.804 161.179 181.578 161.914 181.48 162.671C181.196 164.72 181.602 166.747 182.142 168.727C185.293 168.414 188.46 168.284 191.626 168.338C192.805 168.361 193.983 168.408 195.162 168.48H195.367C195.625 168.494 195.879 168.554 196.117 168.656C195.165 165.843 194.196 162.688 192.382 160.335C191.67 159.398 190.739 158.648 189.671 158.153L189.483 158.309C189.201 158.549 188.863 158.715 188.5 158.791C188.138 158.868 187.762 158.854 187.406 158.749Z" fill="#1B9770"/>
<path d="M199.471 181.027C199.332 180.314 199.187 179.606 199.034 178.896C198.6 176.931 198.098 174.983 197.527 173.053C198.014 174.947 198.47 176.857 198.894 178.782C199.045 179.524 199.244 180.274 199.471 181.027Z" fill="#1B9770"/>
<path d="M173.892 220.157C171.127 216.802 167.519 214.242 163.439 212.74C160.358 211.623 156.902 210.961 153.631 211.469C149.652 212.089 147.409 214.701 145.815 218.228C144.184 221.834 142.76 225.796 142.345 229.754C141.97 233.312 142.206 238.141 145.809 240.011C149.018 241.676 153.199 242.364 156.726 242.989C160.197 243.629 163.735 243.827 167.256 243.58C167.421 243.509 167.58 243.43 167.742 243.353C170.07 242.281 172.08 240.621 173.572 238.536C175.064 236.452 175.987 234.015 176.251 231.465C176.282 231.212 176.314 230.959 176.331 230.704C176.601 226.875 175.597 223.354 173.892 220.157Z" fill="#FF4747"/>
<path d="M114.053 88.5909C113.513 82.8105 113.05 76.9959 112.237 71.2553C112.121 70.3272 111.812 69.4337 111.33 68.6322C106.362 70.1469 101.34 71.4741 96.3068 72.7587C96.304 72.8022 96.304 72.8459 96.3068 72.8894L97.1595 94.2663C101.72 92.1149 106.479 90.4131 111.37 89.1849C112.26 88.9689 113.155 88.7728 114.053 88.5909Z" fill="#FF4747"/>
<path d="M168.328 104.207C170.332 98.1515 172.65 92.2039 175.271 86.3886C175.462 85.9744 175.547 85.5194 175.519 85.0643C173.336 84.1634 171.142 83.2938 168.913 82.5236C165.008 81.1766 161.012 80.1165 157.144 78.6956C156.766 79.4543 156.465 80.2728 156.144 80.9691L154.009 85.6156L151.051 92.0554C157.608 94.8318 163.498 98.9746 168.328 104.207Z" fill="#FF4747"/>
<path d="M195.164 168.48C193.381 172.173 192.707 176.304 193.224 180.373C193.741 184.441 195.427 188.273 198.077 191.403C199.055 190.224 200.029 189.041 200.999 187.853C201.103 187.724 201.193 187.584 201.269 187.435C200.984 186.111 200.581 184.784 200.183 183.457C199.936 182.638 199.686 181.825 199.455 181.016C199.242 180.262 199.043 179.512 198.887 178.77C198.461 176.853 198.005 174.943 197.52 173.041C197.156 171.614 196.777 170.194 196.383 168.778C196.305 168.734 196.225 168.695 196.142 168.662C195.904 168.559 195.65 168.5 195.391 168.486L195.164 168.48Z" fill="#FF4747"/>
<path d="M107.127 138.967C108.906 135.693 111.21 132.734 113.948 130.208C116.168 128.158 118.646 126.408 121.32 125.002C122.154 124.139 123.161 123.461 124.275 123.014C125.389 122.567 126.584 122.36 127.783 122.407C128.295 122.421 128.804 122.476 129.307 122.572C130.588 122.813 131.803 123.325 132.871 124.072C134.967 125.542 136.459 127.722 137.071 130.208C137.684 132.758 137.553 135.431 136.693 137.91C146.83 135.581 156.907 133.014 166.925 130.208C168.787 129.685 170.647 129.156 172.504 128.622C171.396 121.85 169.881 114.998 166.82 108.896C166.925 108.553 167.036 108.212 167.141 107.87C162.488 102.435 156.687 98.1005 150.156 95.1785L150.475 93.2858C147.428 91.9683 144.242 91.0024 140.976 90.4069C140.669 90.3501 140.36 90.2904 140.053 90.2393L139.655 91.6773C139.021 91.538 138.382 91.3931 137.742 91.2851C133.391 90.4969 128.961 90.2259 124.546 90.478L124.1 89.7675L123.219 89.8698C122.651 89.938 121.855 90.0375 120.962 90.154C118.495 90.4893 115.309 90.9895 114.315 91.4613L114.269 91.8847C108.392 93.1967 102.691 95.2 97.2847 97.8528V97.8869C97.2912 98.0051 97.3054 98.1228 97.3273 98.2392C89.2053 102.802 82.1145 108.994 76.5003 116.427C74.7874 118.71 73.2248 121.101 71.8222 123.586C70.8426 125.314 69.9416 127.084 69.1193 128.895C68.9298 129.333 68.7347 129.771 68.5338 130.211C66.5143 134.916 65.0207 139.83 64.0803 144.864C61.5148 140.089 59.1786 135.205 57.0716 130.211C55.5747 126.66 54.1992 123.061 52.9449 119.411C51.0677 113.964 49.4665 108.426 48.1474 102.818C47.2436 98.9696 46.4743 95.0914 45.8396 91.1828C45.4246 88.608 45.0675 86.0238 44.7681 83.43C44.5805 81.8016 42.9918 81.1224 41.7754 81.4038L38.038 83.1089L34.204 84.8141C27.2209 87.9402 20.235 91.0663 13.3429 94.3941C17.0648 109.61 18.4591 125.302 17.4781 140.936L17.2593 141.01C17.1683 148.285 15.7814 155.436 14.0875 162.563L14.5877 162.43C14.5138 162.776 14.4456 163.123 14.3717 163.467C13.7578 166.323 13.0814 169.151 12.3822 171.993L11.7172 172.132C10.3899 177.486 9.15927 182.852 8.39759 188.274H8.56242C8.40894 189.032 8.25927 189.797 8.11338 190.57C7.66717 192.929 7.28064 195.302 6.97653 197.692C6.76337 199.397 6.60989 201.085 6.50473 202.782C5.97311 210.835 6.82774 218.919 9.03137 226.682C10.6256 219.653 12.8016 212.769 15.537 206.101C30.2534 170.356 64.913 132.842 107.127 138.967Z" fill="#FF4747"/>
<path d="M189.988 157.899C198.008 151.127 201.836 140.564 200.521 130.208L200.469 129.796C200.453 129.69 200.429 129.585 200.398 129.483C200.165 129.722 199.935 129.963 199.708 130.208C192.824 137.616 189.155 147.776 189.988 157.899Z" fill="#FF4747"/>
<path d="M182.15 160.497L182.463 160.392L182.179 160.426C172.902 161.503 163.577 163.328 154.738 166.323C157.706 167.976 160.215 170.344 162.037 173.212L172.413 168.79L173.343 163.422L182.15 160.497Z" fill="#FF4747"/>
<path d="M1.73509 174.243C1.82036 175.971 1.87719 177.696 1.88856 179.421C1.90562 182.482 1.64415 185.56 1.66973 188.626L5.14279 188.456C5.88742 183.218 7.10384 178.026 8.40552 172.848L1.73509 174.243Z" fill="#FF4747"/>
<path d="M1.71949 146.333C1.62286 146.307 1.52053 146.296 1.42106 146.279C0.946423 146.43 0.474633 146.586 0 146.739C0.238737 153.02 0.721907 159.272 1.16528 165.524L1.19938 166.008C1.29513 165.993 1.39001 165.973 1.48359 165.948L10.7688 163.467C12.4911 156.388 13.9264 149.294 14.077 142.113L1.71949 146.333Z" fill="#FF4747"/>
<path d="M122.686 331.176C114.728 323.921 105.315 315.679 102.083 304.985C101.421 302.797 101.231 300.461 102.223 298.395C102.339 298.147 102.47 297.906 102.615 297.673C103.056 296.972 103.637 296.368 104.32 295.9C104.942 295.476 105.643 295.182 106.382 295.036C107.12 294.889 107.881 294.893 108.617 295.047C113.477 296.031 116.993 301.976 119.452 305.798C121.799 309.447 123.774 313.323 125.346 317.368C125.798 311.769 126.088 306.159 126.273 300.572C126.474 294.467 126.557 288.352 126.617 282.25C124.288 279.85 121.961 277.447 119.636 275.043C118.411 273.773 116.936 271.954 117.107 270.212C113.46 267.205 110.066 263.905 106.958 260.345C103.965 256.912 98.1982 250.648 103.064 246.274C107.807 242.011 113.077 249.918 115.618 253.095C117.528 255.496 119.297 258.007 120.915 260.615C119.817 256.567 119.024 252.444 118.542 248.278C118.17 245.007 117.823 241.574 118.048 238.283C118.201 236.038 119.244 233.705 121.72 233.352C124.32 232.983 126.196 235.157 126.835 237.442C127.671 240.505 127.824 243.904 128.063 247.059C128.517 253.149 128.484 259.267 127.964 265.352C128.172 265.25 128.393 265.173 128.62 265.125C128.922 259.499 129.821 253.921 131.3 248.485C132.281 244.927 134.231 235.717 139.514 236.617C138.619 233.292 138.911 229.425 139.625 226.205C140.964 220.151 143.561 211.881 149.74 209.202C155.376 206.757 162.35 208.349 167.617 211.006C170.636 212.545 173.351 214.619 175.629 217.128C176.831 215.823 178.019 214.505 179.21 213.189C182.241 209.847 185.233 206.473 188.185 203.069C189.919 201.07 191.641 199.061 193.352 197.041C194.205 196.024 195.086 195.006 195.944 193.983C192.9 190.541 190.883 186.314 190.121 181.783C189.36 177.251 189.884 172.597 191.636 168.349C188.469 168.295 185.303 168.425 182.151 168.738C181.606 168.79 181.06 168.838 180.517 168.903L162.157 176.724C162.048 176.786 161.933 176.836 161.813 176.872L150.968 181.493C149.041 182.314 147.367 179.478 149.308 178.651L158.971 174.536C156.893 171.46 153.869 169.145 150.357 167.943C139.253 172.302 129.095 178.699 121.032 188.032C119.645 189.638 117.337 187.299 118.704 185.705C135.697 166.041 161.705 158.957 186.687 156.677C186.329 147.106 189.405 137.721 195.362 130.219C195.974 129.461 196.615 128.719 197.286 127.991C191.946 128.548 186.631 129.291 181.341 130.219C178.914 130.644 176.497 131.105 174.088 131.603C161.721 135.203 149.257 138.436 136.695 141.303L136.254 139.225V139.165C135.832 138.91 135.429 138.625 135.046 138.313C134.104 137.521 133.247 136.633 132.488 135.664C131.067 133.905 129.672 131.956 128.1 130.228C127.061 129.042 125.877 127.991 124.576 127.102C122.675 127.959 120.866 129.006 119.176 130.228C115.074 133.177 111.748 137.078 109.484 141.595C109.138 142.286 108.316 142.468 107.626 142.351C96.1633 140.442 84.3202 142.303 73.6623 146.765C55.541 154.338 40.8615 169.153 30.2121 185.364C20.428 200.252 13.8261 217.001 10.8203 234.56C11.4456 249.128 14.9527 262.828 20.3755 275.79C20.8302 276.879 21.2935 277.964 21.7767 279.044C22.0582 278.783 22.3625 278.547 22.6861 278.34C24.8945 276.919 28.0037 276.74 30.7862 278.146C33.5686 279.553 35.7797 282.08 37.8431 284.313C40.0692 286.735 42.1449 289.291 44.0588 291.967C44.6926 292.848 45.298 293.748 45.8891 294.655C43.8258 284.708 42.0239 274.699 40.2646 264.707C40.084 264.612 39.9199 264.488 39.7786 264.34C37.0956 261.479 34.3786 258.657 31.7241 255.752C31.0199 255.009 30.4333 254.163 29.9847 253.243C26.7317 251.336 23.6132 249.209 20.6512 246.877C17.8347 244.603 10.9283 239.448 14.2024 235.225C17.684 230.74 23.4251 235.552 26.0199 238.351C30.1865 242.83 34.1228 247.516 38.062 252.191C34.2766 246.484 31.116 240.386 28.6347 234.003C27.4325 230.905 26.145 227.643 25.5368 224.366C25.0849 221.93 25.3464 219 27.7366 217.651C34.0773 214.073 37.5021 224.863 39.034 228.811C41.1895 234.418 42.7424 240.239 43.6666 246.175C43.9132 246.203 44.1555 246.26 44.3885 246.345C43.1806 239.946 42.4868 233.46 42.3138 226.949C42.2313 223.579 42.0296 219.955 42.5838 216.616C42.9987 214.124 44.7551 211.614 47.5546 211.728C50.2177 211.836 51.5762 214.2 51.9798 216.559C52.5738 220.029 52.5738 223.71 52.5312 227.216C52.4709 231.692 52.0728 236.157 51.3403 240.573C52.7777 237.633 54.3843 234.779 56.152 232.025C58.5081 228.373 63.2573 219.415 68.7369 223.431C74.3671 227.546 68.9245 234.799 66.1165 238.777C63.2041 242.889 59.9589 246.755 56.4135 250.335C56.7801 252.174 55.4102 254.263 54.2506 255.735C52.0452 258.541 49.834 261.34 47.6172 264.133C48.339 270.607 49.0837 277.081 49.9534 283.535C50.752 289.443 51.6586 295.363 52.7443 301.257C53.9755 296.796 55.6533 292.47 57.7521 288.346C59.9491 284.029 63.0413 277.342 68.0889 275.773C69.3868 275.367 70.7846 275.416 72.0508 275.913C73.0613 276.311 73.9528 276.961 74.64 277.802L74.7508 277.93C76.4902 280.147 76.6237 282.955 76.1036 285.629C73.8299 297.324 64.7352 307.077 57.0615 315.631C56.7755 315.971 56.381 316.202 55.9445 316.285C57.8853 324.309 60.3538 332.196 63.334 339.895C65.585 342.482 67.8416 345.039 70.1039 347.569C72.7301 350.504 75.3789 353.537 78.2097 356.398C74.3744 346.511 71.6723 336.221 70.1551 325.726L69.9817 325.638C66.6252 323.785 65.9743 319.266 67.9439 316.171C68.9336 314.62 70.4916 313.518 72.2841 313.101C74.0766 312.685 75.9609 312.987 77.5332 313.943C80.8187 315.918 81.6912 320.306 79.6676 323.503C79.0793 324.424 78.2589 325.174 77.2888 325.677C79.3955 339.196 83.2792 352.377 88.8391 364.879C90.0368 365.568 91.2765 366.182 92.5509 366.717C94.8773 367.686 97.3237 368.336 99.8239 368.65C95.4174 361.352 92.2771 353.362 90.5359 345.017C90.5359 344.951 90.5188 344.889 90.5103 344.826C90.1998 344.721 89.8993 344.589 89.6122 344.431C86.2557 342.575 85.6048 338.06 87.5744 334.965C88.5635 333.413 90.121 332.312 91.913 331.895C93.7051 331.479 95.589 331.781 97.1609 332.737C100.446 334.726 101.322 339.1 99.2981 342.294C98.5608 343.446 97.4684 344.327 96.186 344.803C98.4276 353.336 102.117 361.422 107.094 368.707C109.814 368.391 112.488 367.756 115.06 366.817C119.403 355.509 122.112 343.687 123.797 331.682C123.379 331.647 122.987 331.468 122.686 331.176Z" fill="#FF4747"/>
<path d="M133.965 271.062C133.862 271.252 133.732 271.427 133.578 271.579C133.578 271.65 133.595 271.718 133.601 271.789C133.723 271.567 133.854 271.349 133.982 271.13C133.997 271.059 134.016 270.989 134.039 270.919C134.013 270.959 133.99 271.016 133.965 271.062Z" fill="#FF4747"/>
<path d="M49.6635 312.096C44.2264 309.232 39.0733 305.859 34.2734 302.021C40.4522 311.684 47.4495 320.937 54.7679 329.815C52.949 323.986 51.3204 318.101 49.8425 312.178C49.7829 312.167 49.7232 312.127 49.6635 312.096Z" fill="#FF4747"/>
<path d="M144.984 243.234C144.467 243.012 143.971 242.746 143.501 242.438C143.501 242.642 143.501 242.847 143.469 243.049C143.211 246.175 142.332 249.329 141.48 252.333C139.768 258.525 137.395 264.515 134.403 270.2C137.635 265.466 140.866 260.723 144.328 256.15C145.965 253.99 149.159 250.58 152.229 250.731C152.771 250.762 153.301 250.901 153.789 251.14C154.277 251.378 154.713 251.712 155.071 252.12C157.39 254.556 155.469 257.804 153.226 260.421C152.126 261.698 150.953 262.817 150.157 263.602C147.613 266.057 144.905 268.336 142.051 270.422C141.718 271.322 141.25 272.166 140.664 272.926C138.464 275.876 136.196 278.775 133.962 281.699C133.846 281.851 133.704 281.982 133.545 282.088C132.848 291.577 132.124 301.086 131.129 310.561C131.595 309.66 132.075 308.762 132.581 307.881C134.114 305.203 135.81 302.621 137.66 300.151C139.365 297.878 141.218 295.289 143.66 293.729C144.273 293.339 144.933 293.028 145.624 292.805C147.234 292.263 148.979 292.281 150.577 292.856C151.301 293.124 151.967 293.526 152.541 294.041C152.757 293.075 152.982 292.112 153.201 291.148C153.815 288.464 154.447 285.78 155.099 283.097C155.836 280.106 156.602 277.119 157.396 274.137C157.569 273.491 157.751 272.846 157.927 272.201C159.698 265.665 161.568 259.171 163.483 252.683C164.052 250.767 164.62 248.853 165.189 246.939C158.334 247.124 151.126 245.851 144.984 243.234Z" fill="#FF4747"/>
<path d="M38.6055 253.055L38.5117 252.911C38.543 252.984 38.5686 253.055 38.5942 253.129C38.7505 253.348 38.9125 253.567 39.0688 253.789V253.561C38.8911 253.416 38.7351 253.245 38.6055 253.055Z" fill="#FF4747"/>
<path d="M149.406 308.939C148.114 310.53 146.767 312.075 145.365 313.574C142.977 316.124 140.442 318.534 137.774 320.789C135.052 323.093 132.199 325.235 129.227 327.207C129.173 327.241 129.122 327.272 129.068 327.3C127.872 335.573 126.385 343.8 124.441 351.943C123.695 355.785 122.902 359.619 122.062 363.444C137.873 353.781 143.989 334.911 147.69 317.484C148.017 315.944 148.329 314.412 148.622 312.903C148.882 311.579 149.143 310.257 149.406 308.939Z" fill="#FF4747"/>
<path d="M140.394 88.6676C141.366 84.0779 142.384 79.4854 143.182 74.8673C143.233 74.5632 143.268 74.2591 143.293 73.9579C141.741 73.0977 140.23 72.1665 138.76 71.1643C135.107 70.3837 131.441 69.6628 127.764 69.0016C127.067 70.252 126.999 71.8975 126.778 73.2645C126.02 77.9517 125.262 82.639 124.504 87.3263C129.836 87.1054 135.175 87.556 140.394 88.6676Z" fill="#FF4747"/>
<path d="M14.0778 142.11C13.9271 149.292 12.4919 156.385 10.7695 163.464L14.0891 162.575C15.7944 155.447 17.17 148.297 17.2609 141.022L14.0778 142.11Z" fill="#151F2D"/>
<path d="M8.40336 172.848C7.10168 178.026 5.88526 183.218 5.14062 188.456L8.40052 188.294C9.148 182.872 10.39 177.495 11.7201 172.152L8.40336 172.848Z" fill="#151F2D"/>
<path d="M137.755 91.2853C138.395 91.4046 139.034 91.5382 139.668 91.6775L140.066 90.2394C140.174 89.7146 140.284 89.1908 140.396 88.6679C135.177 87.5555 129.84 87.1039 124.508 87.3236C124.378 88.1393 124.244 88.952 124.113 89.7677L124.56 90.4782C128.975 90.2261 133.404 90.497 137.755 91.2853Z" fill="#151F2D"/>
<path d="M114.326 91.4642C114.232 90.5065 114.139 89.5488 114.042 88.5911C113.144 88.7729 112.249 88.9691 111.359 89.1907C106.468 90.4189 101.709 92.1207 97.1484 94.2721C97.1939 95.4657 97.2413 96.6593 97.2905 97.8529C102.697 95.2001 108.398 93.1968 114.275 91.8848L114.326 91.4642Z" fill="#151F2D"/>
<path d="M167.151 107.87C167.53 106.646 167.923 105.425 168.328 104.207C163.498 98.9754 157.608 94.8336 151.051 92.058C150.861 92.4672 150.672 92.8765 150.482 93.2857L150.164 95.1784C156.696 98.1 162.498 102.435 167.151 107.87Z" fill="#151F2D"/>
<path d="M73.631 146.768C84.3032 142.306 96.132 140.444 107.594 142.354C108.285 142.471 109.106 142.289 109.453 141.598C111.717 137.081 115.042 133.18 119.145 130.231C120.835 129.009 122.644 127.962 124.545 127.105C123.43 126.355 122.185 125.821 120.873 125.533C121.012 125.354 121.157 125.186 121.319 125.019C118.645 126.425 116.166 128.175 113.946 130.225C111.208 132.751 108.904 135.71 107.125 138.984C64.9114 132.842 30.2519 170.356 15.5411 206.113C12.8096 212.781 10.6374 219.665 9.04688 226.694C9.16909 227.123 9.2913 227.546 9.42488 227.975C9.88815 229.467 10.4083 230.939 10.971 232.392C10.8084 232.718 10.733 233.082 10.7521 233.446C10.7521 233.818 10.7834 234.185 10.7976 234.554C13.8033 216.995 20.4053 200.246 30.1894 185.358C40.8302 169.142 55.5097 154.327 73.631 146.768Z" fill="#151F2D"/>
<path d="M136.697 137.909C136.558 138.33 136.413 138.748 136.223 139.154V139.214L136.663 141.291C149.22 138.425 161.684 135.191 174.057 131.592L172.991 131.813C172.911 131.279 172.826 130.742 172.741 130.208C172.656 129.673 172.582 129.151 172.494 128.622C170.637 129.158 168.777 129.687 166.915 130.208C156.908 133.014 146.836 135.581 136.697 137.909Z" fill="#151F2D"/>
<path d="M186.679 156.666C161.697 158.939 135.689 166.03 118.696 185.693C117.317 187.288 119.637 189.626 121.023 188.021C129.087 178.688 139.244 172.291 150.348 167.931C153.86 169.134 156.885 171.449 158.963 174.525L149.3 178.64C147.358 179.467 149.032 182.303 150.959 181.482L161.805 176.861C161.925 176.824 162.04 176.775 162.149 176.713L180.509 168.892C177.702 169.222 174.914 169.696 172.156 170.313C172.243 169.803 172.33 169.295 172.417 168.79L162.041 173.212C160.219 170.344 157.71 167.976 154.742 166.323C163.581 163.327 172.906 161.492 182.183 160.426L182.467 160.392L187.412 158.749C187.767 158.855 188.143 158.871 188.505 158.796C188.868 158.722 189.206 158.558 189.49 158.32L189.678 158.164L189.993 157.899C189.16 147.776 192.835 137.617 199.713 130.208C199.94 129.963 200.171 129.722 200.404 129.483C200.318 129.121 200.113 128.799 199.822 128.568C199.53 128.337 199.17 128.211 198.798 128.21C198.422 127.981 197.978 127.89 197.542 127.951L197.275 127.98C196.604 128.698 195.962 129.44 195.35 130.208C189.395 137.71 186.32 147.094 186.679 156.666Z" fill="#151F2D"/>
<path d="M195.163 168.48C193.984 168.406 192.806 168.359 191.627 168.338C189.876 172.586 189.352 177.24 190.113 181.771C190.875 186.303 192.892 190.53 195.936 193.972C196.652 193.117 197.366 192.265 198.076 191.414C195.424 188.283 193.736 184.45 193.219 180.379C192.702 176.308 193.377 172.175 195.163 168.48Z" fill="#151F2D"/>
<path d="M143.497 242.438C143.967 242.746 144.464 243.012 144.98 243.234C151.122 245.851 158.338 247.124 165.188 246.928C165.474 245.962 165.758 244.996 166.04 244.03C166.45 243.89 166.847 243.745 167.237 243.566C163.716 243.813 160.178 243.615 156.707 242.975C153.168 242.35 148.999 241.662 145.79 239.997C142.186 238.127 141.951 233.298 142.326 229.74C142.741 225.782 144.165 221.82 145.796 218.214C147.39 214.687 149.63 212.075 153.612 211.456C156.886 210.947 160.339 211.609 163.42 212.726C167.5 214.228 171.108 216.788 173.873 220.143C173.742 219.902 173.609 219.66 173.47 219.424C174.186 218.651 174.891 217.875 175.61 217.102C173.334 214.6 170.623 212.531 167.609 210.995C162.343 208.327 155.368 206.732 149.732 209.191C143.554 211.87 140.956 220.14 139.617 226.194C138.904 229.414 138.611 233.281 139.506 236.606C139.944 236.682 140.371 236.812 140.777 236.993C142.931 237.936 143.551 240.267 143.497 242.438Z" fill="#151F2D"/>
<path d="M30.8775 249.122C33.4013 247.335 35.7972 249.577 37.3376 251.47C37.7753 252.007 38.1902 252.558 38.5938 253.115C38.5682 253.041 38.5426 252.97 38.5114 252.896L38.6052 253.041C38.7348 253.231 38.8908 253.401 39.0684 253.547C39.0684 252.956 39.0684 252.368 39.0684 251.779C39.1054 249.367 39.8472 246.618 42.6239 246.178C42.9557 246.125 43.2931 246.116 43.6272 246.152C42.703 240.216 41.1501 234.396 38.9945 228.788C37.4626 224.841 34.0379 214.05 27.6971 217.628C25.3069 218.978 25.0454 221.908 25.4973 224.344C26.1056 227.62 27.393 230.88 28.5953 233.98C31.0766 240.364 34.2372 246.461 38.0225 252.169C34.0834 247.494 30.147 242.807 25.9805 238.329C23.3857 235.535 17.6446 230.724 14.163 235.203C10.8889 239.426 17.7952 244.581 20.6117 246.854C23.5738 249.187 26.6923 251.314 29.9453 253.22C29.3029 251.802 29.2546 250.267 30.8775 249.122Z" fill="#FEF7EC"/>
<path d="M46.8923 250.577C46.935 251.6 46.9321 252.632 46.8923 253.666C47.4437 252.757 47.9922 251.844 48.5464 250.935C49.868 248.775 52.335 246.36 54.981 248.275C55.6912 248.745 56.1915 249.473 56.3765 250.304C59.9218 246.724 63.1671 242.858 66.0794 238.746C68.8874 234.767 74.3216 227.515 68.6999 223.4C63.2089 219.384 58.4683 228.342 56.115 231.994C54.3499 234.751 52.7462 237.608 51.3118 240.551C52.0443 236.135 52.4424 231.67 52.5027 227.194C52.5453 223.687 52.5453 220.006 51.9513 216.537C51.5477 214.175 50.1892 211.81 47.5261 211.705C44.7266 211.592 42.9788 214.101 42.5553 216.593C41.9869 219.933 42.2029 223.556 42.2853 226.927C42.4583 233.437 43.1521 239.923 44.36 246.323C45.963 246.911 46.8128 248.752 46.8923 250.577Z" fill="#FEF7EC"/>
<path d="M57.0341 315.603C64.7078 307.049 73.8025 297.296 76.0762 285.601C76.5963 282.927 76.4628 280.119 74.7234 277.902L74.6125 277.774C68.9873 287.956 62.6447 297.725 55.6329 307.006C55.4957 307.191 55.3227 307.345 55.1242 307.461L53.1972 304.986C60.1502 295.741 66.4413 286.016 72.0234 275.885C70.7572 275.388 69.3594 275.339 68.0615 275.745C63.0139 277.314 59.9217 284.001 57.7247 288.318C55.6259 292.442 53.9481 296.768 52.7169 301.229C51.6341 295.335 50.7274 289.415 49.926 283.507C49.0563 277.053 48.3116 270.579 47.5897 264.105C49.8028 261.308 52.014 258.509 54.2232 255.707C55.3828 254.232 56.7527 252.143 56.3861 250.307C56.2011 249.476 55.7008 248.749 54.9906 248.278C52.3446 246.363 49.8748 248.778 48.5561 250.938C47.9876 251.848 47.4533 252.76 46.9019 253.669C46.9332 252.635 46.936 251.603 46.9019 250.58C46.8224 248.756 45.9726 246.914 44.3696 246.317C44.1366 246.232 43.8943 246.175 43.6477 246.147C43.3137 246.11 42.9762 246.119 42.6445 246.172C39.8677 246.613 39.1259 249.361 39.089 251.774C39.089 252.362 39.089 252.95 39.089 253.541V253.769C38.9327 253.547 38.7707 253.328 38.6143 253.109C38.2108 252.541 37.7958 252.001 37.3581 251.464C35.8177 249.571 33.4218 247.329 30.898 249.117C29.2752 250.253 29.3235 251.797 29.9772 253.226C30.4258 254.146 31.0124 254.992 31.7165 255.735C34.3682 258.628 37.0881 261.462 39.7711 264.324C39.9123 264.471 40.0764 264.595 40.2571 264.69C42.0163 274.682 43.8183 284.692 45.8816 294.638C45.2905 293.732 44.6851 292.831 44.0513 291.95C42.1304 289.281 40.0479 286.731 37.8157 284.317C35.7523 282.083 33.5156 279.539 30.7587 278.15C28.0019 276.76 24.867 276.919 22.6587 278.343C30.2813 286.64 38.3457 294.521 46.8167 301.951C47.0497 303.312 47.3567 305.148 47.6011 306.631C47.3637 306.565 47.1442 306.447 46.9588 306.285C37.6428 298.276 28.8056 289.727 20.493 280.682C19.8308 281.971 19.576 283.431 19.7626 284.868C20.0923 287.948 22.0363 290.401 24.0769 292.601C26.2873 294.985 28.625 297.247 31.0799 299.379C32.123 300.291 33.1916 301.169 34.2744 302.033C39.0743 305.87 44.2274 309.244 49.6645 312.108C49.7242 312.139 49.7839 312.164 49.8435 312.19C51.3214 318.113 52.95 323.998 54.7689 329.827C57.5712 333.237 60.4133 336.588 63.2952 339.879C60.315 332.18 57.8465 324.292 55.9058 316.268C56.3479 316.185 56.747 315.95 57.0341 315.603Z" fill="#F9AF42"/>
<path d="M153.223 260.422C155.466 257.818 157.387 254.556 155.068 252.12C154.71 251.712 154.274 251.379 153.786 251.14C153.298 250.901 152.768 250.762 152.226 250.731C149.17 250.58 145.973 253.99 144.324 256.15C140.863 260.723 137.631 265.466 134.4 270.201C137.392 264.515 139.764 258.525 141.477 252.333C142.307 249.33 143.182 246.167 143.466 243.049C143.483 242.847 143.492 242.643 143.497 242.438C143.551 240.275 142.929 237.936 140.778 236.993C140.372 236.811 139.945 236.682 139.507 236.606C134.224 235.705 132.274 244.916 131.293 248.474C129.814 253.91 128.915 259.488 128.613 265.114C128.922 265.047 129.239 265.023 129.554 265.043C132.183 265.19 133.138 267.683 133.399 269.931C133.462 270.479 133.519 271.028 133.576 271.579C133.73 271.427 133.86 271.252 133.962 271.062C133.988 271.016 134.01 270.968 134.036 270.92C134.014 270.989 133.995 271.059 133.979 271.13C134.303 270.561 134.636 270.019 134.994 269.476C136.253 267.563 138.276 265.247 140.8 266.677C142.42 267.592 142.523 269.027 142.048 270.425C144.902 268.339 147.61 266.06 150.154 263.604C150.947 262.817 152.123 261.698 153.223 260.422Z" fill="#FEF7EC"/>
<path d="M128.055 247.048C127.816 243.893 127.662 240.494 126.827 237.431C126.201 235.157 124.326 232.972 121.711 233.341C119.235 233.693 118.192 236.027 118.039 238.272C117.814 241.563 118.161 244.996 118.533 248.267C119.015 252.433 119.808 256.556 120.907 260.604C119.294 257.997 117.531 255.486 115.626 253.084C113.085 249.898 107.816 242 103.072 246.263C98.2066 250.637 103.973 256.901 106.966 260.334C110.074 263.894 113.469 267.194 117.115 270.201C117.207 269.406 117.606 268.679 118.226 268.174C120.5 266.137 123.041 268.157 124.479 270.047C125.082 270.843 125.682 271.641 126.281 272.44C126.156 271.477 126.054 270.513 125.997 269.556C125.897 267.851 126.517 266.049 127.958 265.35C128.478 259.261 128.51 253.141 128.055 247.048Z" fill="#FEF7EC"/>
<path d="M129.071 327.3C129.125 327.272 129.177 327.241 129.231 327.207C132.202 325.236 135.055 323.093 137.777 320.79C140.445 318.534 142.98 316.124 145.368 313.574C146.768 312.079 148.115 310.534 149.41 308.939C150.038 308.163 150.66 307.381 151.26 306.583C152.945 304.341 154.54 301.868 154.554 298.964C154.604 297.422 154.108 295.912 153.153 294.701C146.18 303.482 138.87 311.979 131.223 320.19C131.097 320.334 130.943 320.452 130.771 320.535C130.598 320.619 130.411 320.667 130.22 320.676L130.848 315.913C137.695 308.463 144.272 300.779 150.578 292.859C148.979 292.284 147.234 292.266 145.624 292.808C144.933 293.031 144.273 293.342 143.66 293.732C141.219 295.292 139.371 297.875 137.66 300.154C135.81 302.624 134.114 305.206 132.581 307.884C132.076 308.765 131.595 309.664 131.129 310.564C132.112 301.089 132.834 291.58 133.545 282.091C133.705 281.985 133.846 281.854 133.963 281.702C136.197 278.778 138.465 275.879 140.664 272.929C141.251 272.169 141.718 271.325 142.051 270.425C142.526 269.027 142.424 267.583 140.804 266.677C138.28 265.256 136.256 267.563 134.997 269.476C134.639 270.019 134.307 270.573 133.983 271.13C133.855 271.349 133.724 271.568 133.602 271.789C133.602 271.718 133.602 271.65 133.579 271.579C133.522 271.028 133.465 270.479 133.403 269.931C133.141 267.683 132.186 265.19 129.557 265.043C129.242 265.023 128.925 265.047 128.617 265.114C128.389 265.162 128.169 265.239 127.96 265.341C126.519 266.04 125.9 267.839 125.999 269.547C126.056 270.505 126.158 271.468 126.283 272.432C125.683 271.632 125.082 270.834 124.481 270.039C123.043 268.149 120.502 266.128 118.229 268.166C117.608 268.67 117.209 269.398 117.117 270.192C116.947 271.94 118.422 273.759 119.647 275.023C121.966 277.431 124.293 279.834 126.627 282.231C126.567 288.338 126.485 294.451 126.283 300.552C126.099 306.14 125.809 311.749 125.357 317.348C123.785 313.304 121.81 309.428 119.462 305.779C117.004 301.956 113.494 296.011 108.628 295.028C107.891 294.873 107.131 294.869 106.393 295.016C105.654 295.162 104.953 295.456 104.331 295.88C110.623 304.595 116.914 313.321 123.202 322.057C122.634 322.759 121.847 323.737 121.167 324.615C121.118 324.565 121.072 324.513 121.028 324.459L102.225 298.378C101.244 300.444 101.423 302.78 102.086 304.969C105.317 315.663 114.719 323.904 122.688 331.16C122.987 331.45 123.376 331.629 123.791 331.666C122.105 343.67 119.397 355.492 115.054 366.8C116.805 366.17 118.507 365.41 120.144 364.527C120.801 364.174 121.437 363.802 122.066 363.418C122.905 359.593 123.698 355.759 124.444 351.917C126.388 343.801 127.875 335.573 129.071 327.3Z" fill="#F9AF42"/>
<path d="M92.2525 345.082C91.6448 345.09 91.0401 344.994 90.4648 344.798C90.4648 344.86 90.4649 344.923 90.4904 344.988C92.2316 353.333 95.3719 361.324 99.7785 368.622C102.191 368.926 104.631 368.945 107.049 368.679C102.072 361.393 98.3822 353.308 96.1406 344.775C94.9001 345.245 93.5514 345.352 92.2525 345.082Z" fill="#3CDCAA"/>
<path d="M72.6257 326.288C71.7522 326.299 70.8895 326.095 70.1133 325.695C71.6305 336.19 74.3326 346.48 78.1678 356.367C81.3936 359.613 84.8582 362.591 88.7973 364.848C83.2423 352.345 79.3634 339.164 77.2612 325.646C75.8366 326.389 74.1987 326.616 72.6257 326.288Z" fill="#3CDCAA"/>
<path d="M96.1432 344.772C97.4256 344.296 98.518 343.415 99.2553 342.263C101.279 339.068 100.392 334.681 97.118 332.705C95.5461 331.749 93.6622 331.447 91.8702 331.864C90.0782 332.28 88.5207 333.382 87.5316 334.933C85.562 338.028 86.2128 342.544 89.5694 344.4C89.8565 344.558 90.157 344.69 90.4675 344.795C91.0427 344.991 91.6474 345.087 92.2552 345.079C93.554 345.349 94.9028 345.242 96.1432 344.772Z" fill="#FAC77A"/>
<path d="M77.2632 325.646C78.2333 325.143 79.0537 324.393 79.642 323.472C81.6656 320.275 80.7789 315.887 77.5076 313.912C75.9353 312.956 74.0509 312.654 72.2585 313.07C70.466 313.487 68.9079 314.589 67.9183 316.14C65.9487 319.235 66.5996 323.754 69.9561 325.607L70.1295 325.695C70.9057 326.095 71.7684 326.299 72.6419 326.289C74.2103 326.613 75.8427 326.386 77.2632 325.646Z" fill="#FAC77A"/>
<path d="M163.091 47.4346C162.369 48.2644 161.608 49.063 160.818 49.8331C158.481 52.1067 155.892 54.1557 153.368 56.1365C152.084 57.1425 150.776 58.1258 149.458 59.0779C147.087 60.8001 144.666 62.4569 142.188 64.0228L144.106 65.3045C144.205 65.0206 144.362 64.7603 144.566 64.54C146.246 62.7111 148.042 60.9929 149.944 59.3962C153.352 56.5127 157.119 54.0817 161.15 52.1635C164.18 50.7425 167.607 49.6569 170.941 49.7308C171.731 49.7492 172.517 49.8377 173.292 49.9951C172.994 48.8983 172.428 47.893 171.643 47.0708C170.903 46.306 170.013 45.7022 169.028 45.2973C168.044 44.8924 166.986 44.6951 165.922 44.7177C165.669 44.7177 165.416 44.7376 165.169 44.7603C165.055 44.928 164.944 45.0957 164.825 45.2633C164.271 46.0136 163.691 46.7326 163.091 47.4346Z" fill="#151F2D"/>
<path d="M164.425 62.1811C164.783 64.3551 166.883 66.0404 169.106 65.7505C171.246 65.4663 172.959 63.4145 172.772 61.2461C172.657 60.1913 172.16 59.2151 171.374 58.5015C170.589 57.788 169.57 57.3864 168.509 57.3726C166.212 57.4067 164.513 59.413 164.385 61.5985C164.378 61.7153 164.39 61.8325 164.422 61.9452C164.415 62.0237 164.415 62.1028 164.425 62.1811Z" fill="#FAC77A"/>
<path d="M143.998 74.3471C145.755 75.2849 148.082 76.8366 150.163 76.0522C152.127 75.319 152.695 73.1109 151.706 71.3659C151.613 71.203 151.51 71.0455 151.399 70.8942C150.117 69.1208 147.65 67.8931 145.939 66.708C143.097 64.7357 140.216 62.825 137.296 60.9759C136.924 60.7372 136.546 60.5098 136.16 60.274C136.213 59.9982 136.181 59.7128 136.069 59.4555C131.328 47.8036 127.633 34.4467 128.366 21.7604C128.702 15.997 130.373 10.063 134.179 5.60123C136.205 3.21199 138.831 1.406 141.787 0.369269C141.068 0.333008 140.347 0.346306 139.63 0.40906C138.598 0.498732 137.579 0.705634 136.594 1.02576C134.68 1.64924 132.964 2.76563 131.618 4.26269C127.377 8.92627 126.502 16.8694 126.38 23.1898C126.269 29.4563 127.127 35.6175 128.497 41.6878C129.779 47.3717 131.51 52.9674 133.329 58.5006L131.982 57.6793L131.885 57.6196C131.561 57.4235 131.243 57.2246 130.919 57.0313C130.893 56.4373 130.713 55.8603 130.396 55.3574C129.993 54.7627 129.418 54.3056 128.748 54.0475C128.078 53.7894 127.344 53.7427 126.647 53.9137C125.487 52.6664 124.452 51.308 123.558 49.8583C123.199 49.29 122.281 49.81 122.642 50.3926C123.509 51.7928 124.5 53.1121 125.604 54.3344C125.399 54.4619 125.209 54.6105 125.035 54.7777C124.95 54.8629 124.868 54.951 124.791 55.0448C123.416 53.751 122.202 52.2959 121.176 50.7109C120.806 50.1425 119.888 50.6683 120.258 51.2452C121.38 52.9875 122.717 54.582 124.237 55.9912C123.963 56.6778 123.9 57.4305 124.057 58.153C124.213 58.8754 124.582 59.5347 125.115 60.0466C125.364 60.2702 125.659 60.4369 125.979 60.535C126.299 60.6332 126.637 60.6605 126.968 60.615C130.162 64.3297 133.794 67.6439 137.785 70.485C138.109 70.7151 138.439 70.9368 138.766 71.1613C140.232 72.1617 141.743 73.0929 143.299 73.9549C143.529 74.0856 143.765 74.2221 143.998 74.3471Z" fill="#151F2D"/>
<path d="M134.194 5.60988C130.389 10.0717 128.718 16.0056 128.382 21.769C127.649 34.4525 131.344 47.8151 136.084 59.4641C136.197 59.7215 136.228 60.0069 136.175 60.2826C136.548 60.5185 136.926 60.7458 137.312 60.9846C140.228 62.8394 143.109 64.7501 145.955 66.7167C147.66 67.9018 150.133 69.1295 151.415 70.9028C156.011 71.4705 160.649 71.6227 165.273 71.3575C170.934 71.0165 177.048 69.8371 180.336 64.7046C183.235 60.1746 181.777 54.6613 177.411 51.7171C176.282 50.956 175.025 50.4044 173.7 50.0887C173.566 50.0546 173.415 50.0233 173.296 49.9949C172.522 49.8375 171.735 49.749 170.946 49.7306C167.612 49.6567 164.184 50.7395 161.155 52.1632C157.123 54.0815 153.356 56.5125 149.948 59.3959C148.046 60.9926 146.25 62.7108 144.571 64.5398C144.366 64.76 144.209 65.0203 144.11 65.3043L142.192 64.0226C144.67 62.4567 147.092 60.7998 149.462 59.0776C150.781 58.1171 152.088 57.1423 153.373 56.1362C155.897 54.1469 158.489 52.1064 160.822 49.8329C161.615 49.0627 162.377 48.2642 163.096 47.4343C163.704 46.7352 164.284 46.0134 164.827 45.2631C164.946 45.0954 165.057 44.9277 165.17 44.7601C171.199 35.845 168.359 24.5484 162.669 16.1875C157.915 9.19638 150.877 0.82411 141.814 0.37793C138.854 1.41287 136.223 3.21899 134.194 5.60988ZM168.493 57.3725C169.554 57.3863 170.573 57.7879 171.358 58.5015C172.144 59.215 172.641 60.1912 172.756 61.246C172.944 63.4144 171.23 65.4691 169.09 65.7504C166.867 66.0346 164.767 64.3551 164.409 62.181C164.395 62.1032 164.389 62.0241 164.392 61.9451C164.36 61.8324 164.347 61.7152 164.355 61.5984C164.514 59.413 166.199 57.4066 168.493 57.3725ZM147.248 19.4727C151.159 19.4102 154.694 22.6415 155.03 26.5178C155.371 30.4624 152.253 34.191 148.362 34.7082C144.321 35.2397 140.498 32.1732 139.836 28.2173C139.811 28.0747 139.802 27.9299 139.807 27.7853C139.75 27.5812 139.727 27.3689 139.739 27.1573C139.986 23.1814 143.073 19.5381 147.251 19.4727H147.248Z" fill="#FEF7EC"/>
<path d="M133.333 58.5093C131.526 52.9761 129.795 47.3775 128.502 41.6965C127.132 35.6262 126.273 29.4763 126.384 23.1985C126.495 16.8781 127.382 8.93497 131.622 4.27139C132.968 2.77432 134.685 1.65793 136.599 1.03445C136.17 0.783132 135.718 0.574664 135.249 0.412073C130.701 -1.16803 125.634 2.05754 122.851 5.64404C118.966 10.6543 118.045 17.131 118.793 23.2866C119.617 30.0845 121.902 36.7743 124.511 43.0805C126.594 48.1097 129.057 52.973 131.878 57.6283L131.975 57.688L133.333 58.5093Z" fill="#FEF7EC"/>
<path d="M46.9579 306.27C47.1433 306.432 47.3629 306.551 47.6003 306.617C47.3558 305.133 47.0489 303.297 46.8158 301.936C38.3448 294.507 30.2805 286.626 22.6579 278.328C22.3343 278.536 22.0299 278.771 21.7484 279.033C21.2414 279.504 20.8168 280.056 20.4922 280.667C28.8048 289.713 37.6419 298.262 46.9579 306.27Z" fill="#151F2D"/>
<path d="M55.1223 307.461C55.3207 307.345 55.4938 307.19 55.631 307.006C62.6426 297.726 68.9851 287.96 74.6106 277.78C73.9234 276.939 73.032 276.288 72.0215 275.89C66.4394 286.022 60.1483 295.746 53.1953 304.991L55.1223 307.461Z" fill="#151F2D"/>
<path d="M102.615 297.673C102.47 297.906 102.339 298.147 102.223 298.395L121.026 324.475C121.07 324.53 121.116 324.582 121.165 324.632C121.845 323.756 122.618 322.779 123.2 322.074C116.91 313.359 110.619 304.633 104.329 295.897C103.642 296.366 103.059 296.97 102.615 297.673Z" fill="#151F2D"/>
<path d="M130.847 315.912L130.219 320.676C130.41 320.666 130.598 320.619 130.77 320.535C130.942 320.451 131.096 320.334 131.222 320.19C138.867 311.984 146.177 303.488 153.152 294.7C152.966 294.466 152.762 294.246 152.541 294.044C151.966 293.529 151.3 293.127 150.577 292.859C144.277 300.776 137.7 308.461 130.847 315.912Z" fill="#151F2D"/>
<path d="M139.85 28.2173C140.501 32.1733 144.324 35.2397 148.376 34.7082C152.267 34.1967 155.385 30.4624 155.044 26.5178C154.709 22.6415 151.173 19.4131 147.262 19.4727C143.084 19.5381 139.998 23.1814 139.765 27.1459C139.753 27.3576 139.776 27.5698 139.833 27.774C139.823 27.9219 139.828 28.0706 139.85 28.2173Z" fill="#FAC77A"/>
</svg>
