<svg width="290" height="174" viewBox="0 0 290 174" fill="none" xmlns="http://www.w3.org/2000/svg">
<g clip-path="url(#clip0)">
<path d="M148.816 102.817C141.7 110.213 134.581 117.609 127.46 125.005C125.082 127.461 122.471 130.174 118.982 130.867C115.369 131.582 112.019 129.819 109.247 127.668C105.667 124.894 102.391 121.659 99.0467 118.606C95.5877 115.448 92.1538 112.267 88.745 109.063C86.3558 106.818 83.9785 104.565 81.6131 102.304C77.2745 107.851 72.8989 113.367 68.4864 118.854C53.6586 137.269 38.3896 155.313 22.6796 172.987L215.287 170.659C212.394 167.842 209.508 165.017 206.632 162.184C186.954 142.796 167.682 123.007 148.816 102.817Z" fill="#E8D3D7"/>
<path d="M80.1925 100.947C58.8483 80.4462 38.4278 59.0418 18.9313 36.7334L21.4175 171.448C24.9835 167.439 28.5231 163.415 32.0362 159.375C48.5902 140.318 64.6423 120.842 80.1925 100.947Z" fill="#E8D3D7"/>
<path d="M214.958 66.2457C214.909 64.8127 214.861 63.3804 214.814 61.9488C214.798 61.4627 214.781 60.976 214.764 60.4887C214.728 59.3806 214.691 58.2732 214.653 57.1664L214.588 55.1853C214.572 54.7514 214.558 54.3196 214.544 53.8857C214.544 53.7074 214.532 53.5271 214.524 53.3469C214.493 52.351 214.46 51.3539 214.425 50.3554C214.31 46.944 214.196 43.5325 214.083 40.1211L213.916 35.1406L209.691 39.5347L168.597 82.253C162.457 88.6347 156.319 95.0178 150.183 101.402C155.508 107.1 160.864 112.766 166.251 118.402C182.892 135.797 199.842 152.889 217.1 169.677V159.22L218.075 159.418C217.872 153.343 217.669 147.268 217.464 141.192C216.631 116.206 215.796 91.2233 214.958 66.2457Z" fill="#E8D3D7"/>
<path d="M92.5526 109.947C95.8874 113.056 99.2434 116.142 102.621 119.206C105.79 122.077 108.903 125.441 112.607 127.612C116.878 130.114 120.67 128.83 124.076 125.617C127.418 122.463 130.502 118.998 133.688 115.686L209.635 36.7413L212.24 34.0332L212.266 34.0074H212.181C211.511 34.0193 210.84 34.0292 210.17 34.0431C201.93 34.1976 193.69 34.3211 185.45 34.4135C154.969 34.7411 124.489 34.6037 94.0107 34.0015L93.9592 34.2848H19.4048C30.6442 47.1777 42.2005 59.784 54.0739 72.1038C66.564 85.0562 79.3902 97.6704 92.5526 109.947Z" fill="#E8D3D7"/>
<path d="M100.265 0L94.373 32.0362C100.344 32.1525 106.315 32.2535 112.286 32.3393C146.242 32.7989 180.199 32.6873 214.158 32.0045C214.201 32.0045 214.239 32.0045 214.281 32.0045C214.851 31.6875 215.78 31.9629 215.81 32.8287L215.846 33.9083L216.482 34.0411C216.458 34.1519 216.457 34.2662 216.478 34.3775C216.499 34.4887 216.542 34.5947 216.604 34.6895C216.666 34.7842 216.746 34.8658 216.84 34.9296C216.933 34.9934 217.038 35.0382 217.149 35.0613C217.26 35.0845 217.374 35.0856 217.486 35.0646C217.597 35.0436 217.703 35.0008 217.798 34.9388C217.892 34.8768 217.974 34.7968 218.038 34.7033C218.101 34.6097 218.146 34.5045 218.169 34.3937L218.875 34.5403C218.828 34.7641 218.872 34.9973 218.998 35.1884C219.123 35.3796 219.319 35.5131 219.543 35.5596C219.767 35.6061 220 35.5618 220.191 35.4364C220.383 35.311 220.516 35.1148 220.563 34.891L221.268 35.0376C221.245 35.1484 221.244 35.2627 221.265 35.374C221.286 35.4852 221.328 35.5912 221.39 35.686C221.452 35.7807 221.532 35.8623 221.626 35.9261C221.719 35.9899 221.825 36.0347 221.935 36.0578C222.046 36.081 222.161 36.0821 222.272 36.0611C222.383 36.04 222.489 35.9973 222.584 35.9353C222.679 35.8733 222.76 35.7933 222.824 35.6998C222.888 35.6062 222.933 35.501 222.956 35.3902L223.661 35.5368C223.614 35.7606 223.658 35.9939 223.784 36.1852C223.909 36.3765 224.105 36.5103 224.329 36.5571C224.552 36.6038 224.786 36.5598 224.977 36.4346C225.168 36.3094 225.302 36.1133 225.349 35.8894L226.054 36.036C226.031 36.1469 226.03 36.2612 226.051 36.3724C226.072 36.4836 226.115 36.5895 226.177 36.6842C226.239 36.7788 226.32 36.8603 226.413 36.924C226.507 36.9877 226.612 37.0323 226.723 37.0553C226.834 37.0783 226.948 37.0793 227.059 37.0582C227.17 37.037 227.276 36.9942 227.371 36.9321C227.466 36.87 227.547 36.7899 227.611 36.6963C227.674 36.6027 227.719 36.4975 227.742 36.3867L228.447 36.5333C228.424 36.6441 228.423 36.7584 228.444 36.8697C228.465 36.9809 228.508 37.087 228.57 37.1817C228.632 37.2764 228.712 37.358 228.805 37.4218C228.899 37.4856 229.004 37.5304 229.115 37.5536C229.226 37.5767 229.34 37.5778 229.451 37.5568C229.563 37.5358 229.669 37.493 229.763 37.431C229.858 37.3691 229.94 37.289 230.003 37.1955C230.067 37.1019 230.112 36.9968 230.135 36.8859L230.84 37.0325C230.794 37.2564 230.838 37.4896 230.963 37.6809C231.088 37.8723 231.284 38.006 231.508 38.0528C231.732 38.0996 231.965 38.0555 232.156 37.9303C232.348 37.8051 232.482 37.609 232.528 37.3852L233.794 37.6467L233.469 39.2018C233.451 39.1967 233.433 39.1927 233.414 39.1899C233.301 39.1626 233.184 39.1583 233.07 39.1773C232.956 39.1962 232.846 39.238 232.748 39.3002C232.651 39.3624 232.566 39.4436 232.501 39.5391C232.435 39.6346 232.389 39.7424 232.366 39.856C232.343 39.9695 232.343 40.0866 232.367 40.2001C232.39 40.3137 232.436 40.4214 232.501 40.5168C232.567 40.6122 232.652 40.6933 232.75 40.7554C232.847 40.8174 232.957 40.8591 233.071 40.8778H233.119L232.972 41.5851H232.929C232.704 41.5396 232.471 41.5851 232.281 41.7114C232.09 41.8377 231.958 42.0346 231.912 42.2586C231.867 42.4827 231.912 42.7157 232.039 42.9063C232.165 43.0969 232.362 43.2295 232.586 43.275H232.619L232.473 43.9822H232.443C232.219 43.9368 231.986 43.9822 231.796 44.1085C231.605 44.2348 231.472 44.4317 231.427 44.6558C231.381 44.8799 231.427 45.1128 231.553 45.3034C231.679 45.494 231.876 45.6266 232.1 45.6721H232.122L231.974 46.3793H231.958C231.734 46.3339 231.501 46.3793 231.31 46.5056C231.12 46.6319 230.987 46.8288 230.941 47.0529C230.896 47.277 230.941 47.5099 231.068 47.7005C231.194 47.8911 231.391 48.0237 231.615 48.0692L231.468 48.7764C231.244 48.7302 231.011 48.7749 230.82 48.9006C230.629 49.0264 230.495 49.223 230.449 49.447C230.403 49.6711 230.448 49.9044 230.573 50.0956C230.699 50.2867 230.896 50.4201 231.12 50.4663L230.973 51.1716C230.862 51.1486 230.748 51.1476 230.637 51.1687C230.526 51.1899 230.42 51.2327 230.325 51.2948C230.23 51.3569 230.149 51.437 230.085 51.5306C230.022 51.6242 229.977 51.7294 229.954 51.8402C229.931 51.951 229.93 52.0653 229.951 52.1765C229.972 52.2877 230.015 52.3937 230.077 52.4883C230.139 52.583 230.219 52.6644 230.313 52.7281C230.406 52.7918 230.512 52.8364 230.623 52.8595L230.474 53.5647C230.363 53.5417 230.249 53.5407 230.138 53.5619C230.026 53.583 229.92 53.6259 229.826 53.688C229.731 53.75 229.65 53.8302 229.586 53.9237C229.522 54.0173 229.478 54.1225 229.455 54.2334C229.432 54.3442 229.431 54.4585 229.452 54.5697C229.473 54.6809 229.516 54.7868 229.578 54.8815C229.64 54.9761 229.72 55.0576 229.814 55.1213C229.907 55.185 230.012 55.2296 230.123 55.2526L229.977 55.9599C229.759 55.9278 229.538 55.9799 229.358 56.1055C229.178 56.2312 229.052 56.4208 229.007 56.6358C228.962 56.8507 229.001 57.0748 229.116 57.2621C229.23 57.4495 229.412 57.586 229.624 57.6438L229.477 58.353C229.261 58.3221 229.04 58.375 228.861 58.5008C228.682 58.6266 228.557 58.816 228.512 59.0305C228.468 59.245 228.506 59.4684 228.62 59.6553C228.735 59.8423 228.916 59.9787 229.127 60.037L228.956 60.8532C228.74 60.8223 228.519 60.8751 228.34 61.0009C228.16 61.1268 228.036 61.3162 227.991 61.5306C227.947 61.7451 227.985 61.9685 228.099 62.1555C228.214 62.3424 228.395 62.4789 228.606 62.5371L228.435 63.3513C228.214 63.3109 227.985 63.3588 227.799 63.4849C227.612 63.6109 227.482 63.8051 227.437 64.0257C227.391 64.2464 227.434 64.476 227.556 64.6654C227.678 64.8548 227.869 64.989 228.089 65.0392L227.918 65.8534L227.863 65.8416C227.639 65.7961 227.406 65.8415 227.215 65.9679C227.025 66.0942 226.892 66.291 226.847 66.5151C226.801 66.7392 226.847 66.9722 226.973 67.1628C227.099 67.3534 227.296 67.486 227.52 67.5314H227.568L227.171 69.4749L225.751 69.1797C225.798 68.9559 225.754 68.7226 225.629 68.5313C225.503 68.34 225.307 68.2062 225.083 68.1594C224.86 68.1127 224.626 68.1567 224.435 68.2819C224.244 68.4072 224.11 68.6032 224.063 68.8271L223.358 68.6805C223.381 68.5696 223.382 68.4553 223.361 68.3441C223.34 68.2328 223.297 68.1268 223.235 68.0321C223.173 67.9373 223.093 67.8557 223 67.7919C222.906 67.7281 222.801 67.6834 222.69 67.6602C222.579 67.637 222.465 67.6359 222.354 67.657C222.243 67.678 222.137 67.7207 222.042 67.7827C221.947 67.8447 221.866 67.9248 221.802 68.0183C221.738 68.1118 221.693 68.217 221.67 68.3278L220.963 68.1812C220.999 67.9619 220.949 67.7372 220.823 67.5541C220.697 67.3709 220.505 67.2433 220.288 67.1981C220.07 67.1528 219.844 67.1934 219.655 67.3112C219.467 67.4291 219.331 67.6151 219.277 67.8306L218.57 67.684C218.612 67.4805 218.58 67.2685 218.478 67.0871C218.377 66.9058 218.213 66.7674 218.017 66.6975C217.821 66.6277 217.607 66.6311 217.413 66.7072C217.22 66.7833 217.061 66.9269 216.965 67.1114L220.067 159.785L265 168.658L290.008 36.6383L100.265 0ZM228.984 92.404L262.912 98.4979C264.16 98.7217 263.629 100.62 262.389 100.398L228.455 94.3039C227.211 94.08 227.744 92.1821 228.984 92.404ZM264.777 107.87C251.324 105.644 237.907 103.206 224.527 100.556C223.283 100.311 223.814 98.4107 225.052 98.6564C238.428 101.306 251.844 103.744 265.3 105.971C266.55 106.179 266.017 108.076 264.777 107.87ZM271.064 47.5838C271.041 47.6967 271.04 47.8132 271.062 47.9265C271.083 48.0398 271.127 48.1477 271.19 48.2441C271.253 48.3405 271.335 48.4235 271.43 48.4883C271.526 48.5532 271.633 48.5986 271.746 48.6219L271.595 49.3391C271.371 49.3004 271.141 49.3504 270.952 49.4785C270.764 49.6065 270.633 49.8027 270.587 50.0255C270.541 50.2484 270.583 50.4805 270.705 50.6729C270.826 50.8652 271.018 51.0029 271.239 51.0567L271.09 51.7738C270.866 51.7352 270.635 51.7852 270.447 51.9132C270.259 52.0413 270.128 52.2375 270.082 52.4603C270.036 52.6831 270.078 52.9152 270.199 53.1076C270.321 53.3 270.513 53.4376 270.734 53.4914L270.585 54.2106C270.361 54.1719 270.13 54.2219 269.942 54.35C269.754 54.478 269.623 54.6742 269.577 54.897C269.53 55.1199 269.573 55.352 269.694 55.5444C269.816 55.7367 270.007 55.8744 270.228 55.9282L270.08 56.6453C269.965 56.6175 269.847 56.613 269.73 56.632C269.614 56.6511 269.503 56.6933 269.403 56.7562C269.304 56.8191 269.218 56.9015 269.151 56.9983C269.084 57.0951 269.037 57.2044 269.013 57.3197C268.989 57.435 268.989 57.5539 269.012 57.6694C269.035 57.7849 269.081 57.8946 269.147 57.9919C269.213 58.0893 269.298 58.1723 269.397 58.236C269.496 58.2998 269.607 58.3429 269.723 58.3629L269.575 59.0821C269.46 59.0542 269.341 59.0497 269.225 59.0688C269.109 59.0878 268.998 59.1301 268.898 59.193C268.799 59.2559 268.713 59.3382 268.646 59.435C268.579 59.5318 268.532 59.6411 268.508 59.7564C268.484 59.8717 268.484 59.9907 268.507 60.1062C268.529 60.2217 268.575 60.3313 268.642 60.4287C268.708 60.526 268.793 60.609 268.892 60.6728C268.991 60.7365 269.102 60.7797 269.218 60.7997L269.07 61.5168C268.955 61.489 268.836 61.4845 268.72 61.5035C268.604 61.5226 268.493 61.5648 268.393 61.6277C268.294 61.6907 268.208 61.773 268.141 61.8698C268.074 61.9666 268.027 62.0759 268.003 62.1912C267.979 62.3065 267.978 62.4254 268.001 62.5409C268.024 62.6564 268.07 62.7661 268.137 62.8634C268.203 62.9608 268.288 63.0438 268.387 63.1075C268.486 63.1713 268.597 63.2144 268.713 63.2344L268.562 63.9516C268.448 63.9231 268.328 63.918 268.212 63.9367C268.095 63.9554 267.983 63.9975 267.883 64.0605C267.783 64.1235 267.697 64.206 267.629 64.3031C267.562 64.4003 267.515 64.51 267.491 64.6258C267.467 64.7416 267.467 64.861 267.49 64.9769C267.514 65.0928 267.56 65.2027 267.627 65.3002C267.694 65.3976 267.78 65.4805 267.88 65.544C267.98 65.6074 268.091 65.65 268.208 65.6692L268.057 66.3883C267.833 66.3497 267.602 66.3997 267.414 66.5277C267.226 66.6558 267.095 66.852 267.049 67.0748C267.003 67.2976 267.045 67.5297 267.166 67.7221C267.288 67.9145 267.479 68.0521 267.701 68.1059L267.433 69.3917L265.848 69.0648C265.848 69.045 265.848 69.0272 265.862 69.0073C265.899 68.7829 265.848 68.5528 265.719 68.3656C265.59 68.1783 265.393 68.0485 265.17 68.0036C264.947 67.9586 264.715 68.002 264.523 68.1246C264.332 68.2472 264.195 68.4394 264.143 68.6607C264.142 68.6765 264.142 68.6924 264.143 68.7082L263.421 68.5596C263.421 68.5438 263.421 68.5299 263.421 68.516C263.448 68.4018 263.451 68.2834 263.431 68.1678C263.411 68.0523 263.368 67.9419 263.305 67.8432C263.241 67.7446 263.159 67.6597 263.062 67.5935C262.965 67.5273 262.856 67.4812 262.741 67.4579C262.626 67.4346 262.507 67.4345 262.393 67.4578C262.278 67.481 262.168 67.5271 262.072 67.5932C261.975 67.6594 261.892 67.7442 261.829 67.8429C261.765 67.9415 261.722 68.0518 261.702 68.1674V68.203L260.983 68.0525V68.0227C261.01 67.9081 261.014 67.7892 260.994 67.673C260.975 67.5569 260.932 67.4458 260.868 67.3466C260.805 67.2473 260.722 67.1619 260.625 67.0953C260.528 67.0288 260.418 66.9825 260.302 66.9592C260.187 66.9359 260.068 66.9361 259.953 66.9598C259.837 66.9835 259.728 67.0302 259.631 67.0971C259.534 67.164 259.451 67.2497 259.388 67.3492C259.325 67.4487 259.282 67.5598 259.263 67.676C259.264 67.6833 259.264 67.6906 259.263 67.6978L258.544 67.5473C258.545 67.5414 258.545 67.5354 258.544 67.5294C258.59 67.3017 258.544 67.065 258.415 66.8714C258.286 66.6778 258.086 66.5433 257.859 66.4973C257.631 66.4513 257.394 66.4977 257.201 66.6263C257.007 66.7548 256.872 66.955 256.826 67.1828L256.107 67.0342C256.13 66.9213 256.131 66.8049 256.109 66.6917C256.087 66.5786 256.044 66.4708 255.98 66.3746C255.917 66.2784 255.835 66.1956 255.739 66.131C255.644 66.0664 255.537 66.0212 255.424 65.9981C255.311 65.9749 255.195 65.9742 255.081 65.996C254.968 66.0179 254.86 66.0618 254.764 66.1252C254.668 66.1887 254.585 66.2705 254.521 66.3659C254.456 66.4614 254.411 66.5686 254.388 66.6815L253.671 66.533C253.709 66.3087 253.659 66.0781 253.531 65.89C253.403 65.7019 253.207 65.5708 252.984 65.5246C252.761 65.4783 252.529 65.5204 252.337 65.642C252.144 65.7636 252.007 65.9552 251.953 66.1764L251.234 66.0278C251.281 65.8003 251.236 65.5633 251.109 65.369C250.981 65.1747 250.782 65.039 250.554 64.9917C250.327 64.9444 250.09 64.9894 249.895 65.1168C249.701 65.2443 249.565 65.4437 249.518 65.6712L248.799 65.5226C248.832 65.3011 248.779 65.0754 248.65 64.8917C248.522 64.7081 248.329 64.5804 248.109 64.5349C247.89 64.4893 247.662 64.5293 247.471 64.6466C247.28 64.7639 247.142 64.9498 247.083 65.166L246.362 65.0154C246.399 64.7922 246.349 64.5632 246.221 64.3766C246.093 64.1899 245.898 64.06 245.676 64.0141C245.454 63.9683 245.224 64.01 245.032 64.1306C244.841 64.2511 244.703 64.4412 244.649 64.6608L243.819 64.4885C243.851 64.2669 243.798 64.0412 243.67 63.8576C243.542 63.674 243.348 63.5463 243.129 63.5007C242.91 63.4552 242.681 63.4951 242.491 63.6125C242.3 63.7298 242.161 63.9156 242.103 64.1319L241.275 63.9595C241.322 63.7315 241.276 63.4942 241.148 63.2999C241.02 63.1056 240.819 62.9702 240.591 62.9234C240.363 62.8766 240.126 62.9224 239.932 63.0506C239.737 63.1787 239.602 63.3789 239.555 63.6069L238.727 63.4365C238.727 63.4167 238.727 63.3989 238.741 63.3791C238.778 63.1546 238.727 62.9245 238.598 62.7373C238.469 62.55 238.272 62.4202 238.049 62.3753C237.826 62.3303 237.594 62.3737 237.402 62.4963C237.211 62.6189 237.074 62.8111 237.021 63.0324C237.021 63.0482 237.021 63.0641 237.021 63.0799L235.04 62.6698L235.34 61.2236C235.454 61.2515 235.573 61.256 235.689 61.237C235.805 61.2179 235.916 61.1757 236.016 61.1127C236.115 61.0498 236.201 60.9675 236.268 60.8707C236.335 60.7739 236.382 60.6646 236.406 60.5493C236.43 60.434 236.431 60.315 236.408 60.1996C236.385 60.0841 236.339 59.9744 236.272 59.877C236.206 59.7797 236.121 59.6967 236.022 59.6329C235.923 59.5692 235.812 59.526 235.696 59.506L235.847 58.7889C236.071 58.8275 236.301 58.7776 236.49 58.6495C236.678 58.5214 236.809 58.3252 236.855 58.1024C236.901 57.8796 236.859 57.6475 236.738 57.4551C236.616 57.2627 236.424 57.1251 236.203 57.0713L236.352 56.3521C236.576 56.3908 236.807 56.3408 236.995 56.2127C237.183 56.0847 237.314 55.8885 237.36 55.6657C237.406 55.4428 237.364 55.2107 237.243 55.0183C237.121 54.826 236.93 54.6883 236.708 54.6345L236.857 53.9174C237.081 53.956 237.312 53.9061 237.5 53.778C237.688 53.6499 237.819 53.4537 237.865 53.2309C237.912 53.0081 237.87 52.776 237.748 52.5836C237.626 52.3912 237.435 52.2536 237.214 52.1998L237.362 51.4826C237.477 51.5105 237.595 51.515 237.712 51.4959C237.828 51.4769 237.939 51.4346 238.039 51.3717C238.138 51.3088 238.224 51.2265 238.291 51.1297C238.358 51.0329 238.405 50.9236 238.429 50.8083C238.453 50.693 238.453 50.574 238.43 50.4585C238.407 50.343 238.361 50.2333 238.295 50.136C238.229 50.0387 238.144 49.9556 238.045 49.8919C237.946 49.8282 237.835 49.785 237.719 49.765L237.867 49.0459C237.982 49.0737 238.101 49.0782 238.217 49.0592C238.333 49.0401 238.444 48.9979 238.544 48.935C238.643 48.8721 238.729 48.7897 238.796 48.6929C238.863 48.5961 238.91 48.4868 238.934 48.3715C238.958 48.2562 238.959 48.1373 238.936 48.0218C238.913 47.9063 238.867 47.7966 238.8 47.6993C238.734 47.6019 238.649 47.5189 238.55 47.4552C238.451 47.3914 238.34 47.3483 238.224 47.3283L238.373 46.6111C238.487 46.639 238.606 46.6435 238.722 46.6244C238.838 46.6054 238.949 46.5631 239.049 46.5002C239.149 46.4373 239.234 46.355 239.301 46.2582C239.369 46.1614 239.415 46.0521 239.439 45.9368C239.463 45.8215 239.464 45.7025 239.441 45.587C239.418 45.4715 239.372 45.3618 239.306 45.2645C239.239 45.1671 239.154 45.0841 239.055 45.0204C238.956 44.9567 238.845 44.9135 238.729 44.8935L238.88 44.1763C239.104 44.215 239.335 44.165 239.523 44.037C239.711 43.9089 239.842 43.7127 239.888 43.4899C239.934 43.267 239.892 43.0349 239.771 42.8426C239.649 42.6502 239.457 42.5126 239.236 42.4587L239.385 41.7396C239.609 41.7783 239.84 41.7283 240.028 41.6002C240.216 41.4721 240.347 41.276 240.393 41.0531C240.44 40.8303 240.397 40.5982 240.276 40.4058C240.154 40.2134 239.963 40.0758 239.741 40.022L239.975 38.8928L241.956 39.3048C241.914 39.5311 241.963 39.7647 242.091 39.9555C242.22 40.1463 242.418 40.279 242.644 40.325C242.869 40.3709 243.104 40.3265 243.297 40.2013C243.49 40.0761 243.626 39.8801 243.676 39.6555L244.504 39.8278C244.504 39.8477 244.504 39.8655 244.49 39.8853C244.453 40.1097 244.504 40.3398 244.634 40.5271C244.763 40.7143 244.96 40.8441 245.183 40.8891C245.406 40.934 245.637 40.8907 245.829 40.7681C246.021 40.6455 246.157 40.4533 246.21 40.232C246.211 40.2162 246.211 40.2003 246.21 40.1845L247.046 40.3568C247.034 40.3925 247.024 40.4289 247.016 40.4658C246.991 40.5836 246.99 40.7054 247.014 40.8235C247.037 40.9417 247.085 41.0537 247.154 41.1526C247.223 41.2514 247.312 41.335 247.414 41.3982C247.517 41.4613 247.632 41.5026 247.751 41.5195C247.87 41.5364 247.992 41.5286 248.108 41.4965C248.224 41.4643 248.332 41.4086 248.426 41.3328C248.52 41.257 248.597 41.1627 248.652 41.0558C248.708 40.9489 248.741 40.8317 248.749 40.7114L249.59 40.8858C249.578 40.9209 249.568 40.9566 249.56 40.9927C249.521 41.2179 249.571 41.4495 249.7 41.6383C249.829 41.827 250.026 41.9581 250.25 42.0035C250.474 42.0489 250.707 42.0051 250.899 41.8815C251.091 41.7579 251.228 41.5641 251.279 41.3414C251.279 41.3057 251.291 41.2721 251.295 41.2404L252.024 41.3909C252.013 41.4219 252.005 41.4537 251.998 41.486C251.961 41.7104 252.013 41.9405 252.142 42.1278C252.271 42.3151 252.468 42.4448 252.691 42.4898C252.914 42.5348 253.146 42.4914 253.337 42.3688C253.529 42.2462 253.665 42.054 253.718 41.8327C253.718 41.803 253.718 41.7753 253.732 41.7456L254.457 41.8961C254.457 41.9219 254.443 41.9496 254.437 41.9773C254.398 42.2025 254.448 42.4341 254.577 42.6229C254.706 42.8116 254.903 42.9427 255.127 42.9881C255.351 43.0335 255.584 42.9897 255.777 42.8661C255.969 42.7425 256.105 42.5487 256.157 42.326L256.169 42.2507L256.892 42.4013C256.885 42.4241 256.88 42.4473 256.876 42.4706C256.849 42.5852 256.845 42.7042 256.864 42.8203C256.884 42.9365 256.927 43.0475 256.99 43.1468C257.054 43.246 257.137 43.3315 257.234 43.398C257.331 43.4646 257.441 43.5109 257.556 43.5342C257.672 43.5575 257.791 43.5572 257.906 43.5336C258.022 43.5099 258.131 43.4632 258.228 43.3963C258.325 43.3294 258.408 43.2436 258.471 43.1442C258.534 43.0447 258.576 42.9336 258.596 42.8173C258.596 42.7975 258.596 42.7777 258.596 42.7559L259.317 42.9065C259.317 42.9243 259.317 42.9441 259.303 42.9639C259.266 43.1883 259.317 43.4184 259.446 43.6057C259.575 43.7929 259.772 43.9227 259.995 43.9677C260.218 44.0126 260.45 43.9693 260.642 43.8467C260.833 43.7241 260.97 43.5319 261.022 43.3106C261.023 43.2948 261.023 43.2789 261.022 43.2631L261.743 43.4116C261.743 43.4255 261.743 43.4414 261.734 43.4552C261.706 43.5698 261.702 43.6888 261.722 43.8049C261.742 43.9211 261.785 44.0321 261.848 44.1314C261.912 44.2306 261.994 44.3161 262.092 44.3826C262.189 44.4492 262.298 44.4955 262.414 44.5188C262.529 44.5421 262.648 44.5419 262.764 44.5182C262.879 44.4945 262.989 44.4478 263.086 44.3809C263.183 44.314 263.265 44.2283 263.328 44.1288C263.391 44.0293 263.434 43.9181 263.453 43.8019V43.7682L264.172 43.9168V43.9485C264.135 44.1729 264.187 44.403 264.316 44.5903C264.445 44.7775 264.642 44.9073 264.865 44.9523C265.088 44.9973 265.319 44.9539 265.511 44.8313C265.703 44.7087 265.839 44.5165 265.892 44.2952C265.891 44.288 265.891 44.2807 265.892 44.2734L266.611 44.422V44.4398C266.572 44.665 266.622 44.8966 266.751 45.0854C266.88 45.2741 267.077 45.4052 267.301 45.4506C267.525 45.496 267.758 45.4522 267.95 45.3286C268.143 45.2049 268.279 45.0112 268.331 44.7885C268.332 44.7853 268.332 44.7818 268.331 44.7786L269.05 44.9292C269.008 45.1554 269.056 45.389 269.185 45.5798C269.313 45.7706 269.512 45.9033 269.737 45.9493C269.963 45.9953 270.197 45.9509 270.39 45.8256C270.583 45.7004 270.719 45.5044 270.769 45.2798L272.354 45.6087L272.089 46.8964C271.862 46.8532 271.627 46.9011 271.435 47.0298C271.244 47.1585 271.11 47.3575 271.064 47.5838Z" fill="#DCBEC3"/>
<path d="M265.304 105.971C251.849 103.744 238.433 101.306 225.056 98.6564C223.818 98.4107 223.287 100.311 224.531 100.556C237.91 103.204 251.326 105.642 264.781 107.87C266.017 108.076 266.55 106.179 265.304 105.971Z" fill="#FEF7EC"/>
<path d="M228.456 94.3039L262.386 100.4C263.626 100.622 264.157 98.7237 262.909 98.4998L228.981 92.404C227.744 92.1821 227.211 94.08 228.456 94.3039Z" fill="#FEF7EC"/>
<path d="M270.789 45.2957C270.739 45.5203 270.603 45.7163 270.41 45.8416C270.217 45.9668 269.983 46.0112 269.757 45.9652C269.532 45.9192 269.333 45.7866 269.205 45.5958C269.076 45.405 269.028 45.1713 269.07 44.9451L268.351 44.7945C268.352 44.7977 268.352 44.8012 268.351 44.8044C268.299 45.0271 268.163 45.2209 267.97 45.3445C267.778 45.4682 267.545 45.5119 267.321 45.4665C267.097 45.4211 266.9 45.29 266.771 45.1013C266.642 44.9125 266.592 44.6809 266.631 44.4557V44.4379L265.912 44.2893C265.911 44.2966 265.911 44.3039 265.912 44.3111C265.859 44.5324 265.723 44.7246 265.531 44.8472C265.339 44.9698 265.108 45.0132 264.885 44.9682C264.662 44.9233 264.465 44.7935 264.336 44.6062C264.206 44.4189 264.155 44.1888 264.192 43.9644V43.9327L263.473 43.7842V43.8178C263.454 43.9341 263.411 44.0452 263.348 44.1447C263.285 44.2442 263.203 44.3299 263.106 44.3968C263.009 44.4637 262.899 44.5104 262.784 44.5341C262.668 44.5578 262.549 44.558 262.434 44.5347C262.318 44.5114 262.209 44.4651 262.112 44.3985C262.014 44.332 261.931 44.2465 261.868 44.1473C261.805 44.048 261.762 43.937 261.742 43.8209C261.722 43.7047 261.726 43.5858 261.754 43.4711C261.754 43.4573 261.754 43.4414 261.763 43.4276L261.042 43.279C261.043 43.2948 261.043 43.3107 261.042 43.3265C260.99 43.5478 260.853 43.74 260.661 43.8626C260.47 43.9852 260.238 44.0286 260.015 43.9836C259.792 43.9386 259.595 43.8089 259.466 43.6216C259.337 43.4343 259.286 43.2043 259.323 42.9798C259.323 42.96 259.323 42.9402 259.337 42.9224L258.615 42.7718C258.615 42.7936 258.615 42.8134 258.615 42.8332C258.596 42.9495 258.554 43.0606 258.491 43.1601C258.427 43.2596 258.345 43.3453 258.248 43.4122C258.151 43.4791 258.042 43.5258 257.926 43.5495C257.811 43.5732 257.692 43.5734 257.576 43.5501C257.461 43.5268 257.351 43.4805 257.254 43.4139C257.157 43.3474 257.074 43.2619 257.01 43.1627C256.947 43.0634 256.904 42.9524 256.884 42.8363C256.865 42.7201 256.869 42.6012 256.896 42.4865C256.9 42.4632 256.905 42.44 256.912 42.4172L256.189 42.2666L256.177 42.3419C256.125 42.5646 255.989 42.7584 255.797 42.882C255.604 43.0057 255.371 43.0494 255.147 43.004C254.923 42.9586 254.726 42.8275 254.597 42.6388C254.468 42.45 254.418 42.2184 254.457 41.9933C254.457 41.9655 254.469 41.9378 254.477 41.912L253.752 41.7615C253.752 41.7912 253.752 41.8189 253.738 41.8486C253.685 42.0699 253.549 42.2621 253.357 42.3847C253.166 42.5073 252.934 42.5507 252.711 42.5057C252.488 42.4607 252.291 42.331 252.162 42.1437C252.033 41.9565 251.981 41.7264 252.018 41.5019C252.025 41.4696 252.033 41.4379 252.044 41.4068L251.315 41.2563C251.315 41.288 251.315 41.3217 251.299 41.3573C251.248 41.58 251.111 41.7738 250.919 41.8974C250.727 42.0211 250.494 42.0648 250.27 42.0194C250.046 41.974 249.848 41.843 249.72 41.6542C249.591 41.4654 249.54 41.2338 249.58 41.0086C249.588 40.9725 249.598 40.9368 249.609 40.9017L248.769 40.7273C248.761 40.8476 248.728 40.9648 248.672 41.0717C248.617 41.1786 248.54 41.2729 248.446 41.3487C248.352 41.4245 248.244 41.4802 248.128 41.5124C248.012 41.5445 247.89 41.5523 247.771 41.5354C247.651 41.5185 247.537 41.4772 247.434 41.4141C247.332 41.3509 247.243 41.2673 247.174 41.1685C247.105 41.0696 247.057 40.9576 247.034 40.8394C247.01 40.7213 247.011 40.5995 247.036 40.4817C247.044 40.4448 247.054 40.4084 247.066 40.3727L246.23 40.2004C246.231 40.2162 246.231 40.2321 246.23 40.2479C246.177 40.4692 246.04 40.6614 245.849 40.784C245.657 40.9066 245.425 40.95 245.202 40.905C244.979 40.86 244.783 40.7302 244.654 40.543C244.524 40.3557 244.473 40.1256 244.51 39.9012C244.51 39.8814 244.51 39.8636 244.524 39.8438L243.696 39.6714C243.646 39.896 243.51 40.092 243.317 40.2172C243.124 40.3424 242.889 40.3869 242.664 40.3409C242.438 40.2949 242.24 40.1622 242.111 39.9714C241.983 39.7806 241.934 39.547 241.976 39.3207L239.995 38.9087L239.761 40.0379C239.983 40.0917 240.174 40.2293 240.296 40.4217C240.417 40.6141 240.46 40.8462 240.413 41.0691C240.367 41.2919 240.236 41.4881 240.048 41.6161C239.86 41.7442 239.629 41.7942 239.405 41.7555L239.256 42.4747C239.477 42.5285 239.669 42.6661 239.791 42.8585C239.912 43.0509 239.954 43.2829 239.908 43.5058C239.862 43.7286 239.731 43.9248 239.543 44.0529C239.354 44.1809 239.124 44.2309 238.9 44.1923L238.749 44.9094C238.865 44.9294 238.976 44.9726 239.075 45.0363C239.174 45.1001 239.259 45.1831 239.325 45.2804C239.392 45.3778 239.438 45.4874 239.461 45.6029C239.484 45.7184 239.483 45.8374 239.459 45.9527C239.435 46.068 239.388 46.1773 239.321 46.2741C239.254 46.3709 239.168 46.4532 239.069 46.5161C238.969 46.579 238.858 46.6213 238.742 46.6403C238.626 46.6594 238.507 46.6549 238.393 46.627L238.244 47.3442C238.36 47.3642 238.471 47.4073 238.57 47.4711C238.669 47.5348 238.754 47.6178 238.82 47.7152C238.887 47.8125 238.933 47.9222 238.956 48.0377C238.979 48.1532 238.978 48.2721 238.954 48.3874C238.93 48.5027 238.883 48.6121 238.816 48.7089C238.749 48.8057 238.663 48.888 238.564 48.9509C238.464 49.0138 238.353 49.056 238.237 49.0751C238.121 49.0941 238.002 49.0896 237.887 49.0618L237.739 49.7809C237.855 49.8009 237.966 49.8441 238.065 49.9078C238.164 49.9715 238.249 50.0546 238.315 50.1519C238.381 50.2493 238.427 50.359 238.45 50.4744C238.473 50.5899 238.473 50.7089 238.449 50.8242C238.425 50.9395 238.378 51.0488 238.311 51.1456C238.244 51.2424 238.158 51.3247 238.059 51.3876C237.959 51.4506 237.848 51.4928 237.732 51.5118C237.615 51.5309 237.497 51.5264 237.382 51.4985L237.234 52.2157C237.455 52.2695 237.646 52.4071 237.768 52.5995C237.89 52.7919 237.932 53.024 237.885 53.2468C237.839 53.4697 237.708 53.6658 237.52 53.7939C237.332 53.922 237.101 53.9719 236.877 53.9333L236.728 54.6504C236.95 54.7042 237.141 54.8419 237.263 55.0342C237.384 55.2266 237.426 55.4587 237.38 55.6816C237.334 55.9044 237.203 56.1006 237.015 56.2287C236.827 56.3567 236.596 56.4067 236.372 56.368L236.223 57.0872C236.444 57.141 236.636 57.2786 236.758 57.471C236.879 57.6634 236.921 57.8955 236.875 58.1183C236.829 58.3412 236.698 58.5373 236.51 58.6654C236.321 58.7935 236.091 58.8435 235.867 58.8048L235.716 59.5219C235.832 59.5419 235.943 59.5851 236.042 59.6488C236.141 59.7126 236.226 59.7956 236.292 59.8929C236.359 59.9903 236.405 60.1 236.428 60.2155C236.451 60.331 236.45 60.4499 236.426 60.5652C236.402 60.6805 236.355 60.7898 236.288 60.8866C236.221 60.9834 236.135 61.0657 236.036 61.1287C235.936 61.1916 235.825 61.2338 235.709 61.2529C235.593 61.2719 235.474 61.2674 235.359 61.2395L235.06 62.6857L237.041 63.0958C237.04 63.08 237.04 63.0641 237.041 63.0483C237.094 62.827 237.231 62.6348 237.422 62.5122C237.614 62.3896 237.846 62.3462 238.069 62.3912C238.292 62.4362 238.488 62.5659 238.618 62.7532C238.747 62.9405 238.798 63.1705 238.761 63.395C238.761 63.4148 238.761 63.4326 238.747 63.4524L239.575 63.6228C239.622 63.3948 239.757 63.1947 239.952 63.0665C240.146 62.9383 240.383 62.8926 240.611 62.9393C240.839 62.9861 241.039 63.1215 241.168 63.3158C241.296 63.5101 241.342 63.7474 241.295 63.9754L242.123 64.1478C242.181 63.9315 242.32 63.7457 242.511 63.6284C242.701 63.5111 242.93 63.4711 243.149 63.5167C243.368 63.5622 243.562 63.6899 243.69 63.8735C243.818 64.0572 243.871 64.2828 243.839 64.5044L244.669 64.6767C244.723 64.4571 244.86 64.267 245.052 64.1465C245.244 64.0259 245.474 63.9842 245.696 64.03C245.918 64.0759 246.113 64.2058 246.241 64.3925C246.369 64.5791 246.419 64.8081 246.382 65.0314L247.103 65.1819C247.162 64.9657 247.3 64.7798 247.491 64.6625C247.682 64.5452 247.91 64.5052 248.129 64.5508C248.349 64.5964 248.542 64.724 248.67 64.9077C248.799 65.0913 248.852 65.317 248.819 65.5385L249.538 65.6871C249.585 65.4596 249.721 65.2602 249.915 65.1328C250.11 65.0053 250.347 64.9603 250.574 65.0076C250.802 65.0549 251.001 65.1906 251.129 65.3849C251.256 65.5792 251.301 65.8162 251.254 66.0437L251.973 66.1923C252.027 65.9711 252.164 65.7795 252.357 65.6579C252.549 65.5363 252.781 65.4942 253.004 65.5405C253.227 65.5868 253.423 65.7178 253.551 65.9059C253.679 66.094 253.729 66.3246 253.69 66.5489L254.408 66.6974C254.454 66.4694 254.59 66.2693 254.784 66.1411C254.978 66.0129 255.216 65.9672 255.444 66.014C255.672 66.0607 255.872 66.1962 256 66.3905C256.128 66.5848 256.174 66.8221 256.127 67.0501L256.846 67.1987C256.892 66.9709 257.027 66.7707 257.22 66.6422C257.414 66.5136 257.651 66.4672 257.879 66.5132C258.106 66.5592 258.306 66.6938 258.435 66.8873C258.564 67.0809 258.61 67.3176 258.564 67.5454C258.565 67.5513 258.565 67.5573 258.564 67.5632L259.283 67.7137C259.284 67.7065 259.284 67.6992 259.283 67.692C259.302 67.5757 259.345 67.4646 259.408 67.3651C259.471 67.2656 259.554 67.1799 259.651 67.113C259.748 67.0461 259.857 66.9994 259.972 66.9757C260.088 66.952 260.207 66.9518 260.322 66.9751C260.438 66.9984 260.548 67.0447 260.645 67.1113C260.742 67.1778 260.825 67.2633 260.888 67.3625C260.952 67.4618 260.995 67.5728 261.014 67.6889C261.034 67.8051 261.03 67.924 261.003 68.0387V68.0684L261.722 68.2189V68.1833C261.742 68.0677 261.785 67.9574 261.849 67.8588C261.912 67.7602 261.995 67.6753 262.092 67.6091C262.188 67.543 262.298 67.4969 262.412 67.4737C262.527 67.4504 262.646 67.4505 262.761 67.4738C262.876 67.4971 262.985 67.5432 263.082 67.6094C263.179 67.6756 263.261 67.7605 263.325 67.8591C263.388 67.9578 263.431 68.0682 263.451 68.1837C263.471 68.2993 263.468 68.4177 263.441 68.5319C263.441 68.5458 263.441 68.5597 263.441 68.5755L264.163 68.7241C264.162 68.7083 264.162 68.6924 264.163 68.6766C264.215 68.4553 264.352 68.2631 264.543 68.1405C264.735 68.0179 264.967 67.9745 265.19 68.0195C265.413 68.0644 265.61 68.1942 265.739 68.3815C265.868 68.5687 265.919 68.7988 265.882 69.0232C265.882 69.0431 265.882 69.0609 265.868 69.0807L267.453 69.4076L267.721 68.1219C267.499 68.068 267.308 67.9304 267.186 67.738C267.065 67.5457 267.023 67.3136 267.069 67.0907C267.115 66.8679 267.246 66.6717 267.434 66.5436C267.622 66.4156 267.853 66.3656 268.077 66.4042L268.228 65.6851C268.111 65.6659 268 65.6233 267.9 65.5599C267.8 65.4965 267.714 65.4135 267.647 65.3161C267.58 65.2186 267.534 65.1087 267.51 64.9928C267.487 64.8769 267.487 64.7575 267.511 64.6417C267.535 64.526 267.582 64.4162 267.649 64.3191C267.717 64.2219 267.803 64.1394 267.903 64.0764C268.003 64.0135 268.115 63.9713 268.232 63.9526C268.348 63.9339 268.468 63.939 268.582 63.9675L268.733 63.2504C268.617 63.2304 268.506 63.1872 268.407 63.1235C268.308 63.0597 268.223 62.9767 268.157 62.8794C268.09 62.782 268.044 62.6723 268.021 62.5568C267.998 62.4413 267.999 62.3224 268.023 62.2071C268.047 62.0918 268.094 61.9825 268.161 61.8857C268.228 61.7889 268.314 61.7066 268.413 61.6436C268.513 61.5807 268.624 61.5385 268.74 61.5194C268.856 61.5004 268.975 61.5049 269.09 61.5327L269.238 60.8156C269.122 60.7956 269.011 60.7524 268.912 60.6887C268.813 60.625 268.728 60.5419 268.662 60.4446C268.595 60.3472 268.549 60.2376 268.526 60.1221C268.503 60.0066 268.504 59.8876 268.528 59.7723C268.552 59.657 268.599 59.5477 268.666 59.4509C268.733 59.3541 268.819 59.2718 268.918 59.2089C269.018 59.146 269.129 59.1037 269.245 59.0847C269.361 59.0656 269.48 59.0701 269.595 59.098L269.743 58.3788C269.627 58.3588 269.516 58.3157 269.417 58.2519C269.318 58.1882 269.233 58.1052 269.167 58.0079C269.101 57.9105 269.055 57.8008 269.032 57.6853C269.009 57.5698 269.009 57.4509 269.033 57.3356C269.057 57.2203 269.104 57.111 269.171 57.0142C269.238 56.9174 269.324 56.8351 269.423 56.7721C269.523 56.7092 269.634 56.667 269.75 56.6479C269.867 56.6289 269.985 56.6334 270.1 56.6612L270.248 55.9441C270.027 55.8903 269.836 55.7527 269.714 55.5603C269.593 55.3679 269.55 55.1358 269.597 54.913C269.643 54.6901 269.774 54.4939 269.962 54.3659C270.15 54.2378 270.381 54.1878 270.605 54.2265L270.754 53.5074C270.532 53.4535 270.341 53.3159 270.219 53.1235C270.098 52.9312 270.056 52.699 270.102 52.4762C270.148 52.2534 270.279 52.0572 270.467 51.9291C270.655 51.8011 270.886 51.7511 271.11 51.7897L271.259 51.0726C271.038 51.0188 270.846 50.8812 270.724 50.6888C270.603 50.4964 270.561 50.2643 270.607 50.0414C270.653 49.8186 270.784 49.6224 270.972 49.4944C271.161 49.3663 271.391 49.3163 271.615 49.355L271.766 48.6378C271.65 48.6178 271.539 48.5747 271.44 48.5109C271.341 48.4472 271.256 48.3642 271.19 48.2668C271.123 48.1695 271.077 48.0598 271.054 47.9443C271.031 47.8288 271.032 47.7099 271.056 47.5946C271.08 47.4793 271.127 47.3699 271.194 47.2731C271.261 47.1763 271.347 47.094 271.446 47.0311C271.546 46.9682 271.657 46.926 271.773 46.9069C271.889 46.8878 272.008 46.8924 272.123 46.9202L272.388 45.6325L270.789 45.2957ZM250.422 53.2716C250.846 55.221 251.573 58.7137 251.573 58.7137L249.17 55.7559C249.201 55.7548 249.231 55.7495 249.261 55.74C249.273 55.74 249.261 55.6885 249.277 55.6608L249.148 55.6747V55.7182L248.882 55.3914C247.872 57.4814 246.467 60.3441 246.467 60.3441L246.378 55.9738C246.407 55.9935 246.438 56.0095 246.471 56.0214C246.487 56.0214 246.517 55.9837 246.541 55.9619L246.416 55.8847L246.376 55.9183L246.343 54.2364L242.083 55.9045L245.467 52.7743L239.853 51.1122L246.39 50.5555L245.459 47.6294L245.394 47.4313L244.736 45.3611L245.58 46.215L245.671 46.3081L247.315 47.9702L247.824 48.4853L248.439 46.8212L248.603 46.3754L248.627 46.3635L248.764 46.003H248.74L249.112 44.9966V45.0144H249.128L249.164 44.9134C249.16 44.9018 249.155 44.8906 249.15 44.8797L249.681 43.4434L249.843 44.8123L249.861 44.9609L250.176 47.6215L250.434 49.7869L255.046 48.5586L251.216 51.2449L256.763 53.6044L250.422 53.2716ZM261.577 58.7632C261.872 60.1242 262.382 62.5649 262.382 62.5649L260.704 60.4986C260.724 60.4975 260.745 60.4935 260.765 60.4867C260.775 60.4867 260.765 60.4511 260.777 60.4332H260.688V60.4649L260.501 60.2371C259.796 61.6972 258.816 63.6961 258.816 63.6961L258.746 60.6591C258.766 60.6728 258.788 60.6835 258.812 60.6908C258.812 60.6908 258.843 60.665 258.859 60.6512L258.772 60.5957L258.746 60.6195L258.72 59.4447L255.749 60.6096L258.112 58.4304L254.19 57.2694L258.746 56.8732L258.096 54.8287L258.051 54.6861L257.591 53.2399L258.186 53.8342L258.251 53.8996L259.398 55.0605L259.755 55.4191L260.185 54.2562L260.299 53.9452H260.315L260.41 53.6936H260.394L260.654 52.9903V53.0041L260.682 52.9328C260.681 52.9249 260.681 52.917 260.682 52.9091L261.052 51.9066L261.165 52.8615L261.177 52.9665L261.399 54.8248L261.577 56.3383L264.8 55.4805L262.134 57.3368L266.015 58.9851L261.577 58.7632Z" fill="#FEF7EC"/>
<path d="M251.216 51.231L255.046 48.5446L250.434 49.7729L250.176 47.6076L249.861 44.947L249.843 44.7984L249.681 43.4294L249.15 44.8657C249.155 44.8766 249.16 44.8879 249.164 44.8994L249.128 45.0004H249.112V44.9826L248.74 45.989H248.764L248.627 46.3496L248.603 46.3615L248.439 46.8072L247.825 48.4713L247.316 47.9562L245.671 46.2941L245.58 46.201L244.736 45.3471L245.394 47.4174L245.459 47.6155L246.39 50.5416L239.853 51.0982L245.467 52.7604L242.083 55.9044L246.335 54.2363L246.369 55.9182L246.408 55.8846L246.533 55.9618C246.509 55.9836 246.48 56.0252 246.464 56.0213C246.431 56.0094 246.399 55.9934 246.371 55.9737L246.46 60.344C246.46 60.344 247.864 57.4813 248.875 55.3913L249.14 55.7182V55.6746L249.269 55.6607C249.269 55.6884 249.269 55.734 249.253 55.7399C249.224 55.7494 249.193 55.7547 249.162 55.7558L251.565 58.7136C251.565 58.7136 250.838 55.2209 250.414 53.2715L256.753 53.5905L251.216 51.231Z" fill="#597EB1"/>
<path d="M264.809 55.4607L261.585 56.3186L261.407 54.805L261.185 52.9467L261.173 52.8417L261.06 51.8868L260.69 52.8893C260.689 52.8972 260.689 52.9052 260.69 52.9131L260.662 52.9844V52.9705L260.403 53.6738H260.418L260.323 53.9254H260.307L260.193 54.2364L259.763 55.3993L259.406 55.0407L258.259 53.8798L258.194 53.8145L257.599 53.2201L258.059 54.6663L258.104 54.8089L258.754 56.8534L254.198 57.2497L258.12 58.4106L255.757 60.5898L258.729 59.4249L258.754 60.5997L258.78 60.5759L258.867 60.6314C258.851 60.6452 258.83 60.675 258.82 60.671C258.796 60.6637 258.774 60.653 258.754 60.6393L258.818 63.6922C258.818 63.6922 259.808 61.6932 260.504 60.2332L260.69 60.461V60.4293H260.779C260.779 60.4471 260.779 60.4788 260.767 60.4828C260.747 60.4896 260.727 60.4936 260.706 60.4947L262.384 62.561C262.384 62.561 261.874 60.1203 261.579 58.7592L266.015 58.9811L262.134 57.3368L264.809 55.4607Z" fill="#F49407"/>
<path d="M216.436 44.8877C216.511 45.9258 216.568 46.9652 216.605 48.0059C216.64 49.0638 216.676 50.2247 216.426 51.2886C216.426 51.4748 216.44 51.661 216.446 51.8453C217.016 51.2634 217.498 50.6005 217.874 49.878C218.327 49.0054 218.622 48.0598 218.746 47.0847C218.883 45.9832 218.689 44.8639 218.869 43.7684C219.228 41.5892 220.921 40.0439 222.633 38.8156C222.698 38.771 222.777 38.752 222.855 38.7621C222.896 38.7651 222.936 38.7802 222.969 38.8056C223.001 38.831 223.026 38.8655 223.039 38.9048C223.039 38.9266 223.053 38.9464 223.059 38.9682C223.225 39.5625 222.861 40.03 222.645 40.5689C222.434 41.1648 222.337 41.7953 222.36 42.4272C222.36 43.5465 222.461 44.648 222.265 45.7594C222.077 46.8204 221.709 47.8415 221.177 48.7785C220.381 50.1669 219.24 51.3253 217.863 52.1404L221.963 51.1935C223.35 50.8765 224.749 50.5714 226.007 49.8998C226.571 49.6055 227.087 49.2252 227.534 48.7726C227.808 48.4893 228.271 47.8435 228.711 48.1188C228.768 48.1543 228.819 48.1984 228.862 48.2496C228.877 48.2678 228.891 48.287 228.903 48.307C229.04 48.5289 228.921 48.7785 228.814 48.9984C228.665 49.3095 228.515 49.6205 228.356 49.9256C228.178 50.2723 227.99 50.617 227.786 50.9478C227.6 51.3441 227.389 51.7285 227.156 52.0988C226.646 52.9292 225.96 53.6379 225.147 54.175C224.272 54.7041 223.271 54.99 222.249 55.0031C220.216 55.0448 218.217 54.4829 216.504 53.3885L216.581 55.7242C217.199 55.8847 217.819 56.0313 218.449 56.1205C219.068 56.2228 219.696 56.2679 220.323 56.2552C220.949 56.2246 221.573 56.1531 222.189 56.0412C223.344 55.859 224.553 55.6866 225.692 56.0412C225.897 56.0959 226.088 56.1923 226.254 56.3245C226.335 56.3937 226.393 56.4845 226.423 56.586C226.445 56.6772 226.445 56.7722 226.423 56.8634C226.33 57.325 225.886 57.4914 225.48 57.5865C224.547 57.8083 223.895 58.4621 223.103 58.9732C222.757 59.2115 222.369 59.3804 221.959 59.4705C221.403 59.5468 220.836 59.4786 220.313 59.2724C219.125 58.8762 217.936 58.3849 216.747 57.9411L216.638 57.8995C216.674 58.9323 216.709 59.9631 216.743 60.992C217.681 61.1404 218.635 61.1604 219.578 61.0514C220.071 60.966 220.571 60.9249 221.072 60.9286C221.468 60.9523 221.983 61.0573 222.261 61.3921C222.302 61.441 222.336 61.495 222.364 61.5526C222.403 61.6329 222.419 61.723 222.409 61.8121C222.334 62.3609 221.171 62.6759 220.759 62.7591C219.729 62.9572 218.671 62.8284 217.657 62.6165C217.369 62.557 217.084 62.4976 216.799 62.4342C216.811 62.771 216.821 63.1058 216.832 63.4426C216.875 64.6642 216.916 65.8866 216.955 67.1096C217.051 66.925 217.21 66.7814 217.404 66.7053C217.597 66.6292 217.812 66.6258 218.007 66.6956C218.203 66.7655 218.367 66.9039 218.469 67.0853C218.57 67.2667 218.603 67.4787 218.56 67.6821L219.267 67.8287C219.322 67.6133 219.457 67.4272 219.646 67.3093C219.834 67.1915 220.061 67.151 220.278 67.1962C220.496 67.2415 220.687 67.369 220.813 67.5522C220.939 67.7354 220.989 67.9601 220.953 68.1794L221.66 68.326C221.707 68.1021 221.841 67.9061 222.032 67.7808C222.224 67.6556 222.457 67.6116 222.681 67.6583C222.904 67.7051 223.1 67.8389 223.226 68.0302C223.351 68.2215 223.395 68.4548 223.348 68.6786L224.053 68.8252C224.1 68.6014 224.234 68.4053 224.425 68.2801C224.617 68.1549 224.85 68.1108 225.074 68.1576C225.298 68.2043 225.494 68.3381 225.619 68.5294C225.744 68.7208 225.788 68.954 225.741 69.1778L227.162 69.473L227.558 67.5296H227.51C227.286 67.4841 227.09 67.3515 226.963 67.1609C226.837 66.9703 226.791 66.7374 226.837 66.5133C226.882 66.2892 227.015 66.0923 227.206 65.966C227.396 65.8397 227.629 65.7942 227.853 65.8397L227.909 65.8516L228.079 65.0373C227.859 64.9872 227.668 64.853 227.546 64.6636C227.424 64.4741 227.382 64.2445 227.427 64.0239C227.472 63.8032 227.602 63.6091 227.789 63.483C227.976 63.357 228.204 63.309 228.426 63.3495L228.596 62.5352C228.385 62.477 228.204 62.3405 228.09 62.1536C227.976 61.9666 227.937 61.7432 227.982 61.5288C228.026 61.3143 228.151 61.1249 228.33 60.9991C228.509 60.8732 228.73 60.8204 228.947 60.8513L229.117 60.0351C228.906 59.9769 228.725 59.8404 228.611 59.6535C228.497 59.4665 228.458 59.2431 228.503 59.0286C228.547 58.8142 228.672 58.6248 228.851 58.4989C229.03 58.3731 229.251 58.3203 229.468 58.3512L229.614 57.6419C229.403 57.5841 229.221 57.4476 229.106 57.2603C228.992 57.0729 228.953 56.8489 228.998 56.6339C229.043 56.419 229.168 56.2293 229.348 56.1037C229.528 55.9781 229.75 55.926 229.967 55.958L230.114 55.2508C230.003 55.2277 229.898 55.1831 229.804 55.1194C229.71 55.0557 229.63 54.9742 229.568 54.8796C229.506 54.785 229.463 54.679 229.442 54.5678C229.421 54.4566 229.422 54.3423 229.445 54.2315C229.468 54.1207 229.513 54.0155 229.576 53.9219C229.64 53.8283 229.722 53.7482 229.816 53.6861C229.911 53.624 230.017 53.5812 230.128 53.56C230.239 53.5389 230.353 53.5398 230.464 53.5629L230.613 52.8576C230.502 52.8346 230.397 52.7899 230.303 52.7263C230.21 52.6626 230.13 52.5811 230.067 52.4864C230.005 52.3918 229.963 52.2858 229.941 52.1746C229.92 52.0634 229.921 51.9492 229.944 51.8383C229.967 51.7275 230.012 51.6223 230.076 51.5287C230.139 51.4351 230.221 51.355 230.315 51.2929C230.41 51.2308 230.516 51.188 230.627 51.1669C230.738 51.1457 230.853 51.1467 230.964 51.1697L231.11 50.4644C230.999 50.4415 230.894 50.397 230.8 50.3334C230.706 50.2698 230.626 50.1883 230.564 50.0937C230.501 49.9991 230.458 49.8931 230.437 49.7818C230.416 49.6705 230.417 49.5561 230.44 49.4452C230.462 49.3342 230.507 49.2289 230.571 49.1351C230.634 49.0414 230.716 48.9611 230.81 48.8988C230.905 48.8365 231.011 48.7935 231.122 48.7722C231.233 48.7509 231.348 48.7517 231.459 48.7746L231.605 48.0673C231.494 48.0448 231.389 48.0007 231.295 47.9374C231.201 47.8742 231.121 47.793 231.058 47.6987C230.996 47.6043 230.952 47.4985 230.931 47.3874C230.909 47.2763 230.909 47.162 230.932 47.051C230.954 46.9401 230.998 46.8346 231.062 46.7407C231.125 46.6468 231.206 46.5663 231.3 46.5038C231.395 46.4412 231.501 46.3979 231.612 46.3762C231.723 46.3545 231.837 46.3549 231.948 46.3775H231.964L232.113 45.6702H232.091C231.867 45.6248 231.67 45.4922 231.543 45.3016C231.417 45.111 231.372 44.878 231.417 44.6539C231.463 44.4298 231.595 44.233 231.786 44.1066C231.976 43.9803 232.209 43.9349 232.433 43.9803H232.463L232.61 43.2731H232.576C232.465 43.2506 232.36 43.2064 232.266 43.1432C232.172 43.0799 232.091 42.9988 232.029 42.9044C231.966 42.8101 231.923 42.7043 231.901 42.5932C231.88 42.482 231.88 42.3677 231.903 42.2568C231.925 42.1458 231.969 42.0404 232.032 41.9465C232.096 41.8526 232.177 41.7721 232.271 41.7095C232.366 41.647 232.471 41.6036 232.582 41.582C232.694 41.5603 232.808 41.5607 232.919 41.5832H232.962L233.109 40.876H233.062C232.947 40.8572 232.838 40.8155 232.74 40.7535C232.642 40.6915 232.558 40.6103 232.492 40.5149C232.426 40.4195 232.38 40.3118 232.357 40.1983C232.334 40.0847 232.334 39.9677 232.357 39.8541C232.38 39.7405 232.425 39.6328 232.491 39.5373C232.557 39.4418 232.641 39.3605 232.739 39.2983C232.837 39.2362 232.946 39.1943 233.06 39.1754C233.175 39.1565 233.292 39.1608 233.404 39.1881C233.423 39.1909 233.441 39.1949 233.46 39.2L233.785 37.6448L232.519 37.3833C232.472 37.6071 232.338 37.8032 232.147 37.9284C231.955 38.0536 231.722 38.0977 231.498 38.0509C231.275 38.0042 231.079 37.8704 230.953 37.6791C230.828 37.4877 230.784 37.2545 230.831 37.0307L230.126 36.8841C230.079 37.1079 229.945 37.304 229.754 37.4292C229.562 37.5544 229.329 37.5985 229.105 37.5517C228.881 37.5049 228.685 37.3712 228.56 37.1798C228.435 36.9885 228.391 36.7553 228.438 36.5314L227.732 36.3848C227.709 36.4957 227.665 36.6009 227.601 36.6944C227.537 36.788 227.456 36.8682 227.361 36.9302C227.267 36.9923 227.161 37.0352 227.049 37.0563C226.938 37.0774 226.824 37.0765 226.713 37.0534C226.602 37.0304 226.497 36.9858 226.403 36.9221C226.31 36.8584 226.23 36.7769 226.168 36.6823C226.106 36.5876 226.063 36.4817 226.042 36.3705C226.02 36.2593 226.021 36.145 226.044 36.0342L225.339 35.8876C225.316 35.9984 225.271 36.1036 225.207 36.1971C225.144 36.2906 225.062 36.3707 224.967 36.4327C224.873 36.4947 224.767 36.5374 224.655 36.5584C224.544 36.5795 224.43 36.5784 224.319 36.5552C224.208 36.5321 224.103 36.4873 224.009 36.4235C223.916 36.3597 223.836 36.2781 223.774 36.1833C223.712 36.0886 223.669 35.9826 223.648 35.8713C223.627 35.7601 223.628 35.6458 223.651 35.5349L222.946 35.3883C222.923 35.4992 222.878 35.6044 222.814 35.6979C222.751 35.7914 222.669 35.8715 222.574 35.9335C222.479 35.9955 222.373 36.0382 222.262 36.0592C222.151 36.0802 222.037 36.0791 221.926 36.056C221.815 36.0328 221.71 35.9881 221.616 35.9243C221.523 35.8605 221.443 35.7788 221.381 35.6841C221.319 35.5894 221.276 35.4833 221.255 35.3721C221.234 35.2608 221.235 35.1465 221.258 35.0357L220.553 34.8891C220.506 35.1129 220.373 35.3091 220.182 35.4345C219.991 35.5599 219.757 35.6042 219.534 35.5577C219.31 35.5112 219.114 35.3777 218.988 35.1866C218.863 34.9954 218.819 34.7623 218.865 34.5385L218.16 34.3919C218.137 34.5027 218.092 34.6079 218.028 34.7014C217.964 34.7949 217.883 34.875 217.788 34.937C217.693 34.999 217.587 35.0417 217.476 35.0627C217.365 35.0837 217.25 35.0826 217.139 35.0595C217.029 35.0363 216.923 34.9916 216.83 34.9278C216.736 34.864 216.656 34.7824 216.594 34.6876C216.532 34.5929 216.49 34.4869 216.469 34.3756C216.448 34.2644 216.449 34.1501 216.472 34.0392L215.836 33.9065C215.936 36.9442 216.038 39.9818 216.141 43.0195C216.3 43.6312 216.398 44.2569 216.436 44.8877Z" fill="#FEF7EC"/>
<path d="M216.834 63.4565C216.822 63.1197 216.813 62.7849 216.801 62.4481L216.753 61.0059C216.717 59.9757 216.682 58.9449 216.648 57.9134C216.624 57.1843 216.601 56.4533 216.575 55.7342L216.498 53.3985C216.48 52.8834 216.464 52.3703 216.446 51.8552C216.446 51.671 216.434 51.4847 216.426 51.2985C216.335 48.5461 216.243 45.7931 216.151 43.0394C216.049 40.0017 215.947 36.964 215.846 33.9263L215.81 32.8466C215.78 31.9809 214.851 31.7055 214.281 32.0225C214.239 32.0225 214.201 32.0225 214.158 32.0225C180.206 32.7 146.249 32.8117 112.286 32.3573C106.315 32.2754 100.344 32.1744 94.3732 32.0542L94.0106 34.0195C124.486 34.6138 154.965 34.7518 185.448 34.4335C193.689 34.3463 201.929 34.2228 210.168 34.063C210.838 34.0492 211.509 34.0393 212.179 34.0274H212.264L212.238 34.0531L209.635 36.7415L133.696 115.686C130.51 118.998 127.426 122.463 124.084 125.617C120.678 128.83 116.886 130.114 112.615 127.612C108.91 125.433 105.792 122.077 102.628 119.206C99.2526 116.144 95.8966 113.057 92.5605 109.947C79.3981 97.6759 66.5679 85.0629 54.0699 72.1079C42.1978 59.7974 30.6415 47.1911 19.4008 34.2889H18.8817L18.9273 36.7375C38.4054 59.0142 58.8258 80.4186 80.1886 100.951C64.6423 120.83 48.5915 140.304 32.0362 159.373C28.5217 163.418 24.9822 167.443 21.4175 171.446L21.4472 173.005L22.6795 172.991C38.3776 155.313 53.6459 137.269 68.4843 118.858C72.8995 113.371 77.275 107.855 81.611 102.308C83.9764 104.57 86.3537 106.823 88.7429 109.067C92.157 112.271 95.5909 115.452 99.0446 118.61C102.389 121.663 105.665 124.892 109.245 127.672C112.019 129.823 115.367 131.586 118.98 130.871C122.469 130.178 125.09 127.466 127.457 125.009C134.581 117.613 141.7 110.217 148.814 102.821C167.677 123.003 186.949 142.793 206.628 162.192C209.504 165.025 212.389 167.85 215.283 170.667L217.096 170.643V169.673C199.847 152.882 182.898 135.789 166.249 118.394C160.861 112.76 155.504 107.093 150.18 101.394C156.321 95.0113 162.459 88.6282 168.595 82.2451L209.689 39.5249L213.914 35.1308L214.081 40.1113C214.195 43.5228 214.31 46.9342 214.423 50.3456C214.456 51.3441 214.489 52.3412 214.522 53.3371C214.522 53.5173 214.536 53.6976 214.542 53.8759C214.556 54.3098 214.57 54.7417 214.586 55.1755L214.651 57.1566C214.689 58.2647 214.726 59.3721 214.762 60.4789C214.779 60.9663 214.796 61.4529 214.812 61.939C214.859 63.372 214.907 64.8043 214.956 66.236C215.792 91.2135 216.628 116.192 217.462 141.173C217.667 147.248 217.87 153.323 218.072 159.399L220.054 159.795L216.965 67.1235C216.919 65.9018 216.875 64.6795 216.834 63.4565Z" fill="#151F2D"/>
<path d="M225.147 54.175C225.96 53.6378 226.646 52.9292 227.156 52.0988C227.389 51.7285 227.6 51.3441 227.786 50.9478C227.984 50.6169 228.182 50.2722 228.356 49.9255C228.515 49.6205 228.665 49.3094 228.814 48.9984C228.921 48.7785 229.04 48.5289 228.903 48.307C228.891 48.2869 228.877 48.2677 228.862 48.2495C228.818 48.1984 228.768 48.1542 228.711 48.1188C228.271 47.8434 227.808 48.4893 227.534 48.7725C227.087 49.2252 226.571 49.6055 226.007 49.8998C224.749 50.5714 223.342 50.8765 221.963 51.1934L217.862 52.1404C219.235 51.3255 220.373 50.1694 221.167 48.7844C221.699 47.8474 222.067 46.8263 222.255 45.7653C222.453 44.6539 222.348 43.5524 222.35 42.4331C222.327 41.8012 222.424 41.1707 222.635 40.5748C222.849 40.0359 223.215 39.5684 223.049 38.9741C223.049 38.9523 223.037 38.9325 223.029 38.9107C223.016 38.8714 222.991 38.8369 222.959 38.8115C222.926 38.7861 222.886 38.771 222.845 38.768C222.767 38.7579 222.688 38.777 222.623 38.8215C220.921 40.0439 219.227 41.5951 218.859 43.7743C218.679 44.8698 218.873 45.9891 218.736 47.0906C218.612 48.0657 218.317 49.0113 217.864 49.8839C217.488 50.6064 217.006 51.2693 216.436 51.8512C216.454 52.3662 216.47 52.8793 216.488 53.3944C218.201 54.4888 220.2 55.0506 222.233 55.009C223.261 54.9969 224.268 54.7089 225.147 54.175Z" fill="#136C50"/>
<path d="M216.605 48.0058C216.569 46.9664 216.513 45.927 216.436 44.8876C216.401 44.2604 216.305 43.6381 216.151 43.0293C216.242 45.783 216.334 48.5361 216.426 51.2885C216.676 50.2246 216.64 49.0637 216.605 48.0058Z" fill="#00695E"/>
<path d="M220.321 59.2861C220.844 59.4922 221.411 59.5605 221.967 59.4842C222.377 59.394 222.765 59.2252 223.11 58.9869C223.903 58.4798 224.545 57.826 225.488 57.6001C225.884 57.5051 226.338 57.3386 226.431 56.877C226.452 56.7859 226.452 56.6909 226.431 56.5997C226.401 56.4982 226.342 56.4074 226.262 56.3382C226.096 56.206 225.905 56.1095 225.7 56.0549C224.56 55.6904 223.352 55.8568 222.197 56.0549C221.58 56.1668 220.957 56.2383 220.331 56.2689C219.703 56.2816 219.076 56.2365 218.457 56.1341C217.827 56.0351 217.207 55.8885 216.589 55.7379C216.614 56.467 216.638 57.198 216.662 57.9171L216.771 57.9587C217.944 58.3985 219.122 58.876 220.321 59.2861Z" fill="#136C50"/>
<path d="M220.761 62.7728C221.173 62.6896 222.336 62.3766 222.411 61.8258C222.421 61.7367 222.405 61.6466 222.365 61.5663C222.338 61.5086 222.303 61.4547 222.262 61.4058C221.993 61.071 221.488 60.966 221.074 60.9422C220.573 60.9386 220.073 60.9797 219.58 61.0651C218.637 61.1741 217.683 61.1541 216.745 61.0056L216.793 62.4479C217.078 62.5113 217.363 62.5707 217.65 62.6301C218.673 62.8382 219.739 62.9788 220.761 62.7728Z" fill="#136C50"/>
<path d="M17.4415 68.078C23.3273 68.7813 29.4806 69.2013 35.299 67.7908C36.17 67.5807 37.0296 67.3262 37.8745 67.0281C40.5971 66.534 43.1867 65.4773 45.4779 63.9257C45.4012 63.9312 45.325 63.9103 45.2619 63.8662C45.1839 63.8069 45.128 63.7232 45.1032 63.6284C45.0785 63.5335 45.0862 63.4331 45.1253 63.3432C45.1884 63.2306 45.2709 63.1301 45.3689 63.0461C45.4431 62.9825 45.5381 62.9486 45.6357 62.9508C45.7333 62.953 45.8267 62.9911 45.8979 63.058C45.9673 63.1265 46.0113 63.2167 46.0225 63.3136C46.0336 63.4105 46.0113 63.5083 45.9593 63.5909C46.7932 63.002 47.5831 62.3531 48.3227 61.6494C52.4692 57.6872 54.8049 52.162 55.5517 46.5337C56.3283 40.6835 55.5914 34.2291 52.382 29.1674C49.028 23.8898 43.2313 20.9855 37.3633 19.3769C31.3343 17.7536 25.0881 17.0852 18.852 17.3958C13.1069 17.6652 5.99078 18.5032 2.31982 23.5372C0.588343 25.9145 0.140616 28.8703 0.047505 31.7389C-0.0535306 35.1325 0.0574123 38.54 0.0772232 41.9336C0.0970341 45.1925 0.0296769 48.4712 0.303067 51.7182C0.548723 54.6344 1.10739 57.6159 2.51595 60.2131C3.9245 62.8103 6.10172 64.726 8.75836 65.9583C11.4725 67.2064 14.4857 67.7274 17.4415 68.078ZM52.2235 40.1229L52.0254 40.0912C52.0332 40.0366 52.0499 39.9837 52.0749 39.9347C52.0922 39.9264 52.1112 39.9221 52.1304 39.9221C52.1496 39.9221 52.1685 39.9264 52.1859 39.9347C52.2065 39.9955 52.2191 40.0588 52.2235 40.1229ZM42.5399 29.9004C42.635 29.7895 42.7737 29.7816 42.9203 29.9004C42.9203 29.948 42.9342 30.0411 42.8965 30.0985C42.8785 30.1253 42.8547 30.1478 42.827 30.1644C42.7992 30.181 42.7682 30.1913 42.736 30.1945C42.7039 30.1977 42.6714 30.1938 42.6409 30.183C42.6105 30.1723 42.5827 30.1549 42.5597 30.1322C42.5414 30.1196 42.5261 30.1031 42.5149 30.0839C42.5037 30.0646 42.497 30.0432 42.4951 30.021C42.4932 29.9989 42.4962 29.9765 42.504 29.9557C42.5117 29.9348 42.524 29.916 42.5399 29.9004ZM54.5315 48.3048C54.6153 48.2652 54.7049 48.2391 54.7969 48.2275C54.8103 48.3221 54.8103 48.4182 54.7969 48.5128C54.7652 48.6019 54.5988 48.6099 54.5156 48.5306C54.4992 48.5161 54.4864 48.498 54.4781 48.4778C54.4698 48.4575 54.4663 48.4356 54.4678 48.4138C54.4694 48.3919 54.4759 48.3708 54.4869 48.3519C54.498 48.333 54.5132 48.3168 54.5315 48.3048ZM43.7583 38.8966C43.7113 38.8242 43.6932 38.7368 43.7075 38.6517C43.7218 38.5666 43.7675 38.49 43.8356 38.437C43.8748 38.4002 43.9218 38.3727 43.973 38.3564C44.0243 38.34 44.0785 38.3353 44.1318 38.3425C44.1851 38.3497 44.2361 38.3687 44.2811 38.398C44.3262 38.4274 44.3641 38.4664 44.3922 38.5122C44.4241 38.541 44.4496 38.5762 44.467 38.6154C44.4844 38.6547 44.4934 38.6971 44.4934 38.7401C44.4934 38.783 44.4844 38.8255 44.467 38.8647C44.4496 38.9039 44.4241 38.9391 44.3922 38.9679C44.3472 39.0077 44.2943 39.0376 44.237 39.0558C44.1797 39.0739 44.1192 39.0798 44.0594 39.073C43.9997 39.0663 43.942 39.0471 43.8902 39.0167C43.8383 38.9863 43.7934 38.9454 43.7583 38.8966ZM46.3555 44.612C46.371 44.5911 46.3911 44.5741 46.4144 44.5624C46.4376 44.5507 46.4632 44.5447 46.4892 44.5447C46.5152 44.5447 46.5409 44.5507 46.5641 44.5624C46.5873 44.5741 46.6075 44.5911 46.623 44.612C46.6542 44.7015 46.6736 44.7948 46.6804 44.8894C46.5693 44.884 46.4596 44.8612 46.3555 44.822C46.2782 44.7844 46.2921 44.6873 46.3555 44.612ZM37.1949 36.8382C37.2286 36.8085 37.3079 36.8263 37.3931 36.8204C37.3772 36.9036 37.3931 36.9868 37.3495 37.0086C37.324 37.0228 37.2954 37.0303 37.2663 37.0303C37.2371 37.0303 37.2085 37.0228 37.1831 37.0086C37.17 36.9823 37.1642 36.953 37.1663 36.9238C37.1684 36.8945 37.1783 36.8663 37.1949 36.8422V36.8382ZM46.1277 57.9269C46.09 57.917 46.0385 57.917 46.0207 57.8932C46.0029 57.8695 46.0207 57.8239 46.0366 57.7863C46.0722 57.7962 46.1237 57.7962 46.1416 57.82C46.1594 57.8437 46.1336 57.8853 46.1277 57.9309V57.9269ZM44.8083 50.4404C44.7974 50.4594 44.7823 50.4757 44.7641 50.4878C44.7459 50.5 44.725 50.5078 44.7033 50.5104C44.6816 50.5131 44.6595 50.5107 44.6388 50.5034C44.6182 50.496 44.5996 50.484 44.5844 50.4681C44.5712 50.4424 44.5643 50.4139 44.5643 50.3849C44.5643 50.356 44.5712 50.3275 44.5844 50.3017C44.5971 50.2815 44.6144 50.2646 44.6348 50.2524C44.6553 50.2402 44.6784 50.233 44.7022 50.2315C44.726 50.2299 44.7498 50.234 44.7717 50.2435C44.7936 50.253 44.8129 50.2675 44.8281 50.2859C44.8182 50.3275 44.8301 50.3988 44.8083 50.4404ZM48.4099 51.0347C48.3804 50.9899 48.3682 50.9358 48.3754 50.8827C48.3827 50.8295 48.409 50.7807 48.4495 50.7455C48.4748 50.7171 48.5061 50.6947 48.5411 50.68C48.5761 50.6652 48.6139 50.6584 48.6519 50.6601C48.6898 50.6618 48.7269 50.672 48.7605 50.6898C48.794 50.7077 48.8231 50.7328 48.8457 50.7633C48.8658 50.7875 48.8808 50.8155 48.8898 50.8457C48.8988 50.8758 48.9017 50.9075 48.8982 50.9387C48.8946 50.97 48.8849 51.0002 48.8694 51.0276C48.8539 51.055 48.8331 51.079 48.8081 51.0981C48.7786 51.1233 48.7441 51.142 48.7069 51.1528C48.6696 51.1637 48.6305 51.1665 48.5921 51.1611C48.5536 51.1556 48.5168 51.1421 48.4841 51.1213C48.4513 51.1006 48.4233 51.0731 48.402 51.0407L48.4099 51.0347ZM49.9334 53.0297C49.9683 53.0381 50.0027 53.0487 50.0364 53.0614C50.0364 53.0614 50.0364 53.1129 50.0225 53.1168C49.9882 53.1265 49.953 53.1331 49.9175 53.1367C49.9135 53.1069 49.9195 53.0713 49.9254 53.0356L49.9334 53.0297ZM34.4174 38.6073C34.3682 38.4973 34.3536 38.3749 34.3755 38.2564C34.3975 38.1378 34.4549 38.0288 34.5403 37.9437C34.6393 37.8466 34.8018 37.8466 34.9603 38.0427C35.0169 38.1862 35.0645 38.3331 35.1029 38.4825C35.1092 38.5701 35.083 38.657 35.0293 38.7264C34.9755 38.7959 34.8981 38.8431 34.8117 38.8589C34.7691 38.8698 34.7248 38.8721 34.6814 38.8656C34.6379 38.859 34.5963 38.8439 34.5588 38.821C34.5213 38.7981 34.4888 38.7679 34.4631 38.7322C34.4375 38.6966 34.4193 38.6561 34.4095 38.6133L34.4174 38.6073ZM41.1987 46.5317C41.247 46.4904 41.3076 46.4662 41.371 46.463C41.4345 46.4597 41.4972 46.4776 41.5494 46.5139C41.5925 46.5613 41.6165 46.6231 41.6165 46.6872C41.6165 46.7513 41.5925 46.8131 41.5494 46.8606C41.5027 46.9046 41.4417 46.9303 41.3776 46.9328C41.3135 46.9354 41.2507 46.9146 41.2007 46.8744C41.1554 46.8303 41.1291 46.7703 41.1272 46.7071C41.1254 46.6438 41.1482 46.5824 41.1908 46.5357L41.1987 46.5317ZM48.3208 58.4182C48.2871 58.3469 48.2514 58.234 48.2851 58.1825C48.3772 58.0457 48.4849 57.92 48.606 57.8081C48.6278 57.7932 48.6523 57.7829 48.6781 57.7777C48.7039 57.7725 48.7305 57.7724 48.7563 57.7776C48.7822 57.7827 48.8067 57.793 48.8285 57.8078C48.8503 57.8225 48.869 57.8415 48.8834 57.8635C48.9181 57.9365 48.9252 58.0196 48.9032 58.0973C48.8574 58.1762 48.8007 58.2482 48.7348 58.3113L48.604 58.4182C48.4991 58.5034 48.3505 58.5114 48.3128 58.4321L48.3208 58.4182ZM45.6185 57.2494C45.5631 57.2796 45.4989 57.2895 45.4369 57.2771C45.375 57.2648 45.3194 57.2312 45.2798 57.182C45.2289 57.1286 45.2005 57.0577 45.2005 56.9839C45.2005 56.9102 45.2289 56.8392 45.2798 56.7858C45.3057 56.7583 45.3373 56.7368 45.3724 56.7228C45.4075 56.7087 45.4452 56.7026 45.483 56.7046C45.5207 56.7067 45.5575 56.717 45.5909 56.7348C45.6242 56.7526 45.6533 56.7774 45.676 56.8076C45.7062 56.8399 45.7287 56.8785 45.7419 56.9207C45.7552 56.9628 45.7588 57.0074 45.7525 57.0511C45.7463 57.0948 45.7303 57.1366 45.7057 57.1733C45.6811 57.21 45.6486 57.2408 45.6106 57.2633L45.6185 57.2494ZM32.8128 43.461C32.8361 43.4318 32.8654 43.4078 32.8986 43.3906C32.9318 43.3734 32.9683 43.3633 33.0056 43.3611C33.0429 43.3589 33.0803 43.3645 33.1154 43.3776C33.1504 43.3907 33.1823 43.411 33.209 43.4372C33.268 43.4982 33.3018 43.5793 33.3036 43.6641C33.3055 43.749 33.2752 43.8314 33.2189 43.8949C33.1873 43.9227 33.1503 43.9439 33.1103 43.9571C33.0703 43.9703 33.028 43.9753 32.986 43.9718C32.944 43.9683 32.9032 43.9563 32.8659 43.9366C32.8287 43.9169 32.7958 43.8899 32.7692 43.8572C32.7251 43.801 32.7043 43.7301 32.7109 43.6589C32.7175 43.5878 32.7511 43.522 32.8048 43.4749L32.8128 43.461ZM41.3909 53.7389C41.4523 53.7112 41.5434 53.7488 41.589 53.7528C41.6326 53.797 41.6636 53.8522 41.6786 53.9125C41.6936 53.9728 41.6921 54.0361 41.6743 54.0956C41.6565 54.1552 41.623 54.2088 41.5773 54.251C41.5316 54.2931 41.4754 54.3222 41.4147 54.3352C41.3838 54.338 41.3527 54.334 41.3236 54.3234C41.2945 54.3128 41.2681 54.2958 41.2463 54.2738C41.2161 54.2321 41.1955 54.1842 41.1861 54.1335C41.1766 54.0829 41.1785 54.0308 41.1916 53.981C41.2046 53.9312 41.2286 53.8849 41.2617 53.8454C41.2948 53.806 41.3362 53.7743 41.383 53.7528L41.3909 53.7389ZM29.1894 42.7993C29.155 42.7444 29.1402 42.6795 29.1474 42.6151C29.1546 42.5507 29.1834 42.4907 29.229 42.4447C29.2987 42.3925 29.386 42.3698 29.4723 42.3813C29.5586 42.3927 29.6369 42.4376 29.6906 42.5061C29.7099 42.5321 29.7239 42.5617 29.7316 42.5931C29.7393 42.6246 29.7406 42.6573 29.7354 42.6892C29.7302 42.7212 29.7187 42.7518 29.7015 42.7792C29.6842 42.8066 29.6617 42.8303 29.6351 42.8488C29.6056 42.8815 29.569 42.9069 29.5282 42.9231C29.4874 42.9394 29.4433 42.946 29.3995 42.9426C29.3557 42.9391 29.3132 42.9257 29.2754 42.9033C29.2376 42.8808 29.2055 42.85 29.1814 42.8132L29.1894 42.7993ZM32.8425 46.9893C32.8 46.9209 32.7753 46.843 32.7709 46.7626C32.7665 46.6822 32.7824 46.6019 32.8171 46.5293C32.8518 46.4566 32.9043 46.3939 32.9697 46.3469C33.0351 46.2999 33.1112 46.2701 33.1912 46.2603C33.278 46.2706 33.3616 46.2989 33.4368 46.3435C33.5076 46.408 33.5548 46.4943 33.5709 46.5887C33.5871 46.6831 33.5713 46.7801 33.526 46.8645C33.4871 46.9543 33.4195 47.0285 33.3337 47.0755C33.248 47.1225 33.149 47.1396 33.0525 47.124C32.9698 47.1029 32.8962 47.0557 32.8425 46.9893ZM42.5498 57.7467H42.6469V57.8021C42.6146 57.8041 42.5822 57.8041 42.5498 57.8021C42.5476 57.783 42.5476 57.7638 42.5498 57.7447V57.7467ZM38.7323 54.7156C38.7571 54.696 38.7856 54.6816 38.8161 54.6732C38.8466 54.6648 38.8785 54.6626 38.9098 54.6666C38.9412 54.6707 38.9714 54.681 38.9988 54.6969C39.0261 54.7127 39.05 54.7339 39.0691 54.7592C39.0865 54.7787 39.0999 54.8016 39.1085 54.8264C39.117 54.8511 39.1206 54.8774 39.1189 54.9035C39.1172 54.9297 39.1104 54.9553 39.0988 54.9788C39.0872 55.0023 39.071 55.0233 39.0512 55.0405C39.0067 55.0862 38.9464 55.113 38.8826 55.1156C38.8189 55.1182 38.7566 55.0963 38.7085 55.0544C38.6671 55.0061 38.6464 54.9435 38.6509 54.8801C38.6553 54.8167 38.6846 54.7576 38.7323 54.7156ZM31.2675 51.0704C31.2873 51.0486 31.3369 51.0545 31.3725 51.0486C31.3725 51.0842 31.3923 51.1318 31.3725 51.1516C31.3527 51.1714 31.3052 51.1674 31.2695 51.1734C31.2695 51.1278 31.2517 51.0783 31.2675 51.0605V51.0704ZM37.918 66.9983L37.8962 66.9627H37.9398L37.918 66.9983ZM33.8152 54.6363C33.8662 54.5982 33.9297 54.5806 33.9931 54.5868C34.0565 54.593 34.1153 54.6227 34.1579 54.67C34.1777 54.6946 34.1924 54.7229 34.2011 54.7533C34.2098 54.7836 34.2124 54.8154 34.2087 54.8467C34.205 54.8781 34.1951 54.9084 34.1796 54.9359C34.1641 54.9633 34.1433 54.9875 34.1183 55.0068C34.0683 55.0466 34.0046 55.0649 33.9412 55.0579C33.8777 55.0508 33.8196 55.0189 33.7795 54.9692C33.7586 54.9458 33.7428 54.9183 33.7332 54.8884C33.7236 54.8586 33.7203 54.827 33.7237 54.7958C33.7271 54.7646 33.737 54.7345 33.7527 54.7073C33.7685 54.6802 33.7898 54.6567 33.8152 54.6383V54.6363ZM39.3623 62.2081C39.4177 62.1169 39.489 62.0357 39.5267 61.9842C39.7248 61.8297 39.8952 61.7366 40.0972 61.8376C40.1977 61.8809 40.2826 61.9538 40.3406 62.0465C40.3986 62.1392 40.4271 62.2474 40.4221 62.3567C40.4216 62.4543 40.4003 62.5507 40.3596 62.6395C40.319 62.7283 40.2599 62.8075 40.1864 62.8717C40.0946 62.9647 39.9712 63.02 39.8407 63.0266C39.7101 63.0332 39.5819 62.9906 39.4811 62.9074C39.3751 62.8292 39.303 62.7135 39.2794 62.5839C39.2559 62.4543 39.2827 62.3206 39.3543 62.2101L39.3623 62.2081ZM26.6674 49.3211C26.7169 49.2815 26.8081 49.2914 26.9349 49.2715C26.917 49.3964 26.9349 49.5033 26.8913 49.5311C26.857 49.5477 26.8194 49.5564 26.7813 49.5564C26.7432 49.5564 26.7057 49.5477 26.6714 49.5311C26.6543 49.5201 26.64 49.5052 26.6298 49.4877C26.6196 49.4701 26.6136 49.4504 26.6124 49.4301C26.6113 49.4098 26.6149 49.3895 26.6231 49.3709C26.6313 49.3523 26.6438 49.3359 26.6595 49.3231L26.6674 49.3211ZM27.6699 50.696C27.6539 50.6742 27.6425 50.6495 27.6365 50.6232C27.6304 50.5969 27.6298 50.5697 27.6346 50.5432C27.6394 50.5167 27.6496 50.4914 27.6645 50.469C27.6794 50.4465 27.6988 50.4274 27.7214 50.4127C27.7826 50.3742 27.8564 50.3612 27.9271 50.3764C27.9977 50.3915 28.0597 50.4337 28.0998 50.4939C28.0833 50.5821 28.0511 50.6667 28.0047 50.7435C27.981 50.7671 27.9522 50.7849 27.9206 50.7956C27.8889 50.8063 27.8552 50.8096 27.8221 50.8052C27.7889 50.8008 27.7573 50.7888 27.7295 50.7702C27.7017 50.7516 27.6786 50.7269 27.6619 50.6979L27.6699 50.696ZM37.1315 60.6925C36.9156 60.6054 36.6838 60.5301 36.7056 60.2408C36.7056 60.227 36.7353 60.2032 36.7492 60.2032C37.0523 60.2111 37.0464 60.4885 37.1236 60.6945L37.1315 60.6925ZM40.4499 64.2248C40.4817 64.1808 40.5228 64.1443 40.5702 64.1178C40.6177 64.0914 40.6703 64.0756 40.7245 64.0716C40.7786 64.0677 40.833 64.0756 40.8838 64.0949C40.9346 64.1142 40.9805 64.1443 41.0184 64.1832C41.0668 64.2598 41.0865 64.3511 41.0741 64.4408C41.0617 64.5306 41.018 64.6131 40.9507 64.6737C40.8834 64.7344 40.7969 64.7693 40.7063 64.7724C40.6158 64.7754 40.527 64.7464 40.4558 64.6904C40.4236 64.6609 40.3977 64.6252 40.3799 64.5854C40.362 64.5456 40.3525 64.5025 40.3519 64.4589C40.3514 64.4152 40.3598 64.372 40.3766 64.3317C40.3935 64.2914 40.4184 64.2551 40.4499 64.2248ZM24.0663 49.4657C24.1475 49.4657 24.2267 49.4657 24.2505 49.4934C24.2642 49.5172 24.2715 49.5442 24.2715 49.5717C24.2715 49.5991 24.2642 49.6261 24.2505 49.6499C24.2263 49.6635 24.199 49.6706 24.1712 49.6706C24.1435 49.6706 24.1162 49.6635 24.092 49.6499C24.0544 49.6242 24.0702 49.5449 24.0663 49.4657ZM22.9152 48.9704C22.9816 48.965 23.0484 48.9697 23.1133 48.9843C23.1391 48.9942 23.1629 49.0794 23.155 49.0853C23.1114 49.117 23.048 49.1606 23.0123 49.1467C22.9767 49.1329 22.9588 49.0497 22.9152 48.9704ZM36.6066 65.1579C36.6377 65.1277 36.675 65.1047 36.7159 65.0903C36.7568 65.076 36.8003 65.0707 36.8435 65.0749C36.8866 65.079 36.9283 65.0925 36.9658 65.1143C37.0032 65.1362 37.0354 65.1659 37.0602 65.2015C37.0932 65.2378 37.1182 65.2807 37.1337 65.3272C37.1492 65.3738 37.1548 65.4231 37.1501 65.472C37.1455 65.5208 37.1307 65.5682 37.1066 65.611C37.0826 65.6538 37.05 65.6911 37.0107 65.7205C36.95 65.7667 36.8739 65.7879 36.798 65.7798C36.7221 65.7717 36.6522 65.7349 36.6026 65.677C36.5654 65.6438 36.5356 65.603 36.5154 65.5574C36.4952 65.5118 36.4849 65.4625 36.4853 65.4126C36.4857 65.3627 36.4967 65.3135 36.5176 65.2682C36.5385 65.2229 36.5688 65.1826 36.6066 65.15V65.1579ZM33.8647 63.5968C33.9476 63.5256 34.0551 63.4899 34.1641 63.4973C34.273 63.5047 34.3747 63.5547 34.4472 63.6364C34.4899 63.6979 34.5072 63.7734 34.4953 63.8473C34.4835 63.9212 34.4435 63.9876 34.3838 64.0327C34.3169 64.1048 34.2244 64.1477 34.1262 64.1521C34.0279 64.1566 33.9319 64.1222 33.8588 64.0564C33.7981 63.9934 33.7647 63.909 33.7658 63.8214C33.7669 63.7339 33.8025 63.6504 33.8647 63.5889V63.5968ZM25.4372 57.5188C25.4251 57.4815 25.4212 57.4421 25.4257 57.4031C25.4301 57.3642 25.4428 57.3266 25.4629 57.293C25.5263 57.2038 25.6749 57.2316 25.768 57.3703C25.758 57.4349 25.7365 57.4973 25.7046 57.5545C25.6867 57.5747 25.6639 57.59 25.6384 57.599C25.6129 57.6081 25.5856 57.6106 25.5589 57.6062C25.5322 57.6019 25.5071 57.5909 25.4858 57.5742C25.4645 57.5575 25.4478 57.5358 25.4372 57.5109V57.5188ZM17.176 66.9766C17.1537 66.994 17.1277 67.0061 17.1 67.0119C17.0723 67.0176 17.0437 67.017 17.0163 67.0099C16.9889 67.0028 16.9635 66.9895 16.942 66.971C16.9206 66.9525 16.9037 66.9293 16.8927 66.9033C16.8915 66.8768 16.8956 66.8504 16.9048 66.8255C16.914 66.8007 16.9281 66.7779 16.9462 66.7586C17.0242 66.7596 17.1003 66.7822 17.1661 66.824C17.1958 66.8359 17.176 66.9231 17.176 66.9686V66.9766ZM16.6055 66.2396C16.5798 66.2662 16.549 66.2873 16.515 66.3018C16.4809 66.3162 16.4443 66.3237 16.4074 66.3237C16.3704 66.3237 16.3338 66.3162 16.2997 66.3018C16.2657 66.2873 16.2349 66.2662 16.2092 66.2396C16.1612 66.199 16.1267 66.1446 16.1106 66.0838C16.0944 66.0229 16.0974 65.9586 16.119 65.8995C16.1406 65.8404 16.1798 65.7894 16.2314 65.7533C16.283 65.7172 16.3444 65.6979 16.4074 65.6979C16.4703 65.6979 16.5317 65.7172 16.5833 65.7533C16.6349 65.7894 16.6741 65.8404 16.6957 65.8995C16.7174 65.9586 16.7203 66.0229 16.7041 66.0838C16.688 66.1446 16.6536 66.199 16.6055 66.2396ZM26.3683 61.1878C26.4526 61.1987 26.5344 61.2242 26.61 61.2631C26.6283 61.2819 26.6419 61.3048 26.6498 61.3299C26.6576 61.355 26.6593 61.3815 26.6549 61.4074C26.6504 61.4333 26.6399 61.4578 26.6242 61.4789C26.6085 61.4999 26.588 61.5169 26.5644 61.5286C26.4857 61.5474 26.4028 61.5375 26.3306 61.5008C26.2415 61.4513 26.2494 61.277 26.3683 61.1799V61.1878ZM22.0654 57.4455C22.103 57.4336 22.1466 57.4039 22.1723 57.4158C22.1981 57.4277 22.202 57.4812 22.2139 57.5188C22.1783 57.5307 22.1307 57.5624 22.1109 57.5485C22.0911 57.5347 22.0792 57.4891 22.0654 57.4455ZM17.3107 53.6161C17.3477 53.5804 17.397 53.5604 17.4484 53.5604C17.4998 53.5604 17.5492 53.5804 17.5861 53.6161C17.6006 53.6375 17.6103 53.6619 17.6146 53.6874C17.6188 53.713 17.6175 53.7392 17.6108 53.7642C17.604 53.7892 17.5919 53.8124 17.5754 53.8323C17.5588 53.8522 17.5381 53.8684 17.5148 53.8796C17.4422 53.9083 17.3615 53.9083 17.2889 53.8796C17.1998 53.836 17.2196 53.6973 17.3147 53.6161H17.3107ZM22.0515 60.3756C22.0884 60.3725 22.1255 60.3725 22.1624 60.3756L22.1287 60.4806C22.097 60.4682 22.0665 60.4529 22.0376 60.435C22.0376 60.435 22.0475 60.3775 22.0554 60.3756H22.0515ZM19.3453 59.7396C19.3683 59.7101 19.3971 59.6857 19.43 59.668C19.4629 59.6502 19.4992 59.6395 19.5364 59.6365C19.5737 59.6336 19.6112 59.6384 19.6465 59.6507C19.6818 59.6629 19.7142 59.6825 19.7415 59.7079C19.7716 59.7308 19.7963 59.76 19.8139 59.7934C19.8315 59.8268 19.8416 59.8637 19.8435 59.9014C19.8454 59.9392 19.839 59.9769 19.8248 60.0119C19.8106 60.0469 19.789 60.0784 19.7613 60.1042C19.7066 60.1544 19.6342 60.1809 19.56 60.1779C19.4857 60.1749 19.4157 60.1427 19.3651 60.0883C19.3179 60.0435 19.2899 59.9822 19.2869 59.9172C19.284 59.8521 19.3063 59.7885 19.3493 59.7396H19.3453ZM16.8749 60.1616C16.8749 60.1616 16.9185 60.1616 16.9224 60.1616C16.9388 60.1912 16.9521 60.2224 16.9621 60.2547H16.8689C16.8683 60.2236 16.8703 60.1924 16.8749 60.1616ZM23.7473 66.5883C23.9613 66.5883 24.1217 66.9132 24.0147 67.135C23.9706 67.2139 23.9188 67.2882 23.8602 67.3569L23.7196 67.4659C23.6579 67.5258 23.5768 67.5615 23.4909 67.5666C23.4051 67.5717 23.3203 67.5458 23.252 67.4936C23.1848 67.4403 23.1357 67.3676 23.1112 67.2854C23.0868 67.2031 23.0882 67.1154 23.1153 67.034C23.1569 66.8997 23.2419 66.783 23.3571 66.7024C23.4722 66.6217 23.6108 66.5815 23.7513 66.5883H23.7473ZM13.3089 56.5877C13.4615 56.9364 13.4318 57.1048 13.196 57.2177C13.1184 57.2517 13.0321 57.2608 12.9491 57.2438C12.8661 57.2267 12.7904 57.1844 12.7324 57.1226L13.3089 56.5877ZM11.8092 60.4112C11.8449 60.3781 11.8868 60.3524 11.9324 60.3356C11.9781 60.3187 12.0267 60.3111 12.0753 60.3131C12.1239 60.3151 12.1717 60.3268 12.2158 60.3474C12.2599 60.3679 12.2995 60.397 12.3323 60.433C12.3764 60.4946 12.3967 60.5701 12.3894 60.6455C12.3821 60.7209 12.3477 60.7911 12.2926 60.8431C12.2135 60.8997 12.1175 60.9277 12.0203 60.9227C11.9232 60.9177 11.8306 60.8798 11.7577 60.8154C11.7107 60.7559 11.6887 60.6803 11.6964 60.6048C11.7042 60.5294 11.7411 60.4599 11.7993 60.4112H11.8092ZM12.8255 63.3571C12.8767 63.2168 12.9562 63.0887 13.0593 62.9807C13.0946 62.9327 13.1401 62.893 13.1924 62.8645C13.2447 62.8359 13.3026 62.8191 13.3621 62.8154C13.4216 62.8116 13.4812 62.8209 13.5367 62.8426C13.5922 62.8643 13.6422 62.8979 13.6834 62.9411C13.7295 62.9785 13.7671 63.0254 13.7935 63.0787C13.8199 63.1319 13.8345 63.1902 13.8364 63.2496C13.8383 63.3089 13.8273 63.368 13.8044 63.4228C13.7814 63.4776 13.7469 63.5268 13.7032 63.5671C13.6754 63.6008 13.6457 63.6305 13.5982 63.682C13.5506 63.7335 13.4833 63.7712 13.4001 63.8167C13.3391 63.8612 13.2655 63.8851 13.1901 63.8851C13.1146 63.8851 13.0411 63.8612 12.9801 63.8167C12.9077 63.7672 12.8529 63.6961 12.8234 63.6136C12.7938 63.531 12.7911 63.4413 12.8156 63.3571H12.8255ZM9.67759 63.7712C9.7223 63.7236 9.78224 63.6932 9.84702 63.6852C9.91179 63.6773 9.97732 63.6923 10.0322 63.7276C10.0704 63.7659 10.0933 63.8168 10.0966 63.8708C10.0999 63.9248 10.0833 63.9781 10.05 64.0208C10.0092 64.0716 9.94998 64.1045 9.88517 64.1123C9.82037 64.12 9.7551 64.1021 9.70334 64.0624C9.66221 64.027 9.63576 63.9775 9.62916 63.9237C9.62257 63.8698 9.6363 63.8154 9.66768 63.7712H9.67759ZM7.2666 62.1982C7.32438 62.2591 7.37613 62.3254 7.42113 62.3963C7.46854 62.4808 7.48686 62.5785 7.47325 62.6745C7.45965 62.7704 7.41488 62.8592 7.34584 62.9272C7.21509 63.0461 7.02887 63.0203 6.83076 62.8559C6.78123 62.8163 6.73765 62.7687 6.6901 62.7232L7.2666 62.1982Z" fill="#23C290"/>
<path d="M44.214 30.9821C43.5701 29.9817 42.6113 29.1021 41.4167 28.8307C40.1977 28.5404 38.9145 28.7081 37.8111 29.3022C36.4243 30.0173 35.1465 30.9445 33.8648 31.83C32.5453 32.7413 31.2616 33.6923 29.9917 34.667L30.2017 34.5045C26.1266 37.5871 22.2773 41.0896 19.5316 45.4144C18.0726 43.7187 16.3436 42.2755 14.4144 41.1431C13.8515 40.8241 13.1924 40.7188 12.5581 40.8465C11.9238 40.9743 11.3569 41.3265 10.9613 41.8385C10.1947 42.829 10.1689 44.4773 11.1713 45.3589C11.9313 46.0244 12.6331 46.7535 13.2693 47.5381C14.0735 48.6331 14.7613 49.809 15.3217 51.0466C15.7599 52.2107 16.0915 53.4122 16.3123 54.6363C16.4444 54.9335 16.5698 55.2307 16.6887 55.5278C16.9153 55.9534 17.2467 56.3141 17.6515 56.5758C18.2909 57.0945 19.0907 57.3746 19.9139 57.3683C20.5719 57.3405 21.2155 57.1666 21.7979 56.8591C22.6795 56.3936 23.1847 55.516 23.5155 54.6264C23.5651 54.4917 23.6185 54.355 23.672 54.2302C24.4728 52.4402 25.4666 50.7429 26.6357 49.1685C28.2711 47.1672 30.1213 45.3516 32.1531 43.7542C33.7066 42.5915 35.3244 41.5174 36.9988 40.5369C38.8254 39.4592 40.7788 38.5558 42.5459 37.3791C43.5622 36.7015 44.3645 35.7942 44.6954 34.5818C45.0064 33.4684 44.8618 31.9766 44.214 30.9821Z" fill="white"/>
</g>
<defs>
<clipPath id="clip0">
<rect width="290" height="173.005" fill="white"/>
</clipPath>
</defs>
</svg>
