<svg width="400" height="372" viewBox="0 0 400 372" fill="none" xmlns="http://www.w3.org/2000/svg">
<g clip-path="url(#clip0)">
<path d="M139.787 363.03C140.128 362.487 140.335 361.87 140.39 361.231C140.478 360.459 140.325 359.679 139.951 358.998C139.577 358.318 139.001 357.77 138.302 357.43C136.533 356.604 134.92 357.43 133.805 358.746C133.455 359.092 133.177 359.503 132.986 359.957C132.891 360.131 132.805 360.307 132.726 360.484C132.687 360.57 132.666 360.664 132.663 360.759C132.661 360.854 132.677 360.949 132.712 361.038C132.712 361.101 132.712 361.167 132.712 361.231C132.678 361.846 132.793 362.46 133.047 363.021C133.301 363.582 133.686 364.073 134.17 364.454L134.209 364.481C135.114 364.679 136.018 364.866 136.925 365.052C138.105 364.774 139.131 364.049 139.787 363.03ZM134.094 361.243C134.138 360.833 134.28 360.438 134.508 360.094V360.079C134.618 359.915 134.747 359.764 134.893 359.631C134.981 359.551 135.046 359.45 135.082 359.337C135.314 359.07 135.602 358.859 135.926 358.716C136.25 358.574 136.601 358.505 136.954 358.513C138.405 358.575 139.145 359.962 138.966 361.243C138.938 361.469 138.879 361.69 138.792 361.9C138.28 363.126 136.645 364.263 135.31 363.574C134.892 363.358 134.551 363.018 134.333 362.601C134.116 362.184 134.032 361.71 134.094 361.243Z" fill="#C8BD8A"/>
<path d="M360.619 270.457L359.472 267.114C359.317 266.666 359.16 266.215 359.006 265.764C358.643 264.705 358.279 263.643 357.913 262.578L357.45 261.232L354.163 251.674L353.458 251.733C353.424 251.837 353.364 251.931 353.283 252.004C353.202 252.077 353.104 252.127 352.997 252.15C352.222 252.351 351.448 252.542 350.671 252.733C350.199 252.849 349.725 252.962 349.25 253.071C347.993 253.369 346.733 253.651 345.47 253.917C345 254.015 344.532 254.118 344.061 254.213C338.279 255.403 332.451 256.314 326.577 256.946L325.161 257.093C323.323 257.278 321.482 257.434 319.639 257.561C309.5 258.264 299.319 258.119 289.203 257.127C280.189 256.245 270.771 255.03 263.394 249.319C259.936 246.645 257.059 243.332 254.326 239.943C251.14 235.999 248.035 232.002 244.901 228.027C239.574 221.278 234.264 214.518 228.971 207.749L228.657 208.159L228.385 208.524C228.184 208.788 227.988 209.056 227.789 209.323C227.696 209.45 227.601 209.568 227.505 209.703C218.11 222.303 209.181 235.23 200.718 248.484C204.617 257.105 207.022 266.303 208.781 275.594C210.159 282.873 211.178 290.213 212.318 297.531L212.538 298.918C212.8 300.581 213.072 302.244 213.354 303.905C213.756 306.245 214.201 308.567 214.688 310.873C214.784 311.329 214.88 311.784 214.977 312.238C215.222 313.407 215.494 314.571 215.773 315.733C215.884 316.184 215.994 316.637 216.107 317.088C217.16 321.306 218.386 325.477 219.827 329.611C231.265 329.482 242.651 331.548 254.103 330.989C256.888 330.87 259.661 330.548 262.399 330.026C264.899 329.535 267.301 328.484 269.791 328.065C271.315 327.805 272.937 328.138 273.751 329.347C274.001 329.715 274.169 330.133 274.241 330.572C274.267 330.734 274.282 330.898 274.285 331.062C274.356 332.974 273.109 335.131 272.195 336.679C267.497 344.654 258.593 349.134 249.753 350.764C244.273 351.776 238.688 351.906 233.134 351.833C227.277 351.757 221.422 351.587 215.567 351.45L183.352 350.715C178.901 351.695 174.399 352.185 169.873 351.671C169.768 351.657 169.667 351.622 169.577 351.567C169.486 351.512 169.408 351.439 169.348 351.352C169.287 351.265 169.245 351.167 169.224 351.063C169.204 350.959 169.205 350.853 169.228 350.749C169.227 350.731 169.227 350.713 169.228 350.695C169.121 350.679 169.018 350.638 168.929 350.575C167.371 350.51 165.81 350.446 164.248 350.384C151.578 349.879 138.893 349.46 126.237 348.72C115.944 348.12 102.633 345.345 98.8764 334.14C97.9819 331.469 98.1412 328.332 99.4401 325.881C99.7212 325.344 100.061 324.839 100.452 324.377C101.443 323.209 102.775 322.381 104.261 322.012C106.942 321.325 109.652 322.181 112.123 323.212C114.855 324.357 117.485 325.568 120.372 326.286C126.195 327.737 132.256 327.756 138.216 327.621C144.556 327.467 150.889 327.261 157.232 327.283C169.108 327.322 180.967 327.877 192.81 328.947C194.286 327.858 195.605 326.571 196.731 325.122C196.097 324.089 195.464 323.057 194.831 322.026L194.062 320.767C193.483 319.819 192.908 318.87 192.334 317.919L191.582 316.671C189.496 313.201 187.447 309.711 185.474 306.177C185.242 305.758 185.009 305.341 184.778 304.92C183.117 301.909 181.524 298.859 179.999 295.771C175.674 286.948 172.02 277.76 169.853 268.168C167.601 258.201 167.197 248.011 168.282 237.862C168.446 236.32 168.645 234.786 168.863 233.254C165.594 230.25 165.596 224.905 165.785 220.783C166.008 215.974 167.087 211.243 168.971 206.813C168.154 206.231 167.389 205.579 166.684 204.865C166.302 204.476 165.939 204.067 165.596 203.639C165.229 203.193 164.884 202.733 164.562 202.26C163.093 200.034 161.985 197.591 161.278 195.02C161.137 194.53 161.008 194.045 160.888 193.567C160.82 193.292 160.753 193.018 160.692 192.743C159.682 188.241 159.273 183.612 158.624 179.051C158.16 175.783 157.659 172.523 157.121 169.27H154.489C138.282 169.923 122.064 170.133 105.837 169.9C96.5727 169.762 87.3129 169.48 78.0571 169.052C75.1824 168.919 69.6387 168.601 70.3936 164.211C70.6582 162.66 71.9032 161.761 73.2291 161.109C75.2795 160.121 77.3793 159.239 79.5202 158.467C84.0569 156.785 88.7435 155.539 93.5166 154.747C96.6781 154.222 100.195 153.783 103.173 155.08C103.878 151.918 104.851 148.752 106.886 146.198C109.53 142.877 113.598 141.679 117.725 141.88C124.548 142.211 132.842 144.62 136.93 150.433C139.199 144.649 145.1 140.814 151.448 140.63C151.235 139.716 151.021 138.799 150.803 137.888C150.683 137.383 150.558 136.88 150.438 136.376C150.347 136.001 150.259 135.626 150.166 135.248C148.115 126.901 145.544 118.681 143.458 110.343C143.318 109.79 143.181 109.234 143.047 108.677C142.924 108.167 142.802 107.655 142.684 107.143C142.684 107.137 142.684 107.131 142.684 107.126C142.418 105.974 142.173 104.816 141.949 103.653C141.12 99.4081 140.601 95.0948 140.662 90.801C140.662 90.6466 140.662 90.4898 140.662 90.3354C140.662 89.9555 140.689 89.5756 140.709 89.1982C140.723 88.9531 140.736 88.7081 140.753 88.463C140.882 86.4006 141.175 84.3518 141.63 82.3361L140.593 81.1254L139.5 79.8951L138.03 78.1796L137.385 77.4272C137.258 77.5571 137.14 77.6894 137.005 77.8218C136.515 78.3315 136.025 78.8511 135.535 79.3657C134.937 79.998 134.334 80.623 133.712 81.2308C132.932 81.9905 132.04 82.7012 130.945 82.9193C128.423 83.4095 126.602 81.1499 125.114 79.4883L119.948 73.7045L115.703 75.4764C115.338 75.6283 114.953 75.3122 114.846 74.9862C114.274 73.3082 113.837 71.5872 113.539 69.8396C113.512 69.6783 113.539 69.5124 113.616 69.3681C113.693 69.2238 113.816 69.1095 113.966 69.0431C113.338 66.5923 112.784 64.1195 112.302 61.6246C110.993 62.7324 109.52 63.8769 107.991 64.4577C106.729 64.9479 104.915 64.6317 104.682 63.0559C104.525 61.9922 105.31 61.0756 105.878 60.2693C105.993 60.1076 106.123 59.9532 106.229 59.7939C104.124 60.8012 101.88 61.4893 99.5724 61.8354C97.825 62.0633 95.3497 61.1001 96.4967 58.9141C97.1143 57.7352 98.4843 56.9069 99.5283 56.1324C100.802 55.1905 102.131 54.3262 103.508 53.5444L103.795 53.3851C103.104 52.3558 103.06 50.9172 103.278 49.5987C103.317 49.3708 103.364 49.1453 103.418 48.9272C103.516 48.5277 103.601 48.1356 103.677 47.7459C103.95 46.4139 104.039 45.0509 103.942 43.6948C103.815 42.0037 103.584 40.3323 103.665 38.6315C103.772 36.733 104.107 34.8543 104.665 33.0364C95.2778 36.9475 86.201 41.5657 77.513 46.8514C58.6421 58.4092 42.1117 73.4618 29.5809 91.6049C17.2633 109.437 8.84737 129.815 4.25952 150.889C-4.99473 193.774 0.90244 238.541 20.9468 277.567C30.7769 296.705 43.9841 314.297 60.2645 328.572C77.8488 344.012 98.7122 354.832 121.289 361.261C123.879 361.996 126.487 362.672 129.104 363.307C128.985 362.622 128.949 361.925 128.999 361.231C129.154 359.034 130.163 356.986 131.81 355.523C131.815 355.517 131.822 355.512 131.829 355.509C131.845 355.487 131.864 355.468 131.883 355.45C132.252 355.151 132.655 354.897 133.084 354.695C133.148 354.625 133.224 354.568 133.31 354.528C136.623 352.972 140.782 353.744 143.213 356.54C144.357 357.841 145.013 359.5 145.069 361.231C145.115 363.042 144.582 364.821 143.549 366.309C161.057 369.368 178.948 370.515 196.662 370.605C206.166 370.654 215.717 370.331 225.218 369.505C224.352 368.679 223.697 367.656 223.309 366.522C222.743 364.804 222.743 362.95 223.309 361.231C223.759 359.798 224.591 358.514 225.716 357.518L225.736 357.504C225.752 357.483 225.77 357.464 225.79 357.447C226.157 357.147 226.561 356.894 226.99 356.692C227.052 356.621 227.129 356.564 227.216 356.526C230.529 354.967 234.688 355.739 237.119 358.535C237.808 359.319 238.325 360.237 238.639 361.231C239.374 363.569 238.884 366.113 237.592 368.12C249.182 366.542 260.63 364.135 271.795 360.638C293.1 353.962 312.723 343.238 329.276 328.369C343.814 315.294 355.808 299.45 364.628 282.106C364.426 281.516 364.223 280.925 364.02 280.334L360.619 270.457ZM46.9617 223.714C46.6053 223.784 46.2353 223.728 45.9165 223.553C45.5976 223.379 45.3499 223.098 45.2168 222.76C44.2732 220.388 45.8589 217.947 48.0009 216.932C50.584 215.707 53.7724 215.531 56.5565 215.013L74.4667 211.695C72.9375 205.102 77.6405 198.059 84.76 197.726C94.0925 197.302 99.4915 205.813 104.721 212.271C109.425 207.369 117.015 204.725 123.492 207.543C126.472 208.84 128.673 211.533 128.808 214.854C128.945 218.214 126.636 220.635 123.565 221.591C120.027 222.692 115.968 222.714 112.292 223.062C107.895 223.48 103.492 223.824 99.0823 224.094C81.7202 225.145 64.3067 225.018 46.9617 223.714Z" fill="#76E6C3"/>
<path d="M399.172 139.748C397.128 119.026 391.454 98.5454 381.433 80.1597C371.321 61.6098 356.773 45.7534 338.79 34.3524C320.806 22.9514 300.264 16.2534 279.312 12.7439C280.716 16.5258 281.137 20.6019 280.537 24.591C280.327 25.9646 280.016 27.321 279.609 28.6494C276.827 37.7467 269.805 44.9691 262.608 50.9711C262.527 51.0396 262.432 51.0888 262.33 51.1152C262.227 51.1415 262.12 51.1442 262.017 51.123C261.891 51.2434 261.746 51.342 261.588 51.4146C261.521 51.4433 261.451 51.4654 261.38 51.4808C260.544 51.6573 260.015 50.8608 259.52 50.3265C258.912 49.6648 258.303 49.0047 257.694 48.3463C251.523 41.9081 246.695 33.9799 244.239 25.4144C243.001 21.0913 242.548 16.3686 244.143 12.0749C244.337 11.548 244.558 11.0333 244.8 10.5284C244.967 10.1829 245.146 9.84468 245.335 9.50893C232.757 9.11926 220.146 9.53344 207.607 10.4892C184.815 12.2293 162.023 15.5035 139.902 21.2481C139.427 21.3707 138.954 21.4932 138.481 21.628C139.076 21.8559 139.672 22.0838 140.263 22.3216C142.792 23.3435 145.358 24.7184 147.245 26.6398C147.59 26.9911 147.912 27.3636 148.211 27.7549C149.331 29.2043 150.002 30.95 150.142 32.7765C150.153 32.9042 150.126 33.0323 150.063 33.1442C150.702 33.3798 151.286 33.7434 151.779 34.2127C152.735 35.1097 153.384 36.2762 153.96 37.4649C169.74 28.3643 185.879 19.9321 202.377 12.168C202.48 12.1174 202.593 12.0927 202.707 12.0961C202.821 12.0995 202.933 12.1309 203.032 12.1876C202.995 11.6362 203.716 11.124 204.218 11.6264C204.564 11.972 204.907 12.32 205.25 12.6655C205.593 13.0111 205.931 13.3493 206.269 13.6948C206.944 14.3811 207.616 15.0697 208.284 15.7608L209.264 16.7681C205.219 21.7101 201.543 26.9436 198.267 32.4261C194.809 38.2295 191.592 44.4103 189.065 50.8265C188.527 52.1891 188.024 53.5607 187.555 54.9413C187.538 54.9928 187.518 55.0442 187.501 55.0982C186.415 58.287 185.54 61.5437 184.881 64.8473C184.82 65.1635 184.759 65.4772 184.7 65.7933C184.499 66.906 184.337 68.0333 184.21 69.168C183.195 78.5692 184.999 88.5022 191.378 95.6731L193.368 94.1291C190.403 90.2348 188.744 85.4926 188.187 80.6058C187.239 72.0967 189.594 63.4749 192.876 55.4143C194.118 52.3582 195.493 49.3854 196.868 46.5327C201.286 37.3844 206.743 28.7753 213.131 20.8756C213.45 21.2163 213.764 21.5618 214.082 21.9049C216.587 24.6236 219.053 27.3767 221.481 30.164C238.791 50.0594 254.128 71.5379 269.193 93.1488C269.46 93.5287 269.725 93.911 269.989 94.2909L261.453 101.268C263.556 103.918 265.637 106.585 267.695 109.268L268.551 110.385C269.531 111.663 270.5 112.944 271.457 114.228L272.477 115.588C272.651 115.821 272.827 116.054 272.999 116.287C273.03 116.327 273.055 116.372 273.075 116.419C272.738 116.692 272.411 116.971 272.094 117.257L272.048 117.237C266.029 121.533 260.101 125.952 254.265 130.494C255.736 132.4 256.961 134.486 257.076 136.956C257.076 137.035 257.076 137.108 257.076 137.184C257.085 137.64 257.049 138.096 256.968 138.544C256.861 139.141 256.69 139.723 256.456 140.282C256.38 140.542 256.297 140.802 256.211 141.059C258.5 143.669 260.299 146.634 261.816 149.754C262.017 150.166 262.211 150.58 262.402 150.997C262.706 151.659 263 152.328 263.282 152.999C265.379 157.986 267.134 163.126 269.002 168.194L272.901 178.796L274.04 181.896L275.155 184.928C279.185 195.886 283.214 206.844 287.245 217.802L305.768 221.839L329.381 226.985L330.737 227.282L346.617 230.742L347.975 231.036L351.789 231.867L353.149 232.164L367.608 235.318L369.022 235.624L369.944 235.825L377.456 237.462C377.558 237.444 377.663 237.446 377.764 237.469C377.865 237.492 377.961 237.535 378.045 237.597C378.129 237.658 378.199 237.736 378.252 237.825C378.305 237.914 378.339 238.014 378.353 238.117C378.637 240.587 378.83 243.062 378.933 245.543C385.06 232.201 390.155 218.408 393.822 204.208C399.25 183.185 401.304 161.388 399.172 139.748ZM303.023 155.793L272.879 151.94C271.982 151.825 272.102 150.423 272.999 150.538L303.143 154.394C304.043 154.506 303.923 155.908 303.023 155.793ZM328.536 152.212L270.825 145.135C269.928 145.024 270.048 143.622 270.948 143.733L328.648 150.811C329.555 150.921 329.435 152.323 328.536 152.212Z" fill="#76E6C3"/>
<path d="M228.066 366.449C229.909 367.919 232.536 366.846 233.703 365.025C234.056 364.464 234.266 363.824 234.315 363.163C234.363 362.501 234.248 361.838 233.98 361.231C233.632 360.435 233.006 359.792 232.218 359.425C230.448 358.599 228.836 359.425 227.721 360.743C227.57 360.895 227.432 361.059 227.309 361.234C227.147 361.458 227.011 361.7 226.902 361.954C226.812 362.126 226.73 362.303 226.657 362.484C226.617 362.569 226.595 362.663 226.592 362.757C226.589 362.852 226.605 362.947 226.64 363.035C226.57 363.678 226.665 364.328 226.914 364.925C227.164 365.522 227.56 366.046 228.066 366.449ZM228.412 362.077V362.064C228.521 361.9 228.65 361.749 228.797 361.616C228.884 361.536 228.949 361.434 228.985 361.322L229.076 361.231C229.305 360.99 229.581 360.8 229.888 360.674C230.195 360.547 230.526 360.486 230.858 360.496C231.144 360.503 231.426 360.573 231.683 360.7C231.941 360.827 232.167 361.008 232.348 361.231C232.635 361.603 232.818 362.044 232.879 362.51C232.94 362.976 232.877 363.45 232.696 363.883C232.183 365.108 230.549 366.248 229.213 365.557C227.877 364.866 227.659 363.204 228.412 362.077Z" fill="#C8BD8A"/>
<path d="M273.239 38.2172C278.687 30.6958 281.768 20.3903 277.462 11.6533C277.761 12.4545 278.012 13.2729 278.214 14.1041C278.507 15.3249 278.702 16.5674 278.795 17.8195C278.827 18.2361 278.849 18.6527 278.858 19.0718C278.924 21.8522 278.566 24.6263 277.797 27.299C277.79 27.3207 277.783 27.3428 277.778 27.3652C276.126 33.0804 272.994 38.0579 269.35 42.6727C268.977 43.1457 268.592 43.6138 268.21 44.0795C269.603 42.6762 270.917 41.1969 272.146 39.6485C272.526 39.1853 272.886 38.7049 273.239 38.2172Z" fill="#C8BD8A"/>
<path d="M266.399 13.6703C263.191 11.0676 258.397 11.6655 255.709 14.7192C255.616 14.825 255.545 14.9472 255.498 15.0795C255.381 15.1606 255.281 15.2639 255.204 15.3834C252.998 18.8144 253.719 23.5714 257.096 25.9609C258.725 27.1959 260.779 27.7328 262.805 27.4536C264.831 27.1744 266.662 26.1019 267.897 24.472C269.132 22.8422 269.669 20.7885 269.39 18.7628C269.111 16.7371 268.038 14.9053 266.409 13.6703H266.399Z" fill="#FFF6F0"/>
<path d="M328.648 150.811L270.938 143.733C270.038 143.622 269.918 145.024 270.815 145.135L328.526 152.212C329.435 152.323 329.555 150.921 328.648 150.811Z" fill="#1D1B20"/>
<path d="M303.146 154.398L273.001 150.543C272.104 150.428 271.984 151.83 272.881 151.945L303.026 155.798C303.923 155.908 304.043 154.506 303.146 154.398Z" fill="#1D1B20"/>
<path d="M185.504 100.236L183.487 101.8L162.687 117.911L185.886 117.13L204.203 116.512C204.448 111.074 205.034 105.699 206.409 100.472C206.314 100.366 206.252 100.235 206.23 100.094C206.208 99.9535 206.228 99.8098 206.286 99.6801C207.404 97.1435 204.965 95.0971 202.794 94.3962C202.686 94.3619 202.581 94.3301 202.478 94.3031C202.058 94.1928 201.632 94.1044 201.203 94.0384L200.652 93.9575C200 93.8742 199.343 93.8227 198.691 93.7909C197.86 93.7468 197.03 93.7296 196.209 93.6953L195.792 93.6781C195.437 93.661 195.076 93.6365 194.721 93.6169L194.101 93.5703L193.366 94.1291L191.376 95.6731L190.27 96.5284L185.504 100.236Z" fill="#FFF6F0"/>
<path d="M194.361 55.5246C203.757 56.2332 213.101 57.5066 222.344 59.338C223.324 59.5316 224.304 59.7301 225.285 59.9408C226.265 60.1516 227.319 60.3893 228.329 60.6442C229.4 60.9138 230.461 61.2103 231.502 61.5485C231.948 61.6956 232.392 61.8475 232.831 62.0093C237.487 63.7248 241.599 66.3839 244.033 71.1899C245.673 74.4249 246.462 77.9908 246.974 81.5664C247.043 82.0443 247.104 82.5222 247.163 82.9977C247.164 83.0214 247.164 83.0451 247.163 83.0688C247.204 83.4094 247.241 83.7525 247.28 84.0932C251.809 89.3803 256.243 94.7467 260.581 100.192L269.18 93.1586C254.116 71.5379 238.779 50.0593 221.469 30.1738C219.051 27.3767 216.589 24.6204 214.082 21.9049C211.146 25.5417 208.409 29.3345 205.882 33.2667C201.399 40.2489 197.417 47.7336 194.361 55.5246ZM217.344 38.7049C217.407 38.5039 217.534 38.329 217.706 38.2068C217.878 38.0847 218.084 38.0221 218.295 38.0285C218.408 37.9928 218.527 37.983 218.645 38C218.762 38.0169 218.873 38.0602 218.971 38.1266C219.522 38.5051 219.911 39.0755 220.063 39.726C220.215 40.3765 220.118 41.0603 219.793 41.6434C219.667 41.8531 219.464 42.0052 219.228 42.067C218.991 42.1289 218.74 42.0956 218.528 41.9743C217.99 41.6439 217.579 41.1406 217.364 40.5466C217.149 39.9527 217.142 39.3034 217.344 38.7049ZM213.523 44.376C213.586 44.1745 213.713 43.999 213.885 43.8764C214.056 43.7538 214.263 43.6909 214.474 43.6971C214.587 43.6619 214.707 43.6526 214.824 43.67C214.941 43.6874 215.053 43.7311 215.151 43.7976C215.698 44.1784 216.086 44.7487 216.237 45.3983C216.389 46.0478 216.294 46.7306 215.972 47.3145C215.846 47.5237 215.643 47.6753 215.407 47.7372C215.171 47.799 214.919 47.766 214.707 47.6453C214.169 47.315 213.758 46.8116 213.543 46.2177C213.328 45.6238 213.321 44.9745 213.523 44.376ZM210.583 36.9232C210.645 36.7217 210.772 36.5462 210.944 36.4237C211.115 36.3011 211.323 36.2381 211.533 36.2444C211.646 36.2086 211.766 36.1988 211.883 36.2158C212 36.2328 212.112 36.2761 212.21 36.3424C212.758 36.7232 213.146 37.294 213.297 37.9441C213.449 38.5942 213.354 39.2775 213.031 39.8617C212.968 39.9679 212.886 40.0607 212.787 40.1348C212.689 40.209 212.577 40.263 212.457 40.2937C212.338 40.3244 212.214 40.3313 212.092 40.314C211.97 40.2966 211.853 40.2553 211.747 40.1925C211.21 39.8607 210.802 39.3568 210.589 38.763C210.375 38.1692 210.37 37.5206 210.573 36.9232H210.583Z" fill="#F9AF42"/>
<path d="M155.996 41.8811C156.104 42.1262 156.212 42.3909 156.315 42.6482L156.33 42.6874C156.425 42.9227 156.518 43.1604 156.609 43.4006L156.648 43.4986C156.729 43.7192 156.81 43.9422 156.893 44.1652C156.911 44.2143 156.93 44.2633 156.947 44.3147C157.04 44.5843 157.129 44.8564 157.214 45.1284C158.183 48.2384 158.577 52.2895 155.908 54.6251C156.562 56.076 157.215 57.5268 157.869 58.9777L158.298 59.9237C159.996 58.9702 161.774 58.165 163.611 57.517C165.749 56.7705 167.945 56.2008 170.177 55.8137C170.76 55.7075 171.345 55.6144 171.931 55.5344C176.61 54.8727 181.404 54.8457 186.146 55.0442C187.126 52.1817 188.253 49.3731 189.437 46.6405C194.267 35.5274 200.611 25.1357 208.289 15.7608C207.619 15.0697 206.947 14.381 206.274 13.6948L156.001 41.8787L155.996 41.8811Z" fill="#F9AF42"/>
<path d="M154.656 38.9426C154.918 39.4916 155.178 40.043 155.43 40.5994L205.25 12.6606C204.907 12.315 204.563 11.967 204.218 11.6214C203.728 11.1313 202.993 11.6214 203.032 12.1827C202.933 12.126 202.821 12.0946 202.707 12.0911C202.593 12.0877 202.48 12.1124 202.377 12.1631C185.892 19.9206 169.752 28.3561 153.958 37.4697C154.163 37.8937 154.362 38.3177 154.558 38.7343L154.656 38.9426Z" fill="#3CDCAA"/>
<path d="M103.798 53.3777C104.198 53.1571 104.601 52.9431 105.006 52.7356L105.229 52.6228C108.559 50.547 112.446 49.0496 116.321 48.7849C116.863 48.7437 117.408 48.7783 117.941 48.8879C118.519 48.9957 119.052 49.2759 119.468 49.6917L131.641 43.7805L132.908 43.1653L134.623 42.3296L143.098 38.2123C145.304 37.1389 147.487 36.0385 149.379 34.4651C149.514 34.3523 149.649 34.247 149.781 34.1293C149.899 34.0355 149.977 33.9006 149.998 33.7518C150.02 33.603 149.985 33.4515 149.899 33.3279C149.964 33.2805 150.019 33.2195 150.058 33.149C150.121 33.0372 150.148 32.909 150.137 32.7814C149.997 30.9548 149.326 29.2091 148.206 27.7598C132.648 33.7727 117.62 41.0752 103.278 49.5912C103.057 50.9097 103.106 52.3483 103.798 53.3777Z" fill="#C3D0E3"/>
<path d="M103.945 43.6873C104.041 45.0434 103.952 46.4064 103.68 47.7384C117.613 39.5524 132.18 32.4985 147.242 26.6447C145.355 24.7233 142.789 23.3484 140.26 22.3264C139.67 22.0813 139.074 21.8608 138.478 21.6328C133.073 19.5982 127.502 18.0345 121.828 16.9592C119.299 16.4691 116.495 15.8907 114.057 17.0425C111.812 18.1013 110.498 20.3462 109.38 22.4538C107.591 25.8237 105.766 29.3332 104.668 33.0289C104.11 34.8468 103.774 36.7255 103.668 38.624C103.587 40.3249 103.817 41.9963 103.945 43.6873ZM125.063 22.0568C127.4 23.2043 129.617 24.5828 131.68 26.1717C132.383 26.7108 131.68 27.9215 130.977 27.375C128.913 25.7869 126.696 24.4085 124.36 23.2601C123.553 22.8729 124.254 21.672 125.063 22.0568ZM119.446 23.0543C121.028 25.0607 122.178 27.3729 122.823 29.8454C123.051 30.7178 121.705 31.0855 121.48 30.2179C120.909 27.9729 119.881 25.8697 118.461 24.0395C117.914 23.3508 118.894 22.3583 119.446 23.0641V23.0543ZM114.424 22.7945C114.765 21.9784 116.113 22.3387 115.767 23.1646C113.912 27.5759 112.958 32.314 112.963 37.0996C112.963 37.9991 111.569 37.9966 111.569 37.0996C111.558 32.1918 112.529 27.3313 114.424 22.8043V22.7945Z" fill="#C3D0E3"/>
<path d="M138.802 361.888C138.889 361.678 138.947 361.457 138.976 361.231C139.155 359.949 138.415 358.562 136.964 358.501C136.61 358.492 136.259 358.562 135.936 358.704C135.612 358.846 135.324 359.058 135.091 359.325C135.056 359.438 134.991 359.539 134.903 359.619C134.757 359.752 134.628 359.903 134.518 360.067V360.082C134.29 360.426 134.148 360.82 134.104 361.231C134.043 361.699 134.128 362.173 134.347 362.591C134.567 363.008 134.909 363.347 135.329 363.562C136.655 364.25 138.29 363.108 138.802 361.888Z" fill="#1D1B20"/>
<path d="M229.226 365.557C230.561 366.248 232.196 365.106 232.708 363.883C232.89 363.449 232.953 362.976 232.892 362.51C232.831 362.044 232.647 361.603 232.36 361.231C232.18 361.008 231.953 360.827 231.696 360.7C231.439 360.573 231.157 360.503 230.87 360.496C230.538 360.486 230.208 360.547 229.901 360.674C229.594 360.8 229.317 360.99 229.088 361.231L228.998 361.322C228.961 361.434 228.896 361.536 228.809 361.616C228.663 361.749 228.533 361.899 228.424 362.064V362.077C227.66 363.204 227.878 364.861 229.226 365.557Z" fill="#1D1B20"/>
<path d="M145.223 86.5685L145.444 86.8136C145.52 86.8879 145.611 86.944 145.712 86.9777C145.813 87.0114 145.92 87.0218 146.026 87.0082C146.131 86.9945 146.232 86.9571 146.321 86.8988C146.41 86.8404 146.485 86.7627 146.539 86.6714L146.598 86.5636L147.404 85.1054L148.22 83.6227L155.646 70.1434L157.889 66.0752C158.379 65.2051 159.582 63.7567 159.555 62.7568C159.555 62.2667 159.097 61.6613 158.901 61.2325L158.876 61.1785L158.3 59.9017L157.871 58.9557C157.218 57.5048 156.564 56.054 155.911 54.6031C155.743 54.7607 155.565 54.908 155.379 55.0443C155.177 55.1802 154.964 55.299 154.742 55.3996C152.948 56.228 150.678 55.7893 149.524 54.2625C149.034 56.0442 148.926 58.3013 146.779 58.5832C146.333 58.6282 145.882 58.5458 145.481 58.3454C145.079 58.145 144.742 57.8348 144.51 57.4509C144.884 56.7953 145.198 56.1071 145.448 55.3947C146.51 52.3729 146.475 48.7948 144.078 46.6234C142.625 45.3073 140.554 45.3564 139.02 46.5131C138.159 47.1671 137.553 48.1003 137.305 49.1526C137.177 49.6543 137.108 50.1691 137.099 50.6868C134.533 49.0884 132.603 46.6466 131.641 43.7805L119.468 49.6918C119.663 49.9 119.816 50.1438 119.919 50.4099C120.671 52.3288 118.725 54.5762 117.671 55.9903C116.438 57.6488 115.043 59.18 113.505 60.5609C113.38 60.6737 113.26 60.7864 113.13 60.8967C112.861 61.132 112.582 61.3721 112.294 61.6172C112.775 64.1072 113.329 66.58 113.959 69.0357C114.321 68.8641 114.789 68.9597 114.875 69.4597C115.131 70.9527 115.488 72.4266 115.944 73.8711L120.355 72.0305C120.422 71.9945 120.496 71.9728 120.571 71.9668C120.647 71.9608 120.723 71.9707 120.795 71.9959C120.867 72.021 120.932 72.0608 120.988 72.1128C121.043 72.1648 121.087 72.2277 121.117 72.2977C121.211 72.4998 121.22 72.7306 121.144 72.9398C121.109 73.0349 121.054 73.1216 120.984 73.1946C120.913 73.2675 120.829 73.3251 120.735 73.3638L119.951 73.6897L125.117 79.4735C126.604 81.1376 128.425 83.3948 130.947 82.9046C132.043 82.6963 132.935 81.9758 133.714 81.216C134.337 80.6082 134.94 79.9906 135.538 79.351C135.515 79.2449 135.517 79.1348 135.546 79.03C135.574 78.9252 135.626 78.8285 135.699 78.7481L143.181 70.0528C143.534 69.6435 143.99 69.8199 144.208 70.1729C144.279 70.2803 144.323 70.4036 144.335 70.5319C144.347 70.6601 144.327 70.7894 144.277 70.9081C143.035 73.7292 141.959 76.6203 141.054 79.5667C140.892 80.0936 140.733 80.6229 140.581 81.1523L141.618 82.363L142.762 83.6987L145.223 86.5685ZM123.825 62.551C123.318 63.4602 122.267 63.4332 121.497 62.8965C120.874 62.4449 120.387 61.8312 120.088 61.1222C119.851 60.8213 119.683 60.4713 119.598 60.0977C119.434 59.2375 119.936 58.3234 120.862 58.245C121.884 58.1567 122.695 59.0047 123.242 59.762C123.789 60.5193 124.345 61.627 123.825 62.5583V62.551ZM132.342 70.0013C131.088 72.5952 128.945 74.6534 126.303 75.8023C125.487 76.1576 124.779 74.9568 125.6 74.5989C128.027 73.5616 129.996 71.6778 131.138 69.2979C131.521 68.4916 132.722 69.1999 132.342 70.0013ZM135.738 64.1513C135.14 64.3082 134.51 64.2925 133.92 64.106C133.33 63.9195 132.805 63.5699 132.405 63.0975C131.935 62.6866 131.598 62.1442 131.438 61.5402C131.278 60.9361 131.303 60.298 131.508 59.7081C132.361 57.321 135.474 56.7671 137.194 58.5905C138.849 60.3575 138.116 63.4749 135.729 64.1513H135.738ZM142.432 53.7993C142.02 54.5982 140.816 53.8924 141.228 53.0959C141.444 52.6842 141.718 52.2185 141.677 51.7357C141.655 51.471 141.478 51.0667 141.16 51.2652C140.393 51.7382 139.689 50.5299 140.456 50.0594C140.652 49.945 140.869 49.8712 141.094 49.8423C141.32 49.8135 141.548 49.8302 141.767 49.8915C141.985 49.9527 142.189 50.0573 142.367 50.199C142.544 50.3407 142.691 50.5166 142.799 50.7162C143.37 51.7308 142.912 52.8582 142.422 53.7993H142.432Z" fill="#DCBEC3"/>
<path d="M113.515 60.561C115.053 59.18 116.448 57.6488 117.681 55.9903C118.735 54.5713 120.681 52.3288 119.929 50.4099C119.826 50.1438 119.673 49.9 119.478 49.6918C119.061 49.276 118.529 48.9958 117.951 48.8879C117.418 48.7784 116.873 48.7438 116.331 48.785C112.456 49.0497 108.569 50.5471 105.239 52.6229L105.016 52.7357C104.609 52.9432 104.206 53.1572 103.807 53.3778L103.521 53.5371C102.14 54.3178 100.808 55.1812 99.5309 56.1226C98.4868 56.8971 97.1169 57.7254 96.4993 58.9043C95.3523 61.0977 97.8276 62.0535 99.575 61.8256C101.882 61.4841 104.125 60.8011 106.231 59.7988C106.116 59.9581 105.986 60.1125 105.881 60.2742C105.312 61.0805 104.528 61.9898 104.685 63.0608C104.93 64.6366 106.731 64.943 107.993 64.4626C109.523 63.8818 110.996 62.7471 112.304 61.6295C112.59 61.3844 112.869 61.1443 113.14 60.909C113.267 60.7791 113.39 60.6737 113.515 60.561Z" fill="#1D1B20"/>
<path d="M149.784 34.1294C149.652 34.247 149.517 34.3524 149.382 34.4651C147.49 36.0385 145.314 37.1389 143.101 38.2123L134.626 42.3296L132.911 43.1654L131.644 43.7805C132.606 46.6466 134.535 49.0884 137.101 50.6868C137.11 50.1691 137.179 49.6542 137.307 49.1526C137.555 48.1003 138.162 47.1671 139.023 46.5131C140.557 45.3563 142.628 45.3073 144.081 46.6234C146.478 48.7948 146.512 52.3729 145.451 55.3947C145.201 56.1071 144.887 56.7953 144.513 57.4509C144.745 57.8348 145.082 58.1449 145.483 58.3453C145.885 58.5457 146.335 58.6282 146.782 58.5831C148.929 58.3013 149.032 56.0441 149.527 54.2624C150.681 55.7893 152.958 56.2231 154.745 55.3996C154.966 55.299 155.18 55.1802 155.382 55.0442C155.568 54.9152 155.746 54.7752 155.916 54.6251C158.585 52.2896 158.19 48.2384 157.222 45.1284C157.136 44.8564 157.048 44.5843 156.955 44.3148C156.938 44.2633 156.918 44.2143 156.901 44.1653C156.823 43.9422 156.742 43.7192 156.656 43.4987L156.617 43.4006C156.525 43.1604 156.432 42.9227 156.338 42.6874L156.323 42.6482C156.22 42.3909 156.112 42.136 156.004 41.8811L206.277 13.6973C205.939 13.3517 205.598 13.0111 205.257 12.668L155.438 40.6067C155.193 40.0504 154.926 39.499 154.664 38.95L154.566 38.7417C154.37 38.3251 154.171 37.9011 153.965 37.4771C153.389 36.2885 152.74 35.1219 151.784 34.2249C151.291 33.7556 150.707 33.392 150.068 33.1564C150.029 33.2269 149.975 33.2879 149.909 33.3353C149.992 33.4592 150.025 33.6096 150.002 33.7567C149.979 33.9039 149.901 34.0369 149.784 34.1294Z" fill="#1D1B20"/>
<path d="M212.955 72.31C215.57 67.0359 219.697 61.8697 225.292 59.9409C224.312 59.7302 223.331 59.5317 222.351 59.3381C213.109 57.5067 203.764 56.2333 194.368 55.5247C193.256 58.3626 192.263 61.2399 191.427 64.1514C188.607 73.8736 188.168 85.3922 194.738 93.6072C195.094 93.6268 195.454 93.6513 195.809 93.6684L196.226 93.6856C197.047 93.7199 197.878 93.7371 198.709 93.7812C196.498 91.0342 194.969 87.8024 194.248 84.3506C194.064 83.4732 195.41 83.1007 195.591 83.9781C196.361 87.6974 198.118 91.1411 200.677 93.9478L201.228 94.0287C207.414 88.3405 209.335 79.6157 212.955 72.31Z" fill="#1B9770"/>
<path d="M204.039 125.984C207.345 124.109 210.23 121.539 212.805 118.757C219.133 111.922 223.682 103.474 231.056 97.6166C235.737 93.8988 241.908 91.4014 247.871 91.9234C247.807 90.1262 247.697 88.329 247.54 86.5317C247.467 85.7205 247.383 84.9118 247.295 84.1006C247.256 83.7599 247.219 83.4168 247.177 83.0762C247.179 83.0525 247.179 83.0288 247.177 83.0051C242.462 82.5737 237.938 80.2798 234.943 76.5571C231.581 72.3761 230.377 66.754 231.512 61.5559C230.47 61.2177 229.409 60.9212 228.338 60.6516C219.27 61.73 214.651 71.3664 211.558 78.954C209.313 84.4608 206.965 90.1736 202.804 94.3938C204.975 95.0947 207.414 97.1411 206.296 99.6777C206.238 99.8073 206.218 99.9511 206.24 100.092C206.262 100.232 206.324 100.363 206.419 100.469C205.036 105.697 204.458 111.071 204.213 116.51C204.193 116.975 204.174 117.441 204.159 117.906C204.056 120.578 204.036 123.274 204.039 125.984Z" fill="#1B9770"/>
<path d="M214.494 151.421C213.602 152.266 212.673 153.087 211.7 153.845C216.934 154.82 222.245 155.317 227.569 155.33C231.464 150.88 234.973 146.107 238.058 141.061C238.222 140.695 238.385 140.329 238.548 139.961C238.835 139.312 239.117 138.662 239.391 138C239.921 136.746 240.425 135.481 240.904 134.207C238.932 134.277 236.98 134.615 235.1 135.211C226.265 137.978 220.905 145.313 214.494 151.421Z" fill="#1B9770"/>
<path d="M227.223 103.141C221.244 109.64 216.835 117.492 210.12 123.323C208.261 124.963 206.222 126.387 204.042 127.567C204.059 134.787 204.149 142.027 203.282 149.068C203.179 149.911 203.02 150.808 202.868 151.727C205.181 152.41 207.518 152.996 209.877 153.484C211.989 151.989 213.872 150.137 215.646 148.291C221.687 142.007 227.748 135.354 236.632 133.366C238.2 133.017 239.803 132.853 241.409 132.876C243.335 127.543 244.847 122.07 245.93 116.505C246.021 116.037 246.109 115.571 246.192 115.1C247.287 109.078 247.87 102.975 247.935 96.8543C247.948 95.66 247.94 94.4648 247.91 93.2688C240.151 92.4331 232.365 97.5405 227.223 103.141Z" fill="#1B9770"/>
<path d="M202.434 156.55C203.488 156.419 204.526 156.173 205.527 155.815C206.461 155.475 207.363 155.054 208.222 154.555C206.357 154.139 204.504 153.661 202.664 153.122C202.508 154.128 202.431 155.145 202.434 156.163C202.434 156.293 202.434 156.42 202.434 156.55Z" fill="#1B9770"/>
<path d="M202.6 157.947C202.672 158.321 202.773 158.689 202.902 159.048C203.138 159.706 203.485 160.32 203.926 160.864C203.96 160.908 203.992 160.949 204.029 160.991C206.455 163.841 210.756 163.812 214.175 163.844C216.021 163.888 217.866 163.742 219.682 163.407C222 161.275 224.218 159.043 226.336 156.71C220.902 156.623 215.488 156.039 210.161 154.967C208.609 156.031 206.908 156.857 205.112 157.418C204.291 157.664 203.451 157.841 202.6 157.947Z" fill="#1B9770"/>
<path d="M248.003 135.452C244.695 138.103 241.416 140.793 238.168 143.519C233.149 151.379 227.11 158.538 220.209 164.809C220.209 164.841 220.209 164.875 220.224 164.907C220.267 165.151 220.332 165.389 220.42 165.621C220.452 165.704 220.487 165.786 220.523 165.866C220.576 165.981 220.637 166.093 220.704 166.201C221.004 166.717 221.44 167.141 221.964 167.427C222.507 167.718 223.126 167.834 223.738 167.76C225.76 167.515 227.627 165.846 229.269 164.765C231.181 163.508 233.08 162.236 234.96 160.932C235.437 160.605 235.913 160.273 236.386 159.935C236.772 159.662 237.156 159.389 237.538 159.116C240.305 157.129 243.016 155.063 245.626 152.874C248.844 150.178 252.285 147.299 254.723 143.845C255.035 143.403 255.318 142.942 255.571 142.463C255.811 142.009 256.021 141.54 256.201 141.059C256.297 140.802 256.38 140.542 256.446 140.282C256.679 139.723 256.851 139.14 256.958 138.544C254.816 138.165 252.694 137.341 250.699 136.508C249.809 136.143 248.912 135.773 248.003 135.452Z" fill="#1B9770"/>
<path d="M249.273 134.437L249.702 134.604C252.008 135.535 254.532 136.714 257.074 137.194C257.074 137.118 257.074 137.045 257.074 136.966C256.946 134.496 255.721 132.41 254.263 130.503C253.534 131.069 252.809 131.641 252.089 132.219C251.146 132.954 250.208 133.693 249.273 134.437Z" fill="#1B9770"/>
<path d="M173.926 209.124C174.039 208.686 174.152 208.249 174.262 207.811C174.816 205.664 175.376 203.518 175.941 201.372C172.67 202.778 169.164 203.554 165.606 203.659C165.949 204.079 166.312 204.487 166.694 204.884C167.399 205.598 168.164 206.25 168.981 206.833C169.365 207.107 169.76 207.36 170.164 207.595C171.338 208.284 172.605 208.799 173.926 209.124Z" fill="#1B9770"/>
<path d="M155.075 129.077C150.982 123.011 146.792 116.889 143.458 110.365C145.544 118.698 148.115 126.923 150.166 135.27C150.259 135.648 150.348 136.023 150.438 136.398C152.469 134.703 154.689 133.251 157.055 132.069C156.403 131.066 155.743 130.069 155.075 129.077Z" fill="#1B9770"/>
<path d="M179.286 188.185C179.924 185.516 180.529 182.842 181.078 180.156L181.401 180.183C179.268 174.277 176.89 168.467 174.267 162.753C173.7 161.523 173.121 160.297 172.53 159.077C167.173 160.954 162.304 164.006 158.281 168.01C157.886 168.4 157.497 168.794 157.119 169.199C157.119 169.228 157.119 169.255 157.119 169.282C157.657 172.537 158.157 175.797 158.621 179.063C159.271 183.624 159.68 188.253 160.69 192.755C160.751 193.03 160.817 193.304 160.886 193.579C162.467 192.098 164.324 190.944 166.351 190.182C170.471 188.65 174.899 188.476 179.286 188.185Z" fill="#1B9770"/>
<path d="M178.956 189.562C175.77 189.783 172.584 189.984 169.498 190.709C166.369 191.444 163.494 192.831 161.288 195.045C161.995 197.615 163.104 200.059 164.572 202.284C168.659 202.319 172.7 201.421 176.387 199.659C177.267 196.307 178.135 192.934 178.956 189.562Z" fill="#1B9770"/>
<path d="M236.183 75.888C238.92 79.09 242.778 81.1221 246.967 81.5664C246.459 77.9908 245.67 74.4249 244.026 71.1899C241.607 66.3839 237.492 63.7199 232.838 62.0044C231.843 66.8398 232.97 72.0525 236.183 75.888Z" fill="#1B9770"/>
<path d="M152.531 87.0537C151.774 87.191 151.017 87.3355 150.264 87.4899C151.007 88.257 151.877 87.7595 152.531 87.0537Z" fill="#1B9770"/>
<path d="M158.901 61.2545C159.097 61.6834 159.545 62.301 159.555 62.7789C159.582 63.7788 158.369 65.2297 157.889 66.0972L155.646 70.1655L148.22 83.6447C148.451 84.1104 148.683 84.576 148.916 85.0417C149.115 85.4412 149.301 85.8602 149.502 86.2671C150.87 85.973 152.247 85.7205 153.627 85.4804C155.548 82.3728 157.188 79.0324 158.967 75.8538L170.179 55.8212C167.948 56.2082 165.752 56.7779 163.614 57.5245C161.776 58.1724 159.999 58.9776 158.3 59.9311L158.876 61.208L158.901 61.2545Z" fill="#1B9770"/>
<path d="M148.071 86.4533L147.404 85.1177L146.598 86.5759C146.598 86.7058 146.598 86.8381 146.598 86.9705C147.107 86.8308 147.617 86.696 148.132 86.5734C148.11 86.5318 148.088 86.4926 148.071 86.4533Z" fill="#1B9770"/>
<path d="M155.379 85.1715C156.268 85.0196 157.153 84.8636 158.036 84.7034C163.788 83.6447 169.216 81.9561 173.966 78.4638C177.538 75.8285 180.559 72.5169 182.854 68.7171C183.406 64.0802 184.599 59.4924 186.134 55.0369C181.399 54.8457 176.605 54.8727 171.919 55.527L158.011 80.4097C157.126 81.9904 156.269 83.5932 155.379 85.1715Z" fill="#1B9770"/>
<path d="M150.968 102.128C159.467 98.9743 168.875 100.315 177.713 100.494C180.314 100.561 182.916 100.472 185.506 100.227L190.283 96.5284C186.7 92.4651 184.396 87.414 183.318 82.1008C182.627 78.659 182.39 75.1417 182.612 71.6384C180.589 74.4756 178.159 76.9999 175.402 79.1304C170.963 82.5468 165.895 84.5221 160.437 85.6519C158.477 86.0588 156.487 86.3872 154.494 86.7131C153.798 87.8797 152.818 89.2497 151.345 89.382C150.144 89.4898 149.384 88.7276 148.811 87.8111C148.036 87.9924 147.267 88.1934 146.507 88.4188C146.318 89.7937 145.816 91.0534 144.576 91.5436C143.128 92.1171 141.971 91.5436 140.973 90.6491L140.66 90.8206C140.598 95.1144 141.118 99.4277 141.946 103.672C142.348 104.68 142.777 105.68 143.226 106.667C145.517 104.708 148.138 103.171 150.968 102.128Z" fill="#1B9770"/>
<path d="M191.038 155.727C192.753 155.945 194.494 156.237 196.234 156.442L171.138 129.504C166.997 129.918 162.946 130.973 159.129 132.631C162.397 137.617 165.476 142.723 168.368 147.948C168.952 149.007 169.523 150.069 170.084 151.134C170.302 151.548 170.52 151.96 170.736 152.374C171.595 154.029 172.434 155.692 173.253 157.364C178.991 155.529 185.061 154.971 191.038 155.727Z" fill="#1B9770"/>
<path d="M201.4 174.036C201.257 170.271 201.503 166.5 202.135 162.785L197.66 157.981C195.64 157.81 193.618 157.472 191.624 157.2C185.667 156.371 179.6 156.865 173.855 158.646C177.25 165.701 180.277 172.927 182.923 180.296C189.37 180.651 195.795 179.272 201.527 176.301C201.476 175.835 201.451 175.37 201.434 174.916C201.419 174.615 201.409 174.321 201.4 174.036Z" fill="#1B9770"/>
<path d="M177.973 101.891C169.295 101.739 160.082 100.376 151.718 103.334C148.81 104.353 146.129 105.927 143.821 107.969C145.13 110.706 146.603 113.373 148.176 115.978C151.306 121.156 154.793 126.114 158.141 131.148L158.347 131.459L158.822 131.249C162.373 129.74 166.112 128.719 169.937 128.215L161.66 119.33C161.645 119.316 161.631 119.301 161.619 119.284C161.077 118.703 161.785 117.865 162.381 118.137L162.687 117.892L183.487 101.78C181.637 101.903 179.786 101.925 177.973 101.891Z" fill="#1B9770"/>
<path d="M145.21 87.3846C145.21 87.1101 145.225 86.8331 145.21 86.5685L142.76 83.6937L141.615 82.358C141.16 84.3738 140.867 86.4226 140.738 88.485C140.87 88.6541 141.01 88.8232 141.154 88.9874C142.465 88.3545 143.821 87.8188 145.21 87.3846Z" fill="#1B9770"/>
<path d="M143.818 90.3255C144.446 90.1564 144.799 89.6026 145 88.8967C144.068 89.2166 143.154 89.5864 142.262 90.0045C142.482 90.1684 142.736 90.2821 143.005 90.3375C143.274 90.393 143.551 90.3889 143.818 90.3255Z" fill="#1B9770"/>
<path d="M377.451 237.479L369.939 235.842L369.018 235.641C366.944 239.518 366.545 244.4 368.981 248.224C371.091 251.542 375.164 253.39 378.985 252.76C379.05 250.362 379.031 247.961 378.929 245.56C378.822 243.079 378.629 240.604 378.348 238.134C378.334 238.031 378.3 237.931 378.247 237.842C378.194 237.753 378.124 237.675 378.04 237.614C377.956 237.552 377.86 237.509 377.759 237.486C377.658 237.463 377.553 237.461 377.451 237.479Z" fill="#2F181C"/>
<path d="M374.818 253.956C374.282 265.896 372.525 277.75 369.576 289.333C369.698 289.324 369.82 289.305 369.939 289.277C370.325 289.174 370.686 288.99 370.995 288.736C371.304 288.483 371.555 288.165 371.73 287.806C373.181 285.157 373.975 281.895 374.826 279.01C376.632 272.864 377.862 266.563 378.502 260.189C378.703 258.194 378.845 256.195 378.928 254.191C377.556 254.38 376.16 254.3 374.818 253.956Z" fill="#2F181C"/>
<path d="M373.446 253.517C371.243 252.665 369.342 251.177 367.986 249.243C365.153 245.143 365.412 239.666 367.603 235.333L353.144 232.179L351.784 231.882C350.64 238.908 349.798 245.971 349.257 253.071C349.732 252.962 350.206 252.849 350.678 252.733C351.455 252.542 352.23 252.351 353.004 252.15C353.111 252.127 353.21 252.077 353.291 252.004C353.372 251.931 353.432 251.837 353.465 251.733L354.171 251.674L357.457 261.232C359.791 260.362 362.208 259.733 364.67 259.353C365.569 259.213 365.954 260.578 365.05 260.728C362.617 261.101 360.228 261.721 357.92 262.578C358.285 263.638 358.649 264.7 359.013 265.764C361.34 264.721 363.732 263.83 366.175 263.097C367.057 262.833 367.432 264.21 366.552 264.475C364.138 265.197 361.776 266.079 359.479 267.114L360.626 270.457L364.023 280.334C364.224 280.925 364.426 281.516 364.631 282.106L365.63 285.012C366.03 286.181 366.449 287.37 367.297 288.299C367.56 288.596 367.872 288.845 368.221 289.034C371.187 277.408 372.938 265.505 373.446 253.517Z" fill="#2F181C"/>
<path d="M254.721 143.86C252.282 147.313 248.839 150.188 245.624 152.889C243.016 155.077 240.306 157.143 237.536 159.131C241.387 167.464 245.403 175.726 249.584 183.918C253.71 191.981 257.993 199.959 262.433 207.852C264.683 211.854 266.975 215.831 269.308 219.785C271.31 223.174 273.408 226.586 276.273 229.328C282.586 235.374 292.08 235.649 300.264 236.798L327.467 240.619L329.371 227.005L305.758 221.858L287.23 217.82C283.201 206.86 279.171 195.901 275.141 184.945L274.026 181.913C269.069 177.185 264.807 171.778 261.367 165.853C260.289 163.989 259.296 162.077 258.387 160.116C257.591 158.401 256.289 156.234 256.618 154.281C257.066 151.622 259.85 151.095 261.801 149.764C260.284 146.644 258.485 143.679 256.196 141.069C256.017 141.55 255.806 142.019 255.566 142.473C255.315 142.953 255.032 143.416 254.721 143.86Z" fill="#87A2C7"/>
<path d="M257.956 154.778C257.89 156.036 258.713 157.474 259.211 158.572C259.588 159.415 259.982 160.251 260.392 161.079C261.279 162.876 262.242 164.63 263.281 166.341C266.009 170.843 269.232 175.026 272.889 178.813L268.989 168.211C267.122 163.135 265.367 157.996 263.269 153.016C262.987 152.345 262.693 151.676 262.389 151.014C261.99 151.274 261.566 151.504 261.127 151.749C259.86 152.391 258.044 153.109 257.956 154.778Z" fill="#87A2C7"/>
<path d="M295.756 237.558C291.487 236.958 287.122 236.485 283.037 235.029C279.445 233.752 276.246 231.566 273.751 228.684C271.109 225.664 269.094 222.162 267.077 218.714C264.744 214.732 262.452 210.729 260.201 206.705C251.669 191.435 243.735 175.852 236.399 159.957C235.927 160.292 235.451 160.624 234.972 160.954C233.093 162.258 231.193 163.53 229.282 164.787C227.64 165.868 225.772 167.547 223.75 167.782C223.139 167.856 222.519 167.74 221.976 167.449C222.493 170.723 223.65 174.1 221.459 176.916C220.202 178.531 218.192 179.095 216.253 179.399C213.746 179.791 211.215 180.075 208.698 180.408C206.798 180.654 204.453 181.193 202.904 179.693C202.002 178.82 201.679 177.578 201.537 176.313C195.804 179.284 189.38 180.664 182.933 180.308L182.484 180.286C182.126 180.261 181.771 180.23 181.413 180.195L181.09 180.168C180.541 182.864 179.935 185.528 179.298 188.197L178.967 189.574C178.146 192.947 177.279 196.312 176.399 199.672C176.249 200.243 176.102 200.814 175.953 201.387C175.393 203.532 174.833 205.678 174.274 207.825C174.164 208.264 174.051 208.7 173.938 209.139C172.046 216.555 170.299 224 169.128 231.563L168.882 233.279C168.664 234.811 168.466 236.345 168.302 237.886C167.216 248.035 167.62 258.228 169.873 268.193C172.039 277.785 175.693 286.983 180.019 295.796C181.535 298.887 183.128 301.936 184.798 304.944L197.946 301.413C196.876 297.05 195.804 292.687 194.731 288.323C193.767 284.402 192.803 280.481 191.839 276.56C191.104 273.599 190.322 270.634 189.56 267.658C188.283 262.686 187.075 257.684 186.347 252.633C185.795 248.819 185.611 244.964 186.185 241.143C186.704 237.607 187.822 234.2 189.229 230.924C190.15 228.777 191.189 226.667 192.282 224.591C193.145 222.969 194.05 221.366 194.998 219.783C196.789 216.768 198.696 213.822 200.622 210.935C204.841 204.622 209.432 198.566 214.371 192.8C214.503 192.673 214.679 192.602 214.861 192.602C215.044 192.602 215.22 192.673 215.352 192.8C217.132 194.556 218.859 196.365 220.53 198.226C222.201 200.087 223.819 201.982 225.383 203.911C226.51 205.313 227.608 206.738 228.676 208.185L228.98 207.776C234.28 214.542 239.59 221.301 244.91 228.054C248.045 232.029 251.16 236.026 254.336 239.97C257.069 243.359 259.946 246.672 263.404 249.346C270.781 255.056 280.199 256.272 289.213 257.154C299.328 258.145 309.509 258.291 319.649 257.588C321.492 257.461 323.332 257.305 325.171 257.12C325.875 252.085 326.579 247.048 327.283 242.011L295.756 237.558Z" fill="#87A2C7"/>
<path d="M214.883 194.297C209.592 200.524 204.713 207.09 200.277 213.952C200.058 214.279 199.841 214.614 199.627 214.957C198.439 216.81 197.255 218.687 196.11 220.594C193.576 224.821 191.251 229.196 189.547 233.769C188.207 237.369 187.342 241.121 187.217 244.969C187.097 248.932 187.67 252.873 188.476 256.733C190.096 264.507 192.192 272.197 194.086 279.907L196.047 287.929C197.119 292.296 198.191 296.662 199.265 301.028L200.171 300.783L212.31 297.523C211.17 290.205 210.151 282.865 208.774 275.587C207.014 266.296 204.607 257.098 200.711 248.476C209.167 235.227 218.1 222.3 227.51 209.695C227.605 209.57 227.701 209.45 227.794 209.315C226.639 207.742 225.449 206.196 224.223 204.678C221.297 201.054 218.179 197.588 214.883 194.297Z" fill="#87A2C7"/>
<path d="M349.25 253.071C349.792 245.977 350.634 238.914 351.777 231.882L347.963 231.051C346.719 238.622 345.887 246.255 345.471 253.917C346.732 253.647 347.992 253.365 349.25 253.071Z" fill="#FFF6F0"/>
<path d="M327.274 241.984C326.57 247.02 325.865 252.056 325.161 257.093L326.578 256.946C332.445 256.315 338.273 255.404 344.061 254.213C344.477 246.354 345.327 238.523 346.605 230.757L330.724 227.297L329.369 227L327.465 240.614L327.274 241.984Z" fill="#FFF6F0"/>
<path d="M195.88 346.769H196.731C198.155 346.296 199.571 345.831 200.973 345.392C203.203 344.691 205.441 344.01 207.678 343.321C207.629 342.03 207.771 340.738 208.1 339.488C195.556 344.557 182.528 348.334 169.218 350.762C169.195 350.865 169.194 350.972 169.215 351.075C169.235 351.179 169.277 351.278 169.338 351.364C169.398 351.451 169.476 351.524 169.567 351.579C169.657 351.634 169.758 351.669 169.863 351.683C174.38 352.208 178.882 351.71 183.342 350.727C186.389 350.053 189.413 349.151 192.395 348.193L195.88 346.769Z" fill="#2F181C"/>
<path d="M209.036 342.892C211.592 342.1 214.143 341.299 216.68 340.441C218.317 339.892 220.037 339.13 220.863 337.5C221.689 335.871 221.353 334.042 220.807 332.376C220.756 332.216 220.699 332.06 220.643 331.905C214.442 331.547 208.96 336.559 209.036 342.892Z" fill="#2F181C"/>
<path d="M220.209 163.297C220.035 163.339 219.858 163.373 219.682 163.408C217.866 163.742 216.021 163.888 214.175 163.844C210.756 163.812 206.455 163.844 204.029 160.991C203.992 160.949 203.96 160.908 203.926 160.864C203.485 160.32 203.138 159.706 202.902 159.048C202.74 159.722 202.593 160.398 202.456 161.079C202.343 161.646 202.238 162.218 202.142 162.795C201.51 166.51 201.264 170.281 201.407 174.046C201.407 174.331 201.426 174.625 201.438 174.926C201.456 175.38 201.48 175.845 201.532 176.311C201.669 177.575 201.997 178.818 202.899 179.69C204.448 181.19 206.793 180.671 208.693 180.406C211.21 180.073 213.741 179.788 216.248 179.396C218.187 179.092 220.197 178.529 221.454 176.914C223.645 174.098 222.488 170.721 221.971 167.446C221.447 167.161 221.011 166.737 220.711 166.221C220.644 166.113 220.584 166.001 220.53 165.885C220.494 165.802 220.46 165.72 220.427 165.64C220.34 165.409 220.274 165.17 220.231 164.927C220.231 164.895 220.231 164.861 220.216 164.829C220.135 164.322 220.132 163.805 220.209 163.297Z" fill="#DCBEC3"/>
<path d="M173.926 209.124C172.604 208.795 171.337 208.275 170.165 207.58C169.76 207.335 169.366 207.09 168.981 206.818C167.097 211.248 166.018 215.979 165.795 220.787C165.606 224.91 165.604 230.255 168.873 233.259L169.118 231.544C170.287 223.986 172.044 216.54 173.926 209.124Z" fill="#DCBEC3"/>
<path d="M107.472 334.753C112.731 338.993 119.581 340.706 126.098 341.86C140.439 344.402 155.017 345.803 169.613 346.421C171.461 341.765 175.686 338.387 180.081 335.969C180.453 335.765 180.833 335.562 181.213 335.363C181.669 335.125 182.129 334.889 182.595 334.657C183.339 334.285 184.087 333.914 184.84 333.545L186.22 332.856C187.146 332.388 188.068 331.913 188.97 331.408C190.301 330.677 191.582 329.858 192.805 328.957C180.976 327.898 169.117 327.343 157.227 327.293C150.885 327.271 144.552 327.477 138.212 327.631C132.251 327.773 126.191 327.746 120.368 326.295C117.481 325.577 114.851 324.367 112.118 323.222C109.653 322.19 106.937 321.335 104.256 322.021C102.77 322.391 101.438 323.218 100.448 324.386C101.514 328.455 104.158 332.079 107.472 334.753ZM155.771 332.324C156.227 331.785 156.997 331.736 157.641 331.663C158.545 331.529 159.463 331.529 160.367 331.663C161.398 331.851 163.295 332.849 161.925 334.025C160.604 335.157 158.004 334.92 156.445 334.599C156.324 334.582 156.211 334.525 156.126 334.436C156.042 334.346 155.99 334.231 155.98 334.108C155.836 334.015 155.715 333.891 155.625 333.745C155.535 333.599 155.478 333.435 155.458 333.265C155.438 333.095 155.456 332.922 155.51 332.76C155.564 332.597 155.653 332.449 155.771 332.324ZM124.132 330.922C124.752 330.248 125.799 330.327 126.629 330.295C128.062 330.241 129.498 330.193 130.935 330.15C135.999 330.003 141.072 329.962 146.13 330.226C147.48 330.297 148.827 330.391 150.171 330.508C150.941 330.574 151.794 330.579 152.509 330.91C153.735 331.471 154.039 332.92 152.948 333.812C152.264 334.368 151.345 334.395 150.497 334.471C149.331 334.579 148.161 334.661 146.988 334.716C144.477 334.849 141.962 334.88 139.444 334.812C134.524 334.667 129.622 334.145 124.781 333.248C124.671 333.236 124.568 333.188 124.486 333.113C124.405 333.038 124.349 332.938 124.328 332.829C124.176 332.727 124.048 332.592 123.954 332.435C123.859 332.278 123.801 332.102 123.782 331.919C123.763 331.737 123.785 331.553 123.845 331.379C123.906 331.206 124.004 331.049 124.132 330.918V330.922Z" fill="#F9AF42"/>
<path d="M157.411 333.442C158.06 333.534 158.719 333.543 159.371 333.469C159.748 333.438 160.121 333.368 160.484 333.261C160.768 333.165 160.874 333.261 160.729 333.082C160.467 332.746 159.124 332.849 158.749 332.864C158.442 332.864 158.136 332.905 157.832 332.94C157.693 332.954 157.33 332.94 157.014 332.94C157.113 332.988 157.201 333.058 157.27 333.145C157.339 333.232 157.387 333.334 157.411 333.442Z" fill="#F9AF42"/>
<path d="M125.823 332.118C130.163 332.888 134.553 333.35 138.959 333.501C141.303 333.579 143.65 333.568 146 333.469C147.005 333.425 148.009 333.365 149.012 333.29C149.502 333.253 152.71 333.334 152.156 332.172C151.911 331.66 149.156 331.719 148.666 331.682C147.573 331.601 146.479 331.535 145.382 331.486C143.106 331.381 140.826 331.334 138.547 331.332C136.341 331.332 134.153 331.361 131.959 331.418C130.777 331.45 129.594 331.487 128.411 331.528L126.891 331.582C126.531 331.596 125.705 331.506 125.198 331.582C125.347 331.588 125.49 331.644 125.603 331.742C125.717 331.839 125.794 331.972 125.823 332.118Z" fill="#F9AF42"/>
<path d="M241.859 345.804C227.995 347.205 213.992 347.833 200.064 348.102C197.505 348.155 194.946 348.186 192.386 348.196C189.403 349.154 186.379 350.056 183.333 350.73L215.548 351.465C221.403 351.597 227.258 351.771 233.115 351.847C238.668 351.921 244.254 351.791 249.734 350.779C258.574 349.149 267.477 344.669 272.175 336.694C273.089 335.145 274.337 332.989 274.266 331.077C267.014 341.336 253.817 344.578 241.859 345.804Z" fill="#F9AF42"/>
<path d="M143.208 356.54C140.777 353.744 136.618 352.972 133.305 354.528C133.219 354.568 133.143 354.625 133.079 354.695C132.65 354.897 132.247 355.151 131.878 355.45C131.858 355.468 131.84 355.487 131.824 355.509C131.817 355.512 131.81 355.517 131.805 355.523C130.155 356.989 129.146 359.042 128.994 361.243C128.944 361.937 128.98 362.634 129.099 363.319C129.166 363.735 129.266 364.145 129.398 364.545C130.452 367.64 133.376 369.591 136.581 369.811C139.554 370.017 142.044 368.515 143.544 366.329C144.577 364.841 145.11 363.062 145.063 361.251C145.013 359.512 144.357 357.846 143.208 356.54ZM134.199 364.481L134.16 364.454C133.676 364.073 133.291 363.582 133.037 363.021C132.783 362.46 132.668 361.846 132.702 361.231C132.702 361.167 132.702 361.101 132.702 361.038C132.667 360.949 132.651 360.854 132.653 360.759C132.656 360.664 132.677 360.57 132.717 360.484C132.795 360.307 132.881 360.131 132.976 359.957C133.167 359.503 133.445 359.092 133.795 358.746C134.91 357.433 136.523 356.604 138.292 357.43C138.991 357.77 139.567 358.318 139.941 358.998C140.315 359.679 140.468 360.459 140.38 361.231C140.325 361.87 140.118 362.487 139.777 363.03C139.118 364.051 138.088 364.776 136.905 365.052C136.44 365.162 135.956 365.168 135.488 365.07C135.02 364.971 134.58 364.77 134.199 364.481Z" fill="#1D1B20"/>
<path d="M238.634 361.243C238.32 360.249 237.803 359.331 237.115 358.548C234.683 355.751 230.524 354.979 227.211 356.538C227.125 356.576 227.048 356.633 226.986 356.705C226.556 356.906 226.152 357.159 225.785 357.459C225.765 357.476 225.747 357.495 225.731 357.516L225.711 357.53C224.581 358.524 223.745 359.808 223.292 361.243C222.726 362.962 222.726 364.816 223.292 366.535C223.68 367.668 224.334 368.691 225.201 369.517C226.64 370.871 228.506 371.679 230.478 371.801C233.534 372.012 236.09 370.421 237.585 368.125C238.889 366.113 239.367 363.569 238.634 361.243ZM226.625 362.493C226.698 362.313 226.78 362.136 226.87 361.964C226.979 361.709 227.115 361.468 227.277 361.243C227.401 361.069 227.538 360.905 227.689 360.753C228.804 359.437 230.417 358.609 232.186 359.435C232.974 359.802 233.6 360.444 233.948 361.241C234.216 361.848 234.331 362.511 234.283 363.172C234.235 363.834 234.025 364.473 233.671 365.035C232.515 366.856 229.887 367.919 228.035 366.459C227.524 366.058 227.123 365.535 226.87 364.937C226.616 364.34 226.519 363.688 226.586 363.042C226.555 362.95 226.543 362.853 226.552 362.756C226.56 362.66 226.588 362.566 226.635 362.481L226.625 362.493Z" fill="#1D1B20"/>
<path d="M247.283 84.0933C247.374 84.9045 247.457 85.7132 247.528 86.5244C247.691 88.3217 247.802 90.1189 247.859 91.9161C247.876 92.3597 247.888 92.8057 247.898 93.2493C247.928 94.4453 247.936 95.6405 247.923 96.8348C247.858 102.955 247.275 109.059 246.18 115.081L271.445 114.23C270.48 112.946 269.511 111.665 268.539 110.388L267.683 109.27C265.625 106.584 263.544 103.918 261.441 101.271L260.581 100.185C256.248 94.7476 251.815 89.3837 247.283 84.0933Z" fill="#FFF6F0"/>
<path d="M245.93 116.492C244.844 122.058 243.33 127.531 241.401 132.863C241.238 133.314 241.074 133.765 240.911 134.214C240.431 135.488 239.927 136.753 239.399 138.008C239.124 138.662 238.842 139.311 238.556 139.968C238.392 140.336 238.229 140.703 238.066 141.069C237.884 141.468 237.7 141.863 237.514 142.26C237.024 143.304 236.513 144.34 235.982 145.37C236.718 144.752 237.453 144.144 238.176 143.527C241.424 140.798 244.702 138.109 248.011 135.459L249.28 134.444C250.216 133.699 251.154 132.956 252.094 132.214C252.818 131.645 253.542 131.074 254.268 130.498C260.105 125.96 266.033 121.541 272.05 117.242L272.097 117.262C272.424 116.976 272.75 116.697 273.077 116.424C273.058 116.377 273.032 116.332 273.001 116.291C272.83 116.059 272.653 115.826 272.479 115.593L253.221 116.242L245.93 116.492Z" fill="#FFF6F0"/>
<path d="M121.144 72.9422C121.22 72.733 121.211 72.5022 121.117 72.3001C121.088 72.2304 121.046 72.1674 120.991 72.115C120.937 72.0627 120.873 72.0221 120.802 71.9959C120.731 71.9696 120.656 71.9583 120.581 71.9626C120.506 71.9668 120.432 71.9866 120.365 72.0207L115.953 73.8612C115.497 72.4168 115.14 70.9429 114.885 69.4498C114.799 68.9597 114.331 68.8543 113.968 69.0259C113.819 69.0922 113.696 69.2066 113.618 69.3509C113.541 69.4952 113.514 69.6611 113.542 69.8224C113.839 71.57 114.276 73.291 114.848 74.969C114.956 75.2925 115.338 75.6086 115.706 75.4591L119.951 73.6872L120.735 73.3613C120.828 73.3232 120.913 73.2664 120.983 73.1943C121.053 73.1222 121.108 73.0364 121.144 72.9422Z" fill="#1D1B20"/>
<path d="M144.277 70.9031C144.327 70.7844 144.347 70.6551 144.335 70.5269C144.323 70.3986 144.28 70.2753 144.209 70.1679C143.99 69.8149 143.535 69.6385 143.182 70.0478L135.7 78.7529C135.627 78.8333 135.574 78.93 135.546 79.0348C135.518 79.1397 135.515 79.2497 135.538 79.3558C136.028 78.8411 136.518 78.3216 137.008 77.8118C137.136 77.6795 137.253 77.5471 137.388 77.4172L138.033 78.1696L139.503 79.8852L140.584 81.1498C140.736 80.6204 140.895 80.091 141.057 79.5641C141.961 76.617 143.036 73.7251 144.277 70.9031Z" fill="#1D1B20"/>
<path d="M120.853 58.245C119.926 58.3234 119.424 59.2375 119.588 60.0977C119.673 60.4713 119.841 60.8213 120.078 61.1222C120.377 61.8345 120.866 62.4509 121.492 62.9039C122.262 63.4406 123.313 63.4675 123.82 62.5583C124.328 61.6491 123.781 60.5315 123.227 59.762C122.673 58.9924 121.874 58.1567 120.853 58.245Z" fill="#1D1B20"/>
<path d="M131.128 69.2979C129.986 71.6778 128.017 73.5617 125.59 74.599C124.769 74.9568 125.477 76.1576 126.293 75.8023C128.939 74.6553 131.085 72.5969 132.342 70.0013C132.721 69.1999 131.521 68.4916 131.128 69.2979Z" fill="#1D1B20"/>
<path d="M140.446 50.0594C139.684 50.5324 140.383 51.7382 141.15 51.2652C141.468 51.0667 141.64 51.4711 141.667 51.7357C141.706 52.2259 141.434 52.6842 141.218 53.0959C140.807 53.8924 142.01 54.5982 142.422 53.7993C142.912 52.8582 143.368 51.7308 142.789 50.7162C142.681 50.5166 142.534 50.3407 142.357 50.199C142.18 50.0573 141.976 49.9527 141.757 49.8915C141.539 49.8302 141.31 49.8135 141.085 49.8423C140.86 49.8712 140.643 49.945 140.446 50.0594Z" fill="#1D1B20"/>
<path d="M157.063 132.069L157.83 133.236C160.589 137.484 163.221 141.802 165.724 146.191C167.086 148.584 168.406 151.002 169.682 153.445C170.439 154.896 171.187 156.352 171.912 157.822C172.119 158.244 172.325 158.666 172.53 159.089C173.121 160.303 173.7 161.529 174.267 162.765C176.894 168.471 179.272 174.281 181.401 180.195C181.759 180.23 182.114 180.261 182.472 180.286L182.921 180.308C180.274 172.939 177.248 165.713 173.853 158.658L173.235 157.383C172.418 155.709 171.579 154.046 170.718 152.394C170.503 151.98 170.285 151.568 170.066 151.154C169.503 150.085 168.931 149.023 168.351 147.968C165.479 142.739 162.399 137.634 159.112 132.65C158.866 132.261 158.599 131.869 158.34 131.479L158.134 131.168C154.779 126.134 151.299 121.176 148.169 115.997C146.595 113.392 145.123 110.726 143.814 107.988C143.608 107.557 143.405 107.126 143.206 106.689C142.758 105.709 142.329 104.702 141.927 103.694C142.155 104.859 142.401 106.017 142.662 107.167C142.662 107.173 142.662 107.179 142.662 107.184C142.78 107.697 142.907 108.209 143.025 108.719C143.16 109.276 143.298 109.831 143.436 110.385C146.769 116.909 150.96 123.031 155.053 129.097C155.738 130.077 156.408 131.068 157.063 132.069Z" fill="#1D1B20"/>
<path d="M176.387 199.659C172.699 201.421 168.658 202.319 164.572 202.284C164.899 202.758 165.243 203.218 165.606 203.664C169.164 203.557 172.671 202.78 175.941 201.372C176.09 200.801 176.237 200.228 176.387 199.659Z" fill="#1D1B20"/>
<path d="M186.141 55.0369C184.607 59.4924 183.413 64.0802 182.862 68.7171C182.744 69.6974 182.657 70.672 182.599 71.6409C182.382 75.1439 182.623 78.6603 183.318 82.1008C184.408 87.4116 186.712 92.4626 190.292 96.526L191.398 95.6707C185.026 88.4997 183.215 78.5667 184.229 69.1656C184.352 68.0309 184.513 66.9035 184.719 65.7909C184.778 65.4747 184.839 65.161 184.901 64.8449C185.56 61.5413 186.435 58.2845 187.521 55.0957C187.538 55.0418 187.557 54.9903 187.575 54.9389C188.043 53.5566 188.547 52.185 189.084 50.824C191.594 44.4104 194.812 38.232 198.267 32.4261C201.538 26.9441 205.209 21.7106 209.249 16.7681L208.269 15.7609C200.591 25.1358 194.248 35.5275 189.417 46.6406C188.248 49.3658 187.126 52.1744 186.141 55.0369Z" fill="#1D1B20"/>
<path d="M194.721 93.6193C188.151 85.4043 188.594 73.8857 191.41 64.1635C192.256 61.252 193.248 58.3748 194.351 55.5368C197.407 47.7458 201.39 40.2612 205.87 33.2789C208.396 29.3467 211.134 25.5539 214.07 21.9171C213.751 21.574 213.438 21.2285 213.119 20.8878C206.729 28.7873 201.271 37.3964 196.851 46.5449C195.476 49.3976 194.101 52.3704 192.859 55.4265C189.594 63.4748 187.239 72.0967 188.195 80.6057C188.751 85.4926 190.4 90.2348 193.376 94.1291L194.111 93.5703L194.721 93.6193Z" fill="#1D1B20"/>
<path d="M194.231 84.3505C194.952 87.8023 196.48 91.0342 198.691 93.7811C199.351 93.813 200.008 93.8644 200.652 93.9478C198.095 91.1405 196.34 87.6969 195.572 83.978C195.393 83.1006 194.047 83.4731 194.231 84.3505Z" fill="#1D1B20"/>
<path d="M161.618 119.284C161.631 119.3 161.645 119.316 161.66 119.33L204.149 117.899C204.164 117.434 204.183 116.968 204.203 116.502L185.886 117.12L162.687 117.902L162.381 118.147C161.785 117.865 161.077 118.703 161.618 119.284Z" fill="#1D1B20"/>
<path d="M245.93 116.492L253.219 116.247L272.477 115.598L271.457 114.238L246.192 115.088C246.109 115.559 246.021 116.024 245.93 116.492Z" fill="#1D1B20"/>
<path d="M261.453 101.278L269.989 94.3006C269.724 93.9208 269.46 93.5384 269.193 93.1586L260.593 100.192L261.453 101.278Z" fill="#1D1B20"/>
<path d="M234.931 76.5498C237.926 80.2725 242.45 82.5664 247.165 82.9977C247.106 82.5223 247.045 82.0444 246.976 81.5665C242.788 81.1222 238.929 79.0901 236.193 75.8881C232.97 72.0526 231.843 66.8398 232.838 62.0044C232.399 61.8427 231.955 61.6907 231.509 61.5437C230.372 66.7418 231.568 72.3688 234.931 76.5498Z" fill="#1D1B20"/>
<path d="M244.472 344.11C231.417 345.708 218.121 346.206 204.983 346.58C202.238 346.659 199.487 346.719 196.731 346.759H195.881L192.386 348.186C194.944 348.173 197.504 348.142 200.064 348.093C213.992 347.823 228.003 347.196 241.859 345.794C253.817 344.586 267.014 341.336 274.266 331.06C274.263 330.896 274.248 330.732 274.222 330.57C274.149 330.13 273.982 329.712 273.732 329.344C267.443 339.142 255.488 342.762 244.472 344.11Z" fill="#1D1B20"/>
<path d="M118.595 341.622C124.707 343.338 131.094 344.127 137.388 344.951C144.333 345.862 151.302 346.57 158.293 347.073C161.917 347.338 165.544 347.553 169.174 347.72L169.615 346.424C155.011 345.806 140.451 344.404 126.099 341.863C119.58 340.706 112.73 338.993 107.474 334.755C104.158 332.084 101.516 328.457 100.452 324.384C100.06 324.847 99.721 325.351 99.4399 325.889C100.383 328.606 101.874 331.101 103.819 333.219C107.711 337.525 113.081 340.066 118.595 341.622Z" fill="#1D1B20"/>
<path d="M194.836 322.031C195.469 323.064 196.102 324.095 196.736 325.126C195.61 326.576 194.291 327.863 192.814 328.952C191.592 329.853 190.311 330.672 188.979 331.403C188.077 331.908 187.156 332.383 186.229 332.851L190.322 336.4C191.018 337.005 190.003 338.01 189.312 337.41L184.842 333.55C184.089 333.921 183.341 334.292 182.597 334.662C184.193 335.979 185.746 337.346 187.254 338.763C187.923 339.397 186.911 340.405 186.244 339.772C184.625 338.241 182.948 336.771 181.215 335.361C180.835 335.559 180.455 335.763 180.083 335.966C175.688 338.385 171.463 341.77 169.615 346.419L169.174 347.715C169.174 347.742 169.157 347.767 169.15 347.794C169.001 348.326 168.883 348.867 168.799 349.414C182.421 346.934 195.747 343.04 208.561 337.794C208.602 337.779 208.645 337.767 208.688 337.758C209.334 336.234 210.292 334.863 211.502 333.734C213.853 331.583 216.945 330.426 220.131 330.506C220.025 330.207 219.915 329.91 219.812 329.611C218.371 325.477 217.146 321.306 216.092 317.088C215.979 316.637 215.869 316.184 215.759 315.733C208.57 317.585 201.335 319.265 194.054 320.771L194.836 322.031Z" fill="#2F181C"/>
<path d="M103.422 48.9197C103.368 49.1378 103.322 49.3633 103.283 49.5912C117.624 41.0752 132.652 33.7727 148.21 27.7598C147.912 27.3684 147.589 26.996 147.245 26.6447C132.183 32.4985 117.615 39.5524 103.682 47.7384C103.604 48.1281 103.518 48.5251 103.422 48.9197Z" fill="#1D1B20"/>
<path d="M112.963 37.1095C112.958 32.3239 113.912 27.5858 115.767 23.1744C116.113 22.3485 114.765 21.9883 114.424 22.8044C112.527 27.3344 111.556 32.1984 111.569 37.1095C111.569 38.0065 112.963 38.009 112.963 37.1095Z" fill="#1D1B20"/>
<path d="M121.48 30.2277C121.705 31.0953 123.051 30.7179 122.823 29.8552C122.178 27.3827 121.028 25.0705 119.445 23.0641C118.894 22.3583 117.914 23.3509 118.465 24.0444C119.884 25.8765 120.91 27.9814 121.48 30.2277Z" fill="#1D1B20"/>
<path d="M124.359 23.2823C126.696 24.4307 128.913 25.8091 130.977 27.3971C131.687 27.9437 132.383 26.733 131.68 26.1938C129.618 24.5973 127.401 23.2114 125.063 22.0569C124.254 21.6721 123.553 22.873 124.359 23.2823Z" fill="#1D1B20"/>
<path d="M144.564 91.546C145.804 91.0558 146.306 89.7961 146.495 88.4212C146.558 87.9401 146.591 87.4556 146.595 86.9704C146.595 86.838 146.595 86.7057 146.595 86.5758L146.537 86.6836C146.482 86.7749 146.408 86.8526 146.319 86.9109C146.23 86.9693 146.129 87.0067 146.023 87.0204C145.918 87.034 145.811 87.0236 145.71 86.9899C145.609 86.9562 145.517 86.9001 145.441 86.8258L145.221 86.5807C145.221 86.8454 145.221 87.1223 145.221 87.3968C145.207 87.9071 145.136 88.4143 145.01 88.9089C144.814 89.6148 144.456 90.1686 143.829 90.3377C143.561 90.4011 143.284 90.4052 143.015 90.3497C142.746 90.2943 142.492 90.1806 142.272 90.0167C141.86 89.7304 141.488 89.3899 141.167 89.0045C141.022 88.8403 140.883 88.6712 140.75 88.5021C140.733 88.7472 140.721 88.9923 140.706 89.2373C140.687 89.6148 140.669 89.9946 140.66 90.3745C140.763 90.475 140.866 90.573 140.971 90.6686C141.959 91.5533 143.125 92.1194 144.564 91.546Z" fill="#1D1B20"/>
<path d="M211.7 153.845C211.09 153.732 210.475 153.6 209.877 153.484C207.521 152.994 205.184 152.408 202.868 151.727C202.792 152.188 202.718 152.651 202.652 153.119C204.49 153.658 206.343 154.136 208.21 154.553C208.864 154.7 209.512 154.838 210.154 154.967C215.481 156.039 220.895 156.623 226.329 156.71C224.216 159.041 221.998 161.274 219.675 163.408C219.851 163.373 220.028 163.339 220.202 163.297C220.125 163.798 220.125 164.308 220.202 164.809C227.103 158.538 233.142 151.379 238.161 143.52C237.426 144.132 236.691 144.745 235.968 145.363C236.495 144.333 237.006 143.297 237.499 142.252C237.686 141.855 237.869 141.461 238.051 141.061C234.966 146.107 231.457 150.88 227.562 155.33C222.24 155.317 216.931 154.82 211.7 153.845Z" fill="#1D1B20"/>
<path d="M368.981 248.221C366.545 244.398 366.944 239.516 369.017 235.639L367.603 235.333C365.412 239.666 365.153 245.136 367.986 249.243C369.342 251.177 371.243 252.665 373.446 253.517C372.935 265.503 371.181 277.403 368.214 289.027C368.63 289.255 369.102 289.361 369.576 289.333C372.525 277.75 374.282 265.896 374.818 253.956C376.162 254.304 377.56 254.387 378.936 254.201C378.955 253.724 378.972 253.245 378.985 252.765C375.164 253.388 371.091 251.54 368.981 248.221Z" fill="#FFF6F0"/>
<path d="M207.678 343.311L209.036 342.892C208.96 336.559 214.428 331.547 220.643 331.927C220.613 331.846 220.586 331.763 220.559 331.682C220.415 331.29 220.278 330.896 220.138 330.503C216.949 330.422 213.854 331.58 211.501 333.734C210.293 334.863 209.335 336.234 208.69 337.758C208.647 337.767 208.604 337.779 208.563 337.794C195.746 343.042 182.417 346.938 168.792 349.418C168.761 349.624 168.734 349.833 168.711 350.043C168.694 350.143 168.705 350.246 168.741 350.34C168.778 350.435 168.839 350.518 168.919 350.58C169.008 350.643 169.111 350.684 169.218 350.7C169.217 350.718 169.217 350.736 169.218 350.754C182.528 348.326 195.556 344.549 208.1 339.481C207.771 340.73 207.629 342.02 207.678 343.311Z" fill="#FFF6F0"/>
<path d="M168.719 350.043C168.741 349.833 168.768 349.624 168.799 349.419C168.884 348.872 169.001 348.331 169.15 347.799C169.15 347.772 169.167 347.747 169.174 347.72C165.546 347.557 161.919 347.341 158.293 347.073C151.307 346.56 144.338 345.853 137.388 344.951C131.104 344.127 124.708 343.345 118.595 341.623C113.081 340.066 107.712 337.525 103.817 333.216C101.871 331.098 100.381 328.603 99.4378 325.886C98.1486 328.337 97.9795 331.474 98.8741 334.145C102.631 345.35 115.951 348.115 126.234 348.725C138.89 349.46 151.575 349.884 164.246 350.389C165.806 350.451 167.367 350.515 168.927 350.58C168.847 350.518 168.786 350.435 168.749 350.34C168.712 350.246 168.702 350.143 168.719 350.043Z" fill="#F9AF42"/>
<path d="M220.57 331.685C220.597 331.763 220.623 331.846 220.653 331.93C220.709 332.084 220.766 332.241 220.817 332.4C221.366 334.067 221.702 335.903 220.873 337.525C220.045 339.147 218.327 339.905 216.69 340.466C214.153 341.314 211.602 342.115 209.046 342.917L207.688 343.336C205.451 344.024 203.213 344.706 200.983 345.407C199.581 345.845 198.165 346.311 196.741 346.784C199.495 346.741 202.246 346.682 204.992 346.605C218.131 346.23 231.426 345.733 244.482 344.135C255.51 342.787 267.453 339.167 273.754 329.369C272.94 328.161 271.318 327.827 269.793 328.087C267.301 328.509 264.892 329.557 262.402 330.048C259.664 330.571 256.891 330.892 254.106 331.011C242.653 331.57 231.267 329.504 219.829 329.633C219.932 329.932 220.043 330.229 220.148 330.528C220.278 330.898 220.415 331.293 220.57 331.685Z" fill="#F9AF42"/>
<path d="M267.065 218.714C269.085 222.162 271.097 225.664 273.739 228.684C276.237 231.567 279.441 233.754 283.037 235.029C287.123 236.485 291.487 236.958 295.757 237.558L327.273 241.984L327.465 240.614L300.261 236.793C292.078 235.644 282.584 235.369 276.271 229.323C273.406 226.581 271.308 223.17 269.305 219.78C266.967 215.829 264.676 211.852 262.431 207.847C257.99 199.956 253.707 191.978 249.582 183.913C245.399 175.732 241.383 167.47 237.534 159.126C237.151 159.4 236.767 159.673 236.382 159.945C243.718 175.822 251.652 191.405 260.184 206.693C262.438 210.725 264.732 214.732 267.065 218.714Z" fill="#3F5E88"/>
<path d="M194.062 320.771C201.337 319.27 208.572 317.59 215.766 315.733C215.486 314.571 215.224 313.407 214.969 312.238L192.334 317.924C192.907 318.875 193.483 319.824 194.062 320.771Z" fill="#FFF6F0"/>
<path d="M199.275 301.033L198.836 301.151L197.927 301.396L184.788 304.925C185.018 305.346 185.251 305.763 185.484 306.182C187.457 309.716 189.506 313.206 191.591 316.676L214.687 310.873C214.197 308.566 213.753 306.243 213.354 303.905C213.07 302.247 212.798 300.585 212.538 298.918L212.318 297.531L200.189 300.788L199.275 301.033Z" fill="#FFF6F0"/>
<path d="M256.62 154.281C256.292 156.241 257.6 158.398 258.39 160.116C259.295 162.077 260.288 163.989 261.37 165.853C264.809 171.778 269.071 177.185 274.028 181.913L272.888 178.813C269.232 175.026 266.009 170.843 263.281 166.341C262.244 164.63 261.281 162.876 260.392 161.079C259.98 160.251 259.586 159.415 259.211 158.572C258.721 157.462 257.89 156.035 257.956 154.778C258.044 153.109 259.86 152.391 261.127 151.729C261.566 151.499 261.99 151.266 262.389 150.994C262.198 150.578 262.005 150.163 261.804 149.752C259.853 151.1 257.069 151.622 256.62 154.281Z" fill="#1D1B20"/>
<path d="M150.264 87.4925C151.017 87.3381 151.774 87.1935 152.531 87.0562C152.738 86.8273 152.926 86.5814 153.092 86.321C153.274 86.0392 153.45 85.7524 153.627 85.4681C152.247 85.7132 150.869 85.9583 149.502 86.2548C149.656 86.5795 149.832 86.8932 150.029 87.1935C150.099 87.2995 150.178 87.3995 150.264 87.4925Z" fill="#FFBEB6"/>
<path d="M146.596 86.9704C146.591 87.4556 146.558 87.9401 146.495 88.4212C147.255 88.1958 148.024 87.9948 148.799 87.8134C148.554 87.4091 148.328 86.9753 148.13 86.5734C147.615 86.6959 147.105 86.8307 146.596 86.9704Z" fill="#FFBEB6"/>
<path d="M173.973 78.4638C169.211 81.9561 163.783 83.6447 158.043 84.7034C157.162 84.8668 156.277 85.0228 155.386 85.1715C155.102 85.6764 154.81 86.1812 154.516 86.6787C154.508 86.6904 154.501 86.7027 154.494 86.7155C156.487 86.3797 158.482 86.0611 160.437 85.6543C165.895 84.5245 170.963 82.5492 175.402 79.1328C178.159 77.0023 180.589 74.478 182.612 71.6408C182.671 70.6605 182.758 69.6859 182.874 68.717C180.575 72.518 177.55 75.8297 173.973 78.4638Z" fill="#FFBEB6"/>
<path d="M140.65 90.3574C140.65 90.5118 140.65 90.6687 140.65 90.8231L140.964 90.6515C140.856 90.5559 140.753 90.4579 140.65 90.3574Z" fill="#FFBEB6"/>
<path d="M142.262 90.0045C143.154 89.5864 144.068 89.2166 145 88.8968C145.126 88.4021 145.197 87.8949 145.211 87.3846C143.825 87.8209 142.472 88.3583 141.165 88.9923C141.484 89.3773 141.853 89.7177 142.262 90.0045Z" fill="#FFBEB6"/>
<path d="M153.627 85.473C153.45 85.7573 153.274 86.044 153.093 86.3258C152.926 86.5862 152.739 86.8321 152.531 87.0611C151.877 87.7669 151.007 88.2644 150.264 87.4973C150.175 87.407 150.093 87.3095 150.019 87.2057C149.824 86.9052 149.649 86.5916 149.497 86.267C149.296 85.8577 149.11 85.4387 148.912 85.0416C148.678 84.576 148.446 84.1103 148.216 83.6447L147.399 85.1274L148.066 86.4631C148.083 86.5023 148.105 86.5415 148.125 86.5832C148.323 86.9851 148.541 87.4189 148.794 87.8233C149.365 88.7398 150.127 89.502 151.328 89.3942C152.798 89.2619 153.779 87.8919 154.477 86.7253C154.484 86.7125 154.491 86.7003 154.499 86.6886C154.793 86.1984 155.085 85.6862 155.369 85.1813C156.264 83.603 157.122 81.9953 158.006 80.4195L171.929 55.5442C171.343 55.6259 170.758 55.719 170.174 55.8236L158.962 75.8562C157.188 79.025 155.548 82.3654 153.627 85.473Z" fill="#1D1B20"/>
<path d="M228.336 60.6443C227.326 60.3992 226.306 60.1541 225.292 59.9409C219.697 61.8697 215.57 67.0359 212.955 72.31C209.335 79.6157 207.413 88.3405 201.21 94.0287C201.64 94.0947 202.065 94.1831 202.485 94.2934C202.588 94.3203 202.693 94.3522 202.801 94.3865C206.967 90.1663 209.31 84.4535 211.555 78.9466C214.648 71.3591 219.278 61.7226 228.336 60.6443Z" fill="#FFBEB6"/>
<path d="M177.71 100.494C168.873 100.315 159.464 98.9743 150.965 102.128C148.132 103.17 145.507 104.708 143.213 106.67C143.412 107.106 143.615 107.537 143.821 107.969C146.129 105.927 148.81 104.353 151.718 103.334C160.094 100.376 169.294 101.739 177.973 101.891C179.786 101.925 181.637 101.903 183.487 101.79L185.504 100.227C182.914 100.472 180.311 100.561 177.71 100.494Z" fill="#FFBEB6"/>
<path d="M231.056 97.6165C223.682 103.474 219.133 111.922 212.805 118.757C210.23 121.538 207.345 124.109 204.039 125.984C204.039 126.511 204.039 127.04 204.039 127.567C206.219 126.387 208.258 124.963 210.117 123.323C216.832 117.492 221.241 109.64 227.221 103.141C232.367 97.5504 240.149 92.4331 247.908 93.2566C247.908 92.813 247.886 92.367 247.869 91.9234C241.908 91.4136 235.737 93.8987 231.056 97.6165Z" fill="#FFBEB6"/>
<path d="M157.829 133.236L157.062 132.069C154.696 133.251 152.476 134.703 150.445 136.398C150.568 136.902 150.69 137.405 150.81 137.91C152.872 136.11 155.153 134.578 157.599 133.351L157.829 133.236Z" fill="#FFBEB6"/>
<path d="M169.937 128.214C166.112 128.719 162.373 129.74 158.823 131.248L158.347 131.459C158.607 131.849 158.862 132.241 159.119 132.631C162.936 130.973 166.987 129.918 171.128 129.503L169.937 128.214Z" fill="#FFBEB6"/>
<path d="M196.233 156.442L197.667 157.981L202.142 162.785C202.238 162.213 202.343 161.641 202.456 161.069C202.593 160.388 202.74 159.712 202.902 159.038C202.773 158.679 202.672 158.311 202.6 157.937C202.6 157.869 202.573 157.8 202.561 157.732C202.495 157.337 202.452 156.94 202.434 156.54C202.434 156.411 202.434 156.295 202.434 156.153C202.43 155.134 202.507 154.116 202.664 153.109C202.73 152.641 202.804 152.178 202.88 151.717C203.032 150.798 203.191 149.901 203.294 149.058C204.161 142.01 204.071 134.778 204.054 127.558C204.054 127.031 204.054 126.501 204.054 125.974C204.054 123.279 204.071 120.583 204.164 117.887L161.675 119.318L169.951 128.202L171.152 129.491L196.233 156.442Z" fill="#FFF6F0"/>
<path d="M215.646 148.291C213.871 150.137 211.989 151.989 209.876 153.484C210.484 153.612 211.102 153.729 211.7 153.845C212.68 153.087 213.602 152.266 214.494 151.421C220.905 145.313 226.257 137.978 235.105 135.219C236.985 134.622 238.937 134.284 240.908 134.214C241.072 133.765 241.235 133.314 241.398 132.864C239.792 132.841 238.189 133.005 236.622 133.354C227.747 135.354 221.687 142.007 215.646 148.291Z" fill="#FFBEB6"/>
<path d="M202.434 156.55C202.452 156.949 202.495 157.347 202.561 157.741C202.573 157.81 202.588 157.879 202.6 157.947C203.448 157.841 204.286 157.665 205.105 157.42C206.901 156.86 208.602 156.033 210.154 154.969C209.5 154.839 208.852 154.701 208.21 154.555C207.35 155.054 206.448 155.475 205.514 155.815C204.517 156.172 203.484 156.418 202.434 156.55Z" fill="#FFBEB6"/>
<path d="M249.273 134.437L248.003 135.452C248.913 135.777 249.81 136.143 250.699 136.518C252.694 137.351 254.817 138.174 256.959 138.554C257.039 138.105 257.076 137.65 257.066 137.194C254.525 136.704 252.001 135.535 249.694 134.604L249.273 134.437Z" fill="#FFBEB6"/>
<path d="M165.108 161.016C162.47 162.571 160.02 164.426 157.807 166.544C157.481 166.86 157.154 167.181 156.827 167.508C156.925 168.079 157.018 168.652 157.114 169.223C157.491 168.819 157.881 168.424 158.276 168.035C162.301 164.025 167.173 160.969 172.534 159.089C172.33 158.664 172.124 158.242 171.917 157.822C169.552 158.671 167.273 159.74 165.108 161.016Z" fill="#FFBEB6"/>
<path d="M191.631 157.2C193.626 157.472 195.648 157.81 197.667 157.981L196.233 156.442C194.493 156.236 192.756 155.952 191.038 155.727C185.058 154.972 178.985 155.533 173.245 157.371L173.863 158.646C179.607 156.865 185.674 156.371 191.631 157.2Z" fill="#FFBEB6"/>
<path d="M178.955 189.562L179.286 188.185C174.899 188.476 170.463 188.65 166.363 190.194C164.336 190.956 162.479 192.111 160.898 193.591C161.019 194.081 161.149 194.566 161.288 195.045C163.493 192.839 166.368 191.444 169.498 190.709C172.576 189.984 175.769 189.783 178.955 189.562Z" fill="#FFBEB6"/>
<path d="M220.515 198.199C218.839 196.343 217.113 194.534 215.337 192.773C215.205 192.646 215.03 192.575 214.847 192.575C214.664 192.575 214.488 192.646 214.357 192.773C209.417 198.539 204.826 204.595 200.608 210.908C198.682 213.795 196.775 216.741 194.983 219.756C194.041 221.339 193.135 222.942 192.268 224.564C191.163 226.64 190.136 228.75 189.214 230.897C187.807 234.174 186.69 237.58 186.17 241.117C185.607 244.937 185.781 248.792 186.332 252.606C187.067 257.657 188.268 262.654 189.545 267.632C190.307 270.607 191.096 273.572 191.824 276.533C192.787 280.454 193.751 284.375 194.716 288.296C195.788 292.66 196.86 297.024 197.932 301.386L198.841 301.141L199.28 301.023C198.206 296.656 197.133 292.29 196.062 287.924L194.101 279.903C192.207 272.192 190.111 264.502 188.491 256.728C187.685 252.858 187.111 248.917 187.232 244.964C187.347 241.114 188.212 237.367 189.562 233.764C191.278 229.191 193.591 224.817 196.125 220.589C197.27 218.68 198.454 216.802 199.642 214.952C199.858 214.617 200.074 214.282 200.292 213.947C204.728 207.087 209.607 200.524 214.898 194.299C218.195 197.593 221.312 201.061 224.238 204.688C225.464 206.205 226.654 207.75 227.809 209.325C228.007 209.058 228.204 208.791 228.404 208.526L228.677 208.161C227.605 206.715 226.507 205.29 225.383 203.887C223.808 201.938 222.185 200.042 220.515 198.199Z" fill="#1D1B20"/>
<path d="M192.334 317.924L214.969 312.238C214.871 311.785 214.775 311.33 214.68 310.873L191.582 316.676L192.334 317.924Z" fill="#1D1B20"/>
<path d="M345.471 253.917C345.887 246.255 346.719 238.622 347.963 231.051L346.605 230.757C345.327 238.523 344.478 246.354 344.062 254.213C344.532 254.118 345 254.015 345.471 253.917Z" fill="#1D1B20"/>
<path d="M211.746 40.1926C211.959 40.3133 212.21 40.3462 212.446 40.2844C212.682 40.2226 212.885 40.0709 213.011 39.8618C213.334 39.2776 213.429 38.5943 213.277 37.9442C213.126 37.294 212.738 36.7233 212.19 36.3424C212.092 36.2761 211.98 36.2328 211.863 36.2159C211.746 36.1989 211.626 36.2087 211.513 36.2444C211.303 36.2381 211.095 36.3011 210.924 36.4237C210.752 36.5463 210.625 36.7218 210.563 36.9233C210.361 37.5217 210.368 38.1711 210.583 38.765C210.798 39.3589 211.208 39.8622 211.746 40.1926Z" fill="#1D1B20"/>
<path d="M214.707 47.6453C214.92 47.766 215.171 47.799 215.407 47.7372C215.643 47.6753 215.846 47.5237 215.972 47.3145C216.294 46.7306 216.389 46.0478 216.237 45.3983C216.086 44.7487 215.699 44.1784 215.151 43.7976C215.053 43.731 214.941 43.6874 214.824 43.67C214.707 43.6526 214.587 43.6619 214.474 43.6971C214.264 43.6909 214.056 43.7538 213.885 43.8764C213.713 43.999 213.586 44.1745 213.524 44.376C213.321 44.9745 213.329 45.6238 213.544 46.2177C213.759 46.8116 214.169 47.315 214.707 47.6453Z" fill="#1D1B20"/>
<path d="M218.528 41.9742C218.74 42.0955 218.991 42.1288 219.228 42.067C219.464 42.0051 219.667 41.853 219.793 41.6434C220.119 41.0602 220.215 40.3765 220.063 39.726C219.911 39.0755 219.522 38.5051 218.972 38.1265C218.874 38.0602 218.762 38.0169 218.645 37.9999C218.528 37.983 218.408 37.9927 218.295 38.0285C218.085 38.022 217.878 38.0847 217.706 38.2068C217.534 38.3289 217.407 38.5038 217.344 38.7049C217.142 39.3033 217.149 39.9527 217.364 40.5466C217.579 41.1405 217.99 41.6438 218.528 41.9742Z" fill="#1D1B20"/>
<path d="M124.335 332.834C124.356 332.943 124.412 333.042 124.493 333.118C124.575 333.193 124.678 333.241 124.788 333.253C129.629 334.15 134.531 334.672 139.451 334.817C141.966 334.885 144.48 334.854 146.995 334.721C148.166 334.657 149.336 334.576 150.504 334.476C151.345 334.4 152.264 334.373 152.955 333.817C154.046 332.925 153.734 331.476 152.516 330.915C151.801 330.584 150.948 330.579 150.178 330.513C148.832 330.396 147.485 330.302 146.137 330.231C141.079 329.967 136.006 330.008 130.942 330.155C129.506 330.198 128.071 330.246 126.636 330.3C125.805 330.332 124.759 330.253 124.139 330.927C124.011 331.058 123.914 331.216 123.854 331.388C123.794 331.561 123.773 331.745 123.792 331.927C123.81 332.108 123.869 332.284 123.963 332.441C124.056 332.597 124.184 332.732 124.335 332.834ZM126.881 331.582L128.401 331.528C129.582 331.485 130.765 331.449 131.949 331.418C134.155 331.361 136.341 331.327 138.537 331.332C140.816 331.332 143.096 331.381 145.372 331.486C146.469 331.538 147.563 331.604 148.656 331.682C149.147 331.719 151.904 331.66 152.146 332.172C152.7 333.334 149.487 333.253 149.002 333.29C148 333.365 146.996 333.425 145.99 333.469C143.644 333.567 141.297 333.578 138.949 333.501C134.546 333.349 130.16 332.887 125.823 332.118C125.793 331.971 125.714 331.837 125.599 331.74C125.484 331.643 125.339 331.588 125.188 331.584C125.695 331.506 126.521 331.589 126.881 331.589V331.582Z" fill="#FFF6F0"/>
<path d="M155.98 334.091C155.99 334.214 156.041 334.329 156.126 334.418C156.211 334.508 156.323 334.565 156.445 334.581C158.011 334.903 160.612 335.14 161.925 334.008C163.295 332.832 161.398 331.834 160.367 331.646C159.463 331.512 158.545 331.512 157.641 331.646C156.992 331.719 156.227 331.768 155.771 332.307C155.653 332.431 155.564 332.58 155.51 332.743C155.456 332.905 155.438 333.078 155.458 333.248C155.477 333.418 155.535 333.582 155.625 333.728C155.715 333.874 155.836 333.998 155.98 334.091ZM157.825 332.94C158.129 332.905 158.435 332.876 158.742 332.864C159.117 332.849 160.457 332.746 160.722 333.082C160.862 333.263 160.756 333.165 160.477 333.261C160.114 333.368 159.741 333.438 159.364 333.469C158.712 333.543 158.053 333.534 157.404 333.442C157.377 333.335 157.327 333.236 157.257 333.151C157.187 333.066 157.099 332.998 156.999 332.952C157.323 332.952 157.685 332.954 157.83 332.94H157.825Z" fill="#FFF6F0"/>
<path d="M186.244 339.77C186.91 340.402 187.923 339.395 187.254 338.76C185.749 337.339 184.197 335.972 182.597 334.66C182.131 334.892 181.671 335.127 181.215 335.366C182.943 336.769 184.62 338.237 186.244 339.77Z" fill="#FFF6F0"/>
<path d="M189.305 337.417C189.996 338.017 191.02 337.013 190.314 336.407L186.222 332.859L184.842 333.547L189.305 337.417Z" fill="#FFF6F0"/>
<path d="M365.042 260.733C365.947 260.593 365.562 259.218 364.662 259.358C362.2 259.737 359.784 260.367 357.45 261.237L357.913 262.583C360.22 261.726 362.609 261.106 365.042 260.733Z" fill="#FFF6F0"/>
<path d="M366.544 264.475C367.424 264.21 367.049 262.833 366.167 263.097C363.725 263.83 361.333 264.721 359.006 265.764C359.16 266.215 359.317 266.666 359.472 267.114C361.768 266.079 364.131 265.197 366.544 264.475Z" fill="#FFF6F0"/>
<path d="M272.827 4.51179C274.355 5.9915 275.622 7.71918 276.574 9.62165C276.906 10.2826 277.202 10.9608 277.461 11.6533C281.767 20.3903 278.687 30.6958 273.239 38.2172C272.886 38.7074 272.518 39.1853 272.146 39.6583C270.916 41.2067 269.602 42.686 268.21 44.0893C266.627 46.0131 264.975 47.8806 263.308 49.7261L262.252 50.8951C262.223 50.9245 262.193 50.949 262.164 50.9735C262.134 50.998 262.058 51.0862 262.004 51.1377C262.108 51.1589 262.215 51.1562 262.317 51.1299C262.42 51.1035 262.515 51.0543 262.595 50.9858C269.805 44.9838 276.809 37.7516 279.596 28.6641C280.004 27.3357 280.314 25.9793 280.525 24.6057C281.125 20.6166 280.703 16.5405 279.299 12.7586C279.023 12.0063 278.705 11.2699 278.346 10.5529C276.773 7.46252 274.449 4.80588 271.376 3.03642C270.832 2.72378 270.271 2.4423 269.695 2.19336C269.881 2.30119 270.065 2.40903 270.246 2.52421C271.172 3.09682 272.037 3.76282 272.827 4.51179Z" fill="#1D1B20"/>
<path d="M244.141 12.0798C242.545 16.3735 242.999 21.0962 244.236 25.4193C246.687 33.9848 251.52 41.913 257.691 48.3512C258.3 49.0047 258.909 49.6648 259.517 50.3314C260.007 50.8657 260.541 51.6622 261.377 51.4857C261.448 51.4703 261.518 51.4482 261.585 51.4195C261.743 51.3469 261.888 51.2483 262.014 51.1279C262.068 51.0764 262.122 51.0225 262.173 50.9637C262.225 50.9049 262.232 50.9147 262.262 50.8853L263.318 49.7163C264.975 47.8806 266.626 46.0131 268.219 44.0795C268.602 43.6138 268.987 43.1457 269.359 42.6727C273.003 38.0579 276.135 33.0804 277.787 27.3652C277.793 27.3429 277.799 27.3208 277.807 27.2991C278.576 24.6264 278.934 21.8522 278.868 19.0718C278.868 18.6527 278.836 18.2361 278.804 17.8195C278.711 16.5674 278.517 15.3249 278.223 14.1041C278.022 13.2729 277.771 12.4545 277.471 11.6533C277.212 10.9608 276.916 10.2826 276.584 9.62166C275.632 7.71919 274.365 5.99152 272.837 4.5118C272.051 3.75668 271.191 3.0841 270.268 2.50462C270.087 2.38944 269.903 2.2816 269.717 2.17377C269.487 2.04143 269.256 1.91399 269.021 1.7939C268.484 1.51718 267.932 1.27169 267.367 1.05867C264.702 0.072558 261.836 -0.238962 259.022 0.151882C256.366 0.507261 253.82 1.43907 251.562 2.88204C251.103 3.17613 250.662 3.48983 250.233 3.82068C248.23 5.36364 246.563 7.29819 245.332 9.50647C245.143 9.84223 244.964 10.1804 244.797 10.526C244.555 11.0284 244.342 11.5529 244.141 12.0798ZM267.71 24.4047C266.484 25.9832 264.696 27.0266 262.719 27.3167C260.742 27.6067 258.73 27.1209 257.103 25.9609C253.726 23.5714 253.008 18.8096 255.211 15.3834C255.288 15.2639 255.388 15.1607 255.505 15.0795C255.552 14.9473 255.623 14.825 255.716 14.7193C258.411 11.6656 263.198 11.0676 266.406 13.6703C267.981 14.9353 269 16.7663 269.243 18.7721C269.487 20.7778 268.937 22.7993 267.71 24.4047Z" fill="#1B9770"/>
<path d="M112.304 223.074C115.98 222.724 120.029 222.702 123.578 221.604C126.649 220.648 128.957 218.226 128.82 214.866C128.685 211.546 126.484 208.852 123.504 207.556C117.027 204.737 109.437 207.379 104.734 212.283C99.5039 205.833 94.1049 197.314 84.7723 197.738C77.6504 198.062 72.9473 205.105 74.4791 211.707L56.5688 215.026C53.7848 215.543 50.5963 215.722 48.0132 216.945C45.8712 217.959 44.2856 220.4 45.2291 222.773C45.3623 223.111 45.6099 223.391 45.9288 223.566C46.2477 223.74 46.6176 223.797 46.9741 223.726C64.3228 225.035 81.7404 225.166 99.1069 224.118C103.508 223.844 107.908 223.496 112.304 223.074Z" fill="#FFF6F0"/>
<path d="M156.651 166.439L156.732 166.902C156.766 167.101 156.801 167.297 156.833 167.495C157.159 167.169 157.486 166.848 157.813 166.532C161.847 162.67 166.652 159.704 171.912 157.83C171.177 156.359 170.442 154.903 169.682 153.452C168.408 151.002 167.088 148.584 165.724 146.198C163.224 141.805 160.593 137.487 157.83 133.243L157.585 133.359C155.139 134.586 152.858 136.117 150.796 137.917C151.015 138.829 151.228 139.745 151.441 140.659C153.271 148.525 154.888 156.435 156.291 164.39C156.417 165.07 156.537 165.753 156.651 166.439Z" fill="#1B9770"/>
<path d="M156.832 167.495C156.8 167.297 156.766 167.101 156.732 166.902L156.651 166.439C156.535 165.753 156.417 165.067 156.298 164.383C154.898 156.429 153.281 148.519 151.448 140.652C145.1 140.838 139.194 144.674 136.93 150.455C132.832 144.644 124.548 142.235 117.725 141.9C113.598 141.699 109.53 142.897 106.886 146.218C104.851 148.771 103.879 151.938 103.173 155.099C100.195 153.803 96.6781 154.242 93.5166 154.766C88.7436 155.559 84.057 156.804 79.5203 158.486C77.3794 159.259 75.2795 160.14 73.2292 161.128C71.9033 161.78 70.6583 162.68 70.3936 164.231C69.6388 168.62 75.1824 168.939 78.0572 169.071C87.3113 169.501 96.5711 169.784 105.837 169.919C122.057 170.158 138.275 169.948 154.489 169.289H157.131C157.131 169.262 157.131 169.235 157.131 169.206C157.023 168.64 156.93 168.066 156.832 167.495Z" fill="#FFF6F0"/>
<path d="M131.499 59.7081C131.293 60.2981 131.268 60.9362 131.428 61.5402C131.588 62.1443 131.925 62.6867 132.396 63.0975C132.795 63.5699 133.32 63.9195 133.91 64.106C134.5 64.2925 135.13 64.3082 135.729 64.1514C138.116 63.4798 138.848 60.3576 137.184 58.5906C135.464 56.7647 132.342 57.3211 131.499 59.7081Z" fill="#C6929B"/>
</g>
<defs>
<clipPath id="clip0">
<rect width="400" height="371.809" fill="white"/>
</clipPath>
</defs>
</svg>
