<svg width="36" height="51" viewBox="0 0 36 51" fill="none" xmlns="http://www.w3.org/2000/svg">
<g opacity="0.2" filter="url(#filter0_f_8021_101774)">
<ellipse cx="18" cy="43" rx="7" ry="4" fill="black"/>
</g>
<mask id="path-2-outside-1_8021_101774" maskUnits="userSpaceOnUse" x="0" y="0" width="36" height="43" fill="black">
<rect fill="white" width="36" height="43"/>
<path fill-rule="evenodd" clip-rule="evenodd" d="M18.0098 2C22.2559 2 26.328 3.71527 29.3304 6.76848C32.3203 9.80899 34 13.9328 34 18.2326C34 22.5325 32.3203 26.6563 29.3304 29.6968L19.3117 39.9234C19.1363 40.1033 18.9276 40.246 18.6977 40.3434C18.4678 40.4408 18.2211 40.491 17.9721 40.491C17.723 40.491 17.4764 40.4408 17.2465 40.3434C17.0165 40.246 16.8079 40.1033 16.6325 39.9234L6.68916 29.7927C3.68674 26.7395 2 22.5985 2 18.2806C2 13.9627 3.68674 9.82169 6.68916 6.76848C9.69158 3.71527 13.7637 2 18.0098 2ZM18 21.7744C20.7614 21.7744 23 19.5358 23 16.7744C23 14.013 20.7614 11.7744 18 11.7744C15.2386 11.7744 13 14.013 13 16.7744C13 19.5358 15.2386 21.7744 18 21.7744Z"/>
</mask>
<path fill-rule="evenodd" clip-rule="evenodd" d="M18.0098 2C22.2559 2 26.328 3.71527 29.3304 6.76848C32.3203 9.80899 34 13.9328 34 18.2326C34 22.5325 32.3203 26.6563 29.3304 29.6968L19.3117 39.9234C19.1363 40.1033 18.9276 40.246 18.6977 40.3434C18.4678 40.4408 18.2211 40.491 17.9721 40.491C17.723 40.491 17.4764 40.4408 17.2465 40.3434C17.0165 40.246 16.8079 40.1033 16.6325 39.9234L6.68916 29.7927C3.68674 26.7395 2 22.5985 2 18.2806C2 13.9627 3.68674 9.82169 6.68916 6.76848C9.69158 3.71527 13.7637 2 18.0098 2ZM18 21.7744C20.7614 21.7744 23 19.5358 23 16.7744C23 14.013 20.7614 11.7744 18 11.7744C15.2386 11.7744 13 14.013 13 16.7744C13 19.5358 15.2386 21.7744 18 21.7744Z" fill="#3CDCAA"/>
<path d="M29.3304 6.76848L30.7565 5.36619L30.7565 5.36618L29.3304 6.76848ZM29.3304 29.6968L27.9044 28.2945L27.9018 28.2972L29.3304 29.6968ZM19.3117 39.9234L17.883 38.5238L17.8799 38.527L19.3117 39.9234ZM18.6977 40.3434L17.9175 38.5019L17.9175 38.5019L18.6977 40.3434ZM17.2465 40.3434L18.0267 38.5019L18.0266 38.5019L17.2465 40.3434ZM16.6325 39.9234L18.0642 38.527L18.0598 38.5225L16.6325 39.9234ZM6.68916 29.7927L8.11651 28.3918L8.11519 28.3904L6.68916 29.7927ZM6.68916 6.76848L5.26314 5.36618L6.68916 6.76848ZM30.7565 5.36618C27.3817 1.93428 22.7972 0 18.0098 0V4C21.7145 4 25.2744 5.49627 27.9044 8.17079L30.7565 5.36618ZM36 18.2326C36 13.4131 34.1176 8.78425 30.7565 5.36619L27.9044 8.17077C30.523 10.8337 32 14.4525 32 18.2326H36ZM30.7565 31.0991C34.1176 27.681 36 23.0522 36 18.2326H32C32 22.0128 30.523 25.6316 27.9044 28.2945L30.7565 31.0991ZM20.7403 41.323L30.7591 31.0964L27.9018 28.2972L17.883 38.5238L20.7403 41.323ZM19.4779 42.185C19.9539 41.9833 20.3837 41.6887 20.7434 41.3199L17.8799 38.527C17.8888 38.5178 17.9013 38.5087 17.9175 38.5019L19.4779 42.185ZM17.9721 42.491C18.4899 42.491 19.0018 42.3867 19.4779 42.1849L17.9175 38.5019C17.9337 38.495 17.9524 38.491 17.9721 38.491V42.491ZM16.4662 42.1849C16.9424 42.3867 17.4543 42.491 17.9721 42.491V38.491C17.9917 38.491 18.0104 38.495 18.0267 38.5019L16.4662 42.1849ZM15.2007 41.3199C15.5604 41.6887 15.9902 41.9833 16.4663 42.185L18.0266 38.5019C18.0428 38.5087 18.0553 38.5178 18.0642 38.527L15.2007 41.3199ZM5.26181 31.1937L15.2051 41.3244L18.0598 38.5225L8.11651 28.3918L5.26181 31.1937ZM0 18.2806C0 23.1182 1.88945 27.7643 5.26314 31.195L8.11519 28.3904C5.48404 25.7148 4 22.0788 4 18.2806H0ZM5.26314 5.36618C1.88944 8.79694 0 13.443 0 18.2806H4C4 14.4824 5.48404 10.8464 8.11519 8.17078L5.26314 5.36618ZM18.0098 0C13.2224 0 8.63795 1.93428 5.26314 5.36618L8.11518 8.17079C10.7452 5.49627 14.3051 4 18.0098 4V0ZM21 16.7744C21 18.4313 19.6569 19.7744 18 19.7744V23.7744C21.866 23.7744 25 20.6404 25 16.7744H21ZM18 13.7744C19.6569 13.7744 21 15.1176 21 16.7744H25C25 12.9084 21.866 9.77441 18 9.77441V13.7744ZM15 16.7744C15 15.1176 16.3431 13.7744 18 13.7744V9.77441C14.134 9.77441 11 12.9084 11 16.7744H15ZM18 19.7744C16.3431 19.7744 15 18.4313 15 16.7744H11C11 20.6404 14.134 23.7744 18 23.7744V19.7744Z" fill="white" mask="url(#path-2-outside-1_8021_101774)"/>
<defs>
<filter id="filter0_f_8021_101774" x="7" y="35" width="22" height="16" filterUnits="userSpaceOnUse" color-interpolation-filters="sRGB">
<feFlood flood-opacity="0" result="BackgroundImageFix"/>
<feBlend mode="normal" in="SourceGraphic" in2="BackgroundImageFix" result="shape"/>
<feGaussianBlur stdDeviation="2" result="effect1_foregroundBlur_8021_101774"/>
</filter>
</defs>
</svg>
