<svg width="211" height="208" viewBox="0 0 211 208" fill="none" xmlns="http://www.w3.org/2000/svg">
<path d="M49.9699 171.249C47.5284 168.257 44.1985 166.22 40.833 164.414C34.1516 160.832 27.7333 157.383 22.0094 152.339C21.3862 151.792 20.7768 151.23 20.1733 150.661C28.9407 164.391 40.9835 175.748 55.2288 183.722C55.1101 183.192 54.9874 182.662 54.8588 182.136C53.915 178.272 52.5241 174.376 49.9699 171.249Z" fill="#C4F4E5"/>
<path d="M160.51 169.79C157.955 172.917 156.564 176.807 155.621 180.677C155.555 180.945 155.496 181.215 155.423 181.485C166.808 174.428 176.635 165.144 184.309 154.195C179.699 157.543 174.745 160.216 169.637 162.957C166.285 164.761 162.955 166.8 160.51 169.79Z" fill="#C4F4E5"/>
<path d="M127.27 146.459C136.314 139.39 147.975 137.005 158.212 132.209C168.681 127.297 178.615 120.209 183.933 109.691C185.162 107.265 186.109 104.112 189.275 103.739C190.696 103.574 191.77 104.106 192.492 104.99C192.929 105.542 193.24 106.182 193.404 106.865C193.76 105.779 194.105 104.695 194.437 103.611C194.56 103.217 194.696 102.741 194.851 102.233C195.871 98.8293 197.698 93.5765 201.951 95.8297C200.727 42.6975 157.079 0 103.409 0C48.9703 0 4.8374 43.9324 4.8374 98.1242C4.8374 98.3979 4.8374 98.6717 4.84729 98.9455C5.03599 98.9397 5.22486 98.9437 5.41315 98.9573C5.51604 98.9573 5.611 98.9789 5.71587 98.9927C6.09801 99.0457 6.47049 99.1531 6.82186 99.3118C6.95565 98.9139 7.15198 98.5396 7.40354 98.2029C7.69074 97.824 8.05821 97.5127 8.47986 97.2911C12.7357 95.032 14.5638 100.287 15.5847 103.692C15.7391 104.206 15.8756 104.677 15.9982 105.071C16.3319 106.154 16.6762 107.239 17.031 108.326C17.1947 107.643 17.5059 107.003 17.9431 106.451C18.6653 105.567 19.7396 105.035 21.1602 105.201C24.3258 105.571 25.2795 108.726 26.5022 111.151C31.8304 121.67 41.7645 128.758 52.223 133.67C62.4598 138.474 74.1212 140.851 83.1651 147.92C91.7914 154.662 95.6515 165.177 97.3946 175.629C98.4977 182.421 99.1507 189.278 99.3493 196.156C100.691 196.211 102.038 196.244 103.393 196.244C105.96 196.244 108.501 196.148 111.017 195.955C111.175 188.656 111.841 181.377 113.009 174.17C114.792 163.716 118.652 153.2 127.27 146.459ZM167.496 116.179C164.611 120.083 158.592 120.801 154.861 117.68C151.932 115.222 151.586 110.495 154.295 107.966C156.382 104.868 160.181 103.099 163.99 104.474C168.843 106.221 170.55 112.055 167.503 116.179H167.496ZM165.102 92.4007C163.989 92.7423 162.855 93.0108 161.706 93.2043C160.86 93.35 159.973 93.4662 159.037 93.5391C158.303 93.5962 157.542 93.6317 156.75 93.6376C154.353 93.6445 151.96 93.4322 149.602 93.0034C148.555 92.8182 147.475 92.5937 146.353 92.316C142.396 91.3312 137.994 89.7556 133.097 87.3764C133.097 87.3764 137.964 83.3664 145.39 80.9557C146.23 80.6839 147.103 80.4318 148.005 80.2093C151.055 79.4393 154.199 79.1011 157.344 79.2048C158.135 79.2344 158.946 79.2915 159.763 79.388C161.018 79.534 162.263 79.7583 163.489 80.0596C164.368 80.2749 165.253 80.5375 166.146 80.8474C169.445 81.9987 172.548 83.6438 175.348 85.7259C175.348 85.7259 172.311 90.1771 165.102 92.4007ZM131.029 69.4635C158.238 51.911 180.295 70.7023 180.295 70.7023L178.589 74.9821C156.157 56.8368 131.029 73.1741 131.029 73.1741V69.4635ZM51.5245 114.369C48.6399 118.273 42.6212 118.991 38.8897 115.87C35.9595 113.412 35.6153 108.685 38.3239 106.156C40.4112 103.058 44.21 101.291 48.0186 102.664C52.8601 104.415 54.5675 110.241 51.5206 114.365L51.5245 114.369ZM65.6967 92.4007C64.5839 92.7423 63.4497 93.0108 62.3016 93.2043C61.4548 93.35 60.5684 93.4662 59.6325 93.5391C58.8985 93.5962 58.1368 93.6317 57.3454 93.6376C54.9481 93.6445 52.5552 93.4322 50.197 93.0034C49.1503 92.8182 48.0701 92.5937 46.9482 92.316C42.9912 91.3312 38.589 89.7556 33.6922 87.3764C33.6922 87.3764 38.5593 83.3664 45.9847 80.9557C46.8256 80.6839 47.6981 80.4318 48.6003 80.2093C51.6503 79.4393 54.7941 79.1011 57.9389 79.2048C58.7303 79.2344 59.5415 79.2915 60.3586 79.388C61.6134 79.5339 62.8577 79.7582 64.0842 80.0596C64.9627 80.2749 65.8484 80.5375 66.7414 80.8474C70.0443 81.9989 73.1514 83.6453 75.9553 85.7299C75.9553 85.7299 72.9064 90.1771 65.6967 92.4007ZM79.4573 72.2878C79.4573 72.2878 54.3301 55.9505 31.8897 74.0958L30.1822 69.8161C30.1822 69.8161 52.2487 51.0247 79.4573 68.5772V72.2878ZM111.43 124.884C111.42 125.118 111.348 125.345 111.22 125.542C110.967 126.133 110.293 126.588 109.681 126.724C109.283 126.819 108.867 126.807 108.476 126.688C108.084 126.569 107.732 126.348 107.455 126.048C107.186 125.753 106.994 125.397 106.898 125.01C106.802 124.623 106.804 124.218 106.903 123.832C107.163 122.895 108.023 122.336 108.961 122.277C109.284 122.261 109.607 122.315 109.907 122.436C110.207 122.557 110.477 122.742 110.698 122.978C110.854 123.155 110.983 123.354 111.082 123.569C111.226 123.754 111.333 123.964 111.399 124.189C111.472 124.414 111.483 124.655 111.43 124.886V124.884ZM110.659 107.812C109.335 109.158 107.032 109.362 105.633 107.993C105.318 107.679 105.078 107.297 104.933 106.877C104.81 106.528 104.796 105.161 104.484 104.955C103.482 104.287 102.406 106.971 102.171 107.45C101.286 109.252 99.9943 110.964 97.7764 110.952C95.7979 110.942 94.0172 109.516 93.2357 107.763C92.1218 105.268 92.8578 102.41 93.398 99.8692C94.7027 93.7735 96.381 87.7631 98.4234 81.8716C98.9774 80.2644 101.551 80.9597 100.995 82.5767C99.4681 86.9983 98.1306 91.479 97.0147 96.0187C96.4686 98.2423 93.0834 108.383 97.7784 108.273C99.5393 108.23 100.172 105.134 101.096 103.962C101.927 102.906 103.075 102.225 104.46 102.286C105.109 102.299 105.735 102.525 106.243 102.927C106.75 103.33 107.11 103.888 107.267 104.515C107.366 104.862 107.315 105.959 107.576 106.158C108.17 106.621 108.872 105.868 109.115 105.417C109.709 104.318 109.22 102.825 108.943 101.703C108.536 100.042 111.108 99.3394 111.515 100.998C112.073 103.276 112.483 105.959 110.651 107.814L110.659 107.812Z" fill="#C4F4E5"/>
<path d="M108.943 101.705C109.22 102.827 109.705 104.32 109.116 105.419C108.872 105.87 108.178 106.622 107.576 106.16C107.315 105.963 107.367 104.864 107.268 104.517C107.111 103.89 106.75 103.332 106.243 102.929C105.736 102.526 105.109 102.301 104.46 102.288C103.075 102.226 101.926 102.908 101.097 103.964C100.173 105.135 99.5396 108.232 97.7787 108.275C93.0837 108.385 96.4689 98.244 97.015 96.0204C98.1309 91.4905 99.4684 87 100.996 82.5784C101.554 80.9614 98.9797 80.2662 98.4237 81.8733C96.3813 87.7648 94.703 93.7752 93.3982 99.8709C92.8581 102.412 92.1221 105.269 93.236 107.765C94.0274 109.518 95.7903 110.944 97.7767 110.953C99.9887 110.965 101.287 109.254 102.171 107.452C102.406 106.973 103.483 104.289 104.484 104.956C104.797 105.153 104.81 106.532 104.933 106.878C105.078 107.299 105.318 107.681 105.633 107.995C107.032 109.374 109.335 109.159 110.659 107.814C112.483 105.959 112.074 103.284 111.514 100.999C111.108 99.3411 108.536 100.044 108.943 101.705Z" fill="#1D1B20"/>
<path d="M164 104.474C160.189 103.095 156.39 104.867 154.305 107.966C151.597 110.494 151.943 115.221 154.871 117.679C158.593 120.801 164.621 120.082 167.506 116.179C170.551 112.054 168.843 106.221 164 104.474Z" fill="#F9AF42"/>
<path d="M48.0171 102.66C44.2065 101.281 40.4078 103.054 38.3224 106.152C35.6138 108.681 35.9581 113.408 38.8883 115.866C42.6098 118.988 48.6384 118.269 51.5231 114.365C54.568 110.241 52.8605 104.415 48.0171 102.66Z" fill="#F9AF42"/>
<path d="M178.595 74.9817L180.301 70.7019C180.301 70.7019 158.234 51.9106 131.036 69.4631V73.1737C131.036 73.1737 156.157 56.8364 178.595 74.9817Z" fill="#1D1B20"/>
<path d="M30.1826 69.8177L31.8901 74.0975C54.3344 55.9521 79.4577 72.2894 79.4577 72.2894V68.5788C52.2491 51.0263 30.1826 69.8177 30.1826 69.8177Z" fill="#1D1B20"/>
<path d="M111.082 123.56C110.984 123.346 110.854 123.147 110.699 122.969C110.478 122.734 110.208 122.549 109.908 122.428C109.608 122.307 109.285 122.252 108.961 122.268C108.024 122.327 107.163 122.887 106.904 123.824C106.804 124.21 106.802 124.615 106.899 125.002C106.995 125.388 107.186 125.745 107.456 126.04C107.733 126.34 108.085 126.561 108.476 126.68C108.868 126.798 109.284 126.811 109.682 126.716C110.293 126.589 110.968 126.125 111.221 125.534C111.441 125.115 111.504 124.632 111.399 124.171C111.333 123.95 111.225 123.742 111.082 123.56Z" fill="#1D1B20"/>
<path d="M210.439 112.949C210.427 112.671 210.335 112.403 210.175 112.175C210.014 111.947 209.792 111.77 209.533 111.665C209.432 111.617 209.335 111.582 209.234 111.543C205.814 121.889 200.335 131.443 193.123 139.634C192.368 140.491 191.115 139.24 191.867 138.383C199.13 130.125 204.587 120.453 207.893 109.983C207.929 109.835 207.968 109.687 208.002 109.538C208.712 106.359 211.132 97.0448 205.034 97.4939C204.933 97.5006 204.832 97.5124 204.731 97.5293C203.325 108.971 199.261 119.929 192.86 129.534C191.681 131.303 190.428 133.024 189.101 134.698C188.389 135.589 187.138 134.328 187.845 133.448C189.075 131.905 190.238 130.317 191.333 128.683C197.735 119.113 201.751 108.16 203.048 96.7336C202.76 96.3548 202.393 96.0435 201.971 95.8218C197.717 93.5686 195.891 98.8214 194.87 102.225C193.011 112.886 188.502 122.914 181.755 131.397C181.045 132.288 179.794 131.029 180.498 130.147C181.376 129.046 182.212 127.918 183.007 126.761C183.187 126.499 183.365 126.236 183.541 125.973C187.794 119.587 190.836 112.479 192.516 105.002C191.794 104.117 190.719 103.586 189.299 103.751C186.133 104.123 185.18 107.277 183.957 109.703C178.629 120.22 168.695 127.309 158.236 132.221C147.999 137.024 136.338 139.402 127.294 146.47C118.668 153.212 114.808 163.727 113.065 174.18C111.897 181.387 111.231 188.666 111.072 195.965C110.975 199.652 110.975 203.335 111.072 207.016H152.457C152.718 198.468 153.504 189.79 155.444 181.496C155.508 181.227 155.567 180.957 155.642 180.689C156.586 176.819 157.977 172.929 160.531 169.801C162.973 166.812 166.303 164.773 169.67 162.969C174.779 160.228 179.733 157.565 184.343 154.207C185.759 153.175 187.146 152.08 188.498 150.894C199.472 141.225 207.309 128.087 210.477 113.839C210.539 113.544 210.527 113.238 210.439 112.949Z" fill="#76E6C3"/>
<path d="M193.428 106.865C193.264 106.181 192.953 105.542 192.516 104.99C190.836 112.467 187.795 119.575 183.542 125.961C183.365 126.224 183.187 126.487 183.008 126.749C182.216 127.903 181.38 129.032 180.499 130.135C179.794 131.017 181.045 132.276 181.755 131.385C188.502 122.906 193.012 112.882 194.875 102.225C194.72 102.739 194.584 103.209 194.461 103.603C194.128 104.692 193.783 105.779 193.428 106.865Z" fill="#1D1B20"/>
<path d="M191.343 128.683C190.249 130.315 189.087 131.903 187.855 133.448C187.148 134.328 188.399 135.588 189.111 134.698C190.445 133.028 191.698 131.307 192.87 129.534C199.271 119.929 203.336 108.971 204.741 97.5291C204.359 97.5812 203.986 97.6887 203.635 97.8482C203.5 97.4479 203.302 97.0716 203.048 96.7334C201.754 108.158 197.742 119.112 191.343 128.683Z" fill="#1D1B20"/>
<path d="M191.868 138.383C191.116 139.234 192.368 140.49 193.124 139.634C200.335 131.442 205.815 121.888 209.235 111.542C208.716 111.325 208.155 111.228 207.593 111.261C207.704 110.837 207.803 110.41 207.903 109.982C204.598 120.453 199.14 130.125 191.878 138.383H191.868Z" fill="#1D1B20"/>
<path d="M83.2052 147.917C74.1614 140.849 62.5 138.464 52.2631 133.668C41.7947 128.756 31.8606 121.667 26.5423 111.148C25.3137 108.724 24.366 105.568 21.2003 105.198C19.7797 105.033 18.7054 105.565 17.9832 106.449C19.6649 113.926 22.7065 121.033 26.9578 127.42C27.1332 127.683 27.312 127.946 27.494 128.208C28.2854 129.362 29.121 130.491 30.0008 131.594C30.7051 132.476 29.4547 133.737 28.7444 132.845C21.9997 124.368 17.4899 114.348 15.6249 103.695C14.6039 100.29 12.7758 95.0295 8.51998 97.2944C8.09833 97.5161 7.73086 97.8274 7.44366 98.2063C8.73965 109.63 12.7551 120.581 19.1565 130.15C20.2526 131.784 21.4153 133.372 22.6446 134.914C23.351 135.797 22.1005 137.057 21.3883 136.165C20.0548 134.495 18.8017 132.774 17.6291 131.001C11.2288 121.395 7.16439 110.437 5.75796 98.9961C5.65904 98.9823 5.56011 98.9685 5.45525 98.9607C5.26696 98.9471 5.07809 98.9431 4.8894 98.9488C-0.484265 99.1103 1.8029 107.93 2.48945 111.004C2.52308 111.154 2.56463 111.302 2.59827 111.451C5.90765 121.922 11.3686 131.593 18.6342 139.85C19.386 140.703 18.1336 141.96 17.3778 141.101C10.1668 132.91 4.68747 123.357 1.26673 113.011C1.1678 113.051 1.06887 113.086 0.967967 113.133C0.709883 113.24 0.487546 113.417 0.327043 113.644C0.166541 113.872 0.0745275 114.14 0.0618015 114.418C-0.0156195 114.705 -0.0203732 115.007 0.0479564 115.296C3.03552 128.734 10.18 141.185 20.1913 150.671C20.7848 151.24 21.4041 151.801 22.0273 152.349C27.7512 157.393 34.1695 160.841 40.851 164.424C44.2145 166.23 47.5463 168.267 49.9878 171.258C52.5421 174.386 53.933 178.276 54.8767 182.146C55.0053 182.672 55.128 183.202 55.2467 183.731C56.9502 191.316 57.708 199.208 58.0008 207.013H99.4508C99.522 203.402 99.5016 199.786 99.3895 196.163C99.1908 189.286 98.5378 182.429 97.4347 175.637C95.6916 165.174 91.8315 154.659 83.2052 147.917Z" fill="#76E6C3"/>
<path d="M29.9848 131.594C29.109 130.494 28.2734 129.365 27.478 128.209C27.296 127.946 27.1173 127.683 26.9418 127.421C22.6905 121.034 19.6489 113.926 17.9673 106.449C17.5301 107.001 17.2189 107.641 17.0552 108.324C16.7004 107.24 16.3561 106.154 16.0224 105.069C15.8997 104.675 15.7632 104.2 15.6089 103.69C17.474 114.343 21.9838 124.363 28.7284 132.839C29.4387 133.737 30.6892 132.477 29.9848 131.594Z" fill="#1D1B20"/>
<path d="M21.372 136.156C22.0843 137.048 23.3347 135.787 22.6284 134.905C21.3978 133.365 20.235 131.777 19.1403 130.141C12.7389 120.572 8.72341 109.621 7.42742 98.1968C7.17586 98.5335 6.97953 98.9077 6.84574 99.3056C6.49437 99.147 6.12189 99.0395 5.73975 98.9866C7.14618 110.428 11.2106 121.386 17.6109 130.991C18.7861 132.763 20.0398 134.484 21.372 136.156Z" fill="#1D1B20"/>
<path d="M17.3601 141.092C18.1159 141.95 19.3683 140.698 18.6165 139.841C11.3509 131.584 5.88996 121.913 2.58057 111.442C2.68147 111.87 2.77842 112.295 2.8912 112.721C2.32932 112.687 1.76728 112.784 1.24902 113.002C4.66977 123.347 10.1491 132.901 17.3601 141.092Z" fill="#1D1B20"/>
<path d="M166.57 89.779C166.198 90.7137 165.704 91.5957 165.102 92.4025C172.311 90.1769 175.356 85.7257 175.356 85.7257C172.552 83.6411 169.445 81.9947 166.142 80.8433C167.45 83.6242 167.701 86.9035 166.57 89.779Z" fill="white"/>
<path d="M145.386 80.9575C137.96 83.3682 133.093 87.3782 133.093 87.3782C137.994 89.7574 142.392 91.3389 146.349 92.3178C145.87 91.6578 145.468 90.9455 145.15 90.1946C143.89 87.199 144.074 83.837 145.386 80.9575Z" fill="white"/>
<path d="M166.143 80.843C165.25 80.5371 164.364 80.2745 163.485 80.0552C162.259 79.7539 161.015 79.5296 159.76 79.3836C158.943 79.2871 158.136 79.2299 157.34 79.2004C154.195 79.0967 151.052 79.4349 148.002 80.2049C147.099 80.4274 146.221 80.6795 145.386 80.9513C144.074 83.8308 143.896 87.1928 145.154 90.1884C145.472 90.9393 145.874 91.6516 146.353 92.3116C147.475 92.5893 148.556 92.8138 149.602 92.999C151.96 93.4278 154.353 93.6401 156.751 93.6332C157.542 93.6332 158.304 93.5918 159.038 93.5347C159.974 93.4618 160.86 93.3377 161.707 93.1999C162.855 93.0064 163.989 92.7379 165.102 92.3963C165.704 91.5895 166.198 90.7075 166.57 89.7729C167.702 86.9033 167.45 83.624 166.143 80.843Z" fill="#1D1B20"/>
<path d="M67.1648 89.7786C66.7928 90.7125 66.2992 91.5939 65.6968 92.4C72.9065 90.1744 75.9515 85.7233 75.9515 85.7233C73.1475 83.6387 70.0404 81.9923 66.7375 80.8408C68.0453 83.6238 68.2966 86.903 67.1648 89.7786Z" fill="white"/>
<path d="M45.9806 80.9575C38.5552 83.3682 33.686 87.3782 33.686 87.3782C38.5868 89.7574 42.997 91.3389 46.9421 92.3178C46.4675 91.6568 46.0692 90.9445 45.755 90.1946C44.4907 87.199 44.6708 83.837 45.9806 80.9575Z" fill="white"/>
<path d="M66.7376 80.843C65.8459 80.5371 64.9602 80.2745 64.0804 80.0552C62.854 79.7538 61.6097 79.5294 60.3549 79.3836C59.5378 79.2871 58.7305 79.2299 57.9352 79.2004C54.7903 79.0967 51.6465 79.4349 48.5965 80.2049C47.6943 80.4274 46.8159 80.6795 45.981 80.9513C44.6712 83.8308 44.4911 87.1928 45.7495 90.1884C46.0651 90.9407 46.4654 91.6549 46.9425 92.3175C48.0643 92.5952 49.1446 92.8197 50.1912 93.0049C52.5495 93.4337 54.9423 93.646 57.3396 93.6391C58.131 93.6391 58.8928 93.5977 59.6268 93.5406C60.5626 93.4677 61.449 93.3436 62.2958 93.2058C63.446 93.0119 64.5822 92.7428 65.6969 92.4002C66.2995 91.5935 66.793 90.7115 67.165 89.7768C68.2967 86.9033 68.0454 83.624 66.7376 80.843Z" fill="#1D1B20"/>
</svg>
