<svg width="270" height="320" viewBox="0 0 270 320" fill="none" xmlns="http://www.w3.org/2000/svg">
<g clip-path="url(#clip0)">
<path d="M72.1573 62.759C72.3186 62.476 72.4799 62.1931 72.6412 61.9101C68.2258 56.756 62.3791 51.2178 55.3025 52.572C53.6089 52.8954 52.0162 53.7646 51.0283 55.1996C49.8387 56.9177 49.7984 59.0804 50.0807 61.0814C50.6855 65.4472 52.1976 69.7524 54.0323 73.7545C55.867 77.7767 58.2258 81.516 60.9879 84.952C63.4476 79.9798 67.3589 72.1375 71.9355 63.3047C71.9758 63.1228 72.0565 62.9409 72.1573 62.759Z" fill="#763E47"/>
<path d="M107.561 124.002C107.399 124.002 107.238 123.982 107.077 123.982C107.036 124.042 106.976 124.103 106.936 124.164C107.339 124.143 107.742 124.103 108.125 124.022C107.964 124.022 107.802 124.022 107.641 124.022C107.621 124.002 107.601 124.002 107.561 124.002Z" fill="#F9F2F1"/>
<path d="M184.516 66.6196C186.23 63.4665 187.923 60.2932 189.576 57.1198C190.826 54.7348 192.258 52.3498 193.326 49.8434C191.875 49.8839 190.423 49.9041 188.992 49.9243C181.593 50.0051 173.911 49.4998 166.673 51.3189C163.427 52.1274 160.282 53.4614 157.701 55.6241C155.242 57.6656 153.306 60.1921 151.714 62.941C148.266 68.8429 146.169 75.4321 143.427 81.6575C140.262 88.8328 136.532 95.7454 132.258 102.314C131.976 102.739 131.693 103.183 131.411 103.608C131.371 103.669 131.331 103.749 131.27 103.81C131.028 104.194 130.766 104.558 130.524 104.922C130.504 104.962 130.464 105.003 130.443 105.023C130.161 105.427 129.879 105.831 129.597 106.236C129.597 106.236 129.597 106.256 129.576 106.256C129.274 106.68 128.972 107.125 128.669 107.549C127.782 109.146 126.814 110.702 125.746 112.198C123.548 115.27 121.008 118.1 118.145 120.586C115.282 123.072 111.996 125.579 108.145 126.124C104.617 126.63 101.169 125.114 98.9112 122.385C98.8305 122.284 98.7499 122.183 98.6692 122.082C98.5079 121.92 98.3668 121.759 98.2257 121.577C98.2257 121.556 98.2055 121.556 98.2055 121.536C98.0644 121.374 97.9233 121.193 97.7821 121.011C95.9475 118.545 95.1007 115.291 95.4837 112.259C95.9676 108.499 97.762 105.144 99.7579 101.991C101.794 98.7772 103.81 95.6039 105.484 92.188C107.117 88.8328 108.508 85.3765 109.778 81.8798C110.826 79.0097 111.794 76.1193 112.762 73.2088C111.27 70.5003 110.06 67.6302 109.214 64.659C108.266 61.3442 107.923 57.7464 109.093 54.4518C109.173 54.2093 109.254 53.9465 109.335 53.704C110.423 50.7732 112.48 48.2265 115.121 46.5488C115.181 46.5084 115.262 46.468 115.322 46.4276C115.665 46.1648 116.008 45.9223 116.351 45.6999C119.093 43.9415 122.339 43.1936 125.443 43.5372C125.786 42.9915 126.149 42.466 126.532 41.9405C130.343 36.5034 135.081 31.612 140.907 28.3376C146.048 25.4473 151.734 24.0931 157.52 23.5069C153.004 21.2633 148.488 19.0198 143.972 16.7762C141.996 15.7858 140.02 14.7752 138.024 13.805C133.891 11.804 129.657 9.98492 125.141 9.07537C124.96 9.03495 124.778 9.01474 124.597 8.97431C124.536 8.9541 124.476 8.9541 124.395 8.93389C124.274 8.91368 124.153 8.89346 124.032 8.87325C123.951 8.85304 123.871 8.85304 123.81 8.83283C123.71 8.81261 123.609 8.7924 123.488 8.7924C123.407 8.77219 123.326 8.77219 123.226 8.75198C123.125 8.73177 123.024 8.73177 122.923 8.71155C122.843 8.69134 122.742 8.69134 122.661 8.69134C122.56 8.69134 122.48 8.67113 122.379 8.67113C122.278 8.67113 122.197 8.65092 122.097 8.65092C122.016 8.65092 121.915 8.6307 121.835 8.6307C121.734 8.6307 121.633 8.61049 121.532 8.61049C121.451 8.61049 121.371 8.61049 121.27 8.59028C121.169 8.59028 121.068 8.59028 120.968 8.57007C120.887 8.57007 120.806 8.57007 120.726 8.57007C120.625 8.57007 120.524 8.57007 120.423 8.57007C120.343 8.57007 120.262 8.57007 120.181 8.57007C120.081 8.57007 119.96 8.57007 119.859 8.57007C119.778 8.57007 119.718 8.57007 119.637 8.57007C119.536 8.57007 119.415 8.57007 119.314 8.59028C119.234 8.59028 119.173 8.59028 119.093 8.59028C118.972 8.59028 118.871 8.61049 118.75 8.61049C118.689 8.61049 118.609 8.61049 118.548 8.6307C118.427 8.6307 118.306 8.65092 118.206 8.65092C118.145 8.65092 118.085 8.67113 118.024 8.67113C117.903 8.69134 117.782 8.69134 117.661 8.71155C117.601 8.71155 117.54 8.73177 117.48 8.73177C117.359 8.75198 117.238 8.77219 117.117 8.77219C117.056 8.77219 117.016 8.7924 116.956 8.7924C116.835 8.81261 116.693 8.83283 116.572 8.85304C116.532 8.85304 116.472 8.87325 116.431 8.87325C116.29 8.89346 116.169 8.91368 116.028 8.9541C115.988 8.9541 115.947 8.97431 115.907 8.97431C115.766 8.99453 115.625 9.03495 115.484 9.05516C115.443 9.05516 115.423 9.07537 115.383 9.07537C115.242 9.1158 115.101 9.13601 114.939 9.17644C114.919 9.17644 114.899 9.19665 114.879 9.19665C114.718 9.23707 114.576 9.2775 114.415 9.31792H114.395C112.359 9.90407 110.423 10.854 108.669 12.1881C106.774 13.9061 105.081 15.8869 103.589 17.9485C100.645 22.0112 98.2055 26.4579 95.6854 30.8035C98.2055 36.948 100.121 43.3149 101.411 49.8232C101.451 50.0456 101.492 50.2679 101.552 50.4902C101.895 52.2083 102.258 54.0274 102.48 55.8667C102.52 56.1092 102.56 56.3518 102.581 56.5943C102.782 58.1102 102.923 59.6059 102.984 61.1219C102.984 61.1825 103.004 61.2431 103.004 61.3038C103.488 67.2057 103.407 75.2502 98.5079 79.4948C96.4515 81.2937 93.6491 82.3043 90.9273 81.7788C88.3265 81.2734 86.391 79.232 85.3225 76.8874C84.1531 74.28 83.8104 71.4503 83.4676 68.6408C83.266 67.0643 83.0644 65.4675 82.8628 63.8909C82.4596 62.3144 82.2176 60.657 81.9958 59.1208C81.9757 58.9187 81.9354 58.7368 81.9152 58.5347C81.7539 57.4634 81.5725 56.372 81.4112 55.3007C79.5966 58.3932 77.8023 61.4857 75.9878 64.5781C75.9676 64.6186 75.9475 64.6792 75.9273 64.7196C75.9071 64.7803 75.8668 64.8409 75.8467 64.9218C75.8265 64.942 75.8265 64.9622 75.8063 64.9824C75.5241 65.5079 75.262 66.0536 74.9797 66.5792C74.1531 68.1759 73.3265 69.7929 72.52 71.3897C70.9475 74.4619 69.3749 77.5342 67.7821 80.6267C65.2821 85.4978 62.7821 90.3892 60.2821 95.2603C60.7055 97.5847 60.5039 100.03 59.6571 102.173C58.3467 105.447 55.8467 107.994 52.8628 109.752C50.5644 114.219 48.2862 118.686 45.9878 123.153C44.0523 126.933 42.1168 130.713 40.1612 134.512C40.4031 136.109 40.262 137.746 39.6773 139.262C38.8104 141.506 37.1168 143.305 35.0805 144.437C29.8789 154.603 24.6571 164.75 19.4555 174.917C17.5805 178.555 14.9797 182.577 14.8991 186.822C14.8184 190.743 17.762 192.966 20.8467 194.765C22.4192 195.695 24.012 196.604 25.6047 197.494C27.3588 194.32 29.4555 191.349 31.895 188.661C34.3346 185.973 37.137 183.365 40.2418 181.486C43.3063 179.646 47.4192 179.323 49.6168 182.638C51.0886 184.881 50.9676 187.57 50.3426 190.116C50.3426 190.318 50.3225 190.5 50.3023 190.702C50.3023 190.783 50.2821 190.844 50.2821 190.925C50.262 191.046 50.262 191.167 50.2418 191.289C50.2217 191.369 50.2217 191.45 50.2015 191.531C50.1813 191.632 50.1612 191.753 50.141 191.855C50.1208 191.935 50.1007 192.016 50.0805 192.117C50.0604 192.218 50.0402 192.319 50.02 192.42C49.9999 192.501 49.9797 192.602 49.9596 192.683C49.9394 192.784 49.8991 192.885 49.8789 192.986C49.8588 193.067 49.8386 193.168 49.7983 193.249C49.7781 193.35 49.7378 193.451 49.6975 193.552C49.6773 193.633 49.637 193.734 49.6168 193.815C49.5765 193.916 49.5563 194.017 49.516 194.118C49.4757 194.199 49.4555 194.28 49.4152 194.381C49.3749 194.482 49.3346 194.583 49.2942 194.664C49.2539 194.745 49.2338 194.826 49.1934 194.907C49.1531 195.008 49.1128 195.109 49.0725 195.19C49.0321 195.27 49.012 195.351 48.9717 195.432C48.9313 195.533 48.891 195.634 48.8507 195.715C48.8104 195.796 48.77 195.877 48.7499 195.958C48.7096 196.059 48.6491 196.16 48.6088 196.261C48.5684 196.342 48.5281 196.422 48.4878 196.503C48.4475 196.604 48.387 196.705 48.3467 196.807C48.3063 196.887 48.266 196.948 48.2458 197.029C48.1854 197.13 48.145 197.231 48.0846 197.352C48.0442 197.413 48.0241 197.494 47.9838 197.554C47.9233 197.676 47.8628 197.797 47.8023 197.898C47.7821 197.959 47.7418 197.999 47.7217 198.06C47.641 198.221 47.5402 198.403 47.4596 198.565C45.9676 201.354 44.6571 204.204 43.7096 207.236C43.6692 207.357 43.6491 207.458 43.6088 207.58C44.4152 208.024 45.2015 208.469 46.0079 208.934C54.4354 213.684 62.8628 218.434 71.2902 223.183C75.4837 225.548 79.6773 227.933 83.8708 230.278C84.6571 230.723 85.4837 231.167 86.3104 231.592C86.5926 231.41 86.9354 231.289 87.3386 231.268C95.7055 230.864 99.9394 221.607 103.447 215.28C111.734 200.263 120.02 185.265 128.306 170.248C136.552 155.291 144.818 140.354 153.064 125.397C153.226 125.114 153.427 124.891 153.629 124.73C151.653 112.703 156.351 100.212 166.048 92.5721C167.863 91.137 169.818 89.9041 171.875 88.8732C172.56 87.7211 173.246 86.569 173.911 85.3967C177.56 79.1916 181.089 72.9258 184.516 66.6196ZM112.137 19.1815C112.258 18.5145 112.52 17.8677 112.923 17.2815C113.085 17.0592 113.266 16.8773 113.468 16.7156C114.355 15.705 115.585 15.0178 116.976 14.8763C120.504 14.5529 123.669 18.1102 122.863 21.5867C122.097 24.8611 118.226 26.8217 115.161 25.4069C114.133 24.9218 113.306 24.1133 112.782 23.1229C112.56 22.8803 112.379 22.5974 112.258 22.274C111.895 21.2633 111.875 20.1921 112.137 19.1815ZM37.016 174.432C35.4636 176.251 32.6209 176.837 30.5846 175.462C29.9797 175.038 29.4555 174.492 29.0523 173.886C29.0321 173.845 29.012 173.805 28.9918 173.785C28.9918 173.765 28.9717 173.765 28.9717 173.744C28.9515 173.724 28.9515 173.704 28.9313 173.684C28.2055 172.41 27.9636 170.874 28.4676 169.459C28.5886 169.096 28.8305 168.772 29.1128 168.55C29.4959 167.923 30.02 167.357 30.6652 166.933C32.6612 165.599 35.4031 166.165 36.9757 167.903C38.6894 169.783 38.6692 172.491 37.016 174.432ZM91.6531 136.049C93.6491 138.252 93.6289 141.405 91.7136 143.628C89.8991 145.73 86.6329 146.417 84.2741 144.821C83.5684 144.336 82.9636 143.709 82.4999 142.981C82.4797 142.941 82.4394 142.901 82.4192 142.86C82.4192 142.84 82.3991 142.82 82.3991 142.82C82.3789 142.799 82.3789 142.779 82.3587 142.759C82.3587 142.759 82.3587 142.759 82.3587 142.739C81.512 141.284 81.2297 139.485 81.8144 137.847C81.9555 137.423 82.2176 137.059 82.5604 136.796C83.0039 136.069 83.6087 135.422 84.3547 134.917C86.6733 133.381 89.8386 134.048 91.6531 136.049ZM108.851 192.865C105.847 196.463 101.431 198.706 96.6934 198.504C96.2499 198.484 95.8063 198.444 95.3628 198.403C94.6168 199.798 93.8708 201.172 93.0846 202.547C92.4596 203.658 91.8144 204.79 91.1692 205.902C90.6652 206.771 90.1813 207.721 89.4354 208.408C88.4878 209.257 86.9555 209.48 85.9676 208.752C85.887 208.712 85.8063 208.671 85.7257 208.651C84.9999 208.348 84.2741 208.024 83.5684 207.701C80.262 206.225 77.016 204.649 73.8104 202.951C70.2015 201.051 66.6531 199.01 63.1854 196.847C61.4515 195.755 59.7378 194.644 58.0442 193.512C57.3587 193.047 56.6128 192.602 55.9071 192.077C55.3023 191.632 54.7378 191.167 54.2741 190.622C54.1329 190.44 53.9918 190.258 53.8708 190.076C52.8426 188.479 53.3467 186.741 54.0725 185.124C54.9394 183.163 55.8668 181.223 56.8346 179.303C57.6612 177.645 58.5483 176.008 59.4354 174.391C59.3144 174.27 59.1934 174.149 59.0725 174.048C57.5805 173.441 56.1491 172.653 54.8386 171.683C47.9031 166.488 44.4757 157.352 44.9797 148.843C45.6047 137.949 51.1692 128.226 56.8749 119.232C59.8588 114.523 63.0039 109.914 66.27 105.427C67.9434 103.143 69.637 100.879 71.3708 98.6357C72.9636 96.5741 74.4958 94.472 76.6733 92.9965C78.6491 91.6423 81.3305 91.0562 83.4475 92.4912C85.4636 93.8859 86.1087 96.3316 86.0684 98.6762C85.9878 103.79 84.2539 108.802 82.2983 113.472C78.6894 122.062 73.6894 130.733 74.7781 140.414C75.2217 144.315 76.9555 148.034 80.0805 150.5C83.145 152.906 87.016 153.957 90.7257 154.866C98.8104 156.867 107.843 158.646 112.036 166.812C116.25 175.018 114.718 185.872 108.851 192.865ZM146.552 122.284C146.552 122.345 146.552 122.426 146.552 122.486C146.552 122.628 146.532 122.749 146.532 122.89C146.532 122.971 146.512 123.052 146.512 123.133C146.492 123.254 146.492 123.376 146.472 123.497C146.451 123.578 146.451 123.658 146.431 123.739C146.411 123.861 146.391 123.962 146.371 124.083C146.351 124.164 146.331 124.245 146.331 124.325C146.31 124.447 146.27 124.568 146.25 124.689C146.21 124.811 146.189 124.932 146.149 125.073C146.109 125.195 146.068 125.316 146.028 125.457C145.988 125.558 145.947 125.659 145.927 125.781C145.907 125.862 145.867 125.942 145.847 126.003C145.806 126.124 145.766 126.225 145.706 126.347C145.685 126.407 145.645 126.488 145.625 126.549C145.564 126.67 145.524 126.791 145.464 126.913C145.443 126.973 145.423 127.014 145.383 127.074C145.322 127.196 145.262 127.337 145.201 127.458C145.201 127.479 145.181 127.499 145.181 127.499C144.859 128.125 144.476 128.752 144.052 129.338C144.052 129.338 144.052 129.338 144.052 129.358C143.951 129.5 143.831 129.662 143.73 129.803C143.851 130.126 143.81 130.47 143.447 130.773C142.782 131.319 142.117 131.844 141.431 132.37C141.431 132.37 141.431 132.37 141.411 132.39C140.605 133.158 139.738 133.886 138.831 134.533C138.81 134.553 138.79 134.553 138.77 134.573C138.629 134.674 138.508 134.755 138.367 134.856C138.326 134.876 138.306 134.896 138.266 134.917C138.145 134.998 138.004 135.099 137.883 135.179C137.863 135.2 137.822 135.22 137.802 135.24C137.419 135.503 137.036 135.745 136.653 135.968C136.593 136.008 136.512 136.049 136.451 136.089C136.371 136.15 136.27 136.19 136.189 136.251C136.109 136.291 136.008 136.352 135.927 136.392C135.847 136.433 135.766 136.473 135.685 136.534C135.585 136.594 135.484 136.635 135.403 136.695C135.322 136.736 135.262 136.776 135.181 136.817C135.081 136.877 134.96 136.938 134.859 136.978C134.798 136.999 134.738 137.039 134.677 137.059C134.516 137.14 134.335 137.221 134.173 137.302C133.851 137.463 133.508 137.605 133.185 137.746C133.145 137.767 133.105 137.787 133.044 137.807C132.742 137.928 132.439 138.05 132.137 138.171C132.117 138.171 132.097 138.191 132.076 138.191C131.411 138.454 130.726 138.676 130.04 138.878C125.786 140.495 121.129 141.263 116.572 140.738C113.064 140.334 107.964 139.283 106.472 135.563C105.766 133.785 106.31 131.925 107.54 130.531C108.992 128.893 111.21 128.307 113.246 127.802C117.379 126.791 121.512 125.801 125.665 124.79C128.105 122.971 129.435 120.283 131.189 117.858C131.189 117.837 131.21 117.837 131.21 117.817C131.31 117.676 131.431 117.534 131.532 117.393C131.552 117.352 131.572 117.332 131.613 117.292C131.754 117.11 131.875 116.948 132.016 116.786C134.274 114.058 137.903 112.299 141.351 113.754C144.456 115.068 146.472 118.383 146.572 121.718C146.552 121.88 146.552 122.082 146.552 122.284ZM171.391 66.7611C170.685 69.8333 168.064 73.4311 164.939 74.3204C161.734 75.23 158.79 72.7641 158.206 69.6716C157.641 66.6398 159.133 64.0728 160.947 61.8091C161.835 59.3432 164.899 57.6656 167.5 58.6155C170.766 59.8283 172.137 63.5271 171.391 66.7611Z" fill="#F9F2F1"/>
<path d="M82.1775 192.744C82.1574 192.38 82.1372 192.016 82.1372 191.672C81.734 191.753 81.3307 191.834 80.9074 191.915C78.2864 192.441 75.6654 193.006 73.0445 193.613C72.4799 193.734 71.9759 193.431 71.7945 192.905L69.4759 185.912C65.6654 187.65 61.8751 189.368 58.0646 191.107C57.3388 191.43 56.613 191.774 55.8872 192.097C56.5929 192.602 57.3388 193.067 58.0243 193.532C59.7178 194.684 61.4316 195.796 63.1654 196.867C66.6332 199.03 70.1816 201.071 73.7904 202.971C76.9961 204.649 80.242 206.245 83.5485 207.721C83.4275 206.933 83.3267 206.144 83.2259 205.376C82.742 201.152 82.3791 196.948 82.1775 192.744Z" fill="#F9AF42"/>
<path d="M68.8509 183.992C68.6896 183.527 68.5484 183.062 68.3871 182.597C67.0162 178.434 65.6452 174.29 64.2541 170.126C64.0122 169.399 63.7702 168.691 63.5484 167.964C63.3065 168.004 63.0847 168.146 62.9234 168.408C61.7138 170.369 60.5444 172.37 59.4154 174.391C58.5081 176.008 57.6412 177.645 56.8146 179.303C55.8468 181.223 54.9194 183.143 54.0525 185.124C53.3469 186.741 52.8227 188.479 53.8509 190.076C53.9719 190.258 54.113 190.44 54.2541 190.622C54.8993 190.318 55.5444 190.035 56.1896 189.732C60.4235 187.812 64.6372 185.892 68.8509 183.992Z" fill="#F9AF42"/>
<path d="M154.274 131.582C154.295 131.562 154.315 131.521 154.335 131.501C154.335 131.501 154.335 131.501 154.315 131.501C154.295 131.541 154.295 131.562 154.274 131.582Z" fill="#F4EFEA"/>
<path d="M29.9194 145.791C31.7541 145.811 33.5484 145.326 35.1411 144.437C37.1976 143.305 38.871 141.506 39.7379 139.262C40.3226 137.746 40.4637 136.109 40.2218 134.512C39.9597 132.754 39.2541 131.056 38.2057 129.621C37.2782 128.348 36.0686 127.297 34.6573 126.609C34.5161 126.549 34.375 126.488 34.2339 126.428C34.5565 127.216 34.3145 127.903 33.8508 128.469C33.6089 128.752 33.3266 129.035 33.0242 129.257C30.7057 131.036 28.2258 132.612 25.6653 134.048C24.6371 134.735 23.3266 135.382 22.4194 134.209C22.0363 133.724 21.9355 133.118 22.0363 132.491C22.2782 130.834 23.8105 128.934 24.7178 128.045C25.5645 127.216 26.5323 126.529 27.6008 126.023C25.0605 126.711 22.7218 128.267 21.0887 130.349C17.3992 135.058 17.742 141.668 20.3024 146.822C21.5524 149.348 23.6895 152.198 26.7742 151.976C27.6815 150.197 28.6089 148.398 29.5161 146.62C29.6371 146.337 29.7782 146.074 29.9194 145.791Z" fill="#763E47"/>
<path d="M175.141 182.436C175.847 178.535 176.936 174.735 178.165 170.975C179.375 167.276 180.645 163.598 181.431 159.798C182.198 156.119 182.44 152.38 182.319 148.641C182.278 147.59 182.218 146.539 182.157 145.508C181.694 138.898 180.524 132.329 180.444 125.68C180.403 121.9 180.766 118.14 181.794 114.502C182.218 113.006 182.722 111.531 183.266 110.056C182.52 110.581 181.694 110.925 180.806 110.965C180.04 111.005 179.214 110.824 178.347 110.338C174.335 108.135 175 102.153 176.008 98.4537C176.835 95.3814 178.367 92.5113 180.444 90.0858C180.524 90.005 180.585 89.9241 180.665 89.8231C180.988 89.3784 181.351 88.9539 181.734 88.5901C181.774 88.5699 181.794 88.5295 181.835 88.5093C182.278 88.004 182.782 87.4178 183.347 87.0136C182.177 86.5487 180.948 86.387 179.718 86.4476C179.113 86.4678 178.508 86.5487 177.903 86.67C176.633 86.9125 175.403 87.337 174.254 87.8018C173.468 88.1252 172.702 88.4891 171.935 88.8529C169.879 89.8837 167.923 91.1167 166.109 92.5517C156.411 100.192 151.714 112.683 153.69 124.709C153.911 126.124 154.234 127.519 154.657 128.914C154.718 129.136 154.798 129.338 154.859 129.56C157.52 130.429 160.383 130.328 163.024 129.358C164.254 128.914 164.778 130.874 163.569 131.299C160.565 132.39 157.359 132.41 154.355 131.48C154.335 131.501 154.315 131.541 154.294 131.561C153.004 133.906 151.714 136.251 150.403 138.595C149.577 140.637 148.952 142.779 148.548 144.962C148.468 145.447 148.367 145.932 148.306 146.438C148.085 147.994 148.004 149.55 148.004 151.127C148.004 152.158 148.024 153.229 147.944 154.26C147.903 154.846 147.823 155.432 147.702 155.998C147.218 158.06 145.907 159.414 144.375 160.586C143.508 161.253 142.581 161.859 141.694 162.506C139.516 164.083 137.52 165.861 135.685 167.802C133.992 169.601 132.46 171.521 131.089 173.562C129.819 175.887 128.528 178.191 127.258 180.515C126.351 182.557 125.585 184.679 124.96 186.842C124.677 187.812 124.435 188.782 124.234 189.773C123.79 191.814 123.508 193.876 123.367 195.957C123.286 195.978 123.226 196.018 123.165 196.079C122.823 202.385 123.871 208.732 126.29 214.613C126.774 215.826 124.839 216.331 124.355 215.159C122.359 210.268 121.27 205.033 121.109 199.757C119.032 203.679 116.956 207.6 114.879 211.521C112.359 216.271 109.94 221.081 107.278 225.771C106.19 227.711 104.98 229.631 103.589 231.41C103.448 231.592 103.306 231.753 103.165 231.935L103.145 231.955C102.823 232.34 102.5 232.703 102.177 233.067C99.2137 236.24 95.2419 237.898 90.9073 237.271C88.2258 236.887 85.7258 235.816 83.3065 234.543C82.7823 234.26 82.2581 233.977 81.7339 233.674C80.7863 233.128 79.8387 232.582 78.9113 232.057C78.6895 231.935 78.4879 231.814 78.2661 231.693C75.9678 230.399 73.6492 229.085 71.3508 227.792C70.746 227.448 70.1411 227.105 69.5363 226.761C68.75 227.953 69.6976 229.773 70.4839 230.945C76.0282 239.151 75.7258 249.621 78.7298 258.777C80.3024 263.588 82.8024 268.095 86.8952 271.187C86.9758 271.248 87.0565 271.309 87.1169 271.349C93.125 274.199 100.323 274.26 106.351 271.349C107.52 270.783 108.528 272.521 107.359 273.087C103.266 275.068 98.7097 275.836 94.254 275.392C96.6129 279.232 99.0323 283.052 101.593 286.771C105.464 286.306 109.234 285.255 112.782 283.578C113.952 283.032 114.98 284.77 113.79 285.316C110.323 286.953 106.653 288.065 102.883 288.61C107.298 294.836 112.157 300.717 117.923 305.771C122.944 310.177 128.569 313.896 134.758 316.443C141.351 319.151 148.448 320.242 155.544 319.899C163.125 319.535 170.605 317.716 177.782 315.291C183.367 313.411 188.972 310.945 193.407 306.963C198.165 302.678 200.645 296.695 199.98 290.288C199.234 283.012 195.242 276.786 190.746 271.228C181.956 260.354 171.573 250.672 164.456 238.504C164.133 237.979 163.831 237.433 163.548 236.887C159.395 241.112 154.234 244.285 148.508 246.043C147.258 246.427 146.734 244.467 147.964 244.103C153.508 242.385 158.569 239.252 162.54 235.048C162.359 234.704 162.177 234.341 161.996 233.977C161.976 233.956 161.976 233.936 161.956 233.916C164.113 231.329 165.827 228.519 167.218 225.548C171.633 216.028 172.581 204.932 173.589 194.543C173.972 190.52 174.415 186.458 175.141 182.436Z" fill="#763E47"/>
<path d="M42.3186 90.0051C42.1573 90.1668 41.996 90.3285 41.8347 90.4902C43.125 89.2977 44.5968 88.2668 46.1896 87.4988C44.7581 88.0849 43.4275 88.9338 42.3186 90.0051Z" fill="#676173"/>
<path d="M189.576 57.0995C187.903 60.2728 186.23 63.4461 184.516 66.5992C181.089 72.9055 177.58 79.1713 173.972 85.3764C173.306 86.5285 172.621 87.7008 171.935 88.8529C172.701 88.4689 173.468 88.1253 174.254 87.8019C175.403 87.337 176.633 86.9125 177.903 86.67C178.508 86.5487 179.113 86.4679 179.718 86.4477C180.947 86.387 182.177 86.5487 183.347 87.0136C183.669 86.7711 184.012 86.5689 184.375 86.4679C184.455 86.3264 184.536 86.1849 184.617 86.0434C184.637 85.6998 184.839 85.3764 185.121 85.1945C185.645 84.2647 186.189 83.335 186.693 82.4052C189.395 77.5947 191.955 72.7033 194.375 67.7311C194.96 66.5386 195.524 65.3461 196.068 64.1536C197.218 61.7079 198.326 59.2622 199.395 56.7963C200.443 54.3911 201.492 51.9454 201.875 49.3784C199.012 49.6008 196.149 49.7422 193.306 49.8029C192.258 52.3294 190.806 54.7144 189.576 57.0995Z" fill="#1D1B20"/>
<path d="M67.8426 80.6266C69.4151 77.5544 70.9877 74.4821 72.5805 71.3896C73.4071 69.7929 74.2337 68.1759 75.0401 66.5791C75.3224 66.0536 75.5845 65.5079 75.8667 64.9824C75.8869 64.9622 75.8869 64.9419 75.9071 64.9217C75.9474 64.8611 75.9676 64.8005 75.9877 64.7196C76.0079 64.6792 76.028 64.6185 76.0482 64.5781C77.8627 61.4857 79.6571 58.3932 81.4716 55.3007C81.0684 52.7338 80.6651 50.1668 80.2619 47.5999C77.6611 52.4104 75.1006 57.2613 72.7014 61.8899C72.7014 61.8899 72.7014 61.9101 72.6813 61.9101C72.52 62.1931 72.3587 62.476 72.1974 62.759C72.0966 62.9409 72.0159 63.1228 71.9756 63.3048C67.399 72.1375 63.4877 79.9798 61.028 84.952C59.3143 88.4083 58.3264 90.47 58.3264 90.47C59.3748 91.8646 60.0603 93.522 60.3829 95.2805C62.8425 90.3891 65.3426 85.518 67.8426 80.6266Z" fill="#1D1B20"/>
<path d="M103.649 17.9689C105.141 15.9073 106.835 13.9265 108.73 12.2084C110.484 10.8744 112.419 9.92443 114.456 9.33828H114.476C114.637 9.29785 114.778 9.25743 114.939 9.217C114.96 9.217 114.98 9.19679 115 9.19679C115.141 9.15637 115.282 9.11594 115.443 9.09573C115.484 9.09573 115.504 9.07552 115.544 9.07552C115.685 9.0351 115.827 9.01488 115.968 8.99467C116.008 8.99467 116.048 8.97446 116.089 8.97446C116.23 8.95425 116.351 8.91382 116.492 8.89361C116.532 8.89361 116.593 8.8734 116.633 8.8734C116.754 8.85319 116.895 8.83297 117.016 8.81276C117.077 8.81276 117.117 8.79255 117.177 8.79255C117.298 8.77234 117.419 8.75212 117.54 8.75212C117.601 8.75212 117.661 8.73191 117.722 8.73191C117.843 8.7117 117.964 8.7117 118.085 8.69149C118.145 8.69149 118.206 8.67128 118.266 8.67128C118.387 8.65106 118.508 8.65106 118.609 8.65106C118.669 8.65106 118.75 8.65106 118.81 8.63085C118.931 8.63085 119.032 8.61064 119.153 8.61064C119.234 8.61064 119.294 8.61064 119.375 8.61064C119.476 8.61064 119.597 8.61064 119.698 8.59043C119.778 8.59043 119.839 8.59043 119.919 8.59043C120.02 8.59043 120.141 8.59043 120.242 8.59043C120.323 8.59043 120.403 8.59043 120.484 8.59043C120.585 8.59043 120.685 8.59043 120.786 8.59043C120.867 8.59043 120.948 8.59043 121.028 8.59043C121.129 8.59043 121.23 8.59043 121.331 8.61064C121.411 8.61064 121.492 8.61064 121.593 8.63085C121.693 8.63085 121.794 8.65106 121.895 8.65106C121.976 8.65106 122.077 8.67128 122.157 8.67128C122.258 8.67128 122.339 8.69149 122.439 8.69149C122.54 8.69149 122.621 8.7117 122.722 8.7117C122.802 8.7117 122.903 8.73191 122.984 8.73191C123.085 8.75212 123.185 8.75212 123.286 8.77234C123.367 8.79255 123.448 8.79255 123.548 8.81276C123.649 8.83297 123.75 8.83297 123.871 8.85318C123.952 8.8734 124.032 8.8734 124.093 8.89361C124.214 8.91382 124.335 8.93403 124.456 8.95425C124.516 8.97446 124.577 8.97446 124.657 8.99467C124.839 9.0351 125.02 9.05531 125.202 9.09573C129.718 10.0053 133.931 11.8244 138.085 13.8254C140.081 14.7956 142.056 15.8264 144.032 16.7966C148.548 19.0402 153.064 21.2837 157.581 23.5273C159.314 23.3454 161.068 23.2443 162.823 23.1837C164.98 23.1028 167.137 23.0826 169.294 23.0624C168.145 22.4964 166.996 21.9507 165.827 21.3848C162.359 19.7274 158.871 18.0902 155.383 16.4934C150 13.5626 144.435 10.9755 138.73 8.73191C133.75 6.79154 128.609 4.89159 123.367 3.84055C118.448 2.85015 113.165 2.82994 108.75 5.53838C106.089 7.15536 104.012 9.45955 102.258 12.0063C99.7378 14.9573 96.6128 19.5455 93.2056 25.0634C94.133 26.9836 94.9999 28.9037 95.8064 30.8845C98.2862 26.4783 100.706 22.0316 103.649 17.9689Z" fill="#1D1B20"/>
<path d="M24.6976 199.616C24.6976 199.454 24.7178 199.272 24.8186 199.111C25.0807 198.565 25.3831 198.039 25.6653 197.494C24.0726 196.584 22.5 195.675 20.9073 194.765C17.8226 192.966 14.8791 190.743 14.9597 186.822C15.0403 182.597 17.6412 178.575 19.5162 174.917C24.7178 164.75 29.9395 154.603 35.1412 144.437C33.5484 145.326 31.7541 145.811 29.9194 145.791C29.7782 146.074 29.6371 146.336 29.496 146.619C28.5887 148.398 27.6613 150.197 26.7541 151.976C23.6089 158.1 20.4637 164.245 17.3186 170.369C13.5484 177.706 6.79437 188.034 14.5565 195.19C16.0081 196.524 17.7016 197.575 19.3952 198.565C20.867 199.414 22.3589 200.243 23.8508 201.071C23.992 200.829 24.1331 200.566 24.2742 200.323C24.4153 200.081 24.5565 199.859 24.6976 199.616Z" fill="#1D1B20"/>
<path d="M78.2257 231.713C78.4475 231.834 78.6491 231.956 78.8709 232.077C79.7983 232.602 80.7459 233.168 81.6934 233.694C82.2176 233.997 82.7418 234.28 83.266 234.563C85.6854 235.836 88.1854 236.928 90.8668 237.292C95.2015 237.918 99.1733 236.241 102.137 233.087C102.48 232.724 102.802 232.36 103.105 231.976L103.125 231.956C103.266 231.774 103.407 231.612 103.548 231.43C104.939 229.651 106.129 227.711 107.238 225.791C109.899 221.122 112.318 216.291 114.839 211.541C116.915 207.62 118.992 203.699 121.068 199.778C121.23 205.053 122.298 210.288 124.314 215.179C124.798 216.372 126.754 215.846 126.25 214.634C123.851 208.732 122.782 202.385 123.125 196.099C123.185 196.059 123.266 196.018 123.326 195.978C123.468 193.896 123.77 191.834 124.193 189.793C124.395 188.802 124.637 187.832 124.919 186.862C125.524 184.699 126.29 182.597 127.218 180.536C128.488 178.211 129.778 175.907 131.048 173.583C132.419 171.541 133.951 169.601 135.645 167.822C137.48 165.882 139.476 164.103 141.653 162.527C142.54 161.88 143.468 161.273 144.335 160.606C145.867 159.434 147.177 158.06 147.661 156.018C147.802 155.452 147.863 154.866 147.903 154.28C147.984 153.229 147.943 152.178 147.964 151.147C147.964 149.571 148.064 148.014 148.266 146.458C148.326 145.973 148.407 145.467 148.508 144.982C148.911 142.799 149.536 140.657 150.363 138.616C151.653 136.271 152.943 133.926 154.254 131.582C154.274 131.561 154.294 131.521 154.294 131.501C154.294 131.501 154.294 131.501 154.314 131.501C157.318 132.431 160.524 132.41 163.528 131.319C164.738 130.874 164.214 128.914 162.984 129.379C160.343 130.349 157.46 130.43 154.818 129.581C154.758 129.358 154.677 129.156 154.617 128.934C154.193 127.539 153.871 126.145 153.649 124.73C153.427 124.891 153.246 125.114 153.085 125.397C144.839 140.354 136.572 155.291 128.326 170.248C120.04 185.265 111.754 200.263 103.468 215.281C99.9797 221.607 95.7458 230.884 87.3588 231.268C86.9555 231.289 86.6128 231.41 86.3305 231.592C85.4838 231.167 84.6773 230.723 83.891 230.278C79.6773 227.933 75.5039 225.548 71.3104 223.183C62.883 218.434 54.4556 213.684 46.0281 208.934C45.2217 208.489 44.4354 208.045 43.629 207.58C43.2257 208.914 42.8628 210.268 42.5806 211.622C50.141 215.887 57.6814 220.131 65.2418 224.396C66.6531 225.184 68.0644 225.993 69.4959 226.781C70.1007 227.125 70.7055 227.468 71.3104 227.812C73.6088 229.106 75.9072 230.419 78.2257 231.713Z" fill="#1D1B20"/>
<path d="M46.0483 123.153C48.3467 118.686 50.6249 114.219 52.9233 109.753C52.9233 109.732 52.9435 109.712 52.9435 109.692C51.2298 110.804 49.2943 111.592 47.258 111.976C46.4919 113.451 45.7459 114.947 44.9798 116.423C44.9394 116.483 44.9193 116.544 44.879 116.604C42.6612 120.93 40.4435 125.276 38.2056 129.601C39.254 131.036 39.9798 132.734 40.2217 134.492C42.1572 130.733 44.1128 126.953 46.0483 123.153Z" fill="#1D1B20"/>
<path d="M181.815 88.5296C181.774 88.5499 181.754 88.5903 181.714 88.6105C181.311 88.9743 180.968 89.3988 180.645 89.8434C180.565 89.9243 180.504 90.0051 180.423 90.1062C178.347 92.5114 176.835 95.3816 175.988 98.474C175 102.173 174.315 108.156 178.327 110.359C179.194 110.844 180.02 111.026 180.786 110.985C181.673 110.945 182.5 110.601 183.246 110.076C183.347 110.015 183.448 109.934 183.548 109.854C184.052 108.499 184.839 107.226 185.423 105.892C186.371 103.689 187.218 101.405 187.802 99.0602C188.206 97.4432 188.427 95.7858 188.367 94.1284C188.407 93.2997 188.367 92.4508 188.246 91.6221C188.004 90.0051 187.46 87.2967 185.746 86.5489C185.262 86.3467 184.798 86.3467 184.355 86.4882C183.992 86.5893 183.649 86.7914 183.327 87.0339C182.762 87.4382 182.258 88.0041 181.815 88.5296Z" fill="#592F35"/>
<path d="M22.0161 132.491C21.9355 133.118 22.0161 133.704 22.3992 134.209C23.3266 135.402 24.6169 134.735 25.6452 134.047C28.2056 132.612 30.6653 131.036 33.004 129.257C33.3064 129.035 33.6089 128.752 33.8306 128.469C34.2943 127.903 34.5363 127.195 34.2137 126.427C34.2137 126.407 34.2137 126.407 34.1935 126.387C33.6693 125.174 32.2984 124.932 31.129 125.033C29.879 125.134 28.6895 125.477 27.5605 126.023C26.4919 126.528 25.5242 127.216 24.6774 128.044C23.7903 128.934 22.2581 130.834 22.0161 132.491Z" fill="#592F35"/>
<path d="M52.9436 109.712C52.9436 109.732 52.9235 109.752 52.9235 109.773C55.9073 108.014 58.4073 105.467 59.7178 102.193C60.5646 100.05 60.7864 97.6048 60.3428 95.2804C60.0202 93.5421 59.3348 91.8645 58.2864 90.4699C57.8227 89.8635 57.2985 89.2975 56.7138 88.8124C56.2097 88.4082 55.6856 88.0646 55.1412 87.7816C55.3831 88.5295 55.121 89.2369 54.6573 89.8231C54.4154 90.1262 54.1331 90.389 53.8106 90.5911C53.2259 90.9954 52.621 91.3592 51.996 91.7028C50.2017 92.9155 48.2864 93.9464 46.2501 94.6942C46.2299 94.7346 46.1694 94.7751 46.1089 94.7953C45.7259 94.9165 45.3428 95.0378 44.9396 95.1389C44.0727 95.4219 43.1654 95.6442 42.2783 95.7655C42.0565 95.7857 41.8348 95.8059 41.613 95.7857C41.2702 95.8059 40.9275 95.7655 40.6049 95.624C39.8993 95.3208 39.5969 94.7144 39.6372 94.0676C39.617 93.9666 39.617 93.8655 39.617 93.7644C37.7823 97.5846 37.6614 102.193 38.7501 106.276C39.2138 108.014 39.8791 109.672 40.6856 111.288C41.4114 112.764 42.238 114.583 43.4275 115.735C43.871 116.16 44.4154 116.402 44.9598 116.463C45.7259 114.987 46.4719 113.492 47.238 112.016C49.2944 111.592 51.2299 110.824 52.9436 109.712Z" fill="#763E47"/>
<path d="M147.923 244.123C146.693 244.507 147.217 246.448 148.467 246.064C154.173 244.305 159.334 241.132 163.508 236.907C163.165 236.301 162.842 235.675 162.52 235.048C158.528 239.272 153.488 242.405 147.923 244.123Z" fill="#1D1B20"/>
<path d="M107.318 273.108C108.488 272.542 107.459 270.803 106.31 271.369C100.282 274.28 93.0845 274.219 87.0764 271.369C89.0119 272.784 91.2296 273.815 93.528 274.3C93.7498 274.684 93.9917 275.048 94.2135 275.432C98.6692 275.857 103.226 275.088 107.318 273.108Z" fill="#1D1B20"/>
<path d="M112.742 283.618C109.214 285.275 105.423 286.347 101.552 286.812C101.976 287.438 102.419 288.045 102.843 288.671C106.613 288.105 110.282 287.014 113.75 285.376C114.94 284.811 113.911 283.072 112.742 283.618Z" fill="#1D1B20"/>
<path d="M157.52 23.4662C151.734 24.0524 146.048 25.3864 140.907 28.297C135.081 31.5713 130.343 36.4627 126.532 41.8998C126.169 42.4253 125.806 42.971 125.443 43.4965C126.552 43.6178 127.621 43.8604 128.669 44.2646C129.113 44.4263 129.536 44.6284 129.96 44.8306C131.028 45.3763 132.036 46.0837 132.923 46.9528C135.827 49.7623 137.278 53.4814 137.56 57.3621C137.581 57.6855 137.601 58.0089 137.601 58.3323C137.661 60.495 137.359 62.678 136.754 64.7598C134.677 71.9958 129.556 77.6956 124.617 83.153C124.597 83.1732 124.577 83.1934 124.556 83.2136C124.415 83.3551 124.274 83.4966 124.093 83.5572C123.79 83.8806 123.488 84.2242 123.206 84.5476C123.085 84.6891 122.923 84.7699 122.782 84.7901C122.48 84.9923 122.157 85.0125 121.754 84.7295C121.068 84.204 120.464 83.5168 119.879 82.8296C117.097 79.9594 114.677 76.7255 112.722 73.2085C111.754 76.1191 110.786 79.0094 109.738 81.8796C108.468 85.3763 107.077 88.8326 105.443 92.1878C103.77 95.6037 101.754 98.777 99.7176 101.991C97.7217 105.144 95.9273 108.499 95.4434 112.259C95.0604 115.311 95.9072 118.545 97.7418 121.01C97.883 121.192 98.0039 121.374 98.1652 121.536C98.1652 121.556 98.1854 121.556 98.1854 121.576C98.3265 121.738 98.4676 121.92 98.6289 122.082C98.7096 122.183 98.7902 122.284 98.8709 122.385C101.129 125.114 104.577 126.609 108.105 126.124C111.956 125.578 115.242 123.072 118.105 120.586C120.968 118.1 123.508 115.27 125.706 112.198C126.774 110.702 127.762 109.146 128.629 107.549C128.931 107.125 129.234 106.7 129.536 106.256C129.536 106.256 129.536 106.235 129.556 106.235C129.839 105.831 130.121 105.427 130.403 105.023C130.423 104.982 130.464 104.942 130.484 104.922C130.746 104.558 130.988 104.174 131.23 103.81C131.27 103.749 131.31 103.668 131.371 103.608C131.653 103.183 131.935 102.739 132.218 102.314C136.472 95.7452 140.222 88.8326 143.387 81.6572C146.129 75.4319 148.226 68.8427 151.673 62.9407C153.286 60.1919 155.222 57.6653 157.661 55.6239C160.242 53.4612 163.407 52.1272 166.633 51.3187C173.871 49.4996 181.573 50.0049 188.952 49.924C190.383 49.9038 191.835 49.8836 193.286 49.8432C196.129 49.7826 198.992 49.6411 201.855 49.4187C212.601 48.5496 223.226 46.1646 231.976 39.5552C237.117 35.6744 241.411 30.7022 243.891 24.679C246.27 18.8578 246.855 11.7431 243.75 6.08371C242.198 3.23378 239.536 0.9498 236.31 0.282796C232.399 -0.545905 228.387 0.646617 225.04 2.68805C221.774 4.66885 218.972 7.35708 215.887 9.60064C212.923 11.7431 209.778 13.6633 206.512 15.3409C200 18.6355 192.923 20.9195 185.685 22.0716C180.242 22.9407 174.738 22.9609 169.234 23.0013C167.077 23.0216 164.919 23.0418 162.762 23.1226C161.028 23.1833 159.274 23.2843 157.52 23.4662ZM106.935 124.143C106.996 124.083 107.036 124.022 107.077 123.961C107.238 123.982 107.399 123.982 107.56 123.982C107.581 123.982 107.621 123.982 107.641 123.982C107.802 123.982 107.964 123.982 108.125 123.982C107.742 124.083 107.339 124.143 106.935 124.143Z" fill="#87A2C7"/>
<path d="M81.9556 58.5345C81.9758 58.7164 82.0161 58.9186 82.0362 59.1207C82.2782 60.6568 82.5 62.3142 82.9032 63.8908C83.1048 65.4673 83.3064 67.0641 83.508 68.6407C83.8709 71.4502 84.1935 74.2799 85.3629 76.8872C86.4113 79.2319 88.3467 81.2733 90.9677 81.7786C93.6895 82.3041 96.4919 81.2935 98.5484 79.4946C103.448 75.2501 103.508 67.2258 103.044 61.3036C103.044 61.243 103.024 61.1823 103.024 61.1217C102.964 59.6058 102.823 58.0899 102.621 56.5942C102.581 56.3516 102.54 56.1091 102.52 55.8665C102.298 54.0272 101.935 52.2283 101.593 50.4901C101.552 50.2677 101.512 50.0454 101.452 49.823C100.181 43.3147 98.246 36.9276 95.7258 30.8033C94.9193 28.8427 94.0524 26.9024 93.125 24.9822C92.7419 24.1939 92.3387 23.3854 91.9355 22.5972C90.1008 19.0398 86.9959 14.8963 82.4193 16.4324C77.6209 18.0292 76.5725 23.345 77.1169 27.7917C77.7419 32.9054 78.6895 37.9787 79.4959 43.0722C79.7378 44.5881 79.9798 46.0838 80.2217 47.5997C80.6249 50.1667 81.0282 52.7336 81.4314 55.3006C81.6128 56.392 81.7943 57.4633 81.9556 58.5345Z" fill="#F9AF42"/>
<path d="M188.831 15.0582C191.895 15.3209 194.96 13.1987 197.036 11.1168C198.206 9.9445 199.214 8.44879 199.173 6.73075C199.133 5.1542 198.286 3.75955 196.956 2.91064C194.395 1.27345 191.734 2.06173 189.375 3.41594C186.613 4.44677 183.911 6.02332 183.468 9.27749C183.044 12.471 185.887 14.8156 188.831 15.0582Z" fill="#1B9770"/>
<path d="M112.782 23.1428C113.327 24.113 114.133 24.9417 115.161 25.4268C118.206 26.8417 122.097 24.8811 122.863 21.6067C123.669 18.1302 120.504 14.5728 116.976 14.8962C115.585 15.0175 114.355 15.7249 113.468 16.7356C113.266 16.8973 113.085 17.0792 112.923 17.3015C112.52 17.8877 112.278 18.5344 112.137 19.2015C111.875 20.2121 111.895 21.2833 112.258 22.3141C112.379 22.6173 112.56 22.9003 112.782 23.1428Z" fill="#676173"/>
<path d="M228.67 56.7763C228.649 52.6732 223.73 51.5817 220.524 51.6222C216.815 51.6626 212.46 52.936 209.839 55.705C208.407 57.2007 207.581 59.323 208.367 61.3443C209.153 63.3453 211.311 64.8612 213.488 64.1538C215.988 64.5378 218.589 64.3761 221.008 63.6889C224.113 62.7793 228.67 60.6166 228.67 56.7763Z" fill="#3CDCAA"/>
<path d="M186.694 82.4255C187.48 83.7393 188.548 84.8914 189.637 85.9828C190.948 87.2966 192.198 88.57 193.085 90.2274C193.972 91.8646 194.476 93.6837 194.798 95.523C195.484 99.4846 195 103.466 195.202 107.468C195.423 111.794 197.117 116.18 201.431 117.837C205.625 119.434 209.536 116.422 210.927 112.542C211.693 110.419 211.714 108.075 211.694 105.851C211.653 103.77 211.532 101.688 211.29 99.6261C210.806 95.4826 209.98 91.3795 208.75 87.3977C206.109 78.8883 201.794 70.9853 196.089 64.1738C195.524 65.3663 194.96 66.5589 194.395 67.7514C191.956 72.7236 189.375 77.615 186.694 82.4255Z" fill="#676173"/>
<path d="M199.859 136.655C193.306 137.484 186.976 140.879 182.157 145.508C182.238 146.559 182.298 147.59 182.318 148.641C182.439 152.38 182.198 156.119 181.431 159.798C180.645 163.598 179.375 167.297 178.165 170.975C176.935 174.735 175.847 178.535 175.141 182.436C174.415 186.458 173.972 190.5 173.568 194.563C172.56 204.952 171.633 216.049 167.198 225.568C167.843 227.327 168.77 228.964 170.101 230.339C172.641 232.966 176.472 234.442 180.101 233.734C184.052 232.966 186.371 229.389 186.814 225.589C187.318 221.283 185.363 217.383 183.548 213.643C181.774 210.025 180.564 206.266 180.302 202.223C179.818 194.462 182.46 187.105 187.802 181.486C192.802 176.21 199.113 172.451 204.496 167.62C209.839 162.83 214.456 156.625 214.415 149.126C214.395 145.75 213.347 142.274 210.907 139.869C208.004 136.958 203.79 136.15 199.859 136.655Z" fill="#87A2C7"/>
<path d="M199.073 181.263C196.915 181.223 194.96 182.557 193.79 184.275C192.903 185.569 192.5 187.064 192.238 188.6C191.532 190.379 191.169 192.279 191.25 194.199C191.351 196.18 191.996 198.221 193.75 199.333C195.323 200.323 197.278 200.222 198.932 199.474C200.686 198.686 201.895 197.11 202.661 195.392C203.448 193.613 204.133 191.652 204.456 189.732C204.778 187.792 204.677 185.771 203.649 184.032C202.661 182.415 200.988 181.304 199.073 181.263Z" fill="#F9AF42"/>
<path d="M71.2901 184.962L73.4272 191.45C75.1207 191.066 76.8345 190.682 78.5482 190.339C84.2336 189.166 89.9594 188.196 95.7054 187.428C96.5119 187.327 97.3385 187.226 98.1449 187.125C98.1449 186.902 98.0441 186.66 97.8022 186.458C92.4191 182.153 86.7538 178.191 80.8465 174.613C77.903 172.835 74.9191 171.137 71.8748 169.54C69.9191 168.509 67.6812 167.276 65.4836 167.479L66.3707 170.147L71.2901 184.962Z" fill="#F9AF42"/>
<path d="M90.746 154.866C87.0363 153.956 83.1653 152.885 80.1008 150.5C76.9758 148.034 75.2419 144.335 74.7984 140.414C73.7097 130.733 78.7299 122.062 82.3186 113.471C84.2742 108.802 86.0081 103.79 86.0887 98.676C86.1291 96.3314 85.504 93.8857 83.4678 92.4911C81.371 91.056 78.6694 91.6422 76.6936 92.9964C74.5161 94.4719 72.9839 96.5942 71.3911 98.6356C69.6573 100.879 67.9436 103.123 66.2903 105.427C63.004 109.934 59.879 114.543 56.8952 119.232C51.1895 128.226 45.625 137.948 45 148.843C44.496 157.372 47.9234 166.508 54.8589 171.683C56.1694 172.653 57.5806 173.441 59.0927 174.047C59.2137 174.169 59.3347 174.29 59.4556 174.391C60.5847 172.37 61.754 170.369 62.9637 168.408C63.125 168.145 63.3468 168.004 63.5887 167.964C63.6694 167.943 63.7298 167.943 63.8105 167.943C64.375 167.66 64.9597 167.499 65.5444 167.438C67.7419 167.236 69.9798 168.469 71.9355 169.5C74.9798 171.096 77.9637 172.794 80.9073 174.573C86.8145 178.15 92.4597 182.112 97.8629 186.417C98.1049 186.619 98.2057 186.842 98.2057 187.084C98.2057 187.125 98.2057 187.165 98.1855 187.206C98.5283 187.751 98.7904 188.358 98.9113 189.004C98.9516 189.267 98.992 189.53 98.992 189.813C99.0121 192.056 97.6412 194.159 96.6331 196.079C96.2299 196.847 95.8266 197.615 95.4033 198.383C95.8468 198.444 96.2903 198.464 96.7339 198.484C101.472 198.666 105.867 196.422 108.891 192.845C114.758 185.831 116.29 174.977 112.077 166.791C107.863 158.646 98.8307 156.867 90.746 154.866Z" fill="#1B9770"/>
<path d="M141.331 113.714C137.863 112.259 134.234 114.017 131.996 116.746C131.855 116.908 131.714 117.089 131.593 117.251C131.572 117.292 131.552 117.312 131.512 117.352C131.411 117.494 131.29 117.635 131.189 117.777C131.189 117.797 131.169 117.797 131.169 117.817C129.415 120.243 128.085 122.911 125.645 124.75C121.512 125.761 117.359 126.751 113.226 127.762C111.189 128.267 108.972 128.853 107.52 130.49C106.29 131.885 105.746 133.744 106.452 135.523C107.943 139.242 113.044 140.293 116.552 140.697C121.089 141.223 125.746 140.455 130.02 138.838C130.706 138.636 131.391 138.393 132.056 138.151C132.077 138.151 132.097 138.13 132.117 138.13C132.419 138.009 132.722 137.888 133.024 137.767C133.064 137.746 133.105 137.726 133.165 137.706C133.508 137.564 133.831 137.423 134.153 137.261C134.314 137.18 134.496 137.1 134.657 137.019C134.718 136.999 134.778 136.958 134.839 136.938C134.939 136.877 135.06 136.817 135.161 136.776C135.242 136.736 135.302 136.695 135.383 136.655C135.484 136.594 135.585 136.554 135.665 136.493C135.746 136.453 135.827 136.412 135.907 136.352C135.988 136.311 136.089 136.251 136.169 136.21C136.25 136.15 136.351 136.109 136.431 136.049C136.492 136.008 136.572 135.968 136.633 135.927C137.016 135.705 137.399 135.462 137.782 135.2C137.802 135.179 137.843 135.159 137.863 135.139C137.984 135.058 138.125 134.957 138.246 134.876C138.286 134.856 138.306 134.836 138.347 134.816C138.488 134.715 138.609 134.634 138.75 134.533C138.77 134.512 138.79 134.512 138.81 134.492C139.697 133.845 140.564 133.118 141.391 132.35C141.391 132.35 141.391 132.35 141.411 132.329C142.097 131.804 142.762 131.278 143.427 130.733C143.77 130.45 143.831 130.086 143.71 129.763C143.81 129.621 143.931 129.459 144.032 129.318C144.032 129.318 144.032 129.318 144.032 129.298C144.456 128.712 144.818 128.085 145.161 127.458C145.161 127.438 145.181 127.418 145.181 127.418C145.242 127.297 145.302 127.155 145.363 127.034C145.383 126.973 145.403 126.933 145.443 126.872C145.504 126.751 145.544 126.63 145.605 126.508C145.625 126.448 145.665 126.387 145.685 126.306C145.726 126.185 145.766 126.084 145.827 125.963C145.847 125.882 145.887 125.801 145.907 125.74C145.947 125.639 145.988 125.538 146.008 125.417C146.048 125.296 146.089 125.174 146.129 125.033C146.169 124.912 146.189 124.79 146.23 124.649C146.25 124.528 146.29 124.406 146.31 124.285C146.331 124.204 146.351 124.123 146.351 124.042C146.371 123.921 146.391 123.82 146.411 123.699C146.431 123.618 146.431 123.537 146.452 123.456C146.472 123.335 146.492 123.214 146.492 123.093C146.492 123.012 146.512 122.931 146.512 122.85C146.532 122.708 146.532 122.587 146.532 122.446C146.532 122.385 146.532 122.304 146.532 122.244C146.532 122.041 146.532 121.839 146.532 121.637C146.452 118.343 144.435 115.028 141.331 113.714Z" fill="#3CDCAA"/>
<path d="M82.5606 136.797C82.238 137.059 81.9759 137.423 81.8146 137.848C81.2299 139.485 81.5122 141.263 82.359 142.739C82.359 142.739 82.359 142.739 82.359 142.759C82.3791 142.779 82.3791 142.8 82.3993 142.82C82.3993 142.84 82.4194 142.86 82.4194 142.86C82.4396 142.901 82.4799 142.941 82.5001 142.981C82.9638 143.709 83.5686 144.336 84.2743 144.821C86.6331 146.418 89.8992 145.751 91.7138 143.628C93.6291 141.385 93.6492 138.232 91.6533 136.049C89.8388 134.048 86.6735 133.381 84.3549 134.917C83.6089 135.422 83.0041 136.069 82.5606 136.797Z" fill="#F9AF42"/>
<path d="M43.7297 207.236C44.6975 204.204 45.9878 201.354 47.4797 198.565C47.5604 198.403 47.6612 198.221 47.7418 198.06C47.762 197.999 47.8023 197.959 47.8225 197.898C47.883 197.777 47.9435 197.655 48.0039 197.554C48.0443 197.494 48.0644 197.413 48.1047 197.352C48.1652 197.251 48.2055 197.15 48.266 197.029C48.3064 196.948 48.3467 196.887 48.3668 196.806C48.4072 196.705 48.4676 196.604 48.508 196.503C48.5483 196.422 48.5886 196.342 48.6289 196.261C48.6693 196.16 48.7297 196.059 48.7701 195.958C48.8104 195.877 48.8507 195.796 48.8709 195.715C48.9112 195.614 48.9515 195.513 48.9918 195.432C49.0322 195.351 49.0725 195.27 49.0926 195.189C49.133 195.088 49.1733 194.987 49.2136 194.906C49.2539 194.826 49.2741 194.745 49.3144 194.664C49.3547 194.563 49.3951 194.462 49.4354 194.381C49.4757 194.3 49.4959 194.219 49.5362 194.118C49.5765 194.017 49.5967 193.916 49.637 193.815C49.6572 193.734 49.6975 193.653 49.7176 193.552C49.758 193.451 49.7781 193.35 49.8185 193.249C49.8386 193.168 49.8789 193.067 49.8991 192.986C49.9193 192.885 49.9596 192.784 49.9797 192.683C49.9999 192.602 50.0201 192.501 50.0402 192.42C50.0604 192.319 50.0805 192.218 50.1007 192.117C50.1209 192.036 50.141 191.956 50.1612 191.854C50.1814 191.753 50.2015 191.632 50.2217 191.531C50.2418 191.45 50.2418 191.369 50.262 191.289C50.2822 191.167 50.2822 191.046 50.3023 190.925C50.3023 190.844 50.3225 190.783 50.3225 190.702C50.3426 190.5 50.3628 190.318 50.3628 190.116C50.9878 187.569 51.1088 184.881 49.637 182.638C47.4596 179.323 43.3265 179.646 40.262 181.486C37.1572 183.345 34.3346 185.973 31.9152 188.661C29.4757 191.349 27.3789 194.32 25.6249 197.494C25.3225 198.019 25.0402 198.565 24.7781 199.111C24.6975 199.293 24.6572 199.454 24.6572 199.616C24.516 199.858 24.3749 200.081 24.2338 200.323C24.0926 200.566 23.9515 200.808 23.8104 201.071C22.5201 203.396 21.4112 205.801 20.4838 208.307C16.633 218.737 16.6733 230.642 21.3104 240.808C23.4475 245.477 27.1168 250.632 32.6612 251.157C37.883 251.642 41.8951 247.074 42.9838 242.324C44.3547 236.342 41.8951 230.217 41.5725 224.255C41.3305 220.01 41.6733 215.765 42.5402 211.622C42.8225 210.268 43.1854 208.914 43.5886 207.58C43.6693 207.458 43.6894 207.337 43.7297 207.236Z" fill="#3CDCAA"/>
<path d="M56.0886 231.632C53.8911 231.935 52.3386 233.835 52.1975 235.836C52.1773 235.937 52.1572 236.038 52.137 236.139C51.7741 239.191 51.7338 242.446 53.9314 244.851C56.0282 247.135 59.5362 247.499 61.7943 245.255C66.0282 241.051 62.6209 230.723 56.0886 231.632Z" fill="#676173"/>
<path d="M167.5 58.6153C164.919 57.6654 161.835 59.343 160.948 61.8089C159.133 64.0726 157.641 66.6396 158.206 69.6714C158.79 72.7841 161.734 75.25 164.94 74.3202C168.065 73.4309 170.685 69.8331 171.391 66.7609C172.137 63.5269 170.766 59.8281 167.5 58.6153Z" fill="#F9AF42"/>
<path d="M98.9518 189.833C98.9518 189.55 98.9115 189.288 98.8711 189.025C98.1857 189.106 97.48 189.187 96.7945 189.288C92.5606 189.833 88.3268 190.5 84.113 191.289C84.1534 192.218 84.1937 193.128 84.234 194.037C84.4558 198.141 84.8388 202.223 85.3832 206.306C85.484 207.094 85.605 207.863 85.7259 208.651C85.8066 208.691 85.8872 208.732 85.9679 208.752C86.9558 209.48 88.488 209.257 89.4356 208.408C90.2018 207.721 90.6655 206.771 91.1695 205.902C91.8147 204.79 92.4598 203.679 93.0848 202.547C93.851 201.172 94.6171 199.798 95.3631 198.403C95.7663 197.635 96.1897 196.867 96.5929 196.099C97.601 194.199 98.9719 192.097 98.9518 189.833Z" fill="#F9AF42"/>
<path d="M84.254 194.037C84.2136 193.128 84.1532 192.198 84.133 191.289C88.3467 190.5 92.5604 189.853 96.8145 189.288C97.4999 189.207 98.2056 189.106 98.8911 189.025C98.7701 188.358 98.508 187.772 98.1653 187.226C98.1653 187.185 98.1653 187.145 98.1854 187.105C97.379 187.206 96.5524 187.307 95.7459 187.408C89.9999 188.176 84.2741 189.146 78.5886 190.318C76.8749 190.682 75.1814 191.046 73.4677 191.43L71.3306 184.942L66.4314 170.106L65.5443 167.438C64.9596 167.499 64.3951 167.64 63.8104 167.943C63.7298 167.943 63.6693 167.943 63.5886 167.964C63.8306 168.691 64.0725 169.399 64.2943 170.126C65.6653 174.29 67.0362 178.434 68.4274 182.597C68.5886 183.062 68.7298 183.527 68.8911 183.992C64.6774 185.912 60.4636 187.832 56.2499 189.732C55.6048 190.035 54.9596 190.318 54.3145 190.622C54.7782 191.167 55.3427 191.652 55.9475 192.077C56.6733 191.753 57.3991 191.41 58.1249 191.086C61.9354 189.348 65.7257 187.63 69.5362 185.892L71.8548 192.885C72.0362 193.411 72.5403 193.714 73.1048 193.593C75.7257 192.986 78.3467 192.42 80.9677 191.895C81.3709 191.814 81.7741 191.733 82.1975 191.652C82.2177 192.016 82.2378 192.38 82.2378 192.724C82.4395 196.948 82.7822 201.152 83.3265 205.336C83.4274 206.124 83.5282 206.913 83.6491 207.681C84.3749 208.004 85.0806 208.327 85.8064 208.631C85.6854 207.842 85.5846 207.074 85.4636 206.286C84.8588 202.223 84.4757 198.14 84.254 194.037Z" fill="#1D1B20"/>
<path d="M30.645 166.892C29.9999 167.317 29.4757 167.883 29.0926 168.509C28.8104 168.732 28.5886 169.055 28.4475 169.419C27.9434 170.834 28.1854 172.37 28.9112 173.643C28.9313 173.663 28.9313 173.684 28.9515 173.704C28.9515 173.724 28.9717 173.724 28.9717 173.744C28.9918 173.785 29.012 173.825 29.0321 173.845C29.4354 174.472 29.9596 175.018 30.5644 175.422C32.6007 176.796 35.4233 176.23 36.9958 174.391C38.6491 172.451 38.6692 169.722 36.9555 167.822C35.3829 166.144 32.6612 165.579 30.645 166.892Z" fill="#1B9770"/>
<path d="M40.625 95.6039C40.9476 95.7454 41.2903 95.7656 41.6331 95.7656C41.8548 95.7858 42.0766 95.7656 42.2984 95.7454C43.1855 95.6241 44.0927 95.4017 44.9597 95.1188C45.3427 95.0177 45.7258 94.8964 46.129 94.7752C46.1895 94.755 46.2298 94.7145 46.2702 94.6741C48.3064 93.9263 50.2218 92.8954 52.0161 91.6827C52.6411 91.3391 53.246 90.9753 53.8306 90.571C54.1331 90.3487 54.4355 90.0859 54.6774 89.803C55.1411 89.237 55.4032 88.5296 55.1613 87.7615C55.1411 87.7009 55.121 87.6403 55.0806 87.5796C54.5766 86.4073 53.1855 86.2254 52.0564 86.185C50.5444 86.1243 48.9919 86.4073 47.5605 86.9328C47.0968 87.0945 46.6532 87.2966 46.1895 87.519C44.5968 88.287 43.1452 89.3179 41.8347 90.5104C41.4315 90.8944 41.0282 91.2785 40.6452 91.6827C40.121 92.2486 39.6573 93.0167 39.6169 93.7646C39.6169 93.8656 39.6169 93.9667 39.6371 94.0677C39.6169 94.6943 39.9194 95.3007 40.625 95.6039Z" fill="#592F35"/>
<path d="M24.0524 116.483C23.7903 116.079 23.4879 115.756 23.0645 115.493C23.0242 115.473 22.9838 115.432 22.9234 115.412C22.7217 115.311 22.4798 115.19 22.2379 115.129C21.754 115.008 21.2701 115.008 20.7661 115.129C20.625 115.169 20.5242 115.21 20.3629 115.27C20.2016 115.331 20.0806 115.371 19.9597 115.473C19.133 116.038 18.6492 116.867 18.6492 117.878C18.6492 118.221 18.7298 118.605 18.8709 118.949C18.9113 119.05 18.9314 119.151 18.9717 119.252C19.1129 119.596 19.2943 119.899 19.5766 120.162C19.7379 120.303 19.9395 120.465 20.1209 120.586C20.1411 120.606 20.1613 120.606 20.1814 120.606C20.3629 120.687 20.5847 120.809 20.7863 120.849C21.5726 121.031 22.3387 120.95 23.0443 120.546C23.125 120.505 23.3064 120.344 23.3266 120.344C23.3266 120.344 23.5282 120.202 23.6088 120.121C23.7701 119.96 23.9113 119.758 24.0322 119.576C24.0524 119.535 24.0927 119.495 24.1129 119.434C24.2137 119.212 24.3346 118.989 24.375 118.747C24.4959 118.201 24.4959 117.817 24.375 117.271C24.3548 117.211 24.3548 117.17 24.3346 117.11C24.2742 116.948 24.1935 116.685 24.0524 116.483Z" fill="#1D1B20"/>
<path d="M15.4839 116.018C15.7057 114.24 17.0364 112.562 18.6896 111.895C20.5243 111.167 22.7017 111.632 24.113 112.966C25.5848 114.341 27.7823 112.137 26.3106 110.763C24.0323 108.641 20.5848 107.812 17.6412 108.964C14.6573 110.157 12.742 112.865 12.3589 116.018C12.2581 116.847 13.1452 117.575 13.9114 117.575C14.8388 117.575 15.3831 116.847 15.4839 116.018Z" fill="#1D1B20"/>
<path d="M24.6775 105.508C25.4436 105.851 26.3509 105.73 26.8146 104.942C27.1976 104.275 27.0363 103.143 26.25 102.799C22.3791 101.102 17.8831 100.435 13.8912 102.092C10.4839 103.507 7.64117 106.377 6.83472 110.076C6.41133 112.036 9.41536 112.865 9.83875 110.905C10.4234 108.216 12.4194 106.054 14.9396 105.023C18.0242 103.729 21.6734 104.194 24.6775 105.508Z" fill="#1D1B20"/>
<path d="M25.5848 98.6357C26.3711 98.9389 27.2985 98.3123 27.5001 97.5442C27.742 96.6751 27.1977 95.9272 26.4114 95.6241C21.0485 93.6028 14.9799 93.3603 9.6775 95.6645C5.20169 97.6048 1.57266 101.405 0.0807269 106.074C-0.524112 107.994 2.47992 108.802 3.08476 106.902C4.3146 103.022 7.45976 99.9292 11.1694 98.3931C15.7864 96.4528 21.0081 96.8974 25.5848 98.6357Z" fill="#1D1B20"/>
<path d="M267.561 121.961C265.383 120.243 258.327 118.929 255.726 118.12C252.702 117.17 249.617 116.342 246.532 115.614C240.262 114.138 231.27 112.4 224.879 111.693C222.238 111.39 219.335 111.228 216.956 112.683C214.657 114.098 213.407 116.665 212.379 119.07C211.17 121.94 210.303 124.932 209.859 128.024C209.516 130.409 209.476 133.118 210.928 135.179C211.331 135.745 211.815 136.21 212.339 136.594C212.44 136.695 212.561 136.796 212.722 136.857C214.335 137.908 218.952 139.08 220.766 139.646C222.863 140.293 224.98 140.92 227.117 141.506C225.02 143.729 222.52 145.488 219.678 146.721C218.851 147.084 219.153 148.358 219.92 148.56C226.553 150.46 233.871 148.843 239.133 144.396C241.553 144.881 243.972 145.285 246.432 145.609C248.548 146.033 254.677 147.024 256.815 147.084C259.577 147.185 262.177 146.458 264.294 144.679C266.351 142.961 267.681 140.495 268.468 137.969C269.355 135.139 269.718 132.067 269.96 129.116C270.161 126.427 269.758 123.699 267.561 121.961Z" fill="#F9AF42"/>
<path d="M29.4556 39.818C30.1008 44.8508 32.9032 49.3783 37.1572 52.1676C37.9435 52.6931 38.6895 51.7027 38.3467 50.9751C37.0564 48.3071 36.8951 45.2955 37.7419 42.5062C38.1653 42.5668 38.5685 42.6275 38.9919 42.6679C41.3508 42.8902 43.7298 42.7689 46.0887 42.587C48.1451 42.4051 50.2217 42.1424 52.2379 41.6168C56.1895 40.586 59.7379 38.4233 61.8548 34.8457C63.9112 31.3895 64.5363 27.1651 64.254 23.2035C63.9516 19.0398 62.6613 14.775 59.1129 12.2485C55.3629 9.58046 50.2419 9.41876 45.8064 9.33791C44.6169 9.3177 43.4274 9.35813 42.2379 9.43898C42.1169 9.37834 41.9758 9.35813 41.7943 9.37834C41.1693 9.45919 40.5645 9.58046 39.9596 9.70173C37.4193 10.106 34.9798 10.9145 32.8024 12.3091C30.1612 13.6835 27.9032 15.725 26.25 18.2515C23.4072 22.6173 22.9637 28.1959 24.7983 33.0469C25.8064 35.634 27.3588 37.9786 29.4556 39.818ZM35.4032 19.5855C36.633 18.8174 38.0846 19.1813 39.2741 19.8078C41.0483 20.7376 42.4798 22.1525 43.508 23.8099C44.3145 21.8291 45.4233 19.9695 47.4798 19.0802C49.9395 18.0292 52.5806 18.9791 53.5282 21.5461C54.5564 24.3354 52.9838 27.4279 51.4717 29.7118C49.8991 32.0969 47.8629 34.1181 45.4838 35.6744C45.0604 35.9574 44.6572 35.7957 44.4153 35.4925C44.2741 35.4925 44.133 35.4521 43.9717 35.3713C41.5121 33.9564 39.2943 32.1171 37.5 29.914C36.633 28.8629 35.8669 27.731 35.2016 26.5385C34.5161 25.3258 33.8104 23.9514 33.8508 22.5163C33.9112 21.4046 34.4153 20.2121 35.4032 19.5855Z" fill="#676173"/>
<path d="M37.5203 29.9342C39.3147 32.1374 41.5324 33.9767 43.9921 35.3915C44.1332 35.4724 44.2945 35.5128 44.4357 35.5128C44.6776 35.816 45.0808 35.9777 45.5042 35.6947C47.8833 34.1182 49.9195 32.1172 51.4921 29.7321C53.0042 27.4481 54.5768 24.3557 53.5486 21.5664C52.601 18.9994 49.9599 18.0494 47.5002 19.1005C45.4437 19.9898 44.3147 21.8493 43.5284 23.8301C42.5002 22.1525 41.0687 20.7377 39.2945 19.8281C38.105 19.2015 36.6534 18.8377 35.4236 19.6058C34.4357 20.2324 33.9316 21.4249 33.8913 22.5366C33.851 23.9716 34.5566 25.3461 35.2421 26.5588C35.8873 27.7513 36.6534 28.863 37.5203 29.9342Z" fill="#F9F2F1"/>
<path d="M122.5 82.7084C122.036 82.1828 121.552 81.6775 121.089 81.152C116.29 76.1192 112.54 69.914 110.625 63.2238C109.657 59.8483 109.314 56.1697 110.564 52.8145C111.189 51.1368 112.117 49.6007 113.286 48.2869C113.891 47.5997 114.577 46.9529 115.302 46.387C115.242 46.4274 115.161 46.4678 115.101 46.5082C112.46 48.1859 110.403 50.7326 109.314 53.6634C109.214 53.9059 109.133 54.1687 109.073 54.4112C107.923 57.7058 108.266 61.3036 109.193 64.6184C110.04 67.5896 111.25 70.4597 112.742 73.1682C114.677 76.6851 117.117 79.9393 119.899 82.7892C120.484 83.4764 121.089 84.1636 121.774 84.6891C122.157 84.9721 122.5 84.9519 122.802 84.7498C122.943 84.7296 123.085 84.6487 123.226 84.5072C123.528 84.1838 123.831 83.8604 124.113 83.5168C124.052 83.5371 124.012 83.5573 123.952 83.5775C123.306 83.7392 122.883 83.1328 122.5 82.7084Z" fill="#1D1B20"/>
<path d="M116.351 45.6594C115.988 45.8818 115.645 46.1243 115.323 46.3871C114.597 46.953 113.911 47.5796 113.307 48.287C112.137 49.621 111.21 51.1572 110.585 52.8146C109.335 56.1698 109.678 59.8484 110.645 63.2238C112.54 69.9141 116.29 76.1192 121.109 81.1521C121.573 81.6776 122.057 82.1829 122.52 82.7084C122.903 83.1329 123.327 83.7595 123.972 83.618C124.032 83.5978 124.073 83.5775 124.133 83.5573C124.315 83.4765 124.456 83.3552 124.597 83.2137C124.617 83.1935 124.637 83.1733 124.657 83.1531C129.597 77.716 134.718 71.9959 136.794 64.76C137.399 62.6781 137.682 60.4952 137.641 58.3325C137.641 58.0091 137.621 57.6857 137.601 57.3623C137.319 53.5018 135.867 49.7625 132.964 46.953C132.057 46.0839 131.069 45.3765 130 44.8307C129.577 44.6084 129.153 44.4265 128.71 44.2648C127.661 43.8808 126.593 43.618 125.484 43.4967C122.339 43.1531 119.093 43.901 116.351 45.6594ZM127.924 54.1081C130.464 56.19 130.928 59.8888 128.932 62.4962C126.956 65.0632 123.307 65.5685 120.665 63.6887C118.044 61.809 117.48 58.09 119.214 55.4219C119.274 55.3209 119.355 55.24 119.436 55.1794C119.476 55.0783 119.516 54.9975 119.597 54.8964C121.694 52.5316 125.424 52.0667 127.924 54.1081Z" fill="#1B9770"/>
<path d="M119.577 54.8963C119.496 54.9772 119.456 55.0782 119.415 55.1793C119.335 55.2399 119.254 55.3208 119.194 55.4219C117.48 58.0899 118.024 61.8089 120.645 63.6886C123.286 65.5684 126.936 65.0631 128.911 62.4961C130.907 59.8888 130.464 56.1899 127.903 54.1081C125.423 52.0666 121.694 52.5315 119.577 54.8963Z" fill="#F9F2F1"/>
<path d="M230.343 123.84C229.98 123.78 229.476 123.84 228.871 124.022C228.266 124.224 227.641 124.406 227.016 124.608C226.815 124.669 226.673 124.709 226.573 124.709C226.472 124.73 226.391 124.75 226.351 124.75C226.573 124.386 226.855 123.881 227.178 123.254C227.52 122.607 227.762 121.88 227.903 121.091C228.004 120.586 227.903 120.162 227.641 119.838C227.379 119.515 227.036 119.292 226.653 119.232C226.29 119.171 225.948 119.232 225.665 119.414C225.383 119.596 225.121 119.858 224.919 120.202C224.698 120.546 224.496 120.93 224.335 121.354C224.173 121.779 224.012 122.203 223.871 122.607L223.548 123.476L223.488 123.396C223.145 122.87 222.762 122.385 222.339 121.9C221.895 121.415 221.432 121.112 220.948 120.97C220.484 120.889 220.081 120.95 219.758 121.152C219.415 121.354 219.234 121.657 219.153 122.021C219.073 122.425 219.214 122.87 219.557 123.355L220.323 124.346C220.544 124.629 220.786 124.932 221.048 125.235C221.311 125.538 221.573 125.801 221.855 125.983L219.315 127.458C219.032 127.64 218.811 127.822 218.649 128.024C218.488 128.226 218.387 128.428 218.347 128.61C218.286 128.974 218.367 129.338 218.589 129.661C218.831 129.985 219.153 130.187 219.597 130.268C219.96 130.328 220.403 130.288 220.887 130.106L223.669 128.509C223.79 128.853 223.972 129.217 224.214 129.601C224.456 129.985 224.718 130.349 225 130.672C225.282 130.995 225.565 131.278 225.827 131.48C226.109 131.703 226.331 131.824 226.512 131.865C226.936 131.945 227.298 131.885 227.641 131.703C227.984 131.521 228.186 131.218 228.266 130.793C228.327 130.49 228.246 130.106 228.024 129.661C227.843 129.338 227.661 129.015 227.5 128.671C227.339 128.348 227.178 128.024 226.976 127.721L227.661 127.539C228.065 127.438 228.488 127.317 228.952 127.195C229.395 127.074 229.819 126.933 230.222 126.771C230.605 126.609 230.948 126.407 231.23 126.205C231.512 126.003 231.673 125.76 231.714 125.498C231.774 125.154 231.694 124.81 231.452 124.467C231.19 124.143 230.827 123.921 230.343 123.84Z" fill="white"/>
<path d="M245.746 126.569C245.383 126.508 244.879 126.569 244.274 126.751C243.669 126.953 243.044 127.135 242.419 127.337C242.218 127.398 242.077 127.438 241.976 127.438C241.875 127.458 241.794 127.478 241.754 127.478C241.976 127.115 242.258 126.609 242.581 125.983C242.923 125.336 243.165 124.608 243.306 123.82C243.407 123.315 243.306 122.89 243.044 122.567C242.782 122.243 242.439 122.021 242.056 121.96C241.673 121.9 241.351 121.96 241.068 122.142C240.786 122.324 240.524 122.587 240.323 122.931C240.101 123.274 239.899 123.658 239.738 124.083C239.577 124.507 239.415 124.932 239.274 125.336L238.952 126.205L238.891 126.124C238.548 125.599 238.165 125.114 237.742 124.628C237.298 124.143 236.835 123.84 236.351 123.699C235.887 123.618 235.484 123.679 235.161 123.881C234.818 124.083 234.637 124.386 234.556 124.75C234.476 125.154 234.617 125.599 234.96 126.084L235.726 127.074C235.947 127.357 236.189 127.66 236.452 127.963C236.714 128.267 236.976 128.529 237.258 128.711L234.718 130.187C234.435 130.369 234.214 130.551 234.052 130.753C233.891 130.955 233.79 131.157 233.75 131.339C233.689 131.703 233.77 132.067 233.992 132.39C234.234 132.713 234.556 132.915 235 132.996C235.363 133.057 235.806 133.017 236.29 132.835L239.073 131.238C239.193 131.581 239.375 131.945 239.617 132.329C239.859 132.713 240.121 133.077 240.403 133.401C240.685 133.724 240.968 134.007 241.23 134.209C241.512 134.431 241.734 134.553 241.915 134.593C242.339 134.674 242.702 134.613 243.044 134.431C243.387 134.249 243.589 133.946 243.669 133.522C243.73 133.219 243.649 132.835 243.427 132.39C243.246 132.067 243.064 131.743 242.903 131.4C242.742 131.076 242.581 130.753 242.379 130.45L243.064 130.268C243.468 130.167 243.891 130.045 244.355 129.924C244.798 129.803 245.222 129.661 245.625 129.5C246.008 129.338 246.351 129.136 246.633 128.934C246.915 128.732 247.077 128.489 247.117 128.226C247.177 127.883 247.097 127.539 246.855 127.195C246.593 126.872 246.23 126.65 245.746 126.569Z" fill="white"/>
<path d="M262.258 130.51C262.016 130.167 261.653 129.965 261.169 129.863C260.786 129.803 260.302 129.863 259.697 130.045C259.093 130.247 258.468 130.429 257.843 130.632C257.641 130.692 257.5 130.733 257.399 130.733C257.298 130.753 257.218 130.773 257.177 130.773C257.399 130.409 257.681 129.904 258.004 129.277C258.347 128.63 258.568 127.903 258.73 127.115C258.83 126.609 258.73 126.185 258.468 125.861C258.205 125.538 257.863 125.316 257.48 125.255C257.117 125.194 256.774 125.255 256.492 125.437C256.209 125.619 255.947 125.882 255.746 126.225C255.524 126.569 255.322 126.953 255.161 127.377C255 127.802 254.839 128.226 254.697 128.63L254.375 129.5L254.314 129.419C253.972 128.893 253.589 128.408 253.165 127.923C252.722 127.438 252.258 127.135 251.774 126.993C251.31 126.912 250.907 126.973 250.585 127.175C250.242 127.377 250.06 127.681 249.98 128.044C249.899 128.449 250.04 128.893 250.383 129.378L251.149 130.369C251.371 130.652 251.613 130.955 251.875 131.258C252.137 131.561 252.399 131.824 252.681 132.006L250.141 133.481C249.859 133.663 249.637 133.845 249.476 134.047C249.314 134.25 249.214 134.452 249.173 134.634C249.113 134.997 249.193 135.361 249.415 135.685C249.657 136.008 249.98 136.21 250.423 136.291C250.786 136.352 251.23 136.311 251.714 136.129L254.496 134.532C254.617 134.876 254.798 135.24 255.04 135.624C255.282 136.008 255.544 136.372 255.826 136.695C256.109 137.019 256.391 137.302 256.653 137.504C256.935 137.726 257.157 137.847 257.339 137.888C257.762 137.969 258.125 137.908 258.468 137.726C258.81 137.544 259.012 137.241 259.093 136.816C259.153 136.513 259.072 136.129 258.851 135.685C258.669 135.361 258.488 135.038 258.326 134.694C258.165 134.371 258.004 134.047 257.802 133.744L258.488 133.562C258.891 133.461 259.314 133.34 259.778 133.219C260.222 133.097 260.645 132.956 261.048 132.794C261.431 132.633 261.774 132.43 262.056 132.228C262.338 132.026 262.5 131.784 262.54 131.521C262.58 131.197 262.5 130.854 262.258 130.51Z" fill="white"/>
</g>
<defs>
<clipPath id="clip0">
<rect width="270" height="320" fill="white"/>
</clipPath>
</defs>
</svg>
