<svg width="457" height="152" viewBox="0 0 457 152" fill="none" xmlns="http://www.w3.org/2000/svg">
<g clip-path="url(#clip0)">
<path d="M455.317 59.9426C450.034 59.0943 444.744 58.2791 439.447 57.4972C426.597 55.6115 413.721 53.9315 400.817 52.457L397.723 52.1108C394.406 51.74 391.088 51.3793 387.767 51.0287C383.518 50.5959 379.269 50.1783 375.019 49.7758C372.828 49.5702 370.62 49.4447 368.435 49.172C367.261 49.027 365.975 48.711 365.144 47.7869C362.819 45.1901 366.323 42.9741 368.503 42.4742C369.445 42.2594 370.398 42.0976 371.357 41.9894C372.821 41.8215 374.295 41.7701 375.767 41.8358L375.388 41.7168C374.109 41.3143 372.83 40.9218 371.551 40.5395C370.954 40.362 370.358 40.1889 369.761 40.0158C367.359 39.319 364.944 38.6625 362.514 38.0465C357.428 36.761 352.302 35.666 347.144 34.729C345.672 34.4606 343.828 34.0061 343.065 32.5324C342.377 31.1972 342.995 29.6802 344.252 28.9985C344.331 28.9552 344.416 28.9228 344.499 28.8838C345.041 28.6485 345.617 28.5066 346.205 28.464C344.828 28.1502 343.165 27.9381 341.908 27.1504C341.6 26.9614 341.319 26.7313 341.072 26.4665C339.885 25.1681 340.19 23.2659 341.42 22.1384C341.745 21.8385 342.12 21.6003 342.528 21.4351C343.758 20.9308 345.216 21.0434 346.55 21.1667L346.337 21.0997C345.696 20.9016 345.092 20.5982 344.548 20.2015C343.649 19.5177 343.112 18.5331 343.63 17.2087C344.553 14.8412 347.445 15.0446 349.495 15.1268C352.246 15.2485 354.987 15.5375 357.703 15.9924C358.234 16.0768 358.769 16.1699 359.296 16.2608C359.184 16.1586 359.078 16.0502 358.978 15.9362C358.583 15.4921 358.306 14.9527 358.174 14.3694C358.035 13.706 358.11 13.0148 358.388 12.3979C359.093 10.7792 360.692 9.99365 362.352 9.78807C364.667 9.50241 367.107 9.74695 369.435 9.78807C371.502 9.82702 373.57 9.87461 375.637 9.93088C380.147 10.0506 384.656 10.2122 389.165 10.4156C398.181 10.8254 407.185 11.4212 416.178 12.2031C418.762 12.4325 421.344 12.68 423.926 12.9454C411.583 4.49014 397.028 -0.0158671 382.138 0.00864439C340.789 0.00864439 307.285 34.0343 307.285 76.0086C307.285 117.983 340.797 152.009 382.138 152.009C423.478 152.009 456.997 117.979 456.997 75.9956C456.998 70.5993 456.435 65.2181 455.317 59.9426ZM340.616 83.0484C340.07 83.0722 339.506 83.0808 338.911 83.07C334.42 82.9726 328.787 81.7001 321.84 78.2614C321.84 78.2614 324.741 75.8225 329.322 73.9787C330.193 73.6281 331.129 73.2992 332.116 73.0114C334.486 72.3098 336.943 71.9571 339.412 71.964C340.004 71.964 340.607 71.9921 341.217 72.0462C342.512 72.1588 343.796 72.384 345.054 72.7193C346.013 72.9755 346.955 73.2927 347.876 73.6693C349.942 74.5229 351.894 75.6391 353.684 76.9911C353.684 76.9911 349.939 82.6134 340.616 83.0484ZM320.794 66.069C320.794 66.069 332.902 54.2164 352.085 62.9398L354.739 66.069H320.794ZM371.903 103.321C368.171 102.787 366.414 99.4412 366.329 95.8964C366.278 93.7821 366.696 91.6613 367.062 89.5882C367.489 87.1947 367.976 84.8142 368.525 82.4467C369.709 77.3444 371.171 72.3124 372.902 67.374C373.367 66.0474 375.46 66.6209 374.991 67.9583C372.268 75.7197 370.221 83.7091 368.876 91.8344C368.405 94.6954 367.764 99.1923 370.916 100.766C374.382 102.497 377.613 99.3611 379.056 96.4483C379.682 95.1823 381.55 96.2968 380.925 97.5584C379.214 101.019 375.952 103.897 371.913 103.321H371.903ZM397.863 116.929C396.631 118.972 394.184 119.093 392.109 118.864C389.416 118.525 386.697 118.475 383.994 118.714C382.089 118.903 379.689 118.862 379.205 116.479C379.121 116.091 379.113 115.689 379.183 115.298C379.252 114.907 379.397 114.534 379.61 114.2C380.693 110.521 387.017 109.439 390.075 109.563C392.251 109.645 394.747 110.073 396.518 111.441C398.128 112.696 398.999 115.033 397.863 116.929ZM402.998 62.9398C422.18 54.2164 434.287 66.069 434.287 66.069H400.338L402.998 62.9398ZM418.031 83.0656C413.542 82.9682 407.906 81.6958 400.96 78.2571C403.344 76.3986 405.985 74.9081 408.797 73.8337C409.678 73.494 410.611 73.1845 411.6 72.9032C413.857 72.2689 416.189 71.9515 418.531 71.9597C419.126 71.9597 419.727 71.9878 420.337 72.0419C421.762 72.1669 423.173 72.4263 424.551 72.8166C425.506 73.0881 426.443 73.4206 427.358 73.8121C429.294 74.6471 431.125 75.7129 432.814 76.9868C432.814 76.9868 429.048 82.6134 419.725 83.0462C419.177 83.0722 418.61 83.0808 418.024 83.07L418.031 83.0656Z" fill="#87A2C7"/>
<path d="M337.728 79.3868C336.006 79.2266 334.347 78.6524 332.887 77.7116C331.427 76.7708 330.209 75.4905 329.333 73.9767C324.752 75.8204 321.852 78.2594 321.852 78.2594C328.798 81.6981 334.427 82.9705 338.922 83.0679C339.506 83.0679 340.071 83.0679 340.627 83.0463C349.95 82.6135 353.716 76.9869 353.716 76.9869C351.926 75.6349 349.974 74.5187 347.908 73.665C345.943 77.318 341.85 79.7331 337.728 79.3868Z" fill="white"/>
<path d="M432.819 76.9911C431.13 75.7172 429.298 74.6515 427.362 73.8164C425.378 77.3806 421.343 79.7286 417.274 79.3867C413.685 79.0859 410.563 76.9219 408.802 73.8381C405.989 74.9124 403.348 76.403 400.965 78.2614C407.911 81.7001 413.54 82.9726 418.035 83.07C418.621 83.07 419.184 83.07 419.73 83.0484C429.042 82.6134 432.819 76.9911 432.819 76.9911Z" fill="white"/>
<path d="M320.805 66.0691H354.749L352.096 62.9399C332.913 54.2165 320.805 66.0691 320.805 66.0691Z" fill="#151F2D"/>
<path d="M402.991 62.9399L400.338 66.0691H434.28C434.28 66.0691 422.174 54.2165 402.991 62.9399Z" fill="#151F2D"/>
<path d="M337.731 79.3867C341.853 79.7329 345.945 77.3179 347.9 73.6692C346.979 73.2927 346.037 72.9754 345.078 72.7192C343.82 72.3839 342.536 72.1587 341.241 72.0462C340.631 71.9921 340.028 71.9683 339.436 71.964C336.967 71.9571 334.51 72.3097 332.14 73.0113C331.153 73.2992 330.222 73.6281 329.346 73.9787C330.221 75.4907 331.437 76.7697 332.895 77.71C334.353 78.6504 336.011 79.2251 337.731 79.3867Z" fill="#151F2D"/>
<path d="M417.259 79.3867C421.328 79.7287 425.359 77.3807 427.347 73.8164C426.433 73.4249 425.496 73.0925 424.54 72.821C423.162 72.4306 421.752 72.1713 420.326 72.0462C419.717 71.9921 419.116 71.9683 418.521 71.964C416.179 71.9559 413.847 72.2733 411.59 72.9075C410.601 73.1802 409.672 73.4983 408.787 73.8381C410.552 76.9219 413.674 79.0859 417.259 79.3867Z" fill="#151F2D"/>
<path d="M379.06 96.4482C377.617 99.361 374.386 102.508 370.92 100.766C367.768 99.1836 368.41 94.6953 368.881 91.8344C370.228 83.7066 372.277 75.7149 375.004 67.9517C375.471 66.6143 373.38 66.0408 372.915 67.3674C371.184 72.3058 369.722 77.3378 368.537 82.4402C367.988 84.8091 367.5 87.1896 367.075 89.5816C366.709 91.6548 366.291 93.7756 366.342 95.8899C366.427 99.4346 368.184 102.78 371.916 103.315C375.955 103.89 379.216 101.012 380.929 97.5519C381.554 96.2967 379.687 95.1822 379.06 96.4482Z" fill="#151F2D"/>
<path d="M396.502 111.441C394.731 110.073 392.239 109.645 390.059 109.563C387 109.446 380.681 110.528 379.594 114.2C379.381 114.534 379.236 114.907 379.166 115.298C379.097 115.689 379.104 116.091 379.189 116.479C379.672 118.859 382.072 118.903 383.978 118.714C386.68 118.475 389.4 118.525 392.092 118.864C394.179 119.104 396.626 118.972 397.847 116.929C399 115.033 398.128 112.696 396.502 111.441Z" fill="#151F2D"/>
<path d="M389.173 10.407C384.666 10.2036 380.156 10.042 375.645 9.92226C373.577 9.86599 371.51 9.8184 369.442 9.77945C367.115 9.73617 364.674 9.49163 362.36 9.77945C360.699 9.98504 359.101 10.7706 358.395 12.3893C358.118 13.0062 358.043 13.6974 358.182 14.3608C368.51 15.6367 378.739 17.6404 388.793 20.3574C389.691 20.5998 389.309 22.0129 388.41 21.7705C378.746 19.1539 368.919 17.2018 358.996 15.9276C359.096 16.0416 359.202 16.15 359.314 16.2522C358.783 16.1613 358.248 16.0682 357.722 15.9838C355.005 15.5289 352.264 15.2398 349.514 15.1182C347.463 15.0425 344.571 14.8326 343.648 17.2001C343.13 18.5245 343.667 19.5091 344.567 20.1929C357.987 21.7795 371.298 24.2072 384.424 27.4621C385.328 27.6785 384.942 29.1003 384.04 28.8752C370.383 25.485 356.524 22.9969 342.55 21.4265C342.143 21.5917 341.767 21.8299 341.442 22.1298C340.212 23.266 339.908 25.1747 341.095 26.458C341.342 26.7228 341.623 26.9528 341.93 27.1418C356.105 28.6105 370.205 30.6707 384.23 33.3224C385.142 33.4955 384.754 34.9087 383.846 34.7355C370.814 32.267 357.703 30.3136 344.513 28.8752C344.43 28.9142 344.345 28.9466 344.266 28.9899C343.009 29.6716 342.391 31.1886 343.079 32.5239C343.842 33.9976 345.686 34.452 347.159 34.7204C352.317 35.6639 357.443 36.7524 362.528 38.0379C364.952 38.6496 367.368 39.306 369.775 40.0072C373.933 40.0366 378.073 40.5816 382.101 41.6302C382.253 41.6631 382.386 41.7551 382.472 41.8866C382.558 42.018 382.59 42.1785 382.561 42.3335C382.555 42.4298 382.527 42.5235 382.481 42.6077C382.435 42.6919 382.37 42.7645 382.293 42.8203C382.215 42.876 382.126 42.9135 382.032 42.93C381.939 42.9465 381.843 42.9416 381.751 42.9157C379.664 42.3754 377.544 41.9721 375.406 41.7082L375.785 41.8272C374.314 41.7615 372.839 41.8129 371.376 41.9808C370.416 42.0889 369.463 42.2508 368.522 42.4656C366.341 42.9655 362.837 45.1902 365.163 47.7784C365.994 48.7024 367.279 49.0184 368.453 49.1634C370.638 49.436 372.846 49.5616 375.037 49.7672C379.289 50.1625 383.538 50.5801 387.785 51.0202C391.106 51.365 394.425 51.7256 397.741 52.1022C401.183 51.0014 404.267 48.973 406.663 46.2332C407.281 45.5277 408.298 46.5665 407.682 47.2698C405.771 49.4509 403.441 51.213 400.836 52.4484C413.736 53.9243 426.613 55.6044 439.465 57.4885C444.763 58.2676 450.053 59.0827 455.336 59.934C451.243 40.7389 439.997 23.8951 423.951 12.9282C421.369 12.6642 418.786 12.4167 416.203 12.1859C407.202 11.3981 398.191 10.8052 389.173 10.407Z" fill="#DCBEC3"/>
<path d="M388.802 20.3553C378.748 17.6383 368.52 15.6346 358.191 14.3586C358.323 14.942 358.6 15.4814 358.995 15.9254C368.918 17.1997 378.744 19.1518 388.408 21.7684C389.318 22.0108 389.7 20.5955 388.802 20.3553Z" fill="#151F2D"/>
<path d="M384.419 27.4686C371.293 24.2137 357.982 21.786 344.562 20.1995C345.105 20.5961 345.709 20.8995 346.35 21.0976L346.563 21.1646C345.229 21.0413 343.771 20.9288 342.541 21.433C356.515 23.0035 370.374 25.4916 384.031 28.8818C384.937 29.1068 385.322 27.6937 384.419 27.4686Z" fill="#151F2D"/>
<path d="M384.224 33.3375C370.213 30.6829 356.113 28.6228 341.924 27.157C343.181 27.9447 344.844 28.1567 346.221 28.4705C345.633 28.5131 345.057 28.655 344.516 28.8904C357.693 30.3331 370.804 32.2865 383.849 34.7507C384.748 34.9238 385.136 33.5107 384.224 33.3375Z" fill="#151F2D"/>
<path d="M407.667 47.2783C408.283 46.575 407.267 45.5362 406.649 46.2417C404.252 48.9815 401.169 51.0099 397.727 52.1106L400.821 52.4569C403.427 51.2215 405.756 49.4594 407.667 47.2783Z" fill="#151F2D"/>
<path d="M382.544 42.3486C382.573 42.1935 382.541 42.0331 382.455 41.9016C382.369 41.7702 382.236 41.6781 382.084 41.6453C378.056 40.5967 373.916 40.0516 369.758 40.0222C370.355 40.1953 370.951 40.3684 371.548 40.5459C372.827 40.9297 374.106 41.3221 375.385 41.7231C377.523 41.9871 379.643 42.3904 381.73 42.9307C381.822 42.9574 381.918 42.9629 382.012 42.9468C382.107 42.9306 382.196 42.8932 382.274 42.8374C382.352 42.7816 382.417 42.7087 382.464 42.6241C382.511 42.5395 382.538 42.4454 382.544 42.3486Z" fill="#151F2D"/>
<path d="M73.8402 2.05591C33.058 2.05591 0 35.6206 0 77.028C0 118.435 33.058 152 73.8402 152C86.9529 152.018 99.8314 148.473 111.14 141.734C112.766 134.167 113.937 126.506 114.644 118.795C114.689 118.299 114.738 117.806 114.778 117.308C114.778 117.249 114.791 117.191 114.795 117.13C112.342 118.249 109.646 118.74 106.909 118.24C102.674 117.464 98.946 113.646 98.5517 109.24C98.4004 107.539 98.7883 105.726 99.8433 104.382C99.8945 104.319 99.9435 104.254 99.9947 104.194C99.7854 104.005 99.6044 103.786 99.4576 103.544C99.3008 103.28 99.1769 102.997 99.0888 102.702C98.541 100.954 98.995 98.6773 99.1634 97.0045C99.6259 92.46 100.785 87.7422 104.066 84.4204C104.115 84.3728 104.159 84.3209 104.208 84.2711C106.657 81.869 110.097 80.4212 113.412 81.0683C114.106 81.2043 114.781 81.429 115.42 81.737C116.836 82.4318 118.059 83.4729 118.981 84.7667L117.159 73.362C117.052 72.7128 116.946 72.0636 116.841 71.4144C115.373 72.5379 113.719 73.3844 111.956 73.9138C110.614 74.323 109.23 74.5792 107.832 74.6777C107.335 74.7124 106.819 74.734 106.282 74.734C103.735 74.7109 101.203 74.3419 98.7521 73.6369C95.8311 72.8081 92.9971 71.6911 90.2904 70.302C92.8997 68.3038 95.8355 66.7881 98.9631 65.8246C101.478 65.0284 104.108 64.6727 106.741 64.7728C107.28 64.7966 107.825 64.8399 108.377 64.9092C109.674 65.0746 110.952 65.3644 112.195 65.7748C113.59 66.2373 114.936 66.8405 116.212 67.5753C116.095 66.859 115.98 66.1405 115.863 65.4242C115.644 64.055 115.423 62.6845 115.2 61.3124C115.051 60.3992 114.791 59.4059 114.895 58.471C107.476 52.3402 99.5641 55.8741 94.9603 59.051L91.5032 58.9493C91.5032 58.9493 105.05 44.5994 116.756 56.307C117.315 56.1913 117.895 56.2603 118.412 56.5039C120.2 57.3197 120.97 59.8214 121.741 61.4813C121.833 61.6803 121.918 61.8816 122.008 62.0807C122.221 62.5655 122.434 63.0545 122.647 63.5436C123.525 65.6038 124.329 67.6921 125.041 69.8194C124.96 69.3087 124.881 68.798 124.8 68.2872L124.314 65.2013L124.192 64.4201L123.579 60.5247C123.361 59.147 123.144 57.767 122.926 56.3849C122.775 55.4089 122.558 54.4026 122.901 53.4461C123.444 51.9312 125.113 51.4248 126.548 51.8706C128.361 52.4333 129.131 54.3507 129.615 56.0365C130.951 60.6849 132.057 65.4112 132.967 70.1787C133.232 71.5615 133.483 72.9487 133.713 74.338L133.733 74.4419C133.801 72.0975 133.872 69.7538 133.946 67.4108C133.946 67.3048 133.946 67.1944 133.946 67.0927C133.976 66.0987 134.005 65.1039 134.033 64.1085L134.206 58.2655C134.261 56.3762 134.135 53.8226 136.124 52.8553C137.567 52.1628 139.321 52.9353 140.204 54.1688C141.448 55.9001 141.499 58.3693 141.785 60.4035C142.495 65.4098 143.057 70.434 143.471 75.4763C144.125 83.4401 144.409 91.4226 144.324 99.4239C146.553 92.1743 147.683 84.6227 147.676 77.028C147.68 35.6206 114.62 2.05591 73.8402 2.05591ZM63.8056 70.1332C63.8836 68.4601 64.1474 66.8013 64.5921 65.1883C64.9246 63.9613 66.8002 64.485 66.4677 65.712C66.0216 67.3059 65.776 68.9507 65.7367 70.6072C65.7367 71.1222 65.6535 72.0203 65.986 72.4596C66.7789 73.5027 67.5313 71.594 67.7359 71.0227C68.0109 70.2458 69.0659 70.0142 69.5135 70.7868C69.7374 71.1763 69.9142 71.592 70.04 72.0246C70.2105 72.5764 70.1977 73.797 71.2165 73.2084C71.598 72.992 71.8964 71.9099 72.0286 71.5204C72.2267 70.9273 72.3569 70.313 72.4165 69.6896C72.5465 68.4366 74.4925 68.428 74.3624 69.6896C74.1706 71.555 73.4992 74.6432 71.5596 75.4612C70.6389 75.8507 69.6904 75.4612 69.0659 74.7232C68.8229 74.4215 68.6372 74.0766 68.5181 73.7061C68.22 74.0676 67.8406 74.3512 67.4119 74.5328C66.9028 74.7625 66.331 74.8058 65.7939 74.6555C65.2568 74.5052 64.7876 74.1704 64.4663 73.7083C63.7609 72.6803 63.7566 71.3343 63.8056 70.1332ZM20.8195 59.7652C33.0474 42.1301 48.9263 58.9515 48.9263 58.9515L45.4692 59.0532C40.5925 55.6751 32.003 51.9118 24.217 59.6678L20.8195 59.7652ZM39.725 74.6583C39.2263 74.6987 38.7098 74.7217 38.1755 74.7275C35.5158 74.7178 32.87 74.3362 30.3128 73.5935C27.5015 72.7897 24.77 71.7218 22.1538 70.4037C24.4754 68.5958 27.0654 67.1743 29.8268 66.1924C32.6246 65.1589 35.5896 64.6721 38.5656 64.7577C39.1048 64.7793 39.6504 64.8182 40.2046 64.8832C41.3826 65.0252 42.5464 65.27 43.6831 65.6146C46.2356 66.4024 48.6331 67.6364 50.7678 69.2611C50.7678 69.2611 48.3977 72.7951 42.7218 74.1801C41.7351 74.4163 40.7317 74.5733 39.7208 74.6496L39.725 74.6583ZM89.7938 87.2489C88.5448 90.3024 85.0834 92.1656 82.2721 93.4446C81.9587 93.5874 81.6326 93.7216 81.3236 93.8514C80.9257 94.0188 80.5243 94.1746 80.1193 94.3189L79.838 94.4163C79.1986 94.6327 78.5698 94.8491 77.9198 95.02C77.502 95.1369 77.0807 95.2451 76.6558 95.3446C76.1684 95.46 75.6775 95.5632 75.183 95.6541C74.7567 95.732 74.3305 95.8042 73.9042 95.8705L73.7081 95.8965C73.1667 95.97 72.6232 96.0328 72.0776 96.0804C71.6513 96.1151 71.2207 96.1424 70.7859 96.1626C70.4598 96.1778 70.1337 96.1865 69.8076 96.193C69.6798 96.193 69.5519 96.193 69.4219 96.193C69.1171 96.193 68.8123 96.193 68.5075 96.193H68.3839C67.7302 96.1757 67.0773 96.1396 66.4251 96.0848C65.9988 96.0473 65.5725 96.0032 65.1463 95.9527C64.9054 95.9246 64.6646 95.8987 64.4258 95.864L64.1466 95.8208C63.8163 95.771 63.4859 95.719 63.1577 95.6606H63.1321C62.7058 95.5827 62.2795 95.5004 61.866 95.4074C61.4525 95.3143 60.973 95.2083 60.5211 95.0958C60.1076 94.9941 59.6899 94.8794 59.2743 94.7647C59.0611 94.7041 58.848 94.6413 58.6348 94.5764C56.2903 93.8515 53.9841 92.8105 52.2555 91.1442C50.0538 89.0212 48.9412 85.5955 50.6016 82.7952C52.0595 80.3368 54.6299 80.0771 57.0576 80.6679C57.4818 80.7719 57.9002 80.899 58.3109 81.0488C58.5858 81.1484 58.8544 81.2652 59.1187 81.3713L59.7581 81.6461C60.1844 81.8214 60.5893 81.9923 61.0028 82.1546L61.0668 82.1785C61.3588 82.291 61.6486 82.3949 61.9385 82.5074C62.3491 82.6517 62.7605 82.7959 63.1726 82.9402C63.6863 83.1068 64.202 83.2626 64.72 83.4033L65.1036 83.5028C65.3956 83.5807 65.6898 83.6543 65.986 83.7192C66.1523 83.756 66.3207 83.7885 66.4869 83.8231L66.7469 83.8772L66.9601 83.9184C67.3139 83.9422 67.6656 83.9552 68.0258 83.9638C68.8136 83.9807 69.6018 83.9576 70.3874 83.8945C70.6836 83.8707 70.9799 83.8405 71.2762 83.8058L71.7174 83.7517C72.1223 83.6955 72.5273 83.624 72.9301 83.5461L73.0538 83.5202C73.4566 83.4401 73.8616 83.3535 74.2623 83.2497C74.307 83.2388 74.3539 83.2302 74.3987 83.2172C74.8782 83.0917 75.3557 82.9532 75.831 82.8103C76.2572 82.6827 76.6835 82.5463 77.1226 82.41L77.1972 82.3862L78.2863 82.0399C78.7126 81.8957 79.1389 81.7615 79.5652 81.6374C79.9254 81.5292 80.2835 81.421 80.6458 81.3237L81.1296 81.1916C81.5431 81.0791 81.963 80.9752 82.3893 80.8757C83.7832 80.5597 85.2305 80.3693 86.6031 80.616C89.7021 81.144 90.9426 84.468 89.7938 87.2489Z" fill="#23C290"/>
<path d="M50.7731 69.2525C48.6383 67.6286 46.2407 66.3953 43.6884 65.6082C44.8414 67.3524 45.2485 69.5533 44.4258 71.6264C44.0352 72.5851 43.4549 73.452 42.7207 74.1736C48.403 72.7864 50.7731 69.2525 50.7731 69.2525Z" fill="white"/>
<path d="M29.8234 66.1838C27.062 67.1657 24.472 68.5873 22.1504 70.3952C24.7667 71.7132 27.4981 72.7811 30.3094 73.585C29.6581 72.7061 29.22 71.6837 29.0305 70.6007C28.7808 69.0796 29.0611 67.5177 29.8234 66.1838Z" fill="white"/>
<path d="M112.194 65.7617C113.46 67.5384 113.938 69.8367 113.081 71.9964C112.801 72.6887 112.42 73.3338 111.949 73.9095C113.712 73.3801 115.367 72.5335 116.834 71.41C116.627 70.1274 116.419 68.8448 116.212 67.5622C114.935 66.8274 113.589 66.2242 112.194 65.7617Z" fill="white"/>
<path d="M98.9623 65.8245C95.8322 66.7886 92.8942 68.3058 90.2832 70.3062C92.9899 71.6954 95.824 72.8123 98.7449 73.6411C98.2144 72.8384 97.8557 71.9316 97.692 70.9793C97.5441 70.0776 97.5806 69.1546 97.7991 68.2678C98.0177 67.3809 98.4136 66.5493 98.9623 65.8245Z" fill="white"/>
<path d="M67.4132 74.5329C67.8419 74.3513 68.2213 74.0677 68.5194 73.7062C68.6385 74.0767 68.8242 74.4216 69.0672 74.7233C69.6917 75.4591 70.6402 75.8508 71.5609 75.4613C73.5005 74.6432 74.1719 71.5551 74.3637 69.6897C74.4938 68.428 72.5478 68.4367 72.4178 69.6897C72.3582 70.3131 72.228 70.9274 72.0299 71.5205C71.8977 71.9079 71.6036 72.9877 71.2178 73.2085C70.199 73.7971 70.2118 72.5765 70.0413 72.0247C69.9155 71.5921 69.7387 71.1764 69.5148 70.7868C69.0672 70.0143 68.0122 70.2458 67.7372 71.0227C67.5241 71.5984 66.7802 73.5028 65.9873 72.4597C65.6548 72.0269 65.7294 71.1223 65.738 70.6073C65.7773 68.9508 66.0229 67.306 66.469 65.7121C66.8015 64.4851 64.9259 63.9614 64.5934 65.1884C64.1487 66.8014 63.8849 68.4602 63.8069 70.1333C63.7579 71.3343 63.7622 72.6804 64.4677 73.7083C64.7889 74.1705 65.2581 74.5053 65.7952 74.6556C66.3323 74.8059 66.9041 74.7626 67.4132 74.5329Z" fill="#151F2D"/>
<path d="M86.6111 80.59C85.2385 80.3433 83.7913 80.5337 82.3974 80.8496C81.9711 80.9449 81.5448 81.0531 81.1377 81.1656L80.6539 81.2976C80.2915 81.3972 79.9335 81.5032 79.5732 81.6114C79.147 81.7412 78.7207 81.8754 78.2944 82.0139L77.2053 82.3602C77.1434 82.9553 77.0409 83.5454 76.8983 84.1261C76.6724 85.0436 76.2824 86.13 75.2124 86.2533C73.6842 86.4329 73.179 84.97 73.0618 83.4941L72.9382 83.5201C72.5354 83.598 72.1304 83.6694 71.7254 83.7257L71.2842 83.7798C70.939 85.247 70.2931 86.7749 68.8289 86.7814C67.0875 86.7814 66.5696 85.2795 66.5099 83.7971C66.3436 83.7625 66.1753 83.73 66.009 83.6933C65.7128 83.6283 65.4186 83.5548 65.1266 83.4768C64.7153 84.9917 63.9352 86.4264 62.4688 86.2555C60.7487 86.0542 60.7892 83.875 61.0898 82.1589L61.0258 82.1351C60.6123 81.9728 60.1967 81.8018 59.7811 81.6266L59.1416 81.3517C58.8774 81.237 58.6088 81.1353 58.3339 81.0293C57.9232 80.8795 57.5048 80.7523 57.0806 80.6484C54.6529 80.0576 52.0825 80.3173 50.6246 82.7757C48.9642 85.576 50.0768 89.0017 52.2785 91.1246C54.0071 92.791 56.309 93.8319 58.6578 94.5569C59.2205 93.6912 60.0134 93.0723 61.1643 93.1892C62.5498 93.332 63.0421 94.4422 63.1466 95.6411H63.1721C63.5004 95.6995 63.8307 95.7514 64.1611 95.8012C64.5533 94.5699 65.2545 93.3753 66.4587 93.4402C67.663 93.5052 68.2065 94.8685 68.4047 96.1734H68.5283C68.8331 96.1734 69.1379 96.1734 69.4427 96.1734C69.4619 94.6954 69.8072 93.0507 71.231 92.897C72.6952 92.7391 73.4156 94.4118 73.7289 95.8791L73.925 95.8531C74.3513 95.7926 74.7776 95.7204 75.2039 95.6367C75.044 94.1219 75.4426 92.3538 77.0326 92.105C78.6226 91.8561 79.4411 93.0637 79.8567 94.3989L80.1381 94.3015C80.543 94.1573 80.9445 94.0014 81.3423 93.8341C81.6599 93.7042 81.9817 93.5701 82.2908 93.4272C85.1021 92.1483 88.5635 90.285 89.8125 87.2315C90.9421 84.468 89.7017 81.144 86.6111 80.59Z" fill="#151F2D"/>
<path d="M43.6881 65.608C42.5515 65.2633 41.3877 65.0186 40.2097 64.8766C39.6555 64.8117 39.1099 64.7727 38.5707 64.7511C35.5947 64.6655 32.6296 65.1523 29.8319 66.1858C29.0718 67.5204 28.7937 69.0824 29.0454 70.6027C29.2349 71.6857 29.673 72.708 30.3243 73.587C32.8815 74.3296 35.5272 74.7112 38.187 74.721C38.7213 74.721 39.2378 74.6979 39.7365 74.6517C40.7491 74.5727 41.754 74.4128 42.7418 74.1734C43.476 73.4519 44.0563 72.585 44.4469 71.6263C45.2483 69.551 44.8412 67.3501 43.6881 65.608Z" fill="#151F2D"/>
<path d="M112.196 65.7616C110.953 65.3512 109.675 65.0614 108.378 64.896C107.826 64.8267 107.281 64.7835 106.742 64.7597C104.109 64.6596 101.479 65.0152 98.9641 65.8114C98.4139 66.5355 98.0165 67.3669 97.7964 68.2537C97.5764 69.1406 97.5386 70.0639 97.6852 70.9662C97.849 71.9185 98.2077 72.8253 98.7382 73.628C101.189 74.3331 103.721 74.702 106.268 74.7252C106.806 74.7252 107.321 74.7036 107.818 74.669C109.216 74.5705 110.6 74.3142 111.942 73.905C112.413 73.3293 112.794 72.6843 113.074 71.992C113.939 69.8366 113.462 67.5383 112.196 65.7616Z" fill="#151F2D"/>
<path d="M143.476 75.4764C143.06 70.437 142.498 65.4127 141.79 60.4036C141.505 58.3694 141.454 55.8893 140.209 54.1689C139.318 52.9354 137.572 52.1628 136.129 52.8553C134.134 53.814 134.26 56.3676 134.211 58.2655L134.038 64.1085C134.01 65.104 133.981 66.0987 133.951 67.0928C134.392 70.5497 134.542 74.0386 134.399 77.5214C134.362 78.3676 133.064 78.3697 133.101 77.5214C133.205 75.0734 133.161 72.6213 132.971 70.1787C132.061 65.4178 130.954 60.6849 129.618 56.0365C129.134 54.3507 128.365 52.4333 126.551 51.8707C125.116 51.4249 123.448 51.9313 122.904 53.4461C122.561 54.4026 122.778 55.4089 122.93 56.3849C123.144 57.7656 123.362 59.1455 123.582 60.5248L124.196 64.4201C125.191 68.6805 125.847 73.0155 126.157 77.3829C126.216 78.229 124.918 78.2225 124.859 77.3829C124.526 72.7156 123.787 68.0874 122.65 63.5523C122.437 63.0632 122.224 62.5742 122.011 62.0894C121.921 61.8903 121.836 61.689 121.745 61.49C120.984 59.8258 120.204 57.3241 118.415 56.5126C117.898 56.269 117.318 56.2 116.759 56.3157C116.277 56.4178 115.839 56.6713 115.507 57.0403C115.175 57.4093 114.966 57.875 114.909 58.3715C114.909 58.4083 114.909 58.443 114.909 58.4797C114.805 59.4146 115.065 60.4079 115.214 61.3211C115.436 62.6888 115.657 64.0594 115.877 65.4329C115.994 66.1492 116.109 66.8676 116.226 67.584C116.434 68.8665 116.641 70.1491 116.849 71.4317C116.955 72.0809 117.062 72.7301 117.166 73.3793L119.014 84.7883C118.092 83.4945 116.869 82.4535 115.453 81.7586C114.814 81.4507 114.139 81.226 113.445 81.09C110.131 80.4407 106.69 81.8907 104.242 84.2928C104.192 84.3426 104.148 84.3945 104.099 84.4421C100.816 87.7639 99.6569 92.4794 99.1965 97.0261C99.0281 98.699 98.5741 100.976 99.1219 102.724C100.16 103.218 101.295 103.466 102.442 103.45C103.588 103.433 104.716 103.151 105.74 102.627C106.433 101.469 106.846 100.09 107.341 98.8851C108.144 96.9374 109.947 93.7519 112.554 94.6306C114.711 95.3555 114.875 98.5908 114.956 100.486C115.054 102.796 114.89 105.568 113.225 107.338C111.959 108.684 109.453 109.502 107.92 108.126C106.759 107.087 106.49 105.362 105.548 104.126C103.739 104.85 101.745 104.947 99.8764 104.401C98.8107 105.745 98.4334 107.559 98.5848 109.26C98.9791 113.666 102.707 117.483 106.942 118.26C109.67 118.76 112.366 118.26 114.828 117.15C114.828 117.21 114.818 117.269 114.811 117.327C117.383 116.134 119.681 114.408 121.557 112.259C122.113 111.625 123.028 112.558 122.474 113.192C120.329 115.644 117.663 117.568 114.677 118.818C113.97 126.53 112.799 134.191 111.173 141.757C127.02 132.323 138.846 117.243 144.352 99.4478C144.412 91.4422 144.12 83.4517 143.476 75.4764Z" fill="#3F5E88"/>
<path d="M116.755 56.3026C105.049 44.595 91.502 58.945 91.502 58.945L94.9591 59.0467C99.5629 55.859 107.475 52.338 114.894 58.4667C114.894 58.4299 114.894 58.3953 114.894 58.3585C114.951 57.8605 115.162 57.3937 115.496 57.0245C115.831 56.6553 116.271 56.4027 116.755 56.3026Z" fill="#151F2D"/>
<path d="M45.4657 59.0444L48.9228 58.9427C48.9228 58.9427 33.0439 42.1213 20.8203 59.765L24.2178 59.6676C31.9995 51.9116 40.5891 55.6662 45.4657 59.0444Z" fill="#151F2D"/>
<path d="M105.119 103.635C105.269 103.779 105.407 103.934 105.532 104.1C106.475 105.336 106.743 107.061 107.905 108.1C109.437 109.47 111.944 108.658 113.21 107.312C114.874 105.542 115.039 102.767 114.941 100.461C114.86 98.5648 114.695 95.3295 112.538 94.6045C109.932 93.7259 108.129 96.9027 107.325 98.8591C106.831 100.064 106.417 101.443 105.724 102.601C105.524 102.942 105.29 103.263 105.027 103.557C105.057 103.583 105.089 103.607 105.119 103.635Z" fill="#00C28A"/>
<path d="M105.532 104.1C105.406 103.934 105.268 103.779 105.118 103.635C105.088 103.607 105.056 103.583 105.027 103.557C105.289 103.262 105.523 102.942 105.723 102.601C104.7 103.125 103.572 103.407 102.426 103.424C101.279 103.44 100.144 103.192 99.1055 102.698C99.1936 102.993 99.3175 103.276 99.4742 103.54C99.6211 103.782 99.802 104.001 100.011 104.189C99.9602 104.25 99.9111 104.315 99.86 104.377C101.729 104.922 103.723 104.825 105.532 104.1Z" fill="#151F2D"/>
<path d="M122.449 113.166C123.003 112.532 122.089 111.599 121.533 112.233C119.657 114.382 117.359 116.108 114.787 117.301C114.746 117.799 114.697 118.292 114.652 118.788C117.638 117.539 120.304 115.616 122.449 113.166Z" fill="#151F2D"/>
<path d="M126.149 77.372C125.839 73.0046 125.183 68.6696 124.188 64.4092L124.309 65.1904L124.795 68.2764C124.876 68.7871 124.955 69.2978 125.036 69.8085C124.324 67.6899 123.521 65.6016 122.643 63.5327C123.779 68.0678 124.518 72.696 124.851 77.3633C124.91 78.2116 126.208 78.2181 126.149 77.372Z" fill="#151F2D"/>
<path d="M133.093 77.5104C133.057 78.3587 134.355 78.3566 134.391 77.5104C134.534 74.0276 134.384 70.5388 133.943 67.0818C133.943 67.1878 133.943 67.2982 133.943 67.3999C133.872 69.7429 133.801 72.0866 133.73 74.431L133.711 74.3271C133.481 72.9378 133.229 71.5506 132.965 70.1678C133.155 72.6104 133.197 75.0625 133.093 77.5104Z" fill="#151F2D"/>
<path d="M62.4588 86.2554C63.9252 86.4264 64.7053 84.9917 65.1166 83.4768L64.733 83.3773C64.2151 83.2366 63.6993 83.0807 63.1856 82.9141C62.7749 82.7799 62.3636 82.6357 61.9515 82.4813C61.6616 82.3752 61.3718 82.2649 61.0798 82.1523C60.7792 83.8641 60.7387 86.0542 62.4588 86.2554Z" fill="white"/>
<path d="M68.8183 86.7814C70.2825 86.7814 70.9283 85.247 71.2736 83.7798C70.9774 83.8144 70.6811 83.8447 70.3848 83.8685C69.5993 83.9316 68.8111 83.9547 68.0232 83.9378C67.6694 83.9378 67.3177 83.9161 66.9575 83.8923L66.7444 83.8512L66.4844 83.7971C66.559 85.2795 67.0705 86.7901 68.8183 86.7814Z" fill="white"/>
<path d="M75.2014 86.2534C76.2671 86.13 76.6614 85.0437 76.8873 84.1261C77.0298 83.5455 77.1324 82.9554 77.1942 82.3602L77.1196 82.3841C76.6933 82.5204 76.2671 82.6568 75.828 82.7844C75.3527 82.9273 74.8752 83.0657 74.3957 83.1913C74.3509 83.2042 74.304 83.2129 74.2593 83.2237C73.8586 83.3276 73.4536 83.4141 73.0508 83.4942C73.168 84.9701 73.6774 86.433 75.2014 86.2534Z" fill="white"/>
<path d="M61.1472 93.1892C59.9962 93.0723 59.2033 93.6999 58.6406 94.5569C58.8538 94.6218 59.0669 94.6845 59.28 94.7451C59.7063 94.8642 60.1134 94.9745 60.5269 95.0762C60.9788 95.1888 61.4306 95.2927 61.8718 95.3879C62.313 95.4831 62.7244 95.5632 63.1379 95.6411C63.0206 94.4422 62.5326 93.332 61.1472 93.1892Z" fill="white"/>
<path d="M66.4422 93.4445C65.2379 93.3796 64.5367 94.5742 64.1445 95.8056L64.4237 95.8488C64.6625 95.8835 64.9033 95.9094 65.1442 95.9375C65.5704 95.9895 65.9967 96.0335 66.423 96.0696C67.0752 96.1244 67.7281 96.1605 68.3817 96.1778C68.1899 94.8728 67.672 93.5116 66.4422 93.4445Z" fill="white"/>
<path d="M71.214 92.91C69.7903 93.0637 69.445 94.7084 69.4258 96.1865C69.5558 96.1865 69.6837 96.1865 69.8116 96.1865C70.1377 96.1865 70.4638 96.1713 70.7899 96.1561C71.2162 96.1359 71.6467 96.1086 72.0815 96.0739C72.6272 96.0263 73.1707 95.9635 73.712 95.89C73.3987 94.4335 72.6783 92.752 71.214 92.91Z" fill="white"/>
<path d="M77.0137 92.1266C75.4237 92.3755 75.0251 94.1392 75.185 95.6584C75.6795 95.5675 76.1704 95.4643 76.6578 95.3489C77.0841 95.2494 77.5054 95.1411 77.9217 95.0243C78.5611 94.8447 79.2006 94.6412 79.84 94.4205C79.4329 93.0918 78.6038 91.8756 77.0137 92.1266Z" fill="white"/>
<path d="M245.347 113.962C252.123 108.552 260.86 106.745 268.526 103.075C276.37 99.32 283.81 93.9056 287.803 85.8682C288.723 84.0158 289.435 81.605 291.807 81.3237C292.256 81.2521 292.716 81.3027 293.14 81.4704C293.563 81.638 293.935 81.9167 294.218 82.278C294.546 82.6995 294.779 83.1883 294.902 83.7106C295.167 82.8818 295.424 82.0508 295.674 81.2241C295.768 80.9189 295.868 80.5597 295.985 80.1659C296.748 77.569 298.116 73.5524 301.313 75.275C300.395 34.6792 267.697 2.05591 227.495 2.05591C186.714 2.05591 153.654 35.6206 153.654 77.028C153.654 77.2444 153.654 77.4456 153.654 77.6534C153.791 77.6534 153.931 77.6534 154.081 77.6642C154.159 77.6642 154.234 77.6794 154.309 77.6902C154.594 77.7314 154.873 77.8137 155.136 77.9347C155.234 77.6312 155.377 77.345 155.562 77.0864C155.777 76.7969 156.052 76.559 156.368 76.3896C159.565 74.6583 160.925 78.6791 161.696 81.2803C161.811 81.6742 161.909 82.0335 162.007 82.3386C162.257 83.1653 162.515 83.9963 162.779 84.8251C162.902 84.3029 163.135 83.814 163.463 83.3925C163.746 83.0316 164.118 82.7532 164.542 82.5855C164.965 82.4179 165.425 82.3671 165.874 82.4381C168.246 82.7195 168.958 85.1302 169.879 86.9827C173.871 95.0201 181.311 100.437 189.153 104.189C196.826 107.868 205.565 109.675 212.334 115.077C218.794 120.227 221.686 128.262 222.991 136.248C223.818 141.437 224.307 146.676 224.455 151.931C225.461 151.974 226.469 152 227.486 152C229.406 152 231.309 151.928 233.196 151.784C233.314 146.207 233.812 140.645 234.688 135.138C235.995 127.148 238.887 119.113 245.347 113.962ZM273.682 72.6609C272.848 72.9206 271.999 73.1259 271.139 73.2754C270.5 73.3858 269.839 73.4746 269.138 73.5308C268.588 73.5741 268.019 73.6001 267.433 73.6044C265.637 73.6112 263.844 73.4497 262.077 73.1218C261.292 72.979 260.484 72.808 259.645 72.5959C256.212 71.6935 252.883 70.4286 249.71 68.8218C252.483 66.6672 255.598 65.0081 258.92 63.9158C259.559 63.6994 260.199 63.5155 260.879 63.3445C263.163 62.7571 265.518 62.4992 267.874 62.5785C268.469 62.6001 269.074 62.6455 269.686 62.7169C270.626 62.8294 271.558 63.0008 272.478 63.2298C273.134 63.3958 273.798 63.5956 274.468 63.8293C276.943 64.709 279.27 65.9672 281.37 67.5602C281.37 67.5602 279.083 70.9599 273.682 72.6609ZM248.156 55.1319C268.539 41.7147 285.068 56.0776 285.068 56.0776L283.789 59.3475C266.977 45.4845 248.156 57.9668 248.156 57.9668V55.1319ZM199.217 72.6609C198.384 72.9209 197.534 73.1261 196.674 73.2754C196.035 73.3858 195.376 73.4746 194.675 73.5308C194.123 73.5741 193.554 73.6001 192.97 73.6044C191.175 73.6111 189.382 73.4496 187.616 73.1218C186.83 72.979 186.022 72.808 185.182 72.5959C181.75 71.6935 178.42 70.4286 175.248 68.8218C178.021 66.6672 181.135 65.0081 184.457 63.9158C185.097 63.6994 185.736 63.5155 186.416 63.3445C188.701 62.7571 191.056 62.4992 193.411 62.5785C194.008 62.6001 194.612 62.6462 195.223 62.7169C196.163 62.8294 197.096 63.0008 198.015 63.2298C198.674 63.3958 199.338 63.5956 200.006 63.8293C202.474 64.7088 204.795 65.9655 206.89 67.5558C206.89 67.5558 204.618 70.9599 199.217 72.6609ZM209.525 57.296C209.525 57.296 190.707 44.8136 173.892 58.6766L172.613 55.4067C172.613 55.4067 189.144 41.0503 209.525 54.461V57.296ZM233.477 97.4806C233.469 97.6598 233.415 97.8337 233.32 97.9848C233.205 98.2113 233.042 98.409 232.842 98.5635C232.643 98.7181 232.412 98.8257 232.167 98.8786C231.868 98.9518 231.556 98.9427 231.263 98.8521C230.969 98.7615 230.705 98.5929 230.498 98.3636C230.296 98.1383 230.153 97.8657 230.081 97.5704C230.008 97.275 230.01 96.966 230.084 96.6712C230.186 96.3339 230.389 96.0376 230.666 95.8241C230.942 95.6105 231.278 95.4905 231.625 95.481C231.868 95.4685 232.11 95.51 232.335 95.6027C232.56 95.6954 232.762 95.8371 232.927 96.0177C233.045 96.1529 233.142 96.3054 233.215 96.47C233.323 96.6107 233.403 96.7708 233.452 96.9417C233.508 97.1151 233.517 97.3005 233.477 97.4784V97.4806ZM232.893 84.4356C231.902 85.4635 230.178 85.6193 229.129 84.5741C228.893 84.3339 228.714 84.0424 228.605 83.7214C228.513 83.4531 228.503 82.41 228.268 82.252C227.518 81.7413 226.712 83.7928 226.535 84.1586C225.873 85.5349 224.901 86.8442 223.245 86.8334C221.753 86.8334 220.429 85.7362 219.834 84.3988C218.999 82.4923 219.551 80.3087 219.956 78.3653C220.933 73.7089 222.19 69.1176 223.72 64.617C224.146 63.3878 226.064 63.918 225.638 65.1558C224.496 68.5318 223.492 71.9554 222.654 75.4244C222.247 77.1232 219.711 84.8727 223.225 84.7862C224.547 84.7559 225.02 82.3883 225.713 81.4946C226.335 80.6874 227.205 80.1659 228.232 80.2113C228.718 80.2214 229.188 80.394 229.568 80.7022C229.949 81.0104 230.218 81.4372 230.336 81.9166C230.41 82.1806 230.372 83.0202 230.568 83.1717C231.018 83.5245 231.54 82.9554 231.721 82.6069C232.162 81.7651 231.8 80.6246 231.593 79.7677C231.286 78.4995 233.213 77.9628 233.511 79.2288C233.959 80.973 234.264 83.0181 232.893 84.4356Z" fill="#F9AF42"/>
<path d="M270.246 131.788C268.328 134.179 267.29 137.15 266.582 140.106C266.533 140.312 266.488 140.517 266.441 140.723C274.97 135.332 282.332 128.239 288.082 119.874C284.629 122.437 280.916 124.473 277.09 126.568C274.568 127.946 272.075 129.502 270.246 131.788Z" fill="#F9AF42"/>
<path d="M187.435 132.911C185.606 130.626 183.113 129.07 180.591 127.691C175.587 124.951 170.787 122.318 166.49 118.463C166.025 118.047 165.568 117.62 165.117 117.182C171.685 127.669 180.706 136.344 191.376 142.433C191.287 142.029 191.194 141.625 191.099 141.221C190.391 138.265 189.349 135.291 187.435 132.911Z" fill="#F9AF42"/>
<path d="M231.615 79.7678C231.828 80.6334 232.184 81.7652 231.742 82.607C231.561 82.9511 231.039 83.5246 230.589 83.1718C230.393 83.0203 230.432 82.1807 230.357 81.9167C230.24 81.4373 229.97 81.0105 229.59 80.7023C229.209 80.394 228.74 80.2215 228.253 80.2114C227.222 80.166 226.356 80.6875 225.734 81.4947C225.041 82.3884 224.568 84.756 223.247 84.7863C219.732 84.8728 222.268 77.1233 222.675 75.4245C223.511 71.962 224.515 68.5319 225.659 65.1559C226.086 63.9181 224.15 63.3879 223.741 64.6171C222.212 69.1177 220.955 73.709 219.977 78.3654C219.572 80.3131 219.02 82.4923 219.856 84.3989C220.442 85.7363 221.774 86.827 223.266 86.8335C224.922 86.8443 225.894 85.535 226.557 84.1587C226.734 83.7929 227.539 81.7414 228.29 82.2521C228.524 82.4101 228.535 83.4532 228.626 83.7215C228.735 84.0425 228.914 84.334 229.151 84.5741C230.199 85.6194 231.921 85.4636 232.915 84.4357C234.281 83.0182 233.98 80.9731 233.554 79.2289C233.234 77.9629 231.308 78.4996 231.615 79.7678Z" fill="#151F2D"/>
<path d="M283.791 59.3497L285.07 56.0798C285.07 56.0798 268.541 41.7233 248.158 55.1341V57.969C248.158 57.969 266.978 45.4823 283.791 59.3497Z" fill="#151F2D"/>
<path d="M172.613 55.4045L173.892 58.6744C190.707 44.8114 209.525 57.2937 209.525 57.2937V54.4588C189.144 41.0481 172.613 55.4045 172.613 55.4045Z" fill="#151F2D"/>
<path d="M233.215 96.4677C233.142 96.3032 233.045 96.1507 232.927 96.0154C232.762 95.8348 232.56 95.6932 232.335 95.6005C232.11 95.5078 231.868 95.4662 231.625 95.4787C231.278 95.4882 230.942 95.6082 230.666 95.8218C230.389 96.0354 230.186 96.3317 230.084 96.669C230.01 96.9638 230.008 97.2727 230.081 97.5681C230.153 97.8635 230.296 98.1361 230.498 98.3613C230.705 98.5906 230.969 98.7593 231.263 98.8498C231.556 98.9404 231.868 98.9496 232.167 98.8763C232.412 98.8234 232.643 98.7158 232.842 98.5613C233.042 98.4067 233.205 98.209 233.32 97.9826C233.415 97.8314 233.469 97.6575 233.477 97.4783C233.517 97.2997 233.508 97.1135 233.452 96.9395C233.403 96.7685 233.323 96.6085 233.215 96.4677Z" fill="#151F2D"/>
<path d="M301.313 75.275C298.115 73.5437 296.756 77.5646 295.984 80.1658C294.589 88.3113 291.211 95.9736 286.156 102.456C285.623 103.135 284.688 102.174 285.214 101.499C285.871 100.658 286.497 99.7961 287.094 98.9131L287.495 98.3094C290.679 93.4323 292.957 88.0049 294.217 82.2953C293.934 81.934 293.562 81.6553 293.139 81.4877C292.715 81.32 292.256 81.2694 291.807 81.3409C289.434 81.6222 288.722 84.033 287.802 85.8854C283.81 93.9228 276.369 99.3373 268.525 103.092C260.852 106.771 252.113 108.578 245.346 113.979C238.886 119.13 235.994 127.165 234.689 135.151C233.814 140.658 233.315 146.22 233.197 151.797C244.996 150.886 256.403 147.093 266.447 140.74C266.494 140.535 266.539 140.329 266.588 140.124C267.295 137.167 268.338 134.196 270.252 131.805C272.08 129.52 274.574 127.964 277.096 126.585C280.932 124.49 284.634 122.454 288.087 119.892C290.461 116.437 292.543 112.786 294.313 108.976C294.177 108.984 294.041 108.952 293.922 108.882C293.804 108.813 293.708 108.71 293.647 108.585C293.585 108.461 293.561 108.322 293.578 108.184C293.594 108.046 293.649 107.916 293.738 107.81C294.533 106.891 295.298 105.947 296.031 104.979C298.02 99.9504 299.462 94.7162 300.332 89.3696C298.837 93.4808 296.878 97.4023 294.494 101.056C293.612 102.409 292.671 103.724 291.672 105.001C291.139 105.682 290.204 104.719 290.73 104.046C291.654 102.869 292.525 101.656 293.343 100.406C297.084 94.6944 299.744 88.3241 301.185 81.6222C301.276 80.1074 301.327 78.5731 301.327 77.0301C301.327 76.4414 301.313 75.8571 301.313 75.275Z" fill="#FF4747"/>
<path d="M294.903 83.7105C294.78 83.1882 294.547 82.6994 294.219 82.2779C292.959 87.9876 290.681 93.415 287.497 98.292L287.096 98.8958C286.499 99.7759 285.873 100.638 285.216 101.482C284.69 102.157 285.625 103.118 286.158 102.438C291.213 95.9562 294.591 88.294 295.986 80.1484C295.869 80.5423 295.773 80.9016 295.675 81.2067C295.426 82.055 295.168 82.8817 294.903 83.7105Z" fill="#151F2D"/>
<path d="M290.724 104.02C290.197 104.693 291.133 105.656 291.666 104.975C292.661 103.699 293.601 102.384 294.488 101.03C296.872 97.3764 298.831 93.4549 300.326 89.3437C300.742 86.783 301.026 84.2021 301.178 81.6115C299.733 88.3054 297.073 94.6673 293.333 100.372C292.517 101.624 291.647 102.84 290.724 104.02Z" fill="#151F2D"/>
<path d="M294.309 108.959C294.918 107.647 295.491 106.315 296.027 104.962C295.292 105.927 294.527 106.87 293.733 107.792C293.645 107.898 293.589 108.028 293.573 108.166C293.557 108.304 293.581 108.444 293.642 108.568C293.704 108.692 293.799 108.795 293.918 108.865C294.036 108.934 294.172 108.967 294.309 108.959Z" fill="#151F2D"/>
<path d="M212.335 115.077C205.559 109.666 196.822 107.859 189.154 104.189C181.312 100.437 173.872 95.0199 169.879 86.9826C168.959 85.1301 168.247 82.7194 165.875 82.438C165.425 82.367 164.966 82.4178 164.543 82.5854C164.119 82.7531 163.747 83.0315 163.464 83.3924C164.724 89.102 167.002 94.5294 170.186 99.4065L170.587 100.01C171.184 100.89 171.81 101.752 172.467 102.596C172.993 103.272 172.058 104.232 171.525 103.553C166.47 97.0707 163.092 89.4085 161.697 81.263C160.932 78.6661 159.566 74.6474 156.368 76.3721C156.053 76.5416 155.778 76.7795 155.563 77.069C156.533 85.7983 159.541 94.1665 164.338 101.478C165.156 102.724 166.027 103.937 166.951 105.118C167.477 105.791 166.542 106.754 166.009 106.072C165.014 104.798 164.073 103.483 163.187 102.127C158.392 94.7876 155.349 86.4147 154.299 77.6728C154.224 77.6728 154.15 77.6533 154.071 77.6468C153.924 77.6359 153.783 77.6338 153.645 77.636C153.697 84.694 154.73 91.7091 156.714 98.4738C157.001 98.9954 157.293 99.5147 157.596 100.028C159.441 103.171 161.565 106.138 163.941 108.889C164.504 109.539 163.566 110.5 163.001 109.844C161.43 108.025 159.966 106.113 158.617 104.118C160.356 108.669 162.531 113.036 165.109 117.156C165.558 117.589 166.016 118.016 166.482 118.437C170.77 122.292 175.579 124.93 180.583 127.665C183.105 129.043 185.598 130.599 187.427 132.885C189.345 135.276 190.383 138.247 191.091 141.203C191.186 141.606 191.279 142.01 191.368 142.415C201.499 148.194 212.836 151.45 224.448 151.913C224.299 146.659 223.81 141.42 222.983 136.23C221.687 128.262 218.795 120.227 212.335 115.077Z" fill="#FF4747"/>
<path d="M172.465 102.614C171.809 101.771 171.182 100.909 170.585 100.028L170.185 99.4239C167.001 94.5468 164.722 89.1194 163.462 83.4097C163.135 83.8313 162.901 84.3201 162.778 84.8423C162.514 84.0135 162.256 83.1825 162.007 82.3558C161.913 82.0507 161.81 81.6915 161.695 81.2976C163.09 89.4431 166.469 97.1054 171.523 103.588C172.056 104.241 173 103.28 172.465 102.614Z" fill="#151F2D"/>
<path d="M166.016 106.089C166.549 106.771 167.484 105.808 166.958 105.135C166.034 103.958 165.163 102.744 164.345 101.495C159.547 94.1814 156.538 85.8101 155.57 77.0778C155.385 77.3364 155.241 77.6226 155.143 77.9261C154.881 77.805 154.602 77.7227 154.316 77.6815C155.367 86.4235 158.41 94.7964 163.204 102.136C164.08 103.495 165.017 104.812 166.016 106.089Z" fill="#151F2D"/>
<path d="M163.948 108.907C161.572 106.155 159.448 103.189 157.603 100.045C157.3 99.532 157.008 99.0126 156.721 98.4911C157.289 100.407 157.924 102.288 158.624 104.135C159.973 106.13 161.437 108.042 163.008 109.861C163.573 110.517 164.511 109.556 163.948 108.907Z" fill="#151F2D"/>
<path d="M274.781 70.6548C274.502 71.3692 274.133 72.0436 273.682 72.6609C279.083 70.96 281.355 67.5602 281.355 67.5602C279.255 65.9672 276.927 64.7091 274.453 63.8293C275.44 65.9523 275.63 68.4583 274.781 70.6548Z" fill="white"/>
<path d="M258.913 63.9158C255.591 65.008 252.476 66.6671 249.703 68.8218C252.876 70.4285 256.205 71.6934 259.638 72.5959C259.277 72.0919 258.975 71.5472 258.738 70.9728C258.289 69.8472 258.073 68.6399 258.103 67.4259C258.133 66.2119 258.409 65.0171 258.913 63.9158Z" fill="white"/>
<path d="M274.457 63.8293C273.787 63.5956 273.124 63.3957 272.466 63.2298C271.546 63.0007 270.614 62.8294 269.674 62.7169C269.062 62.6455 268.457 62.6001 267.862 62.5784C265.506 62.4992 263.152 62.7571 260.867 63.3445C260.191 63.5155 259.537 63.7081 258.908 63.9158C258.404 65.0171 258.129 66.2119 258.098 67.4259C258.068 68.6399 258.284 69.8472 258.733 70.9729C258.97 71.5473 259.272 72.0919 259.633 72.5959C260.472 72.8123 261.28 72.9789 262.065 73.1218C263.832 73.4534 265.626 73.6186 267.423 73.6152C268.015 73.6152 268.585 73.5849 269.128 73.5416C269.829 73.4853 270.494 73.3966 271.129 73.2862C271.989 73.1367 272.838 72.9314 273.672 72.6716C274.123 72.0543 274.493 71.38 274.772 70.6656C275.631 68.4582 275.441 65.9522 274.457 63.8293Z" fill="#151F2D"/>
<path d="M200.319 70.6548C200.039 71.3692 199.67 72.0436 199.219 72.6609C204.62 70.96 206.892 67.5602 206.892 67.5602C204.792 65.9668 202.465 64.7086 199.99 63.8293C200.977 65.9523 201.167 68.4583 200.319 70.6548Z" fill="white"/>
<path d="M184.45 63.9158C181.128 65.008 178.013 66.6671 175.24 68.8218C178.413 70.4285 181.742 71.6934 185.175 72.5959C184.816 72.0909 184.514 71.5464 184.275 70.9728C183.826 69.8472 183.61 68.6399 183.64 67.4259C183.671 66.2119 183.946 65.0171 184.45 63.9158Z" fill="white"/>
<path d="M199.998 63.8293C199.328 63.5956 198.665 63.3957 198.007 63.2298C197.087 63.0007 196.155 62.8294 195.215 62.7169C194.602 62.6462 193.998 62.6001 193.403 62.5784C191.047 62.4992 188.693 62.7571 186.408 63.3445C185.732 63.5155 185.078 63.7081 184.449 63.9158C183.945 65.0171 183.67 66.2119 183.639 67.4259C183.609 68.6399 183.825 69.8472 184.274 70.9729C184.513 71.5465 184.815 72.0909 185.174 72.5959C186.013 72.8123 186.821 72.979 187.608 73.1218C189.374 73.4496 191.166 73.6111 192.962 73.6044C193.554 73.6044 194.123 73.5741 194.667 73.5308C195.368 73.4746 196.031 73.3858 196.666 73.2754C197.526 73.1261 198.375 72.9209 199.209 72.6609C199.66 72.0436 200.03 71.3692 200.309 70.6548C201.166 68.4582 200.976 65.9522 199.998 63.8293Z" fill="#151F2D"/>
</g>
<defs>
<clipPath id="clip0">
<rect width="457" height="152" fill="white"/>
</clipPath>
</defs>
</svg>
