<svg width="12" height="12" viewBox="0 0 12 12" fill="none" xmlns="http://www.w3.org/2000/svg">
<path d="M11.925 5.61974C11.8773 5.49708 11.8059 5.38502 11.7149 5.28999L6.71279 0.293864C6.61951 0.200698 6.50878 0.126794 6.3869 0.0763731C6.26503 0.0259518 6.13441 0 6.00249 0C5.73608 0 5.48058 0.105706 5.2922 0.293864C5.19892 0.38703 5.12493 0.497635 5.07445 0.619363C5.02397 0.741091 4.99799 0.871558 4.99799 1.00331C4.99799 1.26941 5.10382 1.52461 5.2922 1.71277L8.59357 5.00022H1.00042C0.735089 5.00022 0.48063 5.10549 0.293015 5.29289C0.105401 5.48028 0 5.73443 0 5.99944C0 6.26446 0.105401 6.51861 0.293015 6.706C0.48063 6.8934 0.735089 6.99867 1.00042 6.99867H8.59357L5.2922 10.2861C5.19843 10.379 5.12401 10.4895 5.07322 10.6113C5.02243 10.7331 4.99628 10.8637 4.99628 10.9956C4.99628 11.1275 5.02243 11.2581 5.07322 11.3799C5.12401 11.5016 5.19843 11.6121 5.2922 11.705C5.3852 11.7987 5.49585 11.873 5.61776 11.9237C5.73967 11.9745 5.87043 12.0006 6.00249 12.0006C6.13456 12.0006 6.26532 11.9745 6.38723 11.9237C6.50914 11.873 6.61979 11.7987 6.71279 11.705L11.7149 6.7089C11.8059 6.61387 11.8773 6.50181 11.925 6.37915C12.025 6.13588 12.025 5.86301 11.925 5.61974Z" fill="#23C290"/>
</svg>
