<svg width="12" height="12" viewBox="0 0 12 12" fill="none" xmlns="http://www.w3.org/2000/svg">
<path d="M0.0750451 6.38124C0.122659 6.50389 0.194055 6.61595 0.285134 6.71098L5.28721 11.7071C5.38049 11.8003 5.49122 11.8742 5.6131 11.9246C5.73497 11.975 5.86559 12.001 5.99751 12.001C6.26392 12.001 6.51942 11.8953 6.7078 11.7071C6.80108 11.6139 6.87507 11.5033 6.92555 11.3816C6.97603 11.2599 7.00201 11.1294 7.00201 10.9977C7.00201 10.7316 6.89618 10.4764 6.7078 10.2882L3.40643 7.00076L10.9996 7.00076C11.2649 7.00076 11.5194 6.89548 11.707 6.70809C11.8946 6.5207 12 6.26654 12 6.00153C12 5.73652 11.8946 5.48236 11.707 5.29497C11.5194 5.10758 11.2649 5.00231 10.9996 5.00231L3.40643 5.0023L6.7078 1.71485C6.80157 1.62196 6.87599 1.51145 6.92678 1.38968C6.97757 1.26792 7.00372 1.13731 7.00372 1.0054C7.00372 0.873491 6.97757 0.742887 6.92678 0.621122C6.87599 0.499357 6.80157 0.388842 6.7078 0.295951C6.6148 0.202296 6.50415 0.127957 6.38224 0.0772281C6.26033 0.0264983 6.12957 0.000380956 5.99751 0.000380945C5.86544 0.000380933 5.73468 0.0264982 5.61277 0.077228C5.49086 0.127957 5.38021 0.202296 5.28721 0.295951L0.285134 5.29208C0.194055 5.38711 0.122659 5.49917 0.0750452 5.62182C-0.0250143 5.8651 -0.0250144 6.13796 0.0750451 6.38124Z" fill="#23C290"/>
</svg>
