<svg width="40" height="40" viewBox="0 0 40 40" fill="none" xmlns="http://www.w3.org/2000/svg">
<circle cx="20" cy="20" r="20" fill="#23C290"/>
<path d="M26.7104 15.2099C26.6175 15.1161 26.5069 15.0417 26.385 14.991C26.2632 14.9402 26.1324 14.9141 26.0004 14.9141C25.8684 14.9141 25.7377 14.9402 25.6159 14.991C25.494 15.0417 25.3834 15.1161 25.2904 15.2099L17.8404 22.6699L14.7104 19.5299C14.6139 19.4366 14.5 19.3633 14.3751 19.3141C14.2503 19.2649 14.1169 19.2408 13.9828 19.2431C13.8486 19.2454 13.7162 19.2741 13.5931 19.3276C13.47 19.3811 13.3587 19.4583 13.2654 19.5549C13.1722 19.6514 13.0989 19.7653 13.0497 19.8902C13.0005 20.015 12.9763 20.1484 12.9787 20.2825C12.981 20.4167 13.0097 20.5491 13.0632 20.6722C13.1167 20.7953 13.1939 20.9066 13.2904 20.9999L17.1304 24.8399C17.2234 24.9336 17.334 25.008 17.4559 25.0588C17.5777 25.1095 17.7084 25.1357 17.8404 25.1357C17.9725 25.1357 18.1032 25.1095 18.225 25.0588C18.3469 25.008 18.4575 24.9336 18.5504 24.8399L26.7104 16.6799C26.8119 16.5862 26.893 16.4726 26.9484 16.3461C27.0038 16.2196 27.0324 16.083 27.0324 15.9449C27.0324 15.8068 27.0038 15.6702 26.9484 15.5437C26.893 15.4172 26.8119 15.3035 26.7104 15.2099Z" fill="white"/>
</svg>
