<svg width="24" height="24" viewBox="0 0 24 24" fill="none" xmlns="http://www.w3.org/2000/svg">
<path d="M20.4899 7.52045C20.4843 7.49408 20.4843 7.46681 20.4899 7.44045C20.4851 7.41737 20.4851 7.39353 20.4899 7.37045V7.28045L20.4299 7.13045C20.4056 7.08952 20.3752 7.05244 20.3399 7.02045L20.2499 6.94045H20.1999L16.2599 4.45045L12.5399 2.15045C12.4539 2.08218 12.3554 2.03124 12.2499 2.00045H12.1699C12.0806 1.98553 11.9893 1.98553 11.8999 2.00045H11.7999C11.6838 2.02614 11.5724 2.07001 11.4699 2.13045L3.99995 6.78045L3.90995 6.85045L3.81995 6.93045L3.71995 7.00045L3.66995 7.06045L3.60995 7.21045V7.30045V7.36045C3.60023 7.42676 3.60023 7.49413 3.60995 7.56045V16.2904C3.60961 16.4604 3.65258 16.6276 3.73482 16.7763C3.81705 16.9251 3.93583 17.0504 4.07995 17.1404L11.5799 21.7804L11.7299 21.8404H11.8099C11.9791 21.8941 12.1608 21.8941 12.3299 21.8404H12.4099L12.5599 21.7804L19.9999 17.2104C20.1441 17.1204 20.2628 16.9951 20.3451 16.8463C20.4273 16.6976 20.4703 16.5304 20.4699 16.3604V7.63045C20.4699 7.63045 20.4899 7.56045 20.4899 7.52045ZM11.9999 4.17045L13.7799 5.27045L8.18995 8.73045L6.39995 7.63045L11.9999 4.17045ZM10.9999 19.1704L5.49995 15.8104V9.42045L10.9999 12.8204V19.1704ZM11.9999 11.0604L10.0899 9.91045L15.6799 6.44045L17.5999 7.63045L11.9999 11.0604ZM18.4999 15.7804L12.9999 19.2004V12.8204L18.4999 9.42045V15.7804Z" fill="black"/>
</svg>
