<svg width="150" height="152" viewBox="0 0 150 152" fill="none" xmlns="http://www.w3.org/2000/svg">
<path d="M148.032 59.934C142.749 59.0857 137.459 58.2706 132.162 57.4886C119.312 55.603 106.436 53.9229 93.5323 52.4485L90.4375 52.1022C87.121 51.7314 83.8024 51.3708 80.4817 51.0202C76.2331 50.5874 71.9838 50.1697 67.7338 49.7672C65.5427 49.5616 63.3346 49.4361 61.1499 49.1634C59.9755 49.0184 58.6902 48.7025 57.859 47.7784C55.5336 45.1815 59.0377 42.9656 61.2181 42.4657C62.1599 42.2508 63.1126 42.089 64.072 41.9809C65.5358 41.8129 67.0103 41.7615 68.4819 41.8272L68.1025 41.7082C66.8237 41.3057 65.5448 40.9133 64.266 40.5309C63.6692 40.3535 63.0724 40.1804 62.4756 40.0072C60.0742 39.3104 57.6586 38.654 55.2288 38.0379C50.1433 36.7525 45.0173 35.6575 39.8593 34.7204C38.3865 34.4521 36.5429 33.9976 35.7798 32.5239C35.0914 31.1886 35.7095 29.6717 36.967 28.99C37.0459 28.9467 37.1311 28.9142 37.2143 28.8753C37.7556 28.6399 38.3319 28.498 38.9194 28.4555C37.5425 28.1417 35.88 27.9296 34.6225 27.1419C34.3151 26.9528 34.0341 26.7228 33.787 26.458C32.5998 25.1595 32.9046 23.2573 34.1344 22.1298C34.4594 21.83 34.8348 21.5917 35.2427 21.4265C36.4725 20.9223 37.9304 21.0348 39.2647 21.1582L39.0515 21.0911C38.4111 20.8931 37.807 20.5896 37.2633 20.193C36.3638 19.5092 35.8267 18.5245 36.3447 17.2001C37.2675 14.8326 40.1598 15.036 42.2102 15.1183C44.9608 15.2399 47.7018 15.529 50.4183 15.9839C50.949 16.0683 51.484 16.1613 52.0104 16.2522C51.8988 16.1501 51.7928 16.0417 51.6929 15.9276C51.2977 15.4836 51.0211 14.9442 50.8893 14.3608C50.75 13.6975 50.8247 13.0063 51.1025 12.3894C51.808 10.7707 53.4065 9.98511 55.0668 9.77952C57.3815 9.49386 59.822 9.7384 62.1495 9.77952C64.217 9.81847 66.2844 9.86607 68.3519 9.92233C72.8619 10.0421 77.3712 10.2037 81.8799 10.4071C90.8957 10.8168 99.9002 11.4127 108.893 12.1946C111.477 12.424 114.059 12.6714 116.641 12.9369C104.298 4.48159 89.7423 -0.024412 74.8526 9.94722e-05C33.5035 9.94722e-05 0 34.0258 0 76.0001C0 117.974 33.512 152 74.8526 152C116.193 152 149.712 117.97 149.712 75.9871C149.713 70.5908 149.15 65.2096 148.032 59.934ZM33.3308 83.0398C32.7852 83.0636 32.2204 83.0722 31.6257 83.0614C27.1349 82.964 21.5016 81.6916 14.5553 78.2529C14.5553 78.2529 17.4562 75.8139 22.0366 73.9702C22.9083 73.6196 23.844 73.2906 24.8308 73.0028C27.2009 72.3012 29.6579 71.9485 32.1266 71.9554C32.7191 71.9554 33.3223 71.9836 33.9319 72.0377C35.2273 72.1502 36.5109 72.3754 37.7684 72.7107C38.7278 72.9669 39.6703 73.2842 40.5904 73.6607C42.6569 74.5144 44.6084 75.6306 46.3984 76.9826C46.3984 76.9826 42.6536 82.6048 33.3308 83.0398ZM13.5088 66.0605C13.5088 66.0605 25.6173 54.2079 44.7999 62.9312L47.4535 66.0605H13.5088ZM64.6177 103.313C60.8856 102.778 59.1293 99.4326 59.0441 95.8879C58.9929 93.7736 59.4107 91.6528 59.7773 89.5796C60.2035 87.1862 60.6909 84.8057 61.2394 82.4382C62.4239 77.3358 63.8854 72.3039 65.6173 67.3654C66.0819 66.0388 68.175 66.6124 67.7061 67.9498C64.9824 75.7111 62.9362 83.7006 61.5911 91.8259C61.12 94.6868 60.4785 99.1837 63.6308 100.757C67.0965 102.488 70.3277 99.3526 71.7707 96.4397C72.3973 95.1737 74.2644 96.2882 73.6399 97.5499C71.9284 101.01 68.6673 103.888 64.6283 103.313H64.6177ZM90.5781 116.92C89.3462 118.963 86.8993 119.085 84.8233 118.855C82.1312 118.517 79.4115 118.467 76.7091 118.706C74.8036 118.894 72.4037 118.853 71.9198 116.47C71.8355 116.082 71.8278 115.681 71.8974 115.29C71.9669 114.899 72.1122 114.525 72.3248 114.192C73.4076 110.513 79.7314 109.431 82.79 109.554C84.9661 109.636 87.462 110.065 89.2332 111.432C90.8424 112.688 91.7142 115.025 90.5781 116.92ZM95.7127 62.9312C114.895 54.2079 127.002 66.0605 127.002 66.0605H93.0527L95.7127 62.9312ZM110.745 83.0571C106.257 82.9597 100.621 81.6872 93.6751 78.2485C96.0585 76.3901 98.6995 74.8995 101.512 73.8252C102.392 73.4854 103.326 73.1759 104.315 72.8946C106.572 72.2604 108.904 71.943 111.246 71.9511C111.841 71.9511 112.442 71.9792 113.052 72.0333C114.477 72.1584 115.887 72.4177 117.265 72.8081C118.221 73.0796 119.158 73.412 120.072 73.8035C122.009 74.6386 123.84 75.7043 125.529 76.9782C125.529 76.9782 121.763 82.6048 112.44 83.0376C111.892 83.0636 111.325 83.0722 110.739 83.0614L110.745 83.0571Z" fill="#87A2C7"/>
<path d="M30.4432 79.378C28.7212 79.2178 27.0616 78.6436 25.6017 77.7028C24.1417 76.762 22.9234 75.4817 22.0476 73.9679C17.4672 75.8117 14.5664 78.2506 14.5664 78.2506C21.5126 81.6893 27.1417 82.9617 31.6368 83.0591C32.2208 83.0591 32.7856 83.0592 33.3419 83.0375C42.6646 82.6047 46.4308 76.9781 46.4308 76.9781C44.6408 75.6261 42.6892 74.5099 40.6228 73.6562C38.6576 77.3092 34.5653 79.7243 30.4432 79.378Z" fill="white"/>
<path d="M125.533 76.9823C123.845 75.7084 122.013 74.6427 120.077 73.8076C118.093 77.3718 114.058 79.7199 109.989 79.3779C106.4 79.0771 103.277 76.9131 101.517 73.8293C98.7041 74.9036 96.0632 76.3942 93.6797 78.2526C100.626 81.6913 106.255 82.9638 110.75 83.0612C111.336 83.0612 111.899 83.0612 112.445 83.0396C121.757 82.6046 125.533 76.9823 125.533 76.9823Z" fill="white"/>
<path d="M13.5195 66.0601H47.4642L44.8106 62.9309C25.628 54.2075 13.5195 66.0601 13.5195 66.0601Z" fill="#151F2D"/>
<path d="M95.7063 62.9309L93.0527 66.0601H126.995C126.995 66.0601 114.889 54.2075 95.7063 62.9309Z" fill="#151F2D"/>
<path d="M30.4455 79.3779C34.5676 79.7242 38.6599 77.3091 40.6144 73.6604C39.6943 73.2839 38.7518 72.9666 37.7924 72.7104C36.5349 72.3751 35.2513 72.15 33.9559 72.0374C33.3463 71.9833 32.7431 71.9595 32.1506 71.9552C29.6818 71.9483 27.2249 72.301 24.8548 73.0026C23.868 73.2904 22.9366 73.6193 22.0605 73.9699C22.9356 75.4819 24.1523 76.7609 25.6103 77.7012C27.0682 78.6416 28.7256 79.2163 30.4455 79.3779Z" fill="#151F2D"/>
<path d="M109.974 79.378C114.043 79.7199 118.074 77.3719 120.062 73.8076C119.148 73.4161 118.211 73.0837 117.255 72.8122C115.877 72.4219 114.467 72.1625 113.041 72.0374C112.432 71.9833 111.831 71.9596 111.236 71.9552C108.894 71.9471 106.562 72.2645 104.305 72.8987C103.316 73.1714 102.386 73.4895 101.502 73.8293C103.267 76.9131 106.389 79.0772 109.974 79.378Z" fill="#151F2D"/>
<path d="M71.7751 96.4394C70.3321 99.3523 67.1009 102.499 63.6353 100.757C60.4829 99.1748 61.1244 94.6865 61.5955 91.8256C62.9431 83.6978 64.9921 75.7061 67.719 67.9429C68.1858 66.6055 66.0949 66.032 65.6302 67.3586C63.8984 72.2971 62.4368 77.329 61.2523 82.4314C60.7024 84.8003 60.2151 87.1808 59.7902 89.5728C59.4236 91.646 59.0059 93.7668 59.057 95.8811C59.1423 99.4258 60.8985 102.771 64.6306 103.306C68.6696 103.882 71.9307 101.003 73.6443 97.5431C74.2688 96.2879 72.4017 95.1734 71.7751 96.4394Z" fill="#151F2D"/>
<path d="M89.2168 111.432C87.4456 110.065 84.954 109.636 82.7736 109.554C79.715 109.437 73.3955 110.519 72.3085 114.191C72.0958 114.525 71.9505 114.898 71.881 115.29C71.8115 115.681 71.8191 116.082 71.9035 116.47C72.3873 118.851 74.7873 118.894 76.6928 118.706C79.3952 118.466 82.1148 118.516 84.8069 118.855C86.8936 119.095 89.3404 118.963 90.5617 116.92C91.7148 115.025 90.8431 112.687 89.2168 111.432Z" fill="#151F2D"/>
<path d="M81.8876 10.3985C77.3804 10.195 72.871 10.0335 68.3596 9.91372C66.2921 9.85745 64.2246 9.80986 62.1572 9.77091C59.8297 9.72762 57.3892 9.48308 55.0745 9.77091C53.4142 9.97649 51.8156 10.7621 51.1101 12.3808C50.8324 12.9976 50.7576 13.6889 50.897 14.3522C61.2253 15.6282 71.4537 17.6319 81.5082 20.3489C82.4055 20.5912 82.024 22.0044 81.1245 21.762C71.4605 19.1454 61.6338 17.1933 51.7112 15.919C51.8111 16.0331 51.9171 16.1414 52.0288 16.2436C51.4981 16.1527 50.9631 16.0597 50.4366 15.9753C47.7201 15.5204 44.9792 15.2313 42.2286 15.1097C40.1782 15.0339 37.2859 14.824 36.363 17.1915C35.845 18.5159 36.3821 19.5005 37.2816 20.1844C50.7022 21.771 64.0133 24.1987 77.1388 27.4535C78.0425 27.6699 77.6567 29.0917 76.7551 28.8667C63.0982 25.4765 49.2392 22.9884 35.2653 21.4179C34.8574 21.5832 34.482 21.8214 34.157 22.1213C32.9271 23.2574 32.6224 25.1661 33.8095 26.4494C34.0567 26.7142 34.3377 26.9442 34.645 27.1332C48.8203 28.6019 62.9202 30.6621 76.9449 33.3138C77.8571 33.487 77.4692 34.9001 76.5612 34.727C63.5284 32.2585 50.4174 30.305 37.2283 28.8667C37.1452 28.9056 37.0599 28.9381 36.9811 28.9814C35.7235 29.663 35.1054 31.1801 35.7939 32.5153C36.5569 33.989 38.4006 34.4435 39.8734 34.7118C45.0314 35.6554 50.1574 36.7439 55.2429 38.0294C57.667 38.6411 60.0826 39.2975 62.4897 39.9986C66.6481 40.028 70.7874 40.5731 74.8156 41.6217C74.9677 41.6545 75.101 41.7466 75.187 41.878C75.2731 42.0095 75.305 42.1699 75.276 42.325C75.2696 42.4213 75.2423 42.515 75.1958 42.5992C75.1494 42.6834 75.085 42.7559 75.0074 42.8117C74.9298 42.8675 74.841 42.905 74.7473 42.9215C74.6537 42.938 74.5576 42.9331 74.466 42.9071C72.3787 42.3669 70.2592 41.9635 68.1208 41.6996L68.5002 41.8186C67.0286 41.7529 65.5541 41.8043 64.0904 41.9723C63.131 42.0804 62.1782 42.2422 61.2364 42.457C59.056 42.9569 55.552 45.1816 57.8774 47.7698C58.7086 48.6939 59.9938 49.0098 61.1682 49.1548C63.3529 49.4275 65.561 49.553 67.7521 49.7586C72.0035 50.1539 76.2529 50.5716 80.5 51.0116C83.8208 51.3564 87.1393 51.7171 90.4558 52.0936C93.898 50.9929 96.9816 48.9645 99.3779 46.2247C99.996 45.5192 101.013 46.5579 100.397 47.2613C98.4854 49.4423 96.1558 51.2045 93.5506 52.4399C106.451 53.9158 119.328 55.5958 132.18 57.48C137.477 58.2591 142.768 59.0742 148.051 59.9254C143.958 40.7304 132.712 23.8866 116.666 12.9196C114.084 12.6556 111.501 12.4082 108.918 12.1773C99.9164 11.3896 90.9063 10.7967 81.8876 10.3985Z" fill="#DCBEC3"/>
<path d="M81.5173 20.3462C71.4629 17.6292 61.2345 15.6255 50.9062 14.3496C51.038 14.9329 51.3146 15.4723 51.7098 15.9164C61.6324 17.1907 71.4591 19.1428 81.123 21.7594C82.0331 22.0018 82.4146 20.5865 81.5173 20.3462Z" fill="#151F2D"/>
<path d="M77.1336 27.4596C64.0081 24.2047 50.697 21.777 37.2764 20.1904C37.8201 20.5871 38.4242 20.8905 39.0647 21.0886L39.2778 21.1556C37.9436 21.0322 36.4857 20.9198 35.2559 21.424C49.2298 22.9944 63.0887 25.4825 76.7457 28.8727C77.6516 29.0978 78.0373 27.6846 77.1336 27.4596Z" fill="#151F2D"/>
<path d="M76.9385 33.329C62.9281 30.6744 48.8281 28.6142 34.6387 27.1484C35.8962 27.9362 37.5587 28.1482 38.9356 28.462C38.3481 28.5046 37.7718 28.6465 37.2304 28.8819C50.4082 30.3246 63.5192 32.278 76.5634 34.7421C77.4629 34.9153 77.8508 33.5021 76.9385 33.329Z" fill="#151F2D"/>
<path d="M100.382 47.2695C100.998 46.5662 99.9815 45.5275 99.3634 46.2329C96.9671 48.9728 93.8836 51.0011 90.4414 52.1019L93.5361 52.4481C96.1413 51.2127 98.4709 49.4506 100.382 47.2695Z" fill="#151F2D"/>
<path d="M75.259 42.34C75.288 42.185 75.256 42.0245 75.17 41.8931C75.0839 41.7616 74.9506 41.6696 74.7986 41.6367C70.7703 40.5881 66.631 40.0431 62.4727 40.0137C63.0694 40.1868 63.6663 40.3599 64.2631 40.5374C65.5419 40.9211 66.8207 41.3135 68.0996 41.7146C70.238 41.9785 72.3574 42.3819 74.4448 42.9222C74.5366 42.9489 74.6331 42.9544 74.7273 42.9382C74.8215 42.9221 74.9109 42.8847 74.989 42.8289C75.0671 42.773 75.1319 42.7002 75.1786 42.6156C75.2253 42.531 75.2528 42.4368 75.259 42.34Z" fill="#151F2D"/>
</svg>
