<svg width="105" height="44" viewBox="0 0 105 44" fill="none" xmlns="http://www.w3.org/2000/svg">
<path fill-rule="evenodd" clip-rule="evenodd" d="M104.423 22.6183C104.423 15.2547 100.846 9.44434 94.0095 9.44434C87.1441 9.44434 82.9902 15.2547 82.9902 22.5607C82.9902 31.2187 87.8941 35.5909 94.9325 35.5909C98.3652 35.5909 100.961 34.8142 102.923 33.7212V27.9684C100.961 28.9464 98.7114 29.5504 95.8556 29.5504C93.0575 29.5504 90.5768 28.5724 90.2595 25.1783H104.365C104.365 24.8043 104.423 23.3086 104.423 22.6183ZM90.1729 19.8857C90.1729 16.6353 92.1633 15.2834 93.9806 15.2834C95.7402 15.2834 97.6152 16.6353 97.6152 19.8857H90.1729Z" fill="#635BFF"/>
<path fill-rule="evenodd" clip-rule="evenodd" d="M71.8555 9.44434C69.0285 9.44434 67.2112 10.7675 66.2016 11.6879L65.8266 9.90456H59.4805V43.4434L66.692 41.9189L66.7208 33.7787C67.7593 34.5266 69.2882 35.5909 71.8266 35.5909C76.9901 35.5909 81.692 31.4488 81.692 22.3306C81.6632 13.9891 76.9035 9.44434 71.8555 9.44434ZM70.1247 29.2628C68.4228 29.2628 67.4132 28.6587 66.7208 27.9109L66.692 17.2394C67.442 16.4052 68.4805 15.83 70.1247 15.83C72.7497 15.83 74.567 18.7639 74.567 22.532C74.567 26.3864 72.7785 29.2628 70.1247 29.2628Z" fill="#635BFF"/>
<path fill-rule="evenodd" clip-rule="evenodd" d="M49.5566 7.74734L56.797 6.19408V0.35498L49.5566 1.87947V7.74734Z" fill="#635BFF"/>
<path d="M56.797 9.93359H49.5566V35.1021H56.797V9.93359Z" fill="#635BFF"/>
<path fill-rule="evenodd" clip-rule="evenodd" d="M41.7978 12.0621L41.3362 9.93355H35.1055V35.1021H42.317V18.045C44.0189 15.8302 46.9035 16.2329 47.7978 16.5493V9.93355C46.8747 9.58838 43.4997 8.95557 41.7978 12.0621Z" fill="#635BFF"/>
<path fill-rule="evenodd" clip-rule="evenodd" d="M27.3739 3.69141L20.3355 5.18714L20.3066 28.2271C20.3066 32.4842 23.5086 35.6195 27.7778 35.6195C30.1432 35.6195 31.8739 35.188 32.8259 34.6703V28.8312C31.9028 29.2051 27.3451 30.5283 27.3451 26.2712V16.0599H32.8259V9.93321H27.3451L27.3739 3.69141Z" fill="#635BFF"/>
<path fill-rule="evenodd" clip-rule="evenodd" d="M7.87425 17.2394C7.87425 16.1176 8.79733 15.6861 10.3262 15.6861C12.5185 15.6861 15.2877 16.3477 17.48 17.527V10.7675C15.0858 9.81827 12.7204 9.44434 10.3262 9.44434C4.4704 9.44434 0.576172 12.4933 0.576172 17.5846C0.576172 25.5234 11.5377 24.2578 11.5377 27.6807C11.5377 29.0039 10.3839 29.4354 8.76848 29.4354C6.37425 29.4354 3.31656 28.4574 0.893479 27.1342V33.9801C3.57617 35.1306 6.28771 35.6196 8.76848 35.6196C14.7685 35.6196 18.8935 32.6569 18.8935 27.5082C18.8646 18.9365 7.87425 20.461 7.87425 17.2394Z" fill="#635BFF"/>
</svg>
