<svg width="52" height="52" viewBox="0 0 52 52" fill="none" xmlns="http://www.w3.org/2000/svg">
<path d="M41.1668 8.6665H10.8335C9.10959 8.6665 7.45629 9.35132 6.2373 10.5703C5.01832 11.7893 4.3335 13.4426 4.3335 15.1665V36.8332C4.3335 38.5571 5.01832 40.2104 6.2373 41.4294C7.45629 42.6483 9.10959 43.3332 10.8335 43.3332H41.1668C42.8907 43.3332 44.544 42.6483 45.763 41.4294C46.982 40.2104 47.6668 38.5571 47.6668 36.8332V15.1665C47.6668 13.4426 46.982 11.7893 45.763 10.5703C44.544 9.35132 42.8907 8.6665 41.1668 8.6665ZM10.8335 38.9998C10.2589 38.9998 9.70776 38.7716 9.30143 38.3652C8.8951 37.9589 8.66683 37.4078 8.66683 36.8332V31.5898L15.8168 24.4615C16.2218 24.0645 16.7664 23.8421 17.3335 23.8421C17.9006 23.8421 18.4452 24.0645 18.8502 24.4615L33.3885 38.9998H10.8335ZM43.3335 36.8332C43.3335 37.4078 43.1052 37.9589 42.6989 38.3652C42.2926 38.7716 41.7415 38.9998 41.1668 38.9998H39.4985L31.2435 30.7015L33.1502 28.7948C33.5552 28.3978 34.0997 28.1755 34.6668 28.1755C35.234 28.1755 35.7785 28.3978 36.1835 28.7948L43.3335 35.9232V36.8332ZM43.3335 29.8132L39.2602 25.7615C38.0253 24.5751 36.3793 23.9125 34.6668 23.9125C32.9544 23.9125 31.3084 24.5751 30.0735 25.7615L28.1668 27.6682L21.9268 21.4282C20.692 20.2418 19.0459 19.5792 17.3335 19.5792C15.6211 19.5792 13.975 20.2418 12.7402 21.4282L8.66683 25.4798V15.1665C8.66683 14.5919 8.8951 14.0408 9.30143 13.6344C9.70776 13.2281 10.2589 12.9998 10.8335 12.9998H41.1668C41.7415 12.9998 42.2926 13.2281 42.6989 13.6344C43.1052 14.0408 43.3335 14.5919 43.3335 15.1665V29.8132Z" fill="#3CDCAA"/>
</svg>
