<svg width="200" height="200" viewBox="0 0 200 200" fill="none" xmlns="http://www.w3.org/2000/svg">
<mask id="mask0_1370_19281" style="mask-type:alpha" maskUnits="userSpaceOnUse" x="0" y="0" width="200" height="200">
<rect opacity="0.5" x="0.5" y="0.5" width="199" height="199" rx="15.5" fill="#EBFBF6" stroke="#136C50" stroke-linecap="square" stroke-dasharray="4 12"/>
</mask>
<g mask="url(#mask0_1370_19281)">
<g opacity="0.5">
<rect x="-108" y="99.061" width="290" height="12" transform="rotate(-45 -108 99.061)" fill="#C4F4E5"/>
<rect x="-91.7366" y="115.325" width="290" height="12" transform="rotate(-45 -91.7366 115.325)" fill="#C4F4E5"/>
<rect x="-75.4731" y="131.588" width="290" height="12" transform="rotate(-45 -75.4731 131.588)" fill="#C4F4E5"/>
<rect x="-59.2096" y="147.852" width="290" height="12" transform="rotate(-45 -59.2096 147.852)" fill="#C4F4E5"/>
<rect x="-42.9462" y="164.115" width="290" height="12" transform="rotate(-45 -42.9462 164.115)" fill="#C4F4E5"/>
<rect x="-26.6827" y="180.378" width="290" height="12" transform="rotate(-45 -26.6827 180.378)" fill="#C4F4E5"/>
<rect x="-10.4193" y="196.642" width="290" height="12" transform="rotate(-45 -10.4193 196.642)" fill="#C4F4E5"/>
<rect x="5.84424" y="212.905" width="290" height="12" transform="rotate(-45 5.84424 212.905)" fill="#C4F4E5"/>
<rect x="22.1077" y="229.168" width="290" height="12" transform="rotate(-45 22.1077 229.168)" fill="#C4F4E5"/>
<rect x="38.3711" y="245.432" width="290" height="12" transform="rotate(-45 38.3711 245.432)" fill="#C4F4E5"/>
<rect x="54.6345" y="261.696" width="290" height="12" transform="rotate(-45 54.6345 261.696)" fill="#C4F4E5"/>
<rect x="70.8981" y="277.959" width="290" height="12" transform="rotate(-45 70.8981 277.959)" fill="#C4F4E5"/>
<rect x="87.1615" y="294.223" width="290" height="12" transform="rotate(-45 87.1615 294.223)" fill="#C4F4E5"/>
</g>
</g>
</svg>
