<svg width="324" height="200" viewBox="0 0 324 200" fill="none" xmlns="http://www.w3.org/2000/svg">
<g opacity="0.5">
<rect x="-108" y="99.061" width="408.044" height="12" transform="rotate(-45 -108 99.061)" fill="#C4F4E5"/>
<rect x="-91.7366" y="115.325" width="408.044" height="12" transform="rotate(-45 -91.7366 115.325)" fill="#C4F4E5"/>
<rect x="-75.4731" y="131.588" width="408.044" height="12" transform="rotate(-45 -75.4731 131.588)" fill="#C4F4E5"/>
<rect x="-59.2096" y="147.852" width="408.044" height="12" transform="rotate(-45 -59.2096 147.852)" fill="#C4F4E5"/>
<rect x="-42.9462" y="164.114" width="408.044" height="12" transform="rotate(-45 -42.9462 164.114)" fill="#C4F4E5"/>
<rect x="-26.6827" y="180.378" width="408.044" height="12" transform="rotate(-45 -26.6827 180.378)" fill="#C4F4E5"/>
<rect x="-10.4193" y="196.641" width="408.044" height="12" transform="rotate(-45 -10.4193 196.641)" fill="#C4F4E5"/>
<rect x="5.84412" y="212.905" width="408.044" height="12" transform="rotate(-45 5.84412 212.905)" fill="#C4F4E5"/>
<rect x="168" y="212.905" width="408.044" height="12" transform="rotate(-45 168 212.905)" fill="#C4F4E5"/>
<rect x="22.1078" y="229.168" width="408.044" height="12" transform="rotate(-45 22.1078 229.168)" fill="#C4F4E5"/>
<rect x="184.264" y="229.168" width="408.044" height="12" transform="rotate(-45 184.264 229.168)" fill="#C4F4E5"/>
<rect x="38.3711" y="245.432" width="408.044" height="12" transform="rotate(-45 38.3711 245.432)" fill="#C4F4E5"/>
<rect x="200.527" y="245.432" width="408.044" height="12" transform="rotate(-45 200.527 245.432)" fill="#C4F4E5"/>
<rect x="54.6345" y="261.696" width="408.044" height="12" transform="rotate(-45 54.6345 261.696)" fill="#C4F4E5"/>
<rect x="216.79" y="261.696" width="408.044" height="12" transform="rotate(-45 216.79 261.696)" fill="#C4F4E5"/>
<rect x="70.8981" y="277.959" width="408.044" height="12" transform="rotate(-45 70.8981 277.959)" fill="#C4F4E5"/>
<rect x="233.054" y="277.959" width="408.044" height="12" transform="rotate(-45 233.054 277.959)" fill="#C4F4E5"/>
<rect x="249.317" y="294.223" width="408.044" height="12" transform="rotate(-45 249.317 294.223)" fill="#C4F4E5"/>
</g>
</svg>
