<svg width="163" height="160" viewBox="0 0 163 160" fill="none" xmlns="http://www.w3.org/2000/svg">
<path d="M38.6212 132.356C36.7342 130.044 34.1606 128.47 31.5594 127.074C26.3954 124.305 21.4348 121.64 17.0109 117.741C16.5292 117.318 16.0582 116.884 15.5918 116.444C22.368 127.056 31.6757 135.834 42.6857 141.996C42.594 141.587 42.4992 141.178 42.3998 140.771C41.6703 137.784 40.5953 134.773 38.6212 132.356Z" fill="#C4F4E5"/>
<path d="M124.056 131.228C122.082 133.646 121.007 136.652 120.277 139.643C120.227 139.85 120.181 140.059 120.125 140.267C128.924 134.813 136.519 127.637 142.45 119.175C138.887 121.763 135.058 123.829 131.11 125.948C128.52 127.342 125.946 128.918 124.056 131.228Z" fill="#C4F4E5"/>
<path d="M98.3656 113.196C105.355 107.733 114.368 105.889 122.28 102.183C130.371 98.3863 138.049 92.9078 142.16 84.779C143.109 82.9037 143.842 80.4666 146.288 80.1789C147.386 80.051 148.217 80.462 148.775 81.1455C149.112 81.572 149.353 82.0665 149.48 82.5947C149.755 81.7554 150.021 80.9172 150.278 80.0799C150.373 79.7755 150.478 79.4071 150.598 79.0144C151.387 76.3839 152.798 72.3242 156.086 74.0656C155.139 33.0004 121.404 0 79.9238 0C37.8485 0 3.73877 33.9549 3.73877 75.839C3.73877 76.0506 3.73877 76.2622 3.74641 76.4738C3.89226 76.4693 4.03823 76.4724 4.18376 76.4829C4.26328 76.4829 4.33668 76.4996 4.41772 76.5103C4.71307 76.5512 5.00097 76.6343 5.27253 76.7569C5.37594 76.4494 5.52768 76.1601 5.72211 75.8999C5.94408 75.607 6.22809 75.3664 6.55398 75.1951C9.84324 73.4491 11.2562 77.5104 12.0452 80.1423C12.1645 80.5396 12.27 80.9035 12.3648 81.2079C12.6228 82.0451 12.8888 82.8839 13.1631 83.7242C13.2896 83.1959 13.5301 82.7014 13.868 82.275C14.4262 81.5915 15.2565 81.1805 16.3545 81.3084C18.8011 81.5946 19.5382 84.0332 20.4832 85.907C24.6013 94.0373 32.2793 99.5158 40.3625 103.312C48.2745 107.025 57.2874 108.862 64.2773 114.326C70.9445 119.536 73.9279 127.663 75.2751 135.742C76.1277 140.991 76.6324 146.291 76.7859 151.606C77.8227 151.649 78.8641 151.675 79.9116 151.675C81.8954 151.675 83.8594 151.6 85.8035 151.451C85.926 145.81 86.4405 140.184 87.3433 134.614C88.7211 126.534 91.7046 118.407 98.3656 113.196ZM129.455 89.7933C127.226 92.8103 122.574 93.366 119.69 90.9532C117.427 89.0535 117.159 85.4001 119.253 83.4456C120.866 81.0511 123.802 79.6841 126.746 80.7467C130.497 82.0969 131.816 86.6057 129.461 89.7933H129.455ZM127.605 71.4154C126.745 71.6795 125.868 71.8869 124.981 72.0365C124.326 72.1491 123.641 72.2389 122.918 72.2953C122.351 72.3394 121.762 72.3668 121.15 72.3714C119.298 72.3767 117.448 72.2127 115.625 71.8812C114.817 71.7381 113.982 71.5646 113.115 71.3499C110.056 70.5888 106.654 69.371 102.869 67.5322C102.869 67.5322 106.631 64.4329 112.37 62.5697C113.02 62.3597 113.694 62.1648 114.391 61.9928C116.749 61.3977 119.179 61.1363 121.609 61.2165C122.221 61.2393 122.848 61.2834 123.479 61.358C124.449 61.4709 125.411 61.6443 126.359 61.8771C127.038 62.0435 127.722 62.2465 128.412 62.486C130.962 63.3758 133.36 64.6473 135.525 66.2566C135.525 66.2566 133.177 69.6968 127.605 71.4154ZM101.271 53.6875C122.3 40.1214 139.348 54.645 139.348 54.645L138.029 57.9528C120.692 43.9285 101.271 56.5554 101.271 56.5554V53.6875ZM39.8227 88.3944C37.5932 91.4114 32.9414 91.967 30.0574 89.5543C27.7927 87.6546 27.5266 84.0012 29.6201 82.0467C31.2333 79.6522 34.1693 78.2868 37.113 79.3477C40.8549 80.701 42.1746 85.2038 39.8197 88.3913L39.8227 88.3944ZM50.7762 71.4154C49.9161 71.6795 49.0395 71.8869 48.1521 72.0365C47.4976 72.1491 46.8126 72.2389 46.0893 72.2953C45.5219 72.3394 44.9332 72.3668 44.3215 72.3714C42.4687 72.3767 40.6193 72.2127 38.7966 71.8812C37.9877 71.7381 37.1528 71.5646 36.2857 71.3499C33.2274 70.5888 29.825 69.371 26.0403 67.5322C26.0403 67.5322 29.802 64.4329 35.541 62.5697C36.1909 62.3597 36.8653 62.1648 37.5626 61.9928C39.9199 61.3977 42.3497 61.1363 44.7803 61.2165C45.392 61.2393 46.0189 61.2834 46.6505 61.358C47.6203 61.4708 48.582 61.6441 49.5299 61.8771C50.2089 62.0435 50.8934 62.2465 51.5836 62.486C54.1364 63.3759 56.5378 64.6485 58.705 66.2596C58.705 66.2596 56.3485 69.6968 50.7762 71.4154ZM61.4116 55.8704C61.4116 55.8704 41.9911 43.2435 24.6472 57.2678L23.3275 53.96C23.3275 53.96 40.3824 39.4364 61.4116 53.0025V55.8704ZM86.1231 96.5215C86.1154 96.7024 86.0595 96.8779 85.961 97.03C85.7652 97.4866 85.2438 97.8383 84.7713 97.9433C84.4638 98.017 84.1421 98.0074 83.8396 97.9156C83.5371 97.8238 83.2648 97.6531 83.0509 97.4212C82.8428 97.1933 82.6948 96.9175 82.6203 96.6186C82.5458 96.3196 82.5472 96.0069 82.6243 95.7087C82.8246 94.9841 83.4898 94.5518 84.2147 94.5061C84.4646 94.4938 84.7142 94.5359 84.9461 94.6295C85.178 94.7231 85.3865 94.8659 85.5573 95.048C85.6776 95.1853 85.7775 95.3391 85.8539 95.5047C85.9652 95.6477 86.0482 95.8104 86.0986 95.9842C86.1551 96.1584 86.1636 96.3445 86.1231 96.5231V96.5215ZM85.5267 83.3269C84.5037 84.3665 82.7237 84.5248 81.6426 83.4669C81.3986 83.2238 81.2135 82.9287 81.1012 82.6038C81.0064 82.3344 80.9957 81.2779 80.7541 81.1181C79.9804 80.6021 79.1485 82.6768 78.9665 83.0467C78.283 84.4396 77.2844 85.7624 75.5702 85.7533C74.0411 85.7457 72.6648 84.6436 72.0608 83.2888C71.1998 81.3601 71.7687 79.1514 72.1862 77.1877C73.1946 72.4764 74.4917 67.8311 76.0703 63.2776C76.4984 62.0354 78.4879 62.5728 78.0582 63.8225C76.8777 67.2399 75.844 70.703 74.9815 74.2117C74.5594 75.9303 71.943 83.7683 75.5718 83.6831C76.9327 83.6496 77.4221 81.2566 78.1362 80.3509C78.7784 79.535 79.6654 79.0083 80.7358 79.0555C81.2374 79.0657 81.7216 79.24 82.1138 79.5514C82.5059 79.8628 82.7842 80.2941 82.9057 80.7786C82.9821 81.0466 82.9424 81.8944 83.1442 82.0482C83.603 82.4059 84.1458 81.8244 84.3339 81.4758C84.7927 80.6264 84.415 79.4726 84.2009 78.6049C83.8859 77.3217 85.8738 76.7782 86.1888 78.0599C86.62 79.8212 86.9366 81.8944 85.5206 83.3284L85.5267 83.3269Z" fill="#C4F4E5"/>
<path d="M84.2013 78.6063C84.4154 79.474 84.79 80.6278 84.3343 81.4772C84.1462 81.8258 83.6095 82.4073 83.1446 82.0496C82.9428 81.8974 82.9825 81.048 82.9061 80.7801C82.7846 80.2955 82.5063 79.8642 82.1142 79.5528C81.722 79.2414 81.2377 79.0671 80.7362 79.0569C79.6657 79.0097 78.7773 79.5364 78.1366 80.3523C77.4224 81.258 76.9331 83.651 75.5721 83.6845C71.9434 83.7697 74.5598 75.9318 74.9819 74.2132C75.8443 70.712 76.8781 67.2414 78.0586 63.8239C78.4898 62.5742 76.5003 62.0368 76.0707 63.279C74.4921 67.8325 73.195 72.4779 72.1865 77.1891C71.7691 79.1528 71.2002 81.3615 72.0611 83.2902C72.6728 84.645 74.0353 85.7471 75.5706 85.7547C77.2802 85.7638 78.2834 84.441 78.9669 83.0482C79.1489 82.6783 79.9808 80.6035 80.7545 81.1195C80.9961 81.2717 81.0068 82.3373 81.1016 82.6052C81.2139 82.9301 81.399 83.2253 81.643 83.4683C82.7241 84.5339 84.504 84.3679 85.5271 83.3283C86.937 81.8943 86.6204 79.8271 86.1877 78.0613C85.8742 76.7796 83.8863 77.3231 84.2013 78.6063Z" fill="#1D1B20"/>
<path d="M126.754 80.7464C123.808 79.6808 120.872 81.0508 119.261 83.4453C117.167 85.3998 117.435 89.0532 119.698 90.9529C122.574 93.3657 127.234 92.8101 129.463 89.793C131.817 86.6054 130.497 82.0966 126.754 80.7464Z" fill="#F9AF42"/>
<path d="M37.1121 79.3445C34.1669 78.279 31.2309 79.649 29.6191 82.0434C27.5257 83.998 27.7918 87.6513 30.0565 89.5511C32.9328 91.9638 37.5922 91.4082 39.8218 88.3911C42.1752 85.2036 40.8555 80.7008 37.1121 79.3445Z" fill="#F9AF42"/>
<path d="M138.034 57.9526L139.352 54.6448C139.352 54.6448 122.297 40.1211 101.276 53.6873V56.5552C101.276 56.5552 120.692 43.9282 138.034 57.9526Z" fill="#1D1B20"/>
<path d="M23.3276 53.9617L24.6473 57.2695C41.9943 43.2451 61.4117 55.8721 61.4117 55.8721V53.0042C40.3825 39.438 23.3276 53.9617 23.3276 53.9617Z" fill="#1D1B20"/>
<path d="M85.8539 95.4982C85.7775 95.3327 85.6776 95.1789 85.5573 95.0416C85.3865 94.8595 85.1779 94.7166 84.9461 94.6231C84.7142 94.5295 84.4646 94.4873 84.2147 94.4996C83.4898 94.5453 82.8246 94.9776 82.6243 95.7022C82.5472 96.0005 82.5458 96.3132 82.6203 96.6121C82.6948 96.9111 82.8428 97.1869 83.0509 97.4147C83.2648 97.6466 83.5371 97.8173 83.8396 97.9091C84.1421 98.0009 84.4638 98.0105 84.7713 97.9368C85.2438 97.8394 85.7652 97.4802 85.961 97.0235C86.1308 96.6997 86.1796 96.3264 86.0986 95.9701C86.0473 95.799 85.9643 95.6389 85.8539 95.4982Z" fill="#1D1B20"/>
<path d="M162.646 87.2967C162.637 87.082 162.566 86.8745 162.442 86.6987C162.318 86.5228 162.146 86.386 161.946 86.3043C161.868 86.2677 161.793 86.2403 161.715 86.2099C159.072 94.2063 154.837 101.59 149.263 107.921C148.679 108.584 147.711 107.617 148.292 106.955C153.905 100.572 158.123 93.097 160.678 85.0043C160.706 84.8901 160.736 84.7759 160.762 84.6602C161.311 82.2034 163.182 75.0047 158.469 75.3518C158.39 75.357 158.312 75.3662 158.235 75.3792C157.148 84.2221 154.007 92.6915 149.06 100.115C148.148 101.482 147.18 102.813 146.154 104.107C145.604 104.795 144.637 103.821 145.183 103.14C146.134 101.948 147.033 100.72 147.879 99.4578C152.827 92.0607 155.931 83.5952 156.933 74.7642C156.711 74.4714 156.427 74.2308 156.101 74.0594C152.814 72.318 151.402 76.3778 150.613 79.0082C149.176 87.2479 145.691 94.9988 140.476 101.555C139.927 102.244 138.961 101.271 139.505 100.589C140.183 99.7384 140.83 98.8662 141.444 97.9721C141.583 97.7692 141.721 97.5662 141.857 97.3632C145.144 92.4273 147.495 86.9337 148.794 81.1545C148.235 80.4711 147.405 80.0601 146.307 80.1879C143.86 80.4756 143.123 82.9127 142.178 84.7881C138.06 92.9168 130.382 98.3953 122.299 102.192C114.387 105.904 105.374 107.742 98.3843 113.205C91.7171 118.416 88.7337 126.543 87.3865 134.621C86.4837 140.192 85.9692 145.818 85.8466 151.459C85.7712 154.308 85.7712 157.155 85.8466 160H117.832C118.034 153.393 118.641 146.687 120.141 140.276C120.19 140.068 120.236 139.859 120.294 139.652C121.024 136.661 122.099 133.655 124.073 131.237C125.96 128.927 128.533 127.351 131.136 125.957C135.084 123.838 138.914 121.78 142.476 119.184C143.571 118.387 144.643 117.54 145.688 116.624C154.17 109.151 160.227 98.9966 162.675 87.9848C162.724 87.7566 162.714 87.5201 162.646 87.2967Z" fill="#76E6C3"/>
<path d="M149.499 82.5942C149.372 82.066 149.132 81.5716 148.794 81.145C147.495 86.9242 145.145 92.4178 141.858 97.3537C141.721 97.5567 141.583 97.7596 141.445 97.9626C140.833 98.8546 140.187 99.7269 139.506 100.579C138.961 101.261 139.928 102.234 140.477 101.546C145.691 94.9922 149.177 87.2445 150.617 79.0078C150.497 79.4051 150.392 79.7689 150.297 80.0734C150.039 80.9147 149.773 81.7549 149.499 82.5942Z" fill="#1D1B20"/>
<path d="M147.886 99.4578C147.041 100.719 146.143 101.947 145.191 103.14C144.645 103.821 145.611 104.795 146.162 104.107C147.192 102.816 148.161 101.485 149.067 100.115C154.014 92.6914 157.155 84.2221 158.242 75.3791C157.947 75.4194 157.659 75.5025 157.387 75.6257C157.283 75.3164 157.129 75.0256 156.933 74.7642C155.933 83.5944 152.832 92.0599 147.886 99.4578Z" fill="#1D1B20"/>
<path d="M148.292 106.954C147.711 107.612 148.679 108.583 149.263 107.921C154.837 101.59 159.072 94.2059 161.715 86.2095C161.314 86.0412 160.88 85.9668 160.446 85.9918C160.531 85.6646 160.608 85.3342 160.686 85.0039C158.131 93.0966 153.913 100.572 148.3 106.954H148.292Z" fill="#1D1B20"/>
<path d="M64.3083 114.323C57.3184 108.86 48.3055 107.017 40.3935 103.31C32.3027 99.5137 24.6247 94.0352 20.5142 85.905C19.5646 84.0311 18.8322 81.5925 16.3855 81.3063C15.2875 81.1785 14.4572 81.5895 13.899 82.2729C15.1988 88.0517 17.5496 93.5451 20.8354 98.4816C20.971 98.6846 21.1091 98.8876 21.2498 99.0905C21.8615 99.9826 22.5073 100.855 23.1872 101.707C23.7316 102.389 22.7652 103.363 22.2162 102.674C17.0033 96.1225 13.5178 88.3782 12.0763 80.1449C11.2872 77.5129 9.87424 73.447 6.58499 75.1976C6.2591 75.3689 5.97509 75.6095 5.75312 75.9024C6.75477 84.7318 9.85827 93.1958 14.8058 100.591C15.653 101.854 16.5516 103.081 17.5018 104.274C18.0477 104.956 17.0813 105.93 16.5307 105.24C15.5001 103.949 14.5316 102.619 13.6253 101.249C8.67864 93.8249 5.53727 85.3556 4.45026 76.5128C4.3738 76.5022 4.29734 76.4915 4.2163 76.4854C4.07077 76.4749 3.9248 76.4719 3.77896 76.4763C-0.374283 76.6011 1.39344 83.4177 1.92407 85.7939C1.95006 85.9095 1.98217 86.0237 2.00817 86.1394C4.56595 94.2321 8.78665 101.707 14.4021 108.088C14.9832 108.748 14.0153 109.719 13.4311 109.055C7.85783 102.724 3.62289 95.3407 0.979037 87.345C0.902579 87.3755 0.826118 87.4029 0.74813 87.4394C0.54866 87.5214 0.376818 87.6583 0.252768 87.8341C0.128718 88.0099 0.0576014 88.2173 0.0477656 88.4319C-0.0120721 88.6538 -0.0157462 88.8871 0.037065 89.1108C2.34612 99.497 7.86796 109.12 15.6056 116.452C16.0643 116.891 16.543 117.325 17.0247 117.748C21.4486 121.647 26.4092 124.312 31.5732 127.081C34.1728 128.477 36.748 130.051 38.635 132.363C40.6091 134.781 41.6841 137.787 42.4136 140.778C42.5129 141.185 42.6078 141.594 42.6995 142.004C44.0161 147.866 44.6018 153.965 44.8281 159.998H76.8643C76.9194 157.207 76.9036 154.412 76.8169 151.612C76.6634 146.297 76.1587 140.997 75.3061 135.747C73.9589 127.661 70.9755 119.534 64.3083 114.323Z" fill="#76E6C3"/>
<path d="M23.1749 101.708C22.498 100.857 21.8522 99.9849 21.2375 99.0909C21.0968 98.8879 20.9587 98.6849 20.8231 98.482C17.5373 93.5454 15.1865 88.0521 13.8867 82.2733C13.5489 82.6996 13.3083 83.1942 13.1818 83.7224C12.9076 82.8842 12.6415 82.0454 12.3836 81.2062C12.2887 80.9017 12.1832 80.5349 12.064 80.1406C13.5055 88.374 16.991 96.1183 22.2039 102.67C22.7529 103.364 23.7193 102.39 23.1749 101.708Z" fill="#1D1B20"/>
<path d="M16.518 105.233C17.0686 105.923 18.035 104.948 17.4891 104.266C16.5379 103.076 15.6393 101.849 14.7931 100.584C9.84557 93.1884 6.74208 84.7244 5.74042 75.895C5.54599 76.1552 5.39425 76.4445 5.29084 76.752C5.01928 76.6294 4.73139 76.5464 4.43604 76.5054C5.52305 85.3483 8.66441 93.8175 13.6111 101.242C14.5194 102.611 15.4884 103.941 16.518 105.233Z" fill="#1D1B20"/>
<path d="M13.4174 109.048C14.0015 109.712 14.9695 108.743 14.3884 108.081C8.77296 101.7 4.55225 94.225 1.99447 86.1323C2.07246 86.4626 2.14739 86.7915 2.23455 87.1203C1.80028 87.0944 1.36589 87.1689 0.965332 87.3379C3.60919 95.3336 7.84412 102.717 13.4174 109.048Z" fill="#1D1B20"/>
<path d="M128.74 69.3893C128.452 70.1116 128.071 70.7933 127.605 71.4169C133.177 69.6968 135.531 66.2565 135.531 66.2565C133.364 64.6454 130.962 63.3728 128.409 62.4829C129.42 64.6323 129.614 67.1668 128.74 69.3893Z" fill="white"/>
<path d="M112.366 62.5713C106.627 64.4345 102.866 67.5338 102.866 67.5338C106.653 69.3726 110.053 70.595 113.111 71.3515C112.741 70.8414 112.43 70.2909 112.184 69.7105C111.21 67.3952 111.353 64.7968 112.366 62.5713Z" fill="white"/>
<path d="M128.409 62.4824C127.719 62.2459 127.035 62.043 126.356 61.8735C125.408 61.6407 124.446 61.4673 123.476 61.3544C122.845 61.2798 122.221 61.2357 121.606 61.2129C119.176 61.1327 116.746 61.3941 114.388 61.9892C113.691 62.1612 113.012 62.356 112.367 62.5661C111.353 64.7916 111.215 67.3901 112.188 69.7054C112.433 70.2857 112.744 70.8362 113.115 71.3463C113.982 71.561 114.817 71.7345 115.626 71.8776C117.448 72.2091 119.298 72.3731 121.15 72.3678C121.762 72.3678 122.351 72.3358 122.918 72.2917C123.642 72.2353 124.327 72.1394 124.981 72.0329C125.868 71.8833 126.745 71.6759 127.605 71.4118C128.071 70.7883 128.452 70.1066 128.74 69.3842C129.614 67.1663 129.42 64.6318 128.409 62.4824Z" fill="#1D1B20"/>
<path d="M51.911 69.3888C51.6235 70.1107 51.242 70.7919 50.7764 71.4149C56.3487 69.6948 58.7021 66.2546 58.7021 66.2546C56.5349 64.6434 54.1335 63.3709 51.5807 62.481C52.5915 64.6319 52.7857 67.1664 51.911 69.3888Z" fill="white"/>
<path d="M35.5379 62.5713C29.7989 64.4345 26.0356 67.5338 26.0356 67.5338C29.8234 69.3726 33.2319 70.595 36.2811 71.3515C35.9143 70.8406 35.6065 70.2901 35.3636 69.7105C34.3865 67.3952 34.5256 64.7968 35.5379 62.5713Z" fill="white"/>
<path d="M51.5808 62.4824C50.8917 62.2459 50.2071 62.043 49.5271 61.8735C48.5792 61.6405 47.6175 61.4672 46.6477 61.3544C46.0161 61.2798 45.3923 61.2357 44.7775 61.2129C42.3469 61.1327 39.9171 61.3941 37.5598 61.9892C36.8625 62.1612 36.1836 62.356 35.5383 62.5661C34.5259 64.7916 34.3868 67.3901 35.3593 69.7054C35.6033 70.2868 35.9127 70.8388 36.2814 71.3509C37.1485 71.5655 37.9834 71.7391 38.7923 71.8822C40.615 72.2136 42.4644 72.3777 44.3172 72.3723C44.9289 72.3723 45.5176 72.3404 46.085 72.2962C46.8083 72.2399 47.4933 72.144 48.1478 72.0374C49.0368 71.8876 49.9149 71.6796 50.7765 71.4148C51.2422 70.7913 51.6237 70.1096 51.9111 69.3872C52.7858 67.1663 52.5916 64.6318 51.5808 62.4824Z" fill="#1D1B20"/>
</svg>
