<svg width="292" height="258" viewBox="0 0 292 258" fill="none" xmlns="http://www.w3.org/2000/svg">
<g clip-path="url(#clip0)">
<path d="M0.0979546 95.7316C0.0722855 96.4797 0.046617 97.2277 0.025615 97.9781C-0.0475532 101.563 0.0825592 105.15 0.415322 108.721C0.583337 110.667 0.800353 112.608 1.05238 114.547C6.29665 106.328 14.3444 100.285 23.7065 97.5353L25.0343 78.5806C15.5764 81.8593 8.50341 90.083 0.0979546 95.7316Z" fill="#F49407"/>
<path d="M86.4698 22.5455C91.0436 18.076 96.0374 13.6904 101.325 10.1227C102.921 9.04139 104.693 8.03936 106.559 7.50805C110.279 5.52729 114.316 4.20135 118.547 4.59983C114.174 0.801428 108.254 -0.526848 102.128 0.172245C85.8351 2.02251 73.0729 14.3149 65.2578 27.9728C61.2908 34.9171 58.2945 42.3485 55.5806 49.8637L71.4931 50.9776C74.738 40.6803 79.811 31.0496 86.4698 22.5455Z" fill="#F49407"/>
<path d="M109.297 8.24915C113.119 17.7079 111.061 27.8237 107.932 37.3384L117.245 30.3941C120.064 28.2968 122.845 25.9665 125.835 24.0393C125.823 18.8824 125.006 13.8023 122.334 9.21624C121.867 8.41349 121.342 7.64628 120.762 6.92088C119.577 6.6092 118.358 6.44637 117.133 6.43618C114.417 6.42452 111.791 7.1376 109.297 8.24915Z" fill="#F49407"/>
<path d="M235.722 227.177L229.694 226.012C228.62 228.205 227.413 230.332 226.08 232.378C225.846 232.73 225.613 233.077 225.379 233.424C224.221 235.112 222.955 236.723 221.59 238.248C220.67 239.269 219.709 240.248 218.694 241.175C214.843 244.698 210.314 246.456 205.577 246.069C213.392 249.654 221.887 251.526 230.488 251.557H230.651C231.498 251.049 232.322 250.503 233.134 249.942C234.165 249.229 235.171 248.476 236.139 247.677C236.961 246.998 237.757 246.289 238.527 245.551C240.251 243.913 241.836 242.135 243.266 240.236C245.227 237.617 246.894 234.791 248.239 231.81C248.542 231.138 248.836 230.46 249.107 229.775L248.104 229.579L235.722 227.177Z" fill="#F49407"/>
<path d="M264.424 221.06C263.033 222.233 261.581 223.333 260.075 224.355C260.649 224.262 261.223 224.18 261.802 224.122C263.689 223.889 265.587 223.812 267.484 223.768L268.336 217.355C267.098 218.658 265.793 219.895 264.424 221.06Z" fill="#76E6C3"/>
<path d="M250.89 230.12L266.242 233.098L267.225 225.707C262.791 225.839 258.343 226.268 254.262 228.062C253.128 228.736 252.001 229.435 250.89 230.12Z" fill="#76E6C3"/>
<path d="M239.308 60.308C239.836 59.5254 240.309 58.707 240.723 57.8589C238.476 57.8777 236.234 58.0639 234.016 58.4158C233.973 58.8181 233.868 59.2113 233.703 59.581L239.308 60.308Z" fill="#76E6C3"/>
<path d="M211.105 222.405C209.238 215.488 210.039 207.924 213.887 201.814L206.552 200.866L204.121 221.046L211.105 222.405Z" fill="#76E6C3"/>
<path d="M265.824 78.8294C268.158 72.9803 271.705 67.7068 276.911 63.6591C279.678 61.489 282.826 59.8538 286.194 58.8377C286.964 57.3738 287.837 55.966 288.805 54.6245C284.885 54.4497 280.964 54.3611 277.051 54.8412C273.056 55.3403 269.137 56.328 265.383 57.782C265.391 57.8541 265.391 57.9267 265.383 57.9988L265.36 58.2458C265.359 58.2535 265.359 58.2613 265.36 58.2691C265.173 60.0463 264.91 61.8135 264.571 63.5705L267.768 63.983L265.824 78.8294Z" fill="#76E6C3"/>
<path d="M263.937 102.07C263.745 102.04 263.556 102.009 263.367 101.972C263.22 101.944 263.076 101.918 262.931 101.888L262.833 101.86L262.642 103.335L253.074 177.19C259.19 187.613 262.716 199.831 258.868 211.718C257.799 215.066 256.114 218.185 253.9 220.916C254.088 222.558 254.159 224.212 254.112 225.865C257.454 223.81 260.744 221.685 263.713 219.091C265.528 217.498 267.223 215.773 268.783 213.929L269.792 206.314C266.787 199.813 264.907 192.85 264.233 185.721C264.102 185.721 263.967 185.702 263.829 185.684C258.852 184.985 259.937 177.278 264.907 177.97C268.97 178.537 268.993 183.777 266.161 185.308C266.707 191.216 268.1 197.015 270.296 202.527L272.209 188.079C270.562 187.69 269.176 186.366 269.304 184.188C269.46 181.79 271.325 180.66 273.192 180.692L284.547 95.0557C282.211 97.4698 279.4 99.3741 276.291 100.648C272.381 102.243 268.107 102.735 263.937 102.07Z" fill="#76E6C3"/>
<path d="M267.6 35.9893C269.905 38.4892 271.847 41.2998 273.369 44.3388C273.393 44.3903 273.414 44.4432 273.432 44.4972C273.91 44.8095 274.389 45.1264 274.865 45.4293C279.532 48.517 284.344 51.6886 289.914 52.7162H290.147L291.239 44.4832C286.248 43.0012 281.721 40.4075 277.674 37.1241L267.6 35.9893Z" fill="#76E6C3"/>
<path d="M289.085 60.7673L289.601 56.8896C289.125 57.6058 288.679 58.3383 288.262 59.0871C288.55 59.6418 288.824 60.2018 289.085 60.7673Z" fill="#76E6C3"/>
<path d="M176.3 56.9224L177.49 58.2181L178.241 52.4156L226.254 58.6236C226.084 55.6291 229.874 52.7558 232.756 55.3611C233.123 55.6872 233.428 56.0772 233.656 56.5123C241.877 55.2219 250.292 56.0926 258.072 59.0384C258.306 58.9055 258.553 58.7704 258.798 58.6422C264.63 55.534 270.998 53.5573 277.567 52.8164C279.379 52.628 281.199 52.5323 283.02 52.5298C282.493 52.2874 281.971 52.0319 281.455 51.7631C278.388 50.1692 275.546 48.2048 272.662 46.3079C272.55 46.418 272.407 46.4915 272.253 46.5186C272.098 46.5456 271.939 46.525 271.796 46.4594C269.135 48.4058 266.155 49.8748 262.989 50.8007C249.56 54.7622 235.946 49.4981 224.966 41.7661C224.626 41.5269 224.287 41.2845 223.951 41.0391C223.87 40.9765 223.803 40.8985 223.752 40.8097C223.702 40.7209 223.669 40.6231 223.657 40.5217C223.633 40.3666 223.64 40.208 223.678 40.0557C223.691 39.9966 223.71 39.9389 223.734 39.8832C223.792 39.7481 223.858 39.6152 223.918 39.4801C225.327 36.4662 227.384 33.7992 229.941 31.6689L165.113 24.2119L162.779 42.1553C165.208 44.8212 167.64 47.4839 170.076 50.1436L176.3 56.9224Z" fill="#76E6C3"/>
<path d="M255.884 60.3086C251.684 58.8731 247.296 58.0589 242.86 57.8921C242.457 58.8216 241.989 59.7218 241.46 60.5859L253.177 62.1006C254.064 61.4784 254.962 60.8749 255.884 60.3086Z" fill="#76E6C3"/>
<path d="M263.335 58.6235C260.832 59.719 258.42 61.0125 256.124 62.4918L262.6 63.3284C262.903 61.7656 263.148 60.1973 263.335 58.6235Z" fill="#76E6C3"/>
<path d="M235.722 227.177L248.089 229.579C249.413 228.736 250.745 227.913 252.087 227.095C252.21 225.356 252.192 223.609 252.033 221.873C245.032 218.124 239.234 212.142 236.368 204.722L232.053 204.163C235.271 211.445 236.944 219.317 235.722 227.177Z" fill="#76E6C3"/>
<path d="M61.2676 190.775C68.0792 186.017 75.0659 181.517 82.0969 177.087C89.2539 172.578 96.3712 167.766 104.137 164.333C104.77 164.054 105.409 163.793 106.051 163.536L49.7608 103.647C49.6904 103.57 49.6315 103.483 49.5858 103.389C46.8702 102.921 44.13 102.61 41.3787 102.457C38.5247 112.71 37.5867 123.539 36.6649 134.097C36.6369 134.481 36.4965 134.847 36.2612 135.151L32.7935 167.61L32.5905 169.52L31.3374 181.249L27.1907 220.081C37.2016 208.896 48.9464 199.374 61.2676 190.775Z" fill="#597EB1"/>
<path d="M107.932 37.3385L105.017 39.515L88.0753 52.1476L79.9499 58.2064C74.9981 61.8976 70.0136 65.5538 65.0501 69.2357C64.1727 69.8851 63.2961 70.5352 62.4202 71.1862C60.2702 72.7894 58.128 74.402 55.9936 76.0239C51.7546 80.3753 48.2613 85.3934 45.6536 90.8773C44.1688 94.0144 42.9208 97.2579 41.9199 100.581C44.6422 100.754 47.3531 101.075 50.0407 101.541C49.7476 99.0682 50.0814 96.5617 51.0115 94.2516C51.2591 93.6245 51.5411 93.0114 51.8562 92.4153C53.6834 88.9688 56.6073 85.993 59.7483 83.5764C61.4378 82.2761 63.1623 81.0131 64.9054 79.785C67.106 78.2307 69.3392 76.7137 71.5887 75.2153C75.0564 72.899 78.5497 70.6199 81.9777 68.285C84.7033 66.4207 87.4258 64.5565 90.1452 62.6922L97.0642 57.9244C105.012 52.4528 112.97 46.9906 121.006 41.6565C121.86 41.0879 122.715 40.517 123.573 39.9531C124.971 39.0184 126.427 38.1716 127.93 37.4177C132.425 35.2016 137.264 34.1926 142.253 36.3784C143.36 36.8677 144.423 37.4509 145.429 38.1215C147.777 39.6688 149.863 41.6286 151.823 43.7142C153.784 45.7998 155.608 48.0206 157.424 50.0806L173.094 67.777L175.84 70.8786C176.803 71.9661 177.766 73.0535 178.729 74.141L191.396 88.4514C192.95 90.2062 194.532 92.0215 196.077 93.895C197.876 96.0809 199.622 98.3506 201.211 100.704C202.705 102.895 204.031 105.195 205.178 107.586C205.49 108.25 205.789 108.919 206.064 109.594C207.556 113.265 208.445 117.112 208.412 121.143C211.008 121.299 213.607 121.355 216.206 121.313C216.262 120.31 216.298 119.3 216.313 118.284C216.313 117.788 216.313 117.294 216.313 116.8C216.313 116.124 216.276 115.453 216.241 114.782C215.951 108.851 214.514 103.032 212.01 97.6468C211.429 96.6588 210.809 95.6824 210.144 94.727C204.681 86.974 197.71 80.2185 191.309 73.2508L177.91 58.6608L177.495 58.1947L176.305 56.8991L170.076 50.1179C167.637 47.4644 165.205 44.8017 162.779 42.1296C158.346 37.2546 153.893 32.3819 149.368 27.5838C146.755 24.8107 143.815 22.0307 140.118 20.8026C136.422 19.5745 132.651 20.3622 129.249 22.0493C128.076 22.6396 126.937 23.2962 125.839 24.0161C122.855 25.9526 120.068 28.2689 117.249 30.3709L107.932 37.3385Z" fill="#597EB1"/>
<path d="M77.0003 94.8599C77.5767 93.4781 78.8368 92.4085 80.7854 92.4085C83.0863 92.4085 84.4257 93.8905 84.8131 95.622C102.128 97.3184 119.442 99.0273 136.756 100.749C137.304 99.3062 138.581 98.1853 140.587 98.1853C142.954 98.1853 144.302 99.7513 144.645 101.546C153.606 102.436 162.567 103.327 171.528 104.221C182.048 105.274 192.567 106.33 203.087 107.39L205.187 107.6C204.041 105.209 202.714 102.909 201.22 100.718C200.834 101.126 200.366 101.447 199.847 101.66C199.328 101.873 198.769 101.974 198.208 101.956C193.508 101.956 192.808 95.7757 196.086 93.9092C194.542 92.0449 192.959 90.2203 191.405 88.4656L178.746 74.1691C178.046 75.064 176.979 75.6792 175.504 75.6792C170.94 75.6792 170.137 69.8534 173.11 67.8051L157.44 50.1087C155.618 48.0487 153.788 45.8326 151.84 43.7423C151.456 44.127 150.996 44.4288 150.491 44.6292C149.985 44.8296 149.443 44.9243 148.9 44.9075C145.005 44.9075 143.859 40.664 145.446 38.1496C144.439 37.479 143.376 36.8958 142.27 36.4065C137.281 34.2207 132.441 35.2297 127.947 37.4458C130.299 39.7761 129.333 44.9028 125.051 44.9028C122.745 44.9028 121.406 43.4137 121.023 41.6777C112.977 47.0001 105.012 52.4623 97.0643 57.9246C99.1294 60.3364 98.0887 65.1485 93.9466 65.1485C91.9818 65.1485 90.7216 64.0673 90.1523 62.6737C87.4329 64.538 84.7104 66.4022 81.9848 68.2665C78.5568 70.5968 75.0635 72.8805 71.5958 75.1968C74.2117 77.4083 73.3157 82.8495 68.9122 82.8495C66.6697 82.8495 65.3372 81.4513 64.9125 79.7665C63.1694 81.0016 61.4449 82.2576 59.7554 83.5579C56.6144 85.9745 53.6881 88.9503 51.8633 92.3968L53.9028 92.5949L77.0003 94.8599ZM171.348 89.5958C176.884 89.5958 176.874 98.1736 171.348 98.1736C165.822 98.1736 165.822 89.5958 171.348 89.5958ZM152.213 60.8747C157.746 60.8747 157.737 69.4503 152.213 69.4503C146.69 69.4503 146.69 60.8747 152.218 60.8747H152.213ZM135.713 79.2376C141.248 79.2376 141.238 87.8131 135.713 87.8131C130.187 87.8131 130.191 79.2376 135.717 79.2376H135.713ZM118.547 55.3239C124.082 55.3239 124.073 63.8995 118.547 63.8995C113.021 63.8995 113.021 55.3239 118.547 55.3239ZM107.222 80.0928C112.757 80.0928 112.748 88.6683 107.222 88.6683C101.696 88.6683 101.696 80.0928 107.222 80.0928Z" fill="#FEF7EC"/>
<path d="M201.762 240.651L201.965 238.966C195.096 226.464 187.108 214.608 178.097 203.545C176.124 201.13 174.102 198.752 172.03 196.412C168.785 192.74 165.427 189.167 161.958 185.693C161.664 185.398 161.368 185.103 161.071 184.81C155.704 179.49 150.104 174.323 143.803 170.129C137.297 165.808 129.881 162.504 121.961 162.278C113.446 162.045 105.439 165.422 98.1587 169.502C91.1184 173.449 84.3324 177.905 77.5394 182.256C70.7465 186.606 63.9722 191.092 57.4382 195.853C47.3852 203.173 37.799 211.233 29.4355 220.435L169.682 236.892L192.528 239.572L201.762 240.651Z" fill="#597EB1"/>
<path d="M57.438 195.853C63.972 191.092 70.7206 186.618 77.5323 182.258C84.3439 177.898 91.1112 173.452 98.1516 169.504C105.442 165.419 113.448 162.033 121.954 162.28C129.874 162.513 137.29 165.811 143.796 170.131C150.096 174.326 155.697 179.497 161.064 184.812C161.36 185.106 161.655 185.4 161.951 185.695C165.419 189.158 168.776 192.731 172.023 196.415C174.089 198.754 176.111 201.132 178.09 203.548C187.101 214.611 195.089 226.466 201.957 238.968L202.352 235.727C196.553 225.452 190.001 215.619 182.75 206.309C180.223 203.065 177.612 199.89 174.916 196.783C172.141 193.579 169.281 190.451 166.336 187.399C164.715 185.719 163.069 184.056 161.398 182.41C157.221 178.304 152.866 174.368 148.181 170.872C146.577 169.677 144.914 168.53 143.205 167.458C150.555 162.036 157.957 156.689 165.414 151.416C178.894 141.882 192.547 132.598 206.372 123.562L207.112 123.075C207.145 123.051 207.176 123.026 207.206 122.998C207.581 123.024 207.955 123.043 208.328 123.066C210.917 123.221 213.504 123.28 216.089 123.243C216.139 122.603 216.181 121.962 216.215 121.321C213.617 121.355 211.019 121.298 208.421 121.15C208.001 121.127 207.579 121.104 207.157 121.076C207.045 121.064 206.933 121.075 206.826 121.108C206.718 121.141 206.619 121.195 206.534 121.267C206.395 121.286 206.264 121.337 206.148 121.416C192.519 130.309 179.055 139.446 165.757 148.827C157.627 154.562 149.563 160.38 141.565 166.284C141.521 166.317 141.48 166.354 141.441 166.393C136.996 163.816 132.219 161.812 127.155 160.903C120.519 159.712 113.98 160.67 107.749 162.896C107.749 162.656 107.654 162.427 107.486 162.257L51.7605 102.974H51.7208L51.6578 102.857L50.0523 101.525C47.3647 101.058 44.6539 100.738 41.9316 100.564C41.7402 101.186 41.5559 101.815 41.3785 102.452C44.1298 102.606 46.87 102.917 49.5856 103.384C49.6314 103.478 49.6903 103.565 49.7606 103.643L106.051 163.532C105.409 163.788 104.77 164.049 104.137 164.329C96.3711 167.752 89.2537 172.573 82.0967 177.082C75.0657 181.51 68.079 186.012 61.2674 190.771C48.9462 199.376 37.2015 208.891 27.1975 220.081V220.168L29.4494 220.431C37.7988 211.238 47.3851 203.173 57.438 195.853Z" fill="#151F2D"/>
<path d="M106.559 7.50835C107.295 7.29433 108.053 7.16609 108.818 7.12619C108.989 7.49904 109.149 7.87343 109.297 8.24939C111.791 7.13783 114.416 6.42243 117.137 6.43641C118.362 6.44661 119.581 6.60944 120.766 6.92112C120.099 6.07844 119.356 5.29842 118.547 4.59081C114.316 4.20165 110.279 5.52759 106.559 7.50835Z" fill="#151F2D"/>
<path d="M205.568 246.066C203.529 245.888 201.537 245.354 199.682 244.489C198.715 244.044 197.78 243.534 196.882 242.962C196.884 243.015 196.89 243.067 196.901 243.119C198.88 244.504 200.921 245.791 203.024 246.98C210.586 250.743 218.838 252.922 227.274 253.384C228.352 252.857 229.407 252.286 230.439 251.671C230.45 251.634 230.464 251.594 230.476 251.554C221.876 251.523 213.382 249.652 205.568 246.066Z" fill="#151F2D"/>
<path d="M196.903 243.119C196.892 243.067 196.886 243.015 196.884 242.963C195.335 241.966 193.88 240.83 192.537 239.57L169.682 236.892C176.746 248.134 188.736 256.043 202.03 257.674C210.681 258.713 219.447 257.223 227.267 253.386C218.831 252.925 210.579 250.745 203.017 246.982C200.923 245.792 198.885 244.504 196.903 243.119Z" fill="#F49407"/>
<path d="M96.4411 123.052C98.2333 123.816 100.081 123.11 101.22 121.74C101.96 122.306 102.857 122.629 103.789 122.665C104.72 122.701 105.64 122.449 106.422 121.943C106.788 122.613 107.332 123.17 107.995 123.551C108.657 123.933 109.412 124.124 110.176 124.105C110.622 124.091 111.11 123.802 111.518 123.805C112.018 123.805 112.666 124.161 113.203 124.224C114.592 124.374 115.996 124.173 117.287 123.639C117.323 123.85 117.435 124.04 117.601 124.174C117.767 124.309 117.976 124.379 118.19 124.371C119.375 124.371 119.422 122.611 118.334 122.465C118.301 122.314 118.235 122.173 118.14 122.051C118.046 121.929 117.925 121.829 117.788 121.759C117.65 121.69 117.498 121.651 117.344 121.647C117.189 121.643 117.036 121.673 116.895 121.735C115.937 122.195 114.881 122.411 113.819 122.364C112.981 122.318 112.239 121.866 111.437 121.826C110.778 121.794 110.291 122.276 109.57 122.127C109.118 122.036 108.705 121.809 108.388 121.475C108.071 121.141 107.865 120.718 107.798 120.263C107.686 119.314 106.583 118.96 106.006 119.778C105.04 121.157 102.835 121.111 101.899 119.729C101.405 118.999 100.455 119.193 100.142 119.962C99.022 122.707 94.8986 120.997 96.1447 118.235C96.5578 117.319 95.4213 116.191 94.6349 117.07C92.4857 119.48 89.9935 122.353 86.5072 122.495C85.0113 122.558 83.3312 122.064 82.5541 120.687C81.777 119.309 81.9754 117.482 83.3405 116.648C84.3929 116 83.4269 114.339 82.3698 114.989C78.8694 117.138 79.9009 122.311 83.3989 123.858C87.5082 125.678 91.2653 123.187 94.1752 120.337C94.3098 120.937 94.5855 121.496 94.9795 121.968C95.3736 122.44 95.8746 122.812 96.4411 123.052Z" fill="#151F2D"/>
<path d="M134.912 146.863L106.114 143.181C104.891 143.025 104.903 144.947 106.114 145.101L134.912 148.783C136.13 148.939 136.118 147.017 134.912 146.863Z" fill="#151F2D"/>
<path d="M32.7934 167.615L36.2611 135.156C36.4963 134.852 36.6368 134.486 36.6648 134.103C37.5865 123.544 38.5316 112.722 41.3786 102.462C41.5559 101.829 41.7403 101.2 41.9316 100.574C42.9325 97.2513 44.1805 94.0078 45.6653 90.8706C48.273 85.3868 51.7663 80.3687 56.0053 76.0173C58.1381 74.3923 60.2804 72.7797 62.4319 71.1795C63.3078 70.5271 64.1844 69.8769 65.0618 69.2291C70.0253 65.5472 75.0098 61.8909 79.9616 58.1997L88.087 52.1409L71.5188 50.9758L55.6063 49.8619L27.2046 47.8765L25.0577 78.5666L23.7066 97.54L17.9543 179.723L31.3373 181.254L32.5904 169.526L32.7934 167.615Z" fill="#9DEDD4"/>
<path d="M227.524 61.1332C227.155 60.8203 226.853 60.4369 226.635 60.0054C226.417 59.574 226.287 59.1033 226.255 58.6211L178.242 52.4155L177.49 58.218L177.906 58.6841L191.305 73.2741C197.706 80.2417 204.676 86.9973 210.139 94.7502C210.813 95.7057 211.434 96.6821 212.006 97.6701C214.51 103.049 215.95 108.86 216.246 114.784C220.54 116.278 225.697 115.777 230.065 116.229C236.058 116.851 241.836 118.482 247.597 120.172C248.783 120.519 248.274 122.371 247.086 122.036C240.786 120.186 234.504 118.482 227.925 117.969C224.157 117.676 220.022 117.872 216.318 116.804C216.318 117.298 216.318 117.792 216.318 118.289C216.304 119.297 216.268 120.307 216.211 121.318C216.175 121.96 216.133 122.601 216.085 123.241C215.915 125.475 215.658 127.701 215.364 129.926C216.464 129.845 217.569 129.881 218.661 130.033C220.015 130.29 221.28 130.887 222.339 131.767C223.972 133.065 225.2 134.459 227.356 133.247C228.642 132.522 229.746 131.536 231.323 131.811C232.957 132.096 233.524 133.829 235.274 134.007C238.205 134.305 240.986 132.413 243.5 134.815C244.396 135.673 243.033 137.029 242.139 136.174C239.766 133.904 235.589 137.09 232.768 135.19C232.142 134.771 231.629 133.778 230.831 133.669C229.876 133.538 228.819 134.624 228.049 135.067C226.882 135.736 225.664 135.98 224.374 135.514C222.864 134.967 221.846 133.673 220.537 132.813C219.007 131.804 217.228 131.732 215.448 131.765C215.331 131.765 215.215 131.765 215.1 131.765C214.771 134.072 214.4 136.377 214.062 138.681C214.036 138.765 214.013 138.849 213.989 138.933L213.861 140.005C213.798 140.417 213.737 140.827 213.677 141.24C212.806 147.162 212.105 153.106 211.576 159.071L207.059 196.613L206.825 198.528L206.545 200.858L213.882 201.807C213.994 201.627 214.101 201.443 214.218 201.266C216.477 197.865 219.599 195.123 223.265 193.32C223.557 193.178 223.853 193.04 224.152 192.91C224.29 192.852 224.423 192.791 224.56 192.735C224.768 192.655 224.993 192.634 225.211 192.674C225.413 192.712 225.594 192.821 225.72 192.982C228.181 196.502 230.301 200.247 232.053 204.167L236.368 204.727C236.135 204.142 235.929 203.562 235.74 202.949C233.428 195.562 234.219 187.287 238.564 180.792C241.003 177.112 244.452 174.21 248.498 172.433C248.636 172.375 248.769 172.315 248.906 172.259C248.981 172.229 249.06 172.208 249.14 172.196C249.274 172.172 249.411 172.172 249.546 172.196C249.75 172.227 249.933 172.338 250.057 172.503C250.326 172.892 250.592 173.285 250.855 173.682C251.617 174.827 252.35 175.997 253.053 177.192L262.621 103.337L262.812 101.862C262.637 101.803 262.478 101.705 262.345 101.576C262.228 101.463 262.147 101.318 262.112 101.159C262.102 101.118 262.096 101.077 262.096 101.035C262.03 93.5501 263.043 85.7855 265.804 78.8319L267.729 63.9855L264.532 63.573C263.287 70.0799 261.027 76.3515 257.837 82.1596C257.942 82.2388 258.047 82.3227 258.15 82.4159C261.883 85.7832 256.64 91.5531 252.92 88.1927C249.886 85.443 252.806 81.0946 256.01 81.4185C259.136 75.7663 261.36 69.6611 262.6 63.3237L256.124 62.4871C255.125 63.1303 254.148 63.8061 253.191 64.5145C253.242 64.6114 253.277 64.7161 253.293 64.8244C253.898 68.3848 253.54 72.0417 252.257 75.418C253.632 76.6484 254.241 78.7061 252.782 80.5773C249.695 84.5388 243.546 79.75 246.626 75.7955C247.721 74.3973 249.193 74.0874 250.517 74.4556C251.504 71.7025 251.832 68.7567 251.473 65.8544C249.151 67.7479 247.004 69.845 245.056 72.1206C245.358 72.8377 245.429 73.6314 245.257 74.3903C244.267 79.3096 236.623 77.7693 237.612 72.857C238.256 69.6552 241.712 69.1891 243.78 70.6059C246.554 67.3962 249.713 64.5395 253.186 62.1003L241.469 60.5856C240.239 62.612 238.693 64.4292 236.889 65.9686C238.174 69.259 233.827 73.1762 230.609 70.2703C226.924 66.9427 232.009 61.266 235.715 64.3863C237.093 63.1936 238.304 61.8221 239.318 60.3083L233.717 59.5836C232.737 61.781 229.839 63.2235 227.524 61.1332ZM252.236 101.331C253.132 102.186 251.77 103.542 250.876 102.687C248.503 100.42 244.326 103.603 241.507 101.706C240.879 101.284 240.366 100.294 239.567 100.182C238.613 100.052 237.556 101.138 236.786 101.58C235.619 102.249 234.401 102.494 233.111 102.028C231.601 101.482 230.583 100.187 229.277 99.327C227.743 98.3203 225.965 98.2457 224.187 98.2783C221.244 98.3296 218.425 98.5556 215.978 96.6634C215 95.9061 216.37 94.5661 217.338 95.3048C220.068 97.4161 224.215 95.9876 227.386 96.5492C228.74 96.8066 230.006 97.4041 231.064 98.2853C232.698 99.581 233.925 100.977 236.081 99.7627C237.367 99.0403 238.471 98.0523 240.048 98.3273C241.682 98.6115 242.249 100.345 244.001 100.525C246.942 100.821 249.723 98.9378 252.236 101.331ZM241.609 80.8103C242.851 80.7987 242.846 82.7189 241.609 82.7305C235.837 82.7791 230.14 81.4192 225.013 78.769C223.994 79.1452 222.882 79.1938 221.833 78.908C220.785 78.6222 219.852 78.0163 219.165 77.175C218.696 77.668 218.114 78.0413 217.47 78.2635C216.826 78.4857 216.138 78.5504 215.464 78.4521C213.702 78.1934 212.463 76.9886 211.616 75.5322C211.151 76.0938 210.539 76.5163 209.849 76.7532C209.158 76.99 208.416 77.032 207.703 76.8744C206.815 76.6676 206.034 76.1438 205.507 75.4017C204.207 76.9583 202.025 77.7669 200.025 76.7999C197.127 75.4017 196.644 71.5753 198.492 69.1914C199.251 68.215 200.592 69.5829 199.853 70.5477C198.814 71.8876 199.218 74.1293 200.707 74.9613C202.441 75.9307 204.298 74.5232 204.674 72.8151C204.668 72.4613 204.701 72.108 204.774 71.7617C205.008 70.6432 206.594 70.9974 206.662 72.0181C206.687 72.4043 206.661 72.7921 206.585 73.1716C206.87 75.3318 210.146 75.6767 210.753 73.1087C210.986 72.1299 212.316 72.2628 212.62 73.1087C213.049 74.3507 213.754 75.7605 215.028 76.3291C216.344 76.921 217.963 76.3291 218.229 74.8564C218.404 73.88 219.833 74.0058 220.082 74.8564C220.221 75.3669 220.486 75.8344 220.853 76.2159C221.22 76.5974 221.677 76.8808 222.182 77.0399C223.181 77.3591 223.734 77.0073 224.689 76.8278C226.003 76.5808 227.83 78.0396 229.062 78.522C233.058 80.0828 237.318 80.8597 241.609 80.8103Z" fill="#FEF7EC"/>
<path d="M206.552 200.865L206.832 198.535L207.066 196.619L211.583 159.078C212.116 153.116 212.816 147.172 213.684 141.247C213.744 140.834 213.805 140.424 213.868 140.012L213.996 138.94C214.02 138.856 214.043 138.772 214.069 138.688C214.419 136.383 214.769 134.079 215.107 131.772C215.193 131.15 215.277 130.536 215.359 129.928C215.653 127.703 215.91 125.477 216.08 123.243C213.495 123.272 210.907 123.213 208.319 123.066C207.945 123.042 207.572 123.024 207.196 122.998C207.167 123.025 207.136 123.051 207.103 123.075L206.363 123.562C192.539 132.594 178.886 141.879 165.405 151.416C157.948 156.689 150.545 162.036 143.196 167.458C144.909 168.53 146.568 169.676 148.171 170.872C152.857 174.367 157.212 178.303 161.389 182.409C163.059 184.053 164.705 185.716 166.326 187.398C169.271 190.45 172.132 193.578 174.907 196.783C177.6 199.89 180.211 203.065 182.741 206.309C189.995 215.619 196.55 225.452 202.352 235.727L204.118 221.046L206.552 200.865Z" fill="#597EB1"/>
<path d="M205.183 107.588L203.082 107.378C192.563 106.317 182.043 105.261 171.523 104.209C162.562 103.312 153.602 102.421 144.641 101.534L136.751 100.748C119.439 99.0286 102.125 97.3197 84.8084 95.6217L83.2496 95.4679L76.9957 94.8597L53.8935 92.6063L51.854 92.4082C51.5389 93.0043 51.2568 93.6174 51.0093 94.2445C50.0792 96.5546 49.7454 99.0611 50.0385 101.534L51.644 102.867L51.707 102.983H51.7466L107.472 162.269C107.64 162.439 107.735 162.668 107.736 162.907C113.966 160.682 120.505 159.724 127.141 160.915C132.205 161.823 136.982 163.828 141.427 166.405C141.466 166.365 141.507 166.329 141.551 166.295C149.546 160.392 157.606 154.572 165.731 148.834C179.028 139.456 192.492 130.318 206.123 121.423C206.238 121.344 206.37 121.293 206.508 121.274C206.594 121.202 206.693 121.148 206.8 121.115C206.907 121.082 207.02 121.071 207.131 121.083C207.553 121.111 207.976 121.134 208.396 121.157C208.428 117.126 207.539 113.278 206.048 109.608C205.794 108.921 205.495 108.259 205.183 107.588ZM83.406 123.851C79.9057 122.304 78.8766 117.13 82.3769 114.982C83.434 114.332 84.4001 115.993 83.3477 116.641C81.9755 117.482 81.7888 119.34 82.5472 120.684C83.3056 122.029 85.0045 122.548 86.5003 122.493C89.9866 122.35 92.4788 119.477 94.628 117.068C95.4145 116.187 96.5509 117.315 96.1379 118.233C94.8917 120.992 99.0151 122.707 100.142 119.957C100.455 119.19 101.405 118.997 101.899 119.724C102.833 121.106 105.04 121.153 106.006 119.773C106.583 118.955 107.687 119.307 107.799 120.258C107.865 120.713 108.071 121.136 108.388 121.47C108.705 121.804 109.118 122.032 109.57 122.122C110.298 122.271 110.786 121.789 111.437 121.821C112.239 121.861 112.981 122.313 113.819 122.36C114.881 122.406 115.937 122.19 116.895 121.73C117.036 121.668 117.19 121.638 117.344 121.642C117.498 121.646 117.65 121.685 117.788 121.755C117.926 121.824 118.046 121.924 118.141 122.046C118.235 122.168 118.301 122.309 118.335 122.46C119.422 122.607 119.375 124.366 118.19 124.366C117.976 124.374 117.767 124.304 117.601 124.169C117.435 124.035 117.323 123.845 117.287 123.634C115.999 124.168 114.597 124.37 113.21 124.222C112.673 124.159 112.025 123.807 111.525 123.802C111.117 123.802 110.629 124.089 110.184 124.103C109.419 124.123 108.663 123.932 107.999 123.551C107.336 123.17 106.791 122.613 106.424 121.943C105.642 122.449 104.722 122.701 103.791 122.665C102.86 122.629 101.963 122.306 101.223 121.74C100.084 123.11 98.2357 123.816 96.4436 123.052C95.8775 122.81 95.3774 122.437 94.9846 121.964C94.5917 121.49 94.3175 120.93 94.1847 120.33C91.2747 123.173 87.5154 125.671 83.406 123.851ZM134.912 148.783L106.114 145.101C104.903 144.947 104.891 143.025 106.114 143.181L134.912 146.863C136.119 147.017 136.13 148.939 134.912 148.783ZM167.79 139.695C167.498 139.751 167.206 139.8 166.915 139.849C152.993 142.235 139.313 137.917 125.543 136.318C122.099 135.92 118.661 135.892 115.208 135.661C113.586 135.592 111.977 135.33 110.417 134.883C109.075 134.461 107.904 133.743 106.618 133.198C104.077 132.126 102.772 133.41 100.667 134.57C99.6102 135.155 98.4294 135.603 97.2043 135.381C95.2184 135.025 94.0073 132.874 95.0551 131.089C95.6805 130.024 97.342 130.991 96.7142 132.058C97.0409 133.415 97.727 133.846 98.7724 133.352C99.2875 133.148 99.7789 132.89 100.238 132.58C100.782 132.256 101.281 131.86 101.839 131.56C102.705 131.05 103.688 130.773 104.693 130.756C107.351 130.8 109.635 132.809 112.195 133.359C115.168 134.002 118.29 133.801 121.312 134.004C124.232 134.2 127.146 134.568 130.028 135.002C142.3 136.845 154.729 140.215 167.174 137.861L167.279 137.842C168.483 137.621 168.998 139.466 167.783 139.7L167.79 139.695ZM183.814 128.146C182.435 128.665 181.231 128.237 179.933 127.68C178.713 127.16 177.77 126.792 176.396 127.006C175.5 127.146 174.636 127.433 173.733 127.538C172.1 127.729 170.308 127.127 169.505 125.876C169.237 126.043 168.958 126.191 168.669 126.319C167.414 126.896 166.009 127.067 164.651 126.805C163.294 126.544 162.052 125.865 161.102 124.862C160.168 126.282 158.959 127.521 157.135 127.619C156.703 127.655 156.268 127.605 155.856 127.472C155.444 127.339 155.062 127.125 154.733 126.843C154.362 126.517 154.194 126.039 153.865 125.697C152.932 124.713 152.302 125.072 151.42 125.93C149.786 127.5 147.842 128.603 145.586 127.456C143.663 126.48 142.958 124.427 143.294 122.409C143.497 121.192 145.35 121.71 145.149 122.919C144.916 124.359 145.745 125.715 147.208 125.948C148.58 126.167 149.397 125.2 150.29 124.343C151.112 123.553 152.145 122.84 153.347 122.989C154.68 123.152 154.862 124.105 155.658 124.946C157.566 126.967 159.277 124.305 160.171 122.707C160.257 122.565 160.379 122.447 160.524 122.365C160.67 122.284 160.833 122.241 161 122.241C161.167 122.241 161.331 122.284 161.476 122.365C161.621 122.447 161.743 122.565 161.83 122.707C163.463 125.305 166.684 125.762 168.994 123.893C169.045 123.851 169.099 123.814 169.15 123.77C169.166 123.674 169.18 123.581 169.206 123.483C169.53 122.29 171.386 122.798 171.061 123.993C171.045 124.053 171.032 124.114 171.024 124.175C171.037 124.279 171.03 124.385 171.003 124.487C171.129 126.559 176.851 124.883 178.146 125.06C179.856 125.294 181.593 126.95 183.312 126.3C184.458 125.862 184.955 127.717 183.807 128.15L183.814 128.146Z" fill="#DCBEC3"/>
<path d="M183.296 126.298C181.576 126.948 179.84 125.289 178.13 125.058C176.834 124.881 171.113 126.557 170.987 124.485C171.013 124.383 171.02 124.277 171.008 124.173C171.016 124.111 171.028 124.051 171.045 123.991C171.369 122.796 169.514 122.288 169.19 123.481C169.164 123.579 169.15 123.672 169.134 123.767C169.082 123.812 169.029 123.849 168.977 123.891C166.667 125.755 163.451 125.303 161.813 122.705C161.727 122.562 161.605 122.445 161.46 122.363C161.314 122.282 161.15 122.239 160.984 122.239C160.817 122.239 160.653 122.282 160.508 122.363C160.363 122.445 160.241 122.562 160.154 122.705C159.26 124.303 157.55 126.964 155.641 124.944C154.845 124.103 154.663 123.15 153.331 122.987C152.129 122.838 151.095 123.551 150.274 124.341C149.38 125.198 148.563 126.165 147.191 125.946C145.728 125.713 144.893 124.362 145.133 122.917C145.334 121.71 143.481 121.19 143.278 122.406C142.942 124.429 143.647 126.477 145.569 127.454C147.833 128.6 149.786 127.498 151.403 125.927C152.285 125.075 152.906 124.716 153.849 125.694C154.178 126.037 154.346 126.515 154.717 126.841C155.046 127.123 155.427 127.337 155.84 127.47C156.252 127.603 156.686 127.653 157.118 127.617C158.945 127.519 160.152 126.279 161.085 124.86C162.036 125.862 163.277 126.542 164.635 126.803C165.992 127.064 167.397 126.894 168.653 126.317C168.941 126.188 169.22 126.04 169.488 125.874C170.291 127.125 172.083 127.738 173.717 127.535C174.62 127.431 175.483 127.144 176.379 127.004C177.754 126.79 178.697 127.158 179.917 127.678C181.215 128.232 182.419 128.661 183.798 128.144C184.955 127.717 184.458 125.862 183.296 126.298Z" fill="#151F2D"/>
<path d="M167.272 137.854L167.167 137.873C154.722 140.226 142.293 136.857 130.021 135.013C127.13 134.58 124.225 134.212 121.305 134.016C118.272 133.813 115.161 134.016 112.188 133.371C109.621 132.821 107.344 130.807 104.686 130.768C103.681 130.785 102.698 131.062 101.832 131.572C101.274 131.872 100.775 132.271 100.231 132.592C99.7719 132.902 99.2805 133.16 98.7655 133.364C97.7169 133.858 97.0309 133.426 96.7073 132.07C97.335 131.003 95.6735 130.036 95.0481 131.101C94.0004 132.886 95.2115 135.037 97.1973 135.393C98.4224 135.615 99.6032 135.16 100.66 134.582C102.761 133.417 104.07 132.138 106.611 133.21C107.897 133.755 109.068 134.473 110.41 134.895C111.97 135.342 113.579 135.604 115.201 135.673C118.654 135.906 122.092 135.932 125.536 136.33C139.304 137.929 152.986 142.247 166.908 139.86C167.199 139.812 167.491 139.763 167.783 139.707C168.998 139.467 168.483 137.621 167.272 137.854Z" fill="#151F2D"/>
<path d="M274.865 45.4411C274.398 45.1265 273.91 44.8095 273.432 44.5089C273.414 44.455 273.393 44.402 273.369 44.3505C271.847 41.3115 269.905 38.5009 267.6 36.001L229.932 31.6689C227.374 33.7993 225.318 36.4662 223.909 39.4801C223.849 39.6153 223.783 39.7481 223.725 39.8833C223.701 39.9389 223.682 39.9967 223.669 40.0557C239.998 37.1876 256.799 38.7645 272.307 44.6208C272.466 44.6855 272.607 44.7883 272.716 44.9199C272.826 45.0516 272.902 45.2082 272.937 45.376C272.972 45.5437 272.965 45.7175 272.917 45.882C272.869 46.0466 272.782 46.1968 272.662 46.3196C275.546 48.2165 278.388 50.1809 281.455 51.7748C281.971 52.0436 282.493 52.2992 283.021 52.5415C281.199 52.544 279.379 52.6397 277.567 52.8281C270.998 53.5689 264.63 55.5457 258.798 58.6539C258.553 58.7821 258.315 58.9172 258.073 59.05C250.292 56.1042 241.877 55.2336 233.657 56.524C233.961 57.1113 234.086 57.7749 234.016 58.4325C236.234 58.0806 238.476 57.8944 240.723 57.8756C239.504 60.3635 237.798 62.5822 235.705 64.4004C235.747 64.4354 235.789 64.4703 235.831 64.51C236.292 64.9118 236.651 65.4163 236.879 65.9827C238.683 64.4433 240.23 62.6261 241.46 60.5997C241.989 59.7355 242.457 58.8354 242.86 57.9059C247.296 58.0727 251.684 58.8868 255.884 60.3224C254.95 60.8887 254.063 61.4875 253.177 62.1144C249.704 64.5536 246.544 67.4103 243.77 70.62C244.33 70.9948 244.772 71.5199 245.047 72.1347C246.996 69.8514 249.147 67.7473 251.473 65.8475C251.832 68.7499 251.504 71.6957 250.516 74.4487C251.163 74.6322 251.758 74.9615 252.257 75.4111C253.54 72.0348 253.898 68.3779 253.293 64.8176C253.277 64.7093 253.242 64.6045 253.191 64.5076C254.146 63.7977 255.124 63.1219 256.124 62.4803C258.42 61.0009 260.832 59.7074 263.335 58.6119C263.151 60.1919 262.906 61.7602 262.6 63.3168C261.36 69.6543 259.136 75.7594 256.01 81.4117C256.676 81.4838 257.309 81.7405 257.837 82.1527C261.032 76.3462 263.296 70.0753 264.546 63.5685C264.882 61.8146 265.145 60.0474 265.335 58.2671C265.333 58.2593 265.333 58.2515 265.335 58.2438L265.358 57.9967C265.366 57.9247 265.366 57.852 265.358 57.78C269.112 56.3259 273.03 55.3383 277.026 54.8392C280.939 54.3591 284.859 54.4477 288.78 54.6225C287.811 55.9639 286.939 57.3718 286.169 58.8356C282.801 59.8518 279.652 61.4869 276.886 63.6571C271.679 67.7048 268.121 72.9783 265.799 78.8274C263.038 85.781 262.026 93.5456 262.091 101.031C262.092 101.072 262.097 101.114 262.107 101.154C273.572 89.8626 281.801 75.7128 285.94 60.1733C286.257 58.9778 288.112 59.4881 287.807 60.6836C283.634 76.3363 275.397 90.6118 263.93 102.068C268.1 102.727 272.372 102.229 276.279 100.63C279.389 99.3554 282.2 97.4511 284.535 95.037L289.078 60.7558C288.819 60.1888 288.544 59.6287 288.255 59.0757C288.672 58.3269 289.118 57.5944 289.594 56.8782L290.145 52.7279H289.912C284.344 51.7003 279.523 48.5287 274.865 45.4411Z" fill="#136C50"/>
<path d="M224.957 41.7637C235.936 49.4956 249.55 54.7644 262.98 50.7982C266.146 49.8723 269.126 48.4033 271.787 46.4569C256.864 40.7995 240.708 39.1804 224.957 41.7637Z" fill="#136C50"/>
<path d="M277.679 37.1475C281.725 40.4309 286.252 43.0245 291.244 44.5066L292 38.795L277.679 37.1475Z" fill="#136C50"/>
<path d="M230.599 70.2752C233.817 73.1811 238.165 69.2638 236.879 65.9734C236.651 65.4071 236.292 64.9025 235.831 64.5007C235.789 64.461 235.747 64.4261 235.705 64.3911C231.988 61.2662 226.915 66.9428 230.599 70.2752Z" fill="#F49407"/>
<path d="M232.756 55.3612C229.874 52.7582 226.084 55.6315 226.254 58.6236C226.287 59.1057 226.417 59.5764 226.635 60.0079C226.853 60.4393 227.155 60.8228 227.524 61.1357C229.839 63.2329 232.737 61.7835 233.703 59.586C233.868 59.2163 233.973 58.8232 234.016 58.4209C234.086 57.7633 233.961 57.0996 233.656 56.5123C233.428 56.0773 233.123 55.6872 232.756 55.3612Z" fill="#F49407"/>
<path d="M252.92 88.1883C256.64 91.5486 261.878 85.7788 258.149 82.4115C258.047 82.3183 257.942 82.2344 257.837 82.1551C257.309 81.7429 256.676 81.4862 256.009 81.4141C252.806 81.0902 249.877 85.4385 252.92 88.1883Z" fill="#F49407"/>
<path d="M237.603 72.8569C236.613 77.7692 244.258 79.3095 245.247 74.3903C245.419 73.6313 245.349 72.8377 245.047 72.1205C244.772 71.5057 244.33 70.9807 243.77 70.6058C241.703 69.189 238.247 69.6551 237.603 72.8569Z" fill="#F49407"/>
<path d="M246.626 75.7911C243.546 79.7527 249.695 84.5344 252.782 80.5729C254.241 78.7087 253.632 76.644 252.257 75.4136C251.758 74.964 251.163 74.6347 250.516 74.4512C249.2 74.083 247.721 74.386 246.626 75.7911Z" fill="#F49407"/>
<path d="M264.228 185.721C264.902 192.85 266.782 199.813 269.787 206.314L270.291 202.527C268.095 197.015 266.702 191.216 266.156 185.309C265.564 185.623 264.897 185.765 264.228 185.721Z" fill="#136C50"/>
<path d="M263.708 219.091C260.74 221.684 257.449 223.81 254.108 225.865C254.154 224.212 254.083 222.558 253.895 220.915C256.11 218.184 257.794 215.065 258.863 211.718C262.712 199.833 259.185 187.613 253.069 177.189C252.366 175.996 251.633 174.826 250.871 173.68C248.65 189.376 249.522 205.353 253.438 220.715C253.744 221.915 251.889 222.423 251.571 221.225C247.49 205.207 246.662 188.534 249.135 172.191C249.055 172.203 248.977 172.224 248.902 172.254C248.764 172.31 248.631 172.37 248.493 172.429C244.447 174.205 240.999 177.107 238.559 180.787C234.214 187.282 233.425 195.557 235.736 202.944C235.925 203.545 236.137 204.137 236.363 204.722C239.229 212.142 245.033 218.124 252.029 221.873C252.188 223.61 252.206 225.356 252.082 227.095C250.74 227.913 249.408 228.727 248.085 229.579L249.088 229.775L250.873 230.12C251.991 229.421 253.118 228.745 254.243 228.062C258.324 226.268 262.772 225.839 267.206 225.706L267.465 223.758C265.568 223.803 263.671 223.891 261.783 224.113C261.204 224.18 260.63 224.262 260.056 224.346C261.562 223.323 263.014 222.223 264.406 221.05C265.774 219.882 267.08 218.643 268.317 217.336L268.769 213.92C267.213 215.766 265.521 217.494 263.708 219.091Z" fill="#136C50"/>
<path d="M230.441 251.671C230.506 251.631 230.574 251.596 230.641 251.557H230.478C230.466 251.594 230.452 251.634 230.441 251.671Z" fill="#136C50"/>
<path d="M211.105 222.405L222.584 224.632C220.878 214.244 221.111 203.631 223.27 193.327C219.603 195.13 216.481 197.872 214.223 201.273C214.106 201.451 213.989 201.635 213.887 201.814C210.039 207.924 209.229 215.488 211.105 222.405Z" fill="#136C50"/>
<path d="M232.058 204.163C230.306 200.243 228.185 196.498 225.725 192.977C225.635 192.851 225.506 192.757 225.358 192.709C222.996 203.324 222.738 214.297 224.6 225.01L229.687 225.998L235.715 227.163C236.945 219.317 235.271 211.445 232.058 204.163Z" fill="#136C50"/>
<path d="M264.903 177.971C259.932 177.271 258.836 184.989 263.825 185.684C263.962 185.702 264.098 185.714 264.228 185.721C264.897 185.765 265.564 185.623 266.156 185.309C268.989 183.778 268.965 178.537 264.903 177.971Z" fill="#F49407"/>
<path d="M269.299 184.192C269.159 186.371 270.557 187.687 272.205 188.084L273.187 180.685C271.32 180.664 269.456 181.794 269.299 184.192Z" fill="#F49407"/>
<path d="M249.562 172.193C249.428 172.17 249.29 172.17 249.156 172.193C246.683 188.536 247.51 205.207 251.59 221.225C251.895 222.423 253.751 221.924 253.457 220.715C249.54 205.353 248.668 189.376 250.89 173.68C250.625 173.284 250.359 172.891 250.092 172.501C250.028 172.417 249.949 172.346 249.858 172.294C249.767 172.241 249.666 172.207 249.562 172.193Z" fill="#151F2D"/>
<path d="M222.584 224.633L223.337 224.777L224.367 224.977L224.6 225.022C222.738 214.309 222.996 203.335 225.358 192.721C225.312 192.703 225.265 192.69 225.216 192.682C224.998 192.641 224.772 192.662 224.565 192.742C224.427 192.798 224.294 192.859 224.157 192.917C223.858 193.048 223.561 193.185 223.27 193.327C221.111 203.631 220.878 214.244 222.584 224.633Z" fill="#151F2D"/>
<path d="M223.648 40.5192C223.66 40.6206 223.693 40.7185 223.743 40.8072C223.794 40.896 223.861 40.974 223.942 41.0366C224.278 41.282 224.616 41.5244 224.957 41.7636C240.708 39.1804 256.864 40.7994 271.787 46.4568C271.929 46.5225 272.089 46.5431 272.243 46.5161C272.398 46.489 272.541 46.4155 272.653 46.3054C272.772 46.1826 272.86 46.0324 272.908 45.8678C272.956 45.7033 272.963 45.5295 272.928 45.3618C272.893 45.194 272.817 45.0374 272.707 44.9057C272.597 44.774 272.457 44.6713 272.298 44.6066C256.79 38.7503 239.989 37.1734 223.66 40.0415C223.623 40.1982 223.619 40.3609 223.648 40.5192Z" fill="#151F2D"/>
<path d="M262.833 101.86L262.931 101.888C263.076 101.919 263.22 101.944 263.367 101.972C263.556 102.009 263.745 102.04 263.937 102.07C275.404 90.6143 283.641 76.3388 287.814 60.6861C288.131 59.4906 286.276 58.9803 285.947 60.1757C281.808 75.7152 273.579 89.8651 262.114 101.157C262.149 101.316 262.23 101.461 262.348 101.574C262.485 101.705 262.651 101.803 262.833 101.86Z" fill="#151F2D"/>
<path d="M224.686 76.8489C223.732 77.0284 223.179 77.3802 222.18 77.061C221.675 76.9018 221.218 76.6185 220.851 76.237C220.484 75.8555 220.219 75.388 220.08 74.8775C219.83 74.0269 218.402 73.9011 218.227 74.8775C217.961 76.3526 216.342 76.9421 215.025 76.3502C213.751 75.7816 213.047 74.3718 212.617 73.1298C212.326 72.2839 210.984 72.151 210.75 73.1298C210.144 75.6931 206.867 75.3529 206.583 73.1927C206.659 72.8132 206.685 72.4254 206.66 72.0392C206.592 71.0185 205.012 70.6643 204.772 71.7828C204.703 72.1304 204.674 72.4845 204.685 72.8385C204.31 74.5466 202.452 75.9541 200.718 74.9847C199.23 74.1528 198.826 71.911 199.864 70.5711C200.613 69.6063 199.262 68.2408 198.504 69.2148C196.656 71.5987 197.139 75.4368 200.037 76.8233C202.037 77.781 204.219 76.9724 205.519 75.4251C206.046 76.1672 206.827 76.691 207.714 76.8979C208.427 77.0554 209.17 77.0134 209.86 76.7766C210.551 76.5398 211.162 76.1173 211.628 75.5556C212.475 77.012 213.714 78.2168 215.476 78.4755C216.15 78.5738 216.838 78.5091 217.482 78.2869C218.126 78.0647 218.707 77.6915 219.177 77.1985C219.864 78.0398 220.796 78.6457 221.845 78.9315C222.893 79.2172 224.005 79.1686 225.025 78.7924C230.151 81.4426 235.848 82.8025 241.621 82.7539C242.858 82.7423 242.862 80.8221 241.621 80.8337C237.331 80.8901 233.07 80.1203 229.071 78.5664C227.827 78.0607 226 76.6019 224.686 76.8489Z" fill="#DCBEC3"/>
<path d="M236.081 99.7607C233.925 100.975 232.709 99.5789 231.064 98.2832C230.006 97.402 228.74 96.8045 227.386 96.5472C224.215 95.9856 220.068 97.414 217.338 95.3028C216.37 94.5547 215.004 95.904 215.977 96.6613C218.425 98.5536 221.244 98.3275 224.187 98.2762C225.965 98.2436 227.743 98.3182 229.276 99.3249C230.583 100.185 231.61 101.48 233.11 102.026C234.401 102.492 235.614 102.259 236.786 101.578C237.556 101.138 238.613 100.052 239.567 100.18C240.365 100.292 240.879 101.282 241.507 101.704C244.326 103.601 248.507 100.418 250.876 102.685C251.77 103.54 253.132 102.184 252.236 101.329C249.723 98.9264 246.941 100.819 244.013 100.52C242.26 100.341 241.703 98.6072 240.06 98.3229C238.471 98.0502 237.367 99.0383 236.081 99.7607Z" fill="#DCBEC3"/>
<path d="M215.459 131.76C217.24 131.727 219.018 131.8 220.549 132.809C221.858 133.669 222.882 134.962 224.385 135.509C225.676 135.976 226.889 135.743 228.061 135.062C228.831 134.622 229.888 133.536 230.842 133.664C231.64 133.773 232.154 134.766 232.779 135.186C235.6 137.085 239.78 133.899 242.151 136.169C243.044 137.024 244.407 135.668 243.511 134.81C240.998 132.408 238.216 134.3 235.285 134.002C233.535 133.825 232.977 132.091 231.335 131.807C229.745 131.532 228.642 132.517 227.367 133.242C225.211 134.454 223.995 133.06 222.35 131.762C221.292 130.882 220.026 130.286 218.673 130.029C217.58 129.876 216.475 129.84 215.375 129.921C215.294 130.534 215.21 131.148 215.123 131.765C215.226 131.765 215.343 131.76 215.459 131.76Z" fill="#DCBEC3"/>
<path d="M247.086 122.034C248.274 122.381 248.783 120.528 247.597 120.169C241.836 118.48 236.058 116.849 230.065 116.227C225.697 115.774 220.54 116.275 216.246 114.782C216.281 115.453 216.309 116.124 216.318 116.8C220.022 117.858 224.157 117.662 227.925 117.965C234.504 118.48 240.778 120.183 247.086 122.034Z" fill="#DCBEC3"/>
<path d="M93.9465 65.1624C98.0885 65.1624 99.1293 60.3457 97.0641 57.9385L90.1521 62.6923C90.7215 64.0812 91.9746 65.1624 93.9465 65.1624Z" fill="#DCBEC3"/>
<path d="M107.222 88.6683C112.748 88.6683 112.757 80.0928 107.222 80.0928C101.687 80.0928 101.687 88.6683 107.222 88.6683Z" fill="#DCBEC3"/>
<path d="M118.547 63.8993C124.073 63.8993 124.082 55.3237 118.547 55.3237C113.012 55.3237 113.012 63.8993 118.547 63.8993Z" fill="#DCBEC3"/>
<path d="M175.495 75.6676C176.97 75.6676 178.048 75.0523 178.736 74.1575C177.773 73.07 176.81 71.9826 175.847 70.8951L173.101 67.7935C170.149 69.8395 170.93 75.6676 175.495 75.6676Z" fill="#DCBEC3"/>
<path d="M135.717 87.8128C141.243 87.8128 141.253 79.2373 135.717 79.2373C130.182 79.2373 130.182 87.8128 135.717 87.8128Z" fill="#DCBEC3"/>
<path d="M80.7853 92.4131C78.8367 92.4131 77.5766 93.4827 77.0002 94.8646L83.2542 95.4728L84.813 95.6266C84.4256 93.8905 83.0861 92.4131 80.7853 92.4131Z" fill="#DCBEC3"/>
<path d="M140.587 98.1733C138.58 98.1733 137.304 99.3059 136.756 100.737L144.645 101.522C144.302 99.7393 142.954 98.1733 140.587 98.1733Z" fill="#DCBEC3"/>
<path d="M171.348 98.1736C176.874 98.1736 176.883 89.5957 171.348 89.5957C165.813 89.5957 165.813 98.1736 171.348 98.1736Z" fill="#DCBEC3"/>
<path d="M198.198 101.944C198.759 101.962 199.318 101.862 199.837 101.648C200.357 101.435 200.825 101.114 201.211 100.707C199.622 98.353 197.876 96.0833 196.077 93.8975C192.798 95.764 193.498 101.944 198.198 101.944Z" fill="#DCBEC3"/>
<path d="M125.034 44.8911C129.316 44.8911 130.282 39.7481 127.93 37.4341C126.426 38.1879 124.97 39.0347 123.571 39.9695C122.715 40.5334 121.861 41.1043 121.004 41.6729C121.389 43.402 122.729 44.8911 125.034 44.8911Z" fill="#DCBEC3"/>
<path d="M152.218 69.4501C157.741 69.4501 157.75 60.8745 152.218 60.8745C146.685 60.8745 146.682 69.4501 152.218 69.4501Z" fill="#DCBEC3"/>
<path d="M148.883 44.8912C149.427 44.9081 149.969 44.8134 150.474 44.613C150.98 44.4125 151.439 44.1107 151.823 43.726C149.866 41.6288 147.777 39.6736 145.429 38.1333C143.843 40.6477 144.988 44.8912 148.883 44.8912Z" fill="#DCBEC3"/>
<path d="M68.9169 82.8588C73.3204 82.8588 74.2164 77.4175 71.6005 75.2061C69.3533 76.7044 67.1178 78.2215 64.9172 79.7758C65.3419 81.4606 66.6744 82.8588 68.9169 82.8588Z" fill="#DCBEC3"/>
</g>
<defs>
<clipPath id="clip0">
<rect width="292" height="258" fill="white"/>
</clipPath>
</defs>
</svg>
