<svg width="144" height="144" viewBox="0 0 144 144" fill="none" xmlns="http://www.w3.org/2000/svg">
<path d="M141 72C141 110.08 110.08 141 72 141C33.9198 141 3 110.08 3 72C3 33.9198 33.9198 3 72 3C110.08 3 141 33.9198 141 72Z" fill="#3CDCAA"/>
<path d="M72 0C32.3226 0 0 32.3226 0 72C0 111.726 32.3226 144 72 144C111.726 144 144 111.677 144 72C144 32.3226 111.726 0 72 0ZM72 6.87097C107.903 6.87097 137.129 36.0968 137.129 72C137.129 85.9839 132.726 98.9516 125.177 109.548C111.29 103.5 102.145 89.6613 102.145 74.371V68.2742C111.871 66.629 119.274 58.1613 119.274 48C119.274 36.6774 110.032 27.4355 98.7097 27.4355C97.7419 27.4355 96.7742 27.5323 95.8064 27.629C91.0645 19.3064 82.1613 13.6935 71.9516 13.6935C61.7419 13.6935 52.7903 19.3064 48.0968 27.629C47.129 27.4839 46.2097 27.4355 45.1935 27.4355C33.9194 27.4355 24.6774 36.6774 24.6774 48C24.6774 58.1613 32.129 66.629 41.8064 68.2742V74.371C41.8064 89.6613 32.6613 103.5 18.7742 109.548C11.2742 98.9032 6.82258 85.9839 6.82258 72C6.87097 36.0968 36.0968 6.87097 72 6.87097ZM97.4032 132C91.9839 134.323 86.129 135.919 80.0806 136.645C83.2742 132.726 86.129 128.613 88.6936 124.306C91.3548 127.065 94.2581 129.677 97.4032 132ZM55.3548 124.306C57.871 128.613 60.7742 132.726 63.9677 136.645C57.871 135.871 52.0645 134.323 46.6452 132C49.7419 129.677 52.6935 127.065 55.3548 124.306ZM72 135.532C67.4032 130.355 63.4355 124.79 60.0968 118.839C65.371 112.161 69.3871 104.565 72 96.4355C74.6129 104.565 78.629 112.113 83.9032 118.839C80.6129 124.79 76.5968 130.403 72 135.532ZM98.7581 61.7419C96.2903 61.7419 93.9677 61.0645 91.9839 59.9516C96.5806 55.0161 99.4355 48.4355 99.4355 41.1774C99.4355 38.8064 99.1452 36.5323 98.5645 34.3064C98.6129 34.3064 98.6613 34.3064 98.7581 34.3064C106.306 34.3064 112.452 40.4516 112.452 48C112.452 55.5484 106.306 61.7419 98.7581 61.7419ZM92.5645 41.129C92.5645 46.5484 90.4839 51.4839 87.0484 55.1613C85.7903 53.0806 85.0161 50.6129 85.0161 48C85.0161 42.9194 87.8226 38.4677 91.9355 36.0968C92.371 37.6935 92.5645 39.3871 92.5645 41.129ZM78.1936 48C78.1936 52.2097 79.4516 56.0806 81.629 59.3226C78.7742 60.8226 75.4839 61.6935 72.0484 61.6935C68.5645 61.6935 65.3226 60.8226 62.4677 59.3226C64.6452 56.0806 65.9032 52.1613 65.9032 48C65.9032 40.1129 61.4516 33.2419 54.9194 29.8064C58.5968 24.2419 64.9355 20.5645 72.0968 20.5645C79.2581 20.5645 85.5484 24.2419 89.2742 29.8064C82.6452 33.2419 78.1936 40.1129 78.1936 48ZM58.9839 48C58.9839 50.6129 58.2581 53.0806 56.9516 55.1613C53.5161 51.4839 51.4355 46.5484 51.4355 41.129C51.4355 39.3871 51.6774 37.6935 52.0645 36.0968C56.1774 38.4677 58.9839 42.9194 58.9839 48ZM52.0161 59.9032C50.0323 61.0645 47.7097 61.6935 45.2419 61.6935C37.6935 61.6935 31.5484 55.5484 31.5484 48C31.5484 40.4516 37.6935 34.3064 45.2419 34.3064C45.2903 34.3064 45.3387 34.3064 45.4355 34.3064C44.8548 36.4839 44.5645 38.8064 44.5645 41.1774C44.5645 48.3871 47.4194 55.0161 52.0161 59.9032ZM48.6774 68.2742C51.9677 67.7419 55.0161 66.3871 57.5806 64.4516C60.871 66.4839 64.5968 67.8387 68.5645 68.3226V74.3226C68.5645 88.0645 64.3064 101.081 56.6613 111.919C51.4355 100.258 48.6774 87.4839 48.6774 74.3226V68.2742ZM75.4355 74.371V68.371C79.4516 67.8871 83.1774 66.5323 86.4194 64.5C88.9839 66.4355 92.0323 67.7419 95.3226 68.3226V74.4194C95.3226 87.5806 92.5645 100.306 87.3387 112.016C79.6935 101.177 75.4355 88.1129 75.4355 74.371ZM23.1774 115.113C32.2742 110.71 39.4839 103.403 43.8871 94.5968C45.5806 102.726 48.2419 110.565 51.9194 117.919C48.3387 121.887 44.2258 125.468 39.629 128.516C33.4355 124.984 27.9194 120.435 23.1774 115.113ZM104.371 128.565C99.7742 125.516 95.7097 121.935 92.0806 117.968C95.7097 110.565 98.4193 102.726 100.113 94.6452C104.516 103.452 111.726 110.758 120.823 115.161C116.129 120.435 110.565 124.984 104.371 128.565Z" fill="white"/>
</svg>
