<svg width="214" height="200" viewBox="0 0 214 200" fill="none" xmlns="http://www.w3.org/2000/svg">
<g clip-path="url(#clip0)">
<path d="M137.192 119.98C132.964 117.162 129.039 113.739 125.717 110.116C129.139 103.171 131.656 95.9235 133.166 88.2738C137.292 96.5274 144.036 103.271 152.491 107.398C148.163 112.431 143.03 116.658 137.192 119.98ZM61.3991 107.499C69.854 103.372 76.5979 96.5274 80.7247 88.3744C82.3352 95.9235 84.8515 103.271 88.1731 110.216C84.8515 113.941 81.0267 117.262 76.6985 120.081C70.9612 116.658 65.8279 112.431 61.3991 107.499ZM110.216 69.4514V63.8148C113.941 63.3115 117.464 62.1037 120.483 60.1912C122.899 62.003 125.717 63.2109 128.837 63.7141V69.4514C128.837 81.7313 126.22 93.6085 121.389 104.58C114.142 94.4137 110.216 82.3352 110.216 69.4514ZM85.2541 63.8148C88.3744 63.3115 91.1927 62.003 93.6085 60.2919C96.6281 62.2043 100.151 63.4122 103.875 63.9155V69.4514C103.875 82.3352 99.9497 94.4137 92.8032 104.58C87.7705 93.6085 85.2541 81.7313 85.2541 69.4514V63.8148ZM88.3744 55.9638C86.462 57.071 84.3483 57.6749 82.0332 57.6749C74.9874 57.6749 69.2501 51.9376 69.2501 44.8918C69.2501 37.846 74.9874 32.1087 82.0332 32.1087C82.1339 32.1087 82.1339 32.1087 82.2345 32.1087C81.7312 34.1218 81.4293 36.3362 81.4293 38.5506C81.4293 45.1938 84.0463 51.3337 88.3744 55.9638ZM94.8163 44.7911C94.8163 47.2068 94.1117 49.5219 92.9039 51.4343C89.6829 48.0121 87.7705 43.382 87.7705 38.3493C87.7705 36.7388 87.9718 35.1283 88.3744 33.6185C92.1993 35.9336 94.8163 40.0604 94.8163 44.7911ZM112.733 44.7911C112.733 48.7167 113.941 52.3402 115.954 55.3598C113.236 56.769 110.216 57.5742 106.995 57.5742C103.775 57.5742 100.755 56.769 98.0372 55.3598C100.05 52.3402 101.258 48.7167 101.258 44.7911C101.258 37.4434 97.1314 31.0015 90.9914 27.7806C94.4137 22.5466 100.352 19.1243 106.995 19.1243C113.639 19.1243 119.577 22.5466 122.999 27.7806C116.96 31.1022 112.733 37.4434 112.733 44.7911ZM126.22 38.4499C126.22 43.4826 124.308 48.1127 121.087 51.535C119.879 49.6226 119.175 47.3075 119.175 44.8918C119.175 40.161 121.792 36.0342 125.617 33.8198C126.019 35.229 126.22 36.8395 126.22 38.4499ZM131.958 57.6749C129.643 57.6749 127.529 57.071 125.617 55.9638C129.945 51.3337 132.562 45.1938 132.562 38.4499C132.562 36.2355 132.26 34.1218 131.756 32.0081C131.857 32.0081 131.857 32.0081 131.958 32.0081C139.004 32.0081 144.741 37.7453 144.741 44.7911C144.741 51.9376 139.004 57.6749 131.958 57.6749ZM106.995 126.522C102.667 121.691 98.9431 116.457 95.9235 110.921C100.856 104.68 104.58 97.6346 106.995 89.9849C109.411 97.534 113.135 104.68 118.067 110.921C115.048 116.558 111.324 121.792 106.995 126.522ZM91.3941 116.054C93.7091 120.081 96.4268 123.905 99.4464 127.63C93.8098 126.925 88.3744 125.415 83.2411 123.301C86.2607 121.087 88.9784 118.671 91.3941 116.054ZM130.75 123.301C125.717 125.415 120.282 126.925 114.545 127.63C117.564 124.006 120.181 120.081 122.597 116.054C125.013 118.671 127.73 121.087 130.75 123.301ZM106.995 6.44187C140.513 6.44187 167.791 33.7192 167.791 67.237C167.791 80.3221 163.664 92.4006 156.618 102.365C143.734 96.6281 135.179 83.7443 135.179 69.4514V63.8148C144.238 62.305 151.183 54.3533 151.183 44.8918C151.183 34.3231 142.526 25.6668 131.958 25.6668C131.052 25.6668 130.146 25.7675 129.24 25.8681C124.811 18.1178 116.457 12.8837 106.995 12.8837C97.4333 12.8837 89.079 18.1178 84.7509 25.8681C83.845 25.7675 82.9391 25.6668 82.0332 25.6668C71.4645 25.5662 62.8082 34.2224 62.8082 44.7911C62.8082 54.2526 69.7534 62.2043 78.8123 63.7141V69.4514C78.8123 83.7443 70.2567 96.6281 57.2723 102.365C50.2265 92.4006 46.0996 80.3221 46.0996 67.237C46.2003 33.7192 73.4776 6.44187 106.995 6.44187ZM106.995 0C69.9547 0 39.7584 30.1963 39.7584 67.237C39.7584 104.278 69.9547 134.474 106.995 134.474C144.036 134.474 174.233 104.278 174.233 67.237C174.233 30.1963 144.036 0 106.995 0Z" fill="black"/>
<path d="M17.3125 193.457C22.6472 193.457 26.774 189.834 26.774 183.493C26.774 177.252 22.8485 173.025 17.0106 173.025C11.1726 173.025 7.85103 177.655 7.85103 183.191C7.85103 188.928 11.4746 193.457 17.3125 193.457ZM34.4238 153.598V199.295H26.6734V194.464C24.3583 197.987 20.3322 200 15.7021 200C6.24056 200 0 192.552 0 183.191C0 174.132 5.83795 166.583 15.7021 166.583C20.0302 166.583 23.9557 168.395 26.6734 172.018V153.498H34.4238V153.598Z" fill="black"/>
<path d="M65.1233 176.648C69.2501 176.648 71.9678 173.629 71.9678 169.2C71.9678 164.872 69.2501 161.751 65.1233 161.751H55.3598V176.648H65.1233ZM70.2567 182.587C71.0619 187.318 73.3769 192.954 78.1077 192.954C80.0201 192.954 81.7313 192.149 82.9391 191.042L85.7574 196.578C83.2411 198.792 80.6241 200 76.8998 200C66.4318 200 63.2109 188.123 62.8083 183.09H55.3598V199.295H47.3075V155.008H66.4318C75.1887 155.008 80.2214 161.651 80.2214 169.2C80.2214 175.742 76.4972 181.077 70.2567 182.587Z" fill="black"/>
<path d="M122.798 199.295H115.048V193.961C113.035 198.088 109.311 200 104.781 200C96.8294 200 92.9039 194.263 92.9039 185.003V167.287H100.654V184.902C100.654 190.136 102.667 193.155 106.895 193.155C110.518 193.155 115.149 190.136 115.149 181.178V167.287H122.899V199.295H122.798Z" fill="black"/>
<path d="M142.426 174.434C143.533 168.999 147.76 166.683 151.183 166.683C152.29 166.683 152.894 166.885 153.8 167.086V174.736C152.592 174.333 151.183 174.132 150.176 174.132C147.358 174.132 142.627 175.742 142.627 184.6V199.295H134.877V167.287H142.526V174.434H142.426Z" fill="black"/>
<path d="M176.95 193.457C182.285 193.457 186.512 189.834 186.512 183.493C186.512 177.252 182.486 173.025 176.749 173.025C170.911 173.025 167.489 177.655 167.489 183.191C167.489 188.928 171.112 193.457 176.95 193.457ZM194.061 167.287V199.295H186.311V194.464C183.996 197.987 180.07 200 175.34 200C165.878 200 159.638 192.552 159.638 183.191C159.638 174.132 165.576 166.583 175.34 166.583C179.668 166.583 183.593 168.395 186.21 172.018V167.287H194.061Z" fill="black"/>
<path d="M213.991 153.598H206.241V199.295H213.991V153.598Z" fill="black"/>
</g>
<defs>
<clipPath id="clip0">
<rect width="213.991" height="200" fill="white"/>
</clipPath>
</defs>
</svg>
