<svg width="300" height="108" viewBox="0 0 300 108" fill="none" xmlns="http://www.w3.org/2000/svg">
<g clip-path="url(#clip0)">
<path d="M246.417 0C216.853 0 192.834 24.0547 192.834 53.583C192.834 83.1473 216.889 107.166 246.417 107.166C275.981 107.166 300 83.1113 300 53.583C300 24.0547 275.981 0 246.417 0ZM246.417 5.11343C273.136 5.11343 294.887 26.8635 294.887 53.583C294.887 63.9899 291.61 73.6406 285.992 81.5268C275.657 77.0256 268.851 66.7267 268.851 55.3475V50.8102C276.089 49.5859 281.599 43.2841 281.599 35.722C281.599 27.2956 274.721 20.4177 266.295 20.4177C265.574 20.4177 264.854 20.4897 264.134 20.5618C260.605 14.368 253.979 10.1909 246.381 10.1909C238.783 10.1909 232.121 14.368 228.628 20.5618C227.908 20.4537 227.224 20.4177 226.467 20.4177C218.041 20.4177 211.163 27.2956 211.163 35.722C211.163 43.2841 216.709 49.5859 223.911 50.8102V55.3475C223.911 66.7267 217.105 77.0256 206.77 81.5268C201.188 73.6046 197.875 63.9899 197.875 53.583C197.947 26.8635 219.698 5.11343 246.417 5.11343ZM265.322 98.2355C261.289 99.964 256.932 101.152 252.431 101.692C254.807 98.7757 256.932 95.7148 258.84 92.5099C260.821 94.5625 262.982 96.507 265.322 98.2355ZM234.03 92.5099C235.902 95.7148 238.063 98.7757 240.439 101.692C235.902 101.116 231.581 99.964 227.548 98.2355C229.852 96.507 232.013 94.5625 234.03 92.5099ZM246.417 100.864C242.996 97.0112 240.043 92.87 237.559 88.4408C241.484 83.4714 244.472 77.8178 246.417 71.7681C248.362 77.8178 251.35 83.4354 255.275 88.4408C252.791 92.87 249.838 97.0472 246.417 100.864ZM266.331 45.9489C264.494 45.9489 262.766 45.4447 261.289 44.6165C264.71 40.9435 266.835 36.0101 266.835 30.6086C266.835 28.8441 266.619 27.1516 266.187 25.4951C266.223 25.4951 266.259 25.4951 266.331 25.4951C271.948 25.4951 276.521 30.0684 276.521 35.686C276.521 41.3036 271.948 45.9489 266.331 45.9489ZM261.721 30.6086C261.721 34.6417 260.173 38.3147 257.616 41.0515C256.68 39.5031 256.104 37.6665 256.104 35.722C256.104 31.9409 258.192 28.628 261.253 26.8635C261.577 28.0519 261.721 29.3122 261.721 30.6086ZM251.026 35.722C251.026 38.8549 251.963 41.7357 253.583 44.1484C251.458 45.2647 249.01 45.9129 246.453 45.9129C243.86 45.9129 241.448 45.2647 239.323 44.1484C240.943 41.7357 241.88 38.8189 241.88 35.722C241.88 29.8524 238.567 24.7389 233.705 22.1822C236.442 18.0411 241.16 15.3043 246.489 15.3043C251.819 15.3043 256.5 18.0411 259.273 22.1822C254.339 24.7389 251.026 29.8524 251.026 35.722ZM236.73 35.722C236.73 37.6665 236.19 39.5031 235.218 41.0515C232.661 38.3147 231.113 34.6417 231.113 30.6086C231.113 29.3122 231.293 28.0519 231.581 26.8635C234.642 28.628 236.73 31.9409 236.73 35.722ZM231.545 44.5805C230.068 45.4447 228.34 45.9129 226.503 45.9129C220.886 45.9129 216.313 41.3396 216.313 35.722C216.313 30.1044 220.886 25.5312 226.503 25.5312C226.539 25.5312 226.575 25.5312 226.647 25.5312C226.215 27.1516 225.999 28.8801 225.999 30.6446C225.999 36.0101 228.124 40.9435 231.545 44.5805ZM229.06 50.8102C231.509 50.4141 233.777 49.4058 235.686 47.9654C238.135 49.4779 240.907 50.4861 243.86 50.8462V55.3115C243.86 65.5384 240.691 75.2251 235.002 83.2913C231.113 74.6129 229.06 65.1062 229.06 55.3115V50.8102ZM248.974 55.3475V50.8823C251.963 50.5222 254.735 49.5139 257.148 48.0014C259.057 49.4418 261.325 50.4141 263.774 50.8462V55.3835C263.774 65.1783 261.721 74.6489 257.832 83.3633C252.143 75.2971 248.974 65.5744 248.974 55.3475ZM210.083 85.668C216.853 82.3911 222.218 76.9536 225.495 70.3997C226.755 76.4494 228.736 82.283 231.473 87.7566C228.808 90.7094 225.747 93.3742 222.326 95.6428C217.717 93.0141 213.576 89.6291 210.083 85.668ZM270.508 95.6788C267.087 93.4102 264.062 90.7454 261.361 87.7926C264.062 82.2831 266.079 76.4494 267.339 70.4357C270.616 76.9896 275.981 82.4271 282.751 85.704C279.258 89.6291 275.117 93.0141 270.508 95.6788Z" fill="white"/>
<path d="M27.4397 35.0739V71.5161H21.2099V67.699C19.3374 70.4718 16.1685 72.0922 12.4235 72.0922C4.93338 72.0922 0 66.1506 0 58.6965C0 51.4944 4.68131 45.4808 12.4955 45.4808C15.9165 45.4808 19.0853 46.8852 21.2099 49.802V35.0739H27.4397ZM13.7559 66.9068C18.005 66.9068 21.318 64.026 21.318 58.9845C21.318 54.0512 18.1851 50.6662 13.5398 50.6662C8.85848 50.6662 6.22974 54.3392 6.22974 58.7325C6.26575 63.2697 9.11055 66.9068 13.7559 66.9068Z" fill="white"/>
<path d="M55.9958 58.2284C56.6079 62.0094 58.5165 66.5107 62.2615 66.5107C63.7739 66.5107 65.1783 65.8625 66.1506 64.9622L68.4192 69.3915C66.4027 71.156 64.3501 72.1283 61.3613 72.1283C53.0429 72.1283 50.4862 62.6576 50.1261 58.6245H44.1845V71.5881H37.7386V36.2982H52.9349C59.9569 36.2982 63.918 41.5917 63.918 47.6414C63.918 52.7188 60.9652 56.968 55.9958 58.2284ZM51.9266 53.439C55.2395 53.439 57.3641 51.0263 57.3641 47.5334C57.3641 44.1124 55.2035 41.5917 51.9266 41.5917H44.1484V53.439H51.9266Z" fill="white"/>
<path d="M97.8394 71.552H91.6457V67.2668C90.0252 70.5798 87.0724 72.0922 83.4354 72.0922C77.0976 72.0922 73.9647 67.5189 73.9647 60.1368V46.0209H80.1585V60.1008C80.1585 64.242 81.7789 66.6547 85.0918 66.6547C87.9726 66.6547 91.6457 64.278 91.6457 57.076V46.0209H97.8394V71.552Z" fill="white"/>
<path d="M113.54 51.6744C114.404 47.3532 117.789 45.4807 120.49 45.4807C121.354 45.4807 121.858 45.6248 122.614 45.8408V51.9265C121.642 51.5664 120.49 51.4224 119.698 51.4224C117.429 51.4224 113.648 52.6827 113.648 59.7407V71.552H107.454V46.0569H113.54V51.6744Z" fill="white"/>
<path d="M154.663 46.0209V71.516H148.47V67.6989C146.669 70.4717 143.464 72.0922 139.755 72.0922C132.193 72.0922 127.26 66.1505 127.26 58.6964C127.26 51.4944 132.013 45.4807 139.827 45.4807C143.248 45.4807 146.417 46.8851 148.506 49.8019V46.0209H154.663ZM141.016 66.9067C145.265 66.9067 148.614 64.0259 148.614 58.9845C148.614 54.0511 145.445 50.6662 140.835 50.6662C136.154 50.6662 133.489 54.3392 133.489 58.7324C133.489 63.2697 136.37 66.9067 141.016 66.9067Z" fill="white"/>
<path d="M164.35 71.5521V35.0739H170.544V71.5161H164.35V71.5521Z" fill="white"/>
</g>
<defs>
<clipPath id="clip0">
<rect width="300" height="107.166" fill="white"/>
</clipPath>
</defs>
</svg>
